<svg width="476" height="492" viewBox="0 0 476 492" fill="none" xmlns="http://www.w3.org/2000/svg">
<path d="M439.433 98.1046C442.073 96.9388 444.313 95.0248 445.876 92.5992C447.439 90.1737 448.257 87.3431 448.228 84.4577C448.228 76.3073 442.087 69.6782 434.448 69.6449C426.808 69.6115 420.59 76.1852 420.556 84.3356C420.502 87.2447 421.311 90.1047 422.88 92.5551C424.449 95.0055 426.708 96.9365 429.373 98.1046C408.087 101.314 409.053 124.455 409.053 124.455L459.387 124.688C459.387 124.688 460.542 101.292 439.433 98.1046Z" fill="#F5F5F5"/>
<path d="M142.01 11.6371L109.109 0L76.5293 11.4816C72.3764 13.4137 68.7564 14.5686 68.7564 18.3884V37.3875C68.7156 50.7313 72.4371 63.8163 79.4941 75.1414C86.5969 86.6847 97.0577 95.7818 109.475 101.214C122.8 96.9498 132.727 85.6014 138.812 75.8853C145.861 64.5571 149.578 51.4735 149.539 38.1314V21.0422C149.494 15.6012 146.563 12.9474 142.01 11.6371Z" fill="#F5F5F5"/>
<path d="M120.002 42.3066C120.01 40.6111 119.544 38.9471 118.657 37.5019C117.77 36.0568 116.498 34.888 114.983 34.1272C113.467 33.3663 111.77 33.0437 110.081 33.1955C108.392 33.3474 106.78 33.9677 105.424 34.9867C104.069 36.0057 103.026 37.3828 102.411 38.9629C101.796 40.5431 101.635 42.2635 101.945 43.9304C102.255 45.5972 103.025 47.1444 104.167 48.3976C105.309 49.6507 106.778 50.5601 108.409 51.0233V64.648H113.384V51.0233C115.286 50.489 116.961 49.3486 118.155 47.7753C119.35 46.202 119.998 44.2819 120.002 42.3066Z" fill="#EBEBEB"/>
<path d="M421.745 187.715L427.352 190.757L424.831 194.977L419.168 191.645L419.279 197.875H414.438V191.59L408.83 194.943L406.354 190.724L411.962 187.681L406.354 184.594L408.83 180.375L414.482 183.839V177.554H419.324L419.213 183.839L424.876 180.441L427.396 184.661L421.745 187.715Z" fill="#E0E0E0"/>
<path d="M445.108 187.715L450.715 190.757L448.194 194.977L442.531 191.645L442.642 197.875H437.801L437.857 191.59L432.193 194.988L429.717 190.768L435.325 187.726L429.717 184.639L432.193 180.419L437.857 183.817L437.801 177.532H442.642L442.531 183.817L448.194 180.419L450.715 184.639L445.108 187.715Z" fill="#E0E0E0"/>
<path d="M468.47 187.715L474.089 190.757L471.568 194.977L465.905 191.645L466.005 197.875H461.164L461.219 191.59L455.556 194.988L453.08 190.768L458.699 187.726L453.125 184.628L455.601 180.408L461.264 183.806L461.208 177.521H466.05L465.95 183.806L471.613 180.408L474.133 184.628L468.47 187.715Z" fill="#E0E0E0"/>
<path d="M230.754 453.513V488.003H281.189H336.82V453.513H230.754Z" fill="#F5F5F5"/>
<path d="M226.301 443.864V453.513H340.529V443.864H281.189H226.301Z" fill="#EBEBEB"/>
<path d="M283.41 488.003H336.82V453.513H340.529V443.864H281.189V452.614L283.41 488.003Z" fill="#EBEBEB"/>
<path d="M267.098 459.065H245.589V464.262H267.098V459.065Z" fill="#E0E0E0"/>
<path d="M270.44 470.758H242.813V481.718H270.44V470.758Z" fill="white"/>
<path d="M247.066 409.419V443.908H297.512H353.143V409.419H247.066Z" fill="#F5F5F5"/>
<path d="M242.613 399.769V409.419H356.852V399.769H297.512H242.613Z" fill="#EBEBEB"/>
<path d="M299.733 443.908H353.143V409.419H356.852V399.769H297.512V408.531L299.733 443.908Z" fill="#EBEBEB"/>
<path d="M283.41 414.982H261.901V420.179H283.41V414.982Z" fill="#E0E0E0"/>
<path d="M286.763 426.664H259.136V437.623H286.763V426.664Z" fill="white"/>
<path d="M475.411 488.269C475.411 488.425 368.978 488.558 237.716 488.558C106.455 488.558 0 488.425 0 488.269C0 488.114 106.41 487.98 237.716 487.98C369.022 487.98 475.411 488.091 475.411 488.269Z" fill="#263238"/>
<path d="M402.923 240.159H237.45C233.537 240.159 230.365 243.331 230.365 247.244V332.901C230.365 336.813 233.537 339.985 237.45 339.985H402.923C406.836 339.985 410.007 336.813 410.007 332.901V247.244C410.007 243.331 406.836 240.159 402.923 240.159Z" fill="white"/>
<path d="M402.934 339.985C402.934 339.985 403.412 339.985 404.322 339.818C405.672 339.526 406.91 338.852 407.887 337.875C408.599 337.157 409.148 336.293 409.497 335.343C409.696 334.795 409.83 334.225 409.896 333.645C409.896 333.045 409.896 332.401 409.896 331.735C409.896 329.07 409.896 325.994 409.896 322.54C409.896 308.694 409.841 288.684 409.808 263.955C409.808 260.857 409.808 257.693 409.808 254.461V249.553C409.808 247.899 409.974 246.222 409.297 244.69C408.829 243.529 408.054 242.519 407.054 241.767C406.054 241.016 404.867 240.552 403.623 240.426C402.801 240.37 401.89 240.426 401.024 240.426H390.309H343.871H237.472C236.339 240.424 235.223 240.705 234.226 241.244C233.229 241.783 232.383 242.563 231.765 243.513C231.135 244.454 230.753 245.538 230.654 246.666C230.599 247.777 230.654 248.998 230.654 250.153V291.216C230.654 300.099 230.654 308.834 230.654 317.421V330.125C230.654 331.168 230.654 332.223 230.654 333.245C230.705 334.244 230.97 335.221 231.431 336.11C231.905 336.982 232.56 337.742 233.354 338.337C234.147 338.933 235.059 339.351 236.029 339.563C237.016 339.722 238.017 339.774 239.016 339.719H282.399H322.863L381.448 339.807L397.371 339.863L381.448 339.918L322.863 340.007H282.399H239.016C237.98 340.061 236.941 340.005 235.918 339.841C234.871 339.615 233.886 339.164 233.031 338.52C232.176 337.876 231.471 337.053 230.965 336.11C230.455 335.157 230.163 334.102 230.11 333.023C230.11 331.912 230.11 330.935 230.11 329.88C230.11 325.694 230.11 321.452 230.11 317.177V291.216C230.11 282.333 230.11 273.283 230.11 264.066V250.186C230.11 249.009 230.11 247.877 230.11 246.655C230.193 245.441 230.574 244.266 231.221 243.235C231.895 242.209 232.81 241.363 233.885 240.77C234.973 240.191 236.184 239.883 237.417 239.871H343.816H390.253H400.969C401.857 239.871 402.701 239.871 403.611 239.871C404.502 239.964 405.368 240.22 406.165 240.626C407.75 241.429 408.992 242.778 409.663 244.423C409.988 245.228 410.161 246.087 410.174 246.955C410.174 247.788 410.174 248.621 410.174 249.453V254.361C410.174 257.589 410.174 260.754 410.174 263.855C410.174 288.584 410.096 308.594 410.074 322.441C410.074 325.894 410.074 328.97 410.074 331.635C410.074 332.301 410.074 332.934 410.074 333.556C410.003 334.148 409.861 334.73 409.652 335.288C409.294 336.253 408.729 337.129 407.998 337.853C406.998 338.836 405.731 339.504 404.355 339.774C404.011 339.838 403.662 339.876 403.312 339.885L402.934 339.985Z" fill="#263238"/>
<path d="M292.959 275.437V276.681H287.762V270.018H292.826V271.262H289.306V272.672H292.415V273.882H289.306V275.437H292.959Z" fill="#263238"/>
<path d="M300.354 269.974V276.636H299.077L295.746 272.561V276.636H294.214V269.974H295.446L298.778 274.049V269.974H300.354Z" fill="#263238"/>
<path d="M303.342 271.24H301.188V269.974H307.039V271.24H304.885V276.681H303.342V271.24Z" fill="#263238"/>
<path d="M313.069 275.437V276.681H307.872V270.018H312.947V271.262H309.416V272.672H312.536V273.882H309.416V275.437H313.069Z" fill="#263238"/>
<path d="M318.587 276.681L317.288 274.815H315.867V276.681H314.323V270.018H317.233C319.021 270.018 320.142 270.94 320.142 272.45C320.155 272.902 320.031 273.347 319.785 273.725C319.539 274.104 319.183 274.399 318.765 274.571L320.264 276.725L318.587 276.681ZM317.133 271.24H315.867V273.571H317.133C318.077 273.571 318.554 273.138 318.554 272.406C318.554 271.673 318.077 271.24 317.133 271.24Z" fill="#263238"/>
<path d="M323.651 273.327C323.694 272.604 323.95 271.909 324.385 271.329C324.82 270.749 325.416 270.31 326.099 270.066C326.781 269.823 327.521 269.785 328.225 269.958C328.928 270.131 329.566 270.507 330.058 271.04L329.059 271.961C328.851 271.716 328.593 271.518 328.301 271.382C328.01 271.246 327.692 271.174 327.371 271.173C326.828 271.212 326.319 271.455 325.948 271.854C325.577 272.253 325.371 272.777 325.371 273.322C325.371 273.866 325.577 274.391 325.948 274.789C326.319 275.188 326.828 275.431 327.371 275.47C327.693 275.475 328.013 275.407 328.305 275.27C328.598 275.134 328.855 274.932 329.059 274.682L330.058 275.604C329.569 276.141 328.932 276.521 328.228 276.698C327.523 276.874 326.782 276.839 326.098 276.596C325.413 276.353 324.816 275.913 324.38 275.331C323.945 274.75 323.691 274.052 323.651 273.327Z" fill="#263238"/>
<path d="M330.546 273.327C330.506 272.593 330.688 271.863 331.067 271.232C331.446 270.602 332.006 270.1 332.674 269.791C333.342 269.482 334.087 269.381 334.813 269.501C335.539 269.62 336.212 269.954 336.746 270.461C337.28 270.967 337.649 271.622 337.807 272.34C337.964 273.059 337.902 273.808 337.629 274.491C337.356 275.175 336.885 275.76 336.275 276.172C335.666 276.584 334.947 276.804 334.211 276.803C333.738 276.83 333.265 276.76 332.821 276.598C332.377 276.435 331.97 276.183 331.627 275.858C331.283 275.532 331.01 275.139 330.825 274.704C330.639 274.269 330.544 273.8 330.546 273.327ZM336.309 273.327C336.301 272.914 336.17 272.513 335.934 272.174C335.699 271.834 335.368 271.572 334.984 271.42C334.599 271.268 334.179 271.233 333.775 271.319C333.371 271.405 333.001 271.608 332.712 271.903C332.423 272.198 332.227 272.572 332.15 272.978C332.072 273.384 332.116 273.804 332.277 274.185C332.437 274.566 332.706 274.891 333.05 275.119C333.394 275.348 333.798 275.47 334.211 275.47C334.492 275.477 334.771 275.425 335.032 275.319C335.292 275.213 335.528 275.055 335.725 274.854C335.922 274.653 336.075 274.414 336.176 274.151C336.276 273.889 336.322 273.608 336.309 273.327Z" fill="#263238"/>
<path d="M339.063 269.974H342.084C342.967 269.974 343.815 270.325 344.439 270.949C345.064 271.574 345.415 272.421 345.415 273.305C345.415 274.188 345.064 275.036 344.439 275.661C343.815 276.285 342.967 276.636 342.084 276.636H339.041L339.063 269.974ZM342.028 275.404C342.579 275.404 343.107 275.185 343.497 274.795C343.886 274.406 344.105 273.878 344.105 273.327C344.105 272.776 343.886 272.248 343.497 271.859C343.107 271.469 342.579 271.251 342.028 271.251H340.618V275.404H342.028Z" fill="#263238"/>
<path d="M352.177 275.437V276.681H346.98V270.018H352.077V271.262H348.524V272.672H351.644V273.882H348.524V275.437H352.177Z" fill="#263238"/>
<path d="M267.486 287.396H251.174C248.752 287.396 246.788 289.36 246.788 291.782V317.177C246.788 319.6 248.752 321.563 251.174 321.563H267.486C269.909 321.563 271.872 319.6 271.872 317.177V291.782C271.872 289.36 269.909 287.396 267.486 287.396Z" fill="#EBEBEB"/>
<path d="M298.811 287.396H282.499C280.077 287.396 278.113 289.36 278.113 291.782V317.177C278.113 319.6 280.077 321.563 282.499 321.563H298.811C301.233 321.563 303.197 319.6 303.197 317.177V291.782C303.197 289.36 301.233 287.396 298.811 287.396Z" fill="#EBEBEB"/>
<path d="M330.136 287.396H313.824C311.401 287.396 309.438 289.36 309.438 291.782V317.177C309.438 319.6 311.401 321.563 313.824 321.563H330.136C332.558 321.563 334.522 319.6 334.522 317.177V291.782C334.522 289.36 332.558 287.396 330.136 287.396Z" fill="#EBEBEB"/>
<path d="M361.449 287.396H345.137C342.715 287.396 340.751 289.36 340.751 291.782V317.177C340.751 319.6 342.715 321.563 345.137 321.563H361.449C363.872 321.563 365.835 319.6 365.835 317.177V291.782C365.835 289.36 363.872 287.396 361.449 287.396Z" fill="#EBEBEB"/>
<path d="M392.774 287.396H376.462C374.04 287.396 372.076 289.36 372.076 291.782V317.177C372.076 319.6 374.04 321.563 376.462 321.563H392.774C395.196 321.563 397.16 319.6 397.16 317.177V291.782C397.16 289.36 395.196 287.396 392.774 287.396Z" fill="#EBEBEB"/>
<path d="M264.799 307.095C264.799 309.526 262.911 311.114 260.357 311.114C256.849 311.114 254.994 308.594 254.994 304.452C254.994 299.944 257.404 297.612 260.924 297.612C261.978 297.564 263.025 297.802 263.955 298.3L263.555 299.078C262.751 298.636 261.84 298.425 260.924 298.467C257.937 298.467 255.971 300.432 255.971 304.308C255.971 304.842 256.008 305.377 256.082 305.907C256.395 305.048 256.98 304.315 257.747 303.82C258.515 303.325 259.424 303.094 260.335 303.164C263 303.164 264.799 304.718 264.799 307.095ZM263.822 307.095C263.822 305.196 262.456 303.952 260.202 303.952C259.747 303.902 259.286 303.945 258.848 304.081C258.41 304.216 258.005 304.441 257.658 304.74C257.311 305.039 257.03 305.406 256.831 305.819C256.633 306.232 256.521 306.681 256.504 307.139C256.504 308.705 257.815 310.259 260.313 310.259C260.757 310.308 261.205 310.262 261.63 310.125C262.055 309.988 262.445 309.762 262.777 309.464C263.108 309.165 263.373 308.799 263.553 308.391C263.733 307.983 263.825 307.541 263.822 307.095Z" fill="#9C7BEB"/>
<path d="M295.78 307.35H292.981V311.048H292.026V307.35H284.42V306.651L291.66 297.712H292.77L285.664 306.495H292.071V303.242H293.004V306.495H295.802L295.78 307.35Z" fill="#9C7BEB"/>
<path d="M328.081 312.947C324.216 313.332 320.321 313.332 316.455 312.947C320.321 312.562 324.216 312.562 328.081 312.947Z" fill="#9C7BEB"/>
<path d="M241.769 252.851C243.272 252.851 244.49 251.633 244.49 250.131C244.49 248.628 243.272 247.41 241.769 247.41C240.267 247.41 239.049 248.628 239.049 250.131C239.049 251.633 240.267 252.851 241.769 252.851Z" fill="#263238"/>
<path d="M252.329 250.131C252.329 250.669 252.17 251.195 251.871 251.642C251.572 252.09 251.147 252.438 250.65 252.644C250.153 252.85 249.606 252.904 249.078 252.799C248.55 252.694 248.065 252.435 247.685 252.054C247.305 251.674 247.045 251.189 246.94 250.662C246.835 250.134 246.889 249.587 247.095 249.09C247.301 248.593 247.65 248.168 248.097 247.869C248.545 247.57 249.071 247.41 249.609 247.41C250.33 247.41 251.022 247.697 251.532 248.207C252.043 248.717 252.329 249.409 252.329 250.131Z" fill="#263238"/>
<path d="M257.304 252.851C258.806 252.851 260.024 251.633 260.024 250.131C260.024 248.628 258.806 247.41 257.304 247.41C255.801 247.41 254.583 248.628 254.583 250.131C254.583 251.633 255.801 252.851 257.304 252.851Z" fill="#263238"/>
<path d="M410.285 257.793C410.285 257.948 370.055 258.081 320.453 258.081C270.851 258.081 230.621 257.948 230.621 257.793C230.621 257.637 270.829 257.504 320.453 257.504C370.077 257.504 410.285 257.626 410.285 257.793Z" fill="#263238"/>
<path d="M377.295 20.9312H178.931C174.908 20.9312 171.647 24.1925 171.647 28.2155V210.711C171.647 214.734 174.908 217.995 178.931 217.995H377.295C381.318 217.995 384.579 214.734 384.579 210.711V28.2155C384.579 24.1925 381.318 20.9312 377.295 20.9312Z" fill="white"/>
<path d="M377.295 217.995H377.817C378.333 217.953 378.842 217.856 379.338 217.707C380.306 217.41 381.202 216.914 381.967 216.251C382.732 215.587 383.349 214.77 383.78 213.854C384.378 212.478 384.615 210.972 384.468 209.479C384.468 207.824 384.468 206.003 384.468 204.038C384.468 200.107 384.468 195.565 384.468 190.457C384.468 170.026 384.413 140.489 384.368 103.934C384.368 85.6681 384.368 65.6696 384.368 44.1832C384.368 38.8236 384.368 33.3715 384.368 27.8269C384.285 26.4712 383.81 25.1688 383.003 24.0771C382.195 22.9854 381.088 22.1511 379.816 21.6752C378.493 21.2569 377.1 21.1059 375.718 21.231H336.088H178.954C177.286 21.2407 175.676 21.8429 174.412 22.9299C173.106 24.033 172.252 25.5787 172.014 27.2716C171.937 28.1207 171.911 28.9735 171.936 29.8256V98.1935C171.936 124.477 171.936 149.827 171.936 173.979C171.936 186.06 171.936 197.827 171.936 209.279C171.936 209.989 171.936 210.722 171.936 211.4C172 212.082 172.161 212.751 172.413 213.387C172.927 214.662 173.803 215.759 174.934 216.541C176.053 217.322 177.378 217.755 178.743 217.785H199.296H259.047L345.571 217.884H369.089L345.571 217.94L259.047 218.029H199.296H178.732C177.265 217.992 175.84 217.526 174.635 216.69C173.429 215.853 172.495 214.682 171.947 213.321C171.674 212.638 171.499 211.92 171.425 211.189C171.37 210.434 171.425 209.745 171.425 209.023C171.425 197.571 171.425 185.805 171.425 173.723C171.425 149.572 171.425 124.221 171.425 97.9381C171.425 84.7908 171.425 71.4252 171.425 57.8412V29.7701C171.395 28.8918 171.424 28.0126 171.514 27.1384C171.758 25.3324 172.659 23.6799 174.046 22.4969C175.407 21.3067 177.146 20.6378 178.954 20.6092H336.088H375.652C377.095 20.4847 378.549 20.6508 379.927 21.0978C381.288 21.6075 382.473 22.5005 383.338 23.669C384.203 24.8375 384.711 26.2314 384.801 27.6825C384.801 33.2345 384.801 38.6978 384.801 44.0721C384.801 65.5585 384.801 85.557 384.801 103.823C384.801 140.356 384.735 169.915 384.712 190.346C384.712 195.454 384.712 199.996 384.712 203.927C384.712 205.892 384.712 207.713 384.712 209.368C384.854 210.887 384.601 212.416 383.98 213.809C383.422 214.977 382.564 215.974 381.492 216.698C380.42 217.422 379.174 217.847 377.883 217.929L377.295 217.995Z" fill="#263238"/>
<path d="M187.737 34.5892C187.737 35.3188 187.52 36.032 187.115 36.6385C186.709 37.245 186.133 37.7175 185.459 37.9962C184.784 38.2749 184.042 38.3473 183.327 38.2041C182.612 38.061 181.955 37.7088 181.44 37.1921C180.924 36.6754 180.574 36.0175 180.433 35.3016C180.292 34.5858 180.367 33.8442 180.648 33.1707C180.928 32.4973 181.403 31.9223 182.01 31.5186C182.618 31.1148 183.332 30.9005 184.061 30.9027C184.545 30.9027 185.024 30.9981 185.471 31.1835C185.917 31.3689 186.323 31.6406 186.664 31.9831C187.006 32.3256 187.276 32.7321 187.46 33.1793C187.644 33.6265 187.738 34.1056 187.737 34.5892Z" fill="#263238"/>
<path d="M194.788 38.2647C196.818 38.2647 198.463 36.6191 198.463 34.5892C198.463 32.5593 196.818 30.9138 194.788 30.9138C192.758 30.9138 191.113 32.5593 191.113 34.5892C191.113 36.6191 192.758 38.2647 194.788 38.2647Z" fill="#263238"/>
<path d="M205.537 38.2647C207.567 38.2647 209.212 36.6191 209.212 34.5892C209.212 32.5593 207.567 30.9138 205.537 30.9138C203.507 30.9138 201.861 32.5593 201.861 34.5892C201.861 36.6191 203.507 38.2647 205.537 38.2647Z" fill="#263238"/>
<path d="M384.579 45.0382C384.579 45.2048 336.909 45.3269 278.113 45.3269C219.317 45.3269 171.647 45.2048 171.647 45.0382C171.647 44.8716 219.306 44.7495 278.113 44.7495C336.92 44.7495 384.579 44.8716 384.579 45.0382Z" fill="#263238"/>
<path d="M308.194 119.269C308.194 119.269 308.272 119.147 308.449 118.925L308.594 118.736L308.738 118.481C308.861 118.274 308.969 118.059 309.06 117.837C309.06 117.714 309.171 117.581 309.216 117.437L309.349 116.97C309.398 116.799 309.435 116.625 309.46 116.449C309.46 116.26 309.527 116.071 309.538 115.871C309.61 114.948 309.565 114.019 309.404 113.106C308.937 110.609 308.083 108.2 306.873 105.966C305.312 102.985 303.488 100.149 301.421 97.4939C298.933 94.2643 296.22 91.2142 293.303 88.3663C289.964 85.0884 286.398 82.0494 282.632 79.2721C280.645 77.8064 278.546 76.385 276.336 75.0525C274.083 73.6762 271.743 72.4485 269.33 71.3771C266.85 70.245 264.239 69.4244 261.557 68.9342C260.186 68.69 258.785 68.6563 257.404 68.8343C256.71 68.9327 256.034 69.127 255.394 69.4117C254.767 69.7199 254.199 70.1372 253.717 70.6442C253.258 71.176 252.904 71.7902 252.674 72.4542C252.465 73.1236 252.349 73.8186 252.329 74.5195C252.311 75.9133 252.502 77.302 252.896 78.6392C253.692 81.2551 254.811 83.7617 256.227 86.1011C257.562 88.3768 259.045 90.5617 260.669 92.6414C262.245 94.6846 263.9 96.6167 265.577 98.4267C268.766 101.852 272.195 105.047 275.837 107.987C278.997 110.564 282.337 112.913 285.83 115.016C288.705 116.764 291.73 118.25 294.869 119.458C297.229 120.4 299.719 120.976 302.253 121.168C303.176 121.213 304.1 121.15 305.007 120.979C305.207 120.979 305.385 120.879 305.562 120.835C305.736 120.789 305.906 120.734 306.073 120.668L306.517 120.479L306.906 120.279C307.117 120.165 307.318 120.031 307.506 119.88L307.739 119.713L307.916 119.547C308.116 119.347 308.227 119.258 308.227 119.258L307.928 119.558L307.75 119.724L307.528 119.902C307.338 120.055 307.134 120.189 306.917 120.302L306.551 120.546L306.095 120.735C305.933 120.803 305.766 120.859 305.596 120.901C305.41 120.965 305.221 121.017 305.029 121.057C304.117 121.244 303.183 121.311 302.253 121.257C299.713 121.084 297.214 120.518 294.847 119.58C291.696 118.374 288.66 116.887 285.775 115.138C282.282 113.035 278.942 110.686 275.781 108.109C272.129 105.173 268.693 101.978 265.499 98.5488C263.822 96.7388 262.168 94.8067 260.58 92.7636C258.96 90.6732 257.477 88.4812 256.138 86.201C254.72 83.8509 253.601 81.333 252.807 78.7058C252.402 77.3517 252.208 75.9437 252.229 74.5306C252.253 73.8183 252.372 73.1123 252.585 72.432C252.837 71.7437 253.213 71.1076 253.695 70.5554C254.187 70.0277 254.775 69.5982 255.427 69.2895C256.082 68.9976 256.773 68.7959 257.482 68.6899C258.882 68.5118 260.3 68.5455 261.69 68.7898C264.392 69.2842 267.021 70.1122 269.518 71.2549C271.937 72.3277 274.281 73.5592 276.536 74.9415C278.757 76.274 280.856 77.6953 282.843 79.1722C286.615 81.9544 290.181 85.0049 293.514 88.2997C296.438 91.1525 299.154 94.2102 301.643 97.4495C303.704 100.112 305.521 102.955 307.073 105.944C308.28 108.19 309.13 110.61 309.593 113.117C309.748 114.038 309.785 114.974 309.704 115.904C309.687 116.095 309.657 116.284 309.615 116.471C309.598 116.648 309.561 116.823 309.504 116.993L309.371 117.47C309.324 117.607 309.269 117.74 309.205 117.87C309.121 118.098 309.009 118.314 308.871 118.514C308.832 118.604 308.784 118.689 308.727 118.769L308.583 118.958L308.194 119.269Z" fill="#9C7BEB"/>
<path d="M318.266 94.9289V94.5069V94.2737C318.266 94.1849 318.266 94.0961 318.21 93.985C318.172 93.7459 318.108 93.5115 318.021 93.2855C318.021 93.1633 317.933 93.019 317.877 92.8857L317.655 92.4416C317.583 92.2806 317.494 92.1279 317.388 91.9863C317.293 91.8196 317.185 91.66 317.066 91.5088C316.514 90.7665 315.864 90.1018 315.134 89.5323C313.115 87.9816 310.867 86.753 308.472 85.8902C305.325 84.7003 302.077 83.7972 298.767 83.1919C294.738 82.4355 290.659 81.9679 286.563 81.7927C281.887 81.5649 277.201 81.6651 272.539 82.0926C270.085 82.3257 267.575 82.67 265.033 83.1474C262.435 83.6159 259.872 84.2577 257.36 85.0684C254.749 85.8592 252.249 86.9786 249.92 88.3997C248.733 89.1276 247.666 90.034 246.755 91.0869C246.305 91.6208 245.931 92.2151 245.645 92.8524C245.371 93.4998 245.22 94.1928 245.201 94.8956C245.223 95.5969 245.369 96.2888 245.634 96.9387C245.924 97.5738 246.298 98.1675 246.744 98.7043C247.661 99.7579 248.732 100.668 249.92 101.403C252.252 102.817 254.751 103.936 257.36 104.734C259.875 105.534 262.437 106.176 265.033 106.655C267.575 107.132 270.085 107.465 272.539 107.699C277.201 108.135 281.887 108.239 286.563 108.009C290.661 107.846 294.742 107.4 298.778 106.677C302.088 106.072 305.336 105.169 308.483 103.979C310.874 103.107 313.121 101.879 315.145 100.337C315.872 99.7642 316.522 99.0998 317.078 98.36C317.196 98.205 317.304 98.0418 317.4 97.8715C317.505 97.7299 317.594 97.5772 317.666 97.4162L317.888 96.9831C317.944 96.8388 317.988 96.7055 318.032 96.5723C318.121 96.3467 318.184 96.1121 318.221 95.8727C318.221 95.7728 318.221 95.684 318.277 95.5951V95.3619V94.9289C318.277 94.9289 318.277 95.0732 318.277 95.3619V95.5951C318.277 95.684 318.277 95.7728 318.277 95.8838C318.243 96.1227 318.183 96.3572 318.099 96.5834C318.099 96.7166 318.01 96.8499 317.955 96.9942L317.744 97.4384C317.665 97.5995 317.576 97.7553 317.477 97.9048C317.379 98.0698 317.271 98.2292 317.155 98.3823C316.603 99.1318 315.954 99.8041 315.223 100.381C313.207 101.945 310.959 103.185 308.561 104.056C305.411 105.26 302.159 106.174 298.845 106.788C294.811 107.547 290.73 108.022 286.63 108.209C281.951 108.447 277.26 108.35 272.595 107.921C270.129 107.687 267.609 107.354 265.066 106.877C262.464 106.397 259.894 105.755 257.371 104.956C254.75 104.163 252.239 103.044 249.898 101.625C248.696 100.886 247.614 99.9689 246.689 98.9041C246.238 98.3538 245.865 97.7449 245.578 97.0942C245.278 96.4312 245.123 95.712 245.123 94.9844C245.123 94.2568 245.278 93.5376 245.578 92.8746C245.869 92.226 246.242 91.6177 246.689 91.0647C247.624 90.0012 248.713 89.0842 249.92 88.3442C252.267 86.927 254.781 85.808 257.404 85.0129C259.92 84.2034 262.487 83.5617 265.088 83.0919C267.642 82.6144 270.152 82.2813 272.617 82.0481C277.251 81.5973 281.912 81.4748 286.563 81.6817C290.664 81.8671 294.746 82.3458 298.778 83.1141C302.093 83.7226 305.345 84.6332 308.494 85.8346C310.892 86.7064 313.14 87.9464 315.157 89.5101C315.884 90.0898 316.534 90.7617 317.089 91.5088C317.207 91.6638 317.315 91.8271 317.411 91.9974C317.512 92.1454 317.601 92.3014 317.677 92.4638L317.888 92.8968C317.944 93.0412 317.988 93.1855 318.032 93.3077C318.116 93.5377 318.176 93.7759 318.21 94.0183C318.21 94.1183 318.21 94.2182 318.21 94.2959V94.5402C318.266 94.7845 318.266 94.9289 318.266 94.9289Z" fill="#9C7BEB"/>
<path d="M304.918 64.648L304.552 64.4148L304.352 64.2816C304.27 64.2344 304.185 64.1936 304.097 64.1594C303.885 64.0438 303.661 63.9508 303.43 63.8818C303.297 63.8818 303.164 63.7819 303.019 63.7486L302.542 63.6486C302.37 63.6111 302.196 63.5851 302.02 63.5709C301.828 63.5596 301.635 63.5596 301.443 63.5709C300.515 63.5592 299.59 63.6636 298.689 63.8818C296.232 64.5342 293.888 65.5563 291.738 66.9132C288.869 68.6686 286.166 70.6832 283.665 72.9317C280.613 75.636 277.756 78.5526 275.115 81.6595C272.071 85.2137 269.284 88.9801 266.776 92.9301C265.465 95.0066 264.177 97.2274 263 99.4482C261.78 101.789 260.715 104.207 259.813 106.688C258.858 109.247 258.221 111.913 257.915 114.628C257.766 116.013 257.83 117.414 258.103 118.78C258.256 119.465 258.498 120.126 258.825 120.746C259.169 121.358 259.625 121.901 260.169 122.345C260.734 122.756 261.37 123.061 262.045 123.244C262.725 123.409 263.423 123.48 264.122 123.455C265.516 123.378 266.89 123.089 268.197 122.6C270.752 121.631 273.176 120.348 275.415 118.78C277.592 117.289 279.669 115.657 281.633 113.895C283.565 112.174 285.375 110.397 287.063 108.598C290.257 105.179 293.207 101.539 295.891 97.7049C298.244 94.3752 300.359 90.8836 302.22 87.2559C303.772 84.2721 305.05 81.154 306.04 77.9396C306.817 75.5166 307.217 72.9888 307.228 70.4443C307.225 69.521 307.098 68.6023 306.85 67.7127C306.85 67.5129 306.728 67.3352 306.673 67.1575C306.617 66.9799 306.551 66.8244 306.473 66.669L306.262 66.2359C306.184 66.1026 306.095 65.9805 306.029 65.8695C305.903 65.661 305.754 65.4673 305.584 65.292L305.407 65.07L305.229 64.9145L304.918 64.6258L305.24 64.9034L305.418 65.0589C305.486 65.1241 305.549 65.1947 305.607 65.2698C305.774 65.4467 305.923 65.6402 306.051 65.8472C306.129 65.9694 306.217 66.0804 306.295 66.2137L306.506 66.6579C306.592 66.8137 306.662 66.9773 306.717 67.1464C306.773 67.3241 306.85 67.5018 306.895 67.7016C307.151 68.5937 307.286 69.5163 307.295 70.4443C307.299 72.9955 306.905 75.5317 306.129 77.9618C305.143 81.1851 303.872 84.314 302.331 87.3115C300.47 90.9464 298.355 94.4455 296.002 97.7826C293.325 101.628 290.375 105.276 287.174 108.698C285.486 110.508 283.676 112.296 281.733 114.017C279.764 115.782 277.684 117.418 275.503 118.914C273.257 120.493 270.821 121.784 268.253 122.756C266.931 123.25 265.542 123.542 264.133 123.622C263.416 123.646 262.699 123.575 262.001 123.411C261.305 123.215 260.651 122.895 260.069 122.467C259.508 122.011 259.037 121.453 258.681 120.824C258.345 120.19 258.095 119.514 257.937 118.814C257.667 117.431 257.607 116.017 257.759 114.616C258.06 111.886 258.701 109.204 259.669 106.633C260.571 104.148 261.635 101.726 262.856 99.3816C264.044 97.072 265.321 94.8733 266.642 92.7858C269.166 88.8374 271.964 85.0713 275.015 81.5151C277.661 78.4087 280.525 75.4957 283.587 72.7984C286.103 70.5525 288.816 68.5382 291.693 66.78C293.854 65.429 296.21 64.4179 298.678 63.7819C299.582 63.5583 300.511 63.4538 301.443 63.471C301.643 63.471 301.831 63.471 302.02 63.471C302.199 63.4844 302.377 63.5104 302.553 63.5487L303.031 63.6486L303.441 63.793C303.673 63.8653 303.896 63.9621 304.108 64.0817C304.196 64.1159 304.281 64.1567 304.363 64.2038L304.563 64.3482L304.918 64.648Z" fill="#9C7BEB"/>
<path d="M244.756 110.019C244.945 110.209 245.073 110.45 245.125 110.713C245.177 110.976 245.149 111.248 245.047 111.495C244.944 111.742 244.77 111.953 244.548 112.102C244.325 112.25 244.063 112.329 243.796 112.329C243.528 112.329 243.267 112.25 243.044 112.102C242.821 111.953 242.648 111.742 242.545 111.495C242.442 111.248 242.415 110.976 242.467 110.713C242.518 110.45 242.647 110.209 242.835 110.019C242.961 109.893 243.111 109.792 243.276 109.724C243.441 109.655 243.617 109.62 243.796 109.62C243.974 109.62 244.151 109.655 244.316 109.724C244.481 109.792 244.63 109.893 244.756 110.019Z" fill="#9C7BEB"/>
<path d="M321.363 67.9459C321.366 68.2165 321.287 68.4817 321.139 68.7077C320.99 68.9338 320.777 69.1106 320.528 69.2157C320.279 69.3207 320.004 69.3494 319.738 69.2979C319.472 69.2465 319.228 69.1173 319.036 68.9267C318.844 68.7362 318.713 68.4928 318.659 68.2276C318.605 67.9624 318.632 67.6872 318.735 67.437C318.838 67.1867 319.013 66.9728 319.238 66.8222C319.462 66.6716 319.727 66.5912 319.998 66.5912C320.176 66.5898 320.354 66.6237 320.519 66.6911C320.685 66.7586 320.836 66.8581 320.963 66.9841C321.09 67.11 321.19 67.2598 321.259 67.4249C321.328 67.59 321.363 67.7671 321.363 67.9459Z" fill="#9C7BEB"/>
<path d="M253.329 114.483C253.329 114.551 253.309 114.618 253.271 114.674C253.233 114.731 253.179 114.775 253.116 114.801C253.053 114.827 252.984 114.834 252.917 114.821C252.851 114.808 252.789 114.775 252.741 114.727C252.693 114.678 252.66 114.617 252.647 114.55C252.634 114.484 252.641 114.414 252.667 114.351C252.693 114.289 252.737 114.235 252.793 114.197C252.85 114.159 252.917 114.139 252.985 114.139C253.076 114.139 253.163 114.175 253.228 114.24C253.293 114.304 253.329 114.392 253.329 114.483Z" fill="#9C7BEB"/>
<path d="M260.691 76.4406C260.691 76.5086 260.671 76.5752 260.633 76.6318C260.595 76.6884 260.541 76.7325 260.478 76.7586C260.415 76.7846 260.346 76.7915 260.28 76.7782C260.213 76.7649 260.151 76.7321 260.103 76.684C260.055 76.6358 260.022 76.5745 260.009 76.5077C259.996 76.4409 260.003 76.3717 260.029 76.3088C260.055 76.2459 260.099 76.1922 260.155 76.1543C260.212 76.1165 260.279 76.0963 260.347 76.0963C260.438 76.0963 260.525 76.1326 260.59 76.1972C260.655 76.2617 260.691 76.3493 260.691 76.4406Z" fill="#9C7BEB"/>
<path d="M314.534 94.9288C314.534 95.0201 314.498 95.1077 314.434 95.1723C314.369 95.2368 314.281 95.2731 314.19 95.2731C314.099 95.2731 314.011 95.2368 313.947 95.1723C313.882 95.1077 313.846 95.0201 313.846 94.9288C313.846 94.8376 313.882 94.75 313.947 94.6854C314.011 94.6209 314.099 94.5846 314.19 94.5846C314.281 94.5846 314.369 94.6209 314.434 94.6854C314.498 94.75 314.534 94.8376 314.534 94.9288Z" fill="#9C7BEB"/>
<path d="M319.332 78.8501C319.332 78.9414 319.295 79.029 319.231 79.0936C319.166 79.1581 319.079 79.1944 318.987 79.1944C318.896 79.1944 318.808 79.1581 318.744 79.0936C318.679 79.029 318.643 78.9414 318.643 78.8501C318.643 78.7588 318.679 78.6713 318.744 78.6067C318.808 78.5422 318.896 78.5059 318.987 78.5059C319.079 78.5059 319.166 78.5422 319.231 78.6067C319.295 78.6713 319.332 78.7588 319.332 78.8501Z" fill="#9C7BEB"/>
<path d="M296.079 102.513H291.815V79.2943C291.815 76.6644 290.771 74.1423 288.911 72.2827C287.052 70.4231 284.529 69.3783 281.9 69.3783C279.27 69.3783 276.747 70.4231 274.888 72.2827C273.028 74.1423 271.984 76.6644 271.984 79.2943V102.513H267.686V79.2943C267.686 75.5336 269.18 71.9268 271.839 69.2676C274.499 66.6083 278.105 65.1144 281.866 65.1144C285.627 65.1144 289.234 66.6083 291.893 69.2676C294.552 71.9268 296.046 75.5336 296.046 79.2943L296.079 102.513Z" fill="#9C7BEB"/>
<g opacity="0.3">
<path d="M296.079 102.513H291.815V79.2943C291.815 76.6644 290.771 74.1423 288.911 72.2827C287.052 70.4231 284.529 69.3783 281.9 69.3783C279.27 69.3783 276.747 70.4231 274.888 72.2827C273.028 74.1423 271.984 76.6644 271.984 79.2943V102.513H267.686V79.2943C267.686 75.5336 269.18 71.9268 271.839 69.2676C274.499 66.6083 278.105 65.1144 281.866 65.1144C285.627 65.1144 289.234 66.6083 291.893 69.2676C294.552 71.9268 296.046 75.5336 296.046 79.2943L296.079 102.513Z" fill="black"/>
</g>
<path d="M298.511 92.1861H265.288C263.908 92.1861 262.79 93.3047 262.79 94.6846V114.206C262.79 115.585 263.908 116.704 265.288 116.704H298.511C299.891 116.704 301.01 115.585 301.01 114.206V94.6846C301.01 93.3047 299.891 92.1861 298.511 92.1861Z" fill="#9C7BEB"/>
<g opacity="0.3">
<path d="M285.098 101.258C285.102 100.662 284.94 100.076 284.63 99.5674C284.319 99.0584 283.872 98.6464 283.34 98.378C282.808 98.1095 282.211 97.9952 281.617 98.048C281.023 98.1007 280.456 98.3185 279.979 98.6767C279.502 99.0348 279.135 99.5191 278.919 100.075C278.703 100.631 278.647 101.236 278.756 101.822C278.866 102.408 279.138 102.952 279.54 103.392C279.942 103.832 280.46 104.15 281.034 104.312V109.087H282.766V104.312C283.435 104.127 284.025 103.729 284.446 103.178C284.867 102.626 285.096 101.952 285.098 101.258Z" fill="black"/>
</g>
<path d="M264.833 114.383C264.744 114.383 264.666 110.297 264.666 105.256C264.666 100.214 264.744 96.117 264.833 96.117C264.921 96.117 264.988 100.203 264.988 105.256C264.988 110.308 264.91 114.383 264.833 114.383Z" fill="#FAFAFA"/>
<path d="M279.401 105.344C279.401 105.344 279.246 105.345 279.024 105.134C278.709 104.899 278.432 104.618 278.202 104.301C277.797 103.777 277.515 103.17 277.375 102.523C277.235 101.877 277.242 101.207 277.394 100.563C277.546 99.9192 277.84 99.3175 278.255 98.8019C278.669 98.2862 279.194 97.8697 279.79 97.5827C280.138 97.3963 280.512 97.2652 280.9 97.1941C281.043 97.1673 281.19 97.1673 281.333 97.1941C280.843 97.3606 280.364 97.561 279.901 97.7937C279.359 98.0927 278.885 98.5017 278.511 98.9945C278.136 99.4872 277.868 100.053 277.725 100.655C277.582 101.257 277.566 101.883 277.679 102.492C277.792 103.1 278.03 103.679 278.38 104.19C278.689 104.601 279.03 104.988 279.401 105.344Z" fill="#FAFAFA"/>
<path d="M338.642 137.724H220.972C215.256 137.724 210.623 142.357 210.623 148.073V149.339C210.623 155.055 215.256 159.688 220.972 159.688H338.642C344.357 159.688 348.991 155.055 348.991 149.339V148.073C348.991 142.357 344.357 137.724 338.642 137.724Z" fill="#F5F5F5"/>
<path d="M339.652 167.838H221.982C216.266 167.838 211.633 172.472 211.633 178.187V179.453C211.633 185.169 216.266 189.802 221.982 189.802H339.652C345.368 189.802 350.001 185.169 350.001 179.453V178.187C350.001 172.472 345.368 167.838 339.652 167.838Z" fill="#F5F5F5"/>
<path d="M232.487 148.528V145.353H233.808V148.484C233.808 149.594 234.274 150.005 235.074 150.005C235.873 150.005 236.34 149.561 236.34 148.484V145.353H237.639V148.528C237.639 149.212 237.367 149.867 236.884 150.35C236.401 150.833 235.746 151.104 235.063 151.104C234.379 151.104 233.724 150.833 233.241 150.35C232.758 149.867 232.487 149.212 232.487 148.528Z" fill="#263238"/>
<path d="M238.427 150.627L238.838 149.716C239.298 149.99 239.824 150.136 240.359 150.138C240.948 150.138 241.159 149.983 241.159 149.739C241.159 149.028 238.527 149.739 238.527 148.018C238.527 147.185 239.271 146.596 240.548 146.596C241.13 146.587 241.706 146.72 242.225 146.985L241.803 147.884C241.421 147.666 240.988 147.555 240.548 147.562C239.982 147.562 239.738 147.74 239.738 147.962C239.738 148.706 242.369 147.962 242.369 149.705C242.369 150.516 241.625 151.093 240.315 151.093C239.656 151.108 239.004 150.947 238.427 150.627Z" fill="#263238"/>
<path d="M247.41 149.206H244.079C244.147 149.479 244.312 149.718 244.542 149.879C244.773 150.04 245.054 150.113 245.334 150.083C245.538 150.092 245.742 150.059 245.933 149.987C246.124 149.914 246.298 149.803 246.444 149.661L247.122 150.394C246.89 150.633 246.609 150.82 246.299 150.94C245.988 151.061 245.655 151.113 245.323 151.093C245.009 151.133 244.69 151.105 244.387 151.011C244.085 150.917 243.806 150.76 243.57 150.55C243.333 150.34 243.144 150.081 243.016 149.792C242.887 149.502 242.822 149.189 242.824 148.873C242.824 148.571 242.885 148.273 243.003 147.996C243.122 147.719 243.295 147.469 243.513 147.262C243.732 147.054 243.99 146.893 244.272 146.788C244.555 146.683 244.855 146.637 245.156 146.652C245.452 146.644 245.747 146.696 246.023 146.805C246.299 146.913 246.55 147.075 246.763 147.282C246.975 147.489 247.143 147.737 247.258 148.01C247.373 148.283 247.433 148.576 247.432 148.873C247.432 148.961 247.41 149.095 247.41 149.206ZM244.079 148.462H246.222C246.158 148.226 246.019 148.019 245.825 147.871C245.631 147.723 245.394 147.642 245.151 147.642C244.907 147.642 244.67 147.723 244.476 147.871C244.283 148.019 244.143 148.226 244.079 148.462Z" fill="#263238"/>
<path d="M251.03 146.596V147.773H250.741C250.586 147.772 250.432 147.804 250.289 147.867C250.147 147.93 250.019 148.022 249.914 148.137C249.81 148.252 249.73 148.388 249.681 148.536C249.633 148.683 249.616 148.84 249.631 148.995V151.049H248.365V146.685H249.576V147.196C249.754 146.989 249.979 146.827 250.231 146.723C250.484 146.618 250.758 146.575 251.03 146.596Z" fill="#263238"/>
<path d="M256.205 148.528V151.027H254.939V148.728C254.939 148.018 254.617 147.695 254.051 147.695C253.484 147.695 253.007 148.073 253.007 148.873V151.027H251.741V146.663H252.951V147.196C253.139 147.005 253.364 146.855 253.612 146.756C253.861 146.656 254.127 146.609 254.395 146.618C254.645 146.602 254.897 146.641 255.131 146.733C255.365 146.824 255.575 146.966 255.748 147.148C255.921 147.331 256.051 147.549 256.13 147.787C256.209 148.026 256.235 148.279 256.205 148.528Z" fill="#263238"/>
<path d="M261.213 148.539V151.027H260.024V150.527C259.878 150.739 259.677 150.908 259.442 151.016C259.208 151.123 258.948 151.165 258.692 151.138C257.67 151.138 257.06 150.571 257.06 149.816C257.06 149.061 257.604 148.506 258.936 148.506H259.913C259.913 147.973 259.591 147.651 258.903 147.651C258.451 147.649 258.011 147.794 257.648 148.062L257.193 147.174C257.754 146.811 258.412 146.625 259.081 146.641C260.435 146.596 261.213 147.196 261.213 148.539ZM259.947 149.65V149.206H259.081C258.481 149.206 258.303 149.428 258.303 149.716C258.303 150.005 258.57 150.249 259.014 150.249C259.208 150.255 259.398 150.201 259.559 150.093C259.721 149.986 259.844 149.831 259.913 149.65H259.947Z" fill="#263238"/>
<path d="M269.73 148.528V151.027H268.464V148.728C268.464 148.018 268.153 147.695 267.642 147.695C267.131 147.695 266.676 148.062 266.676 148.806V151.027H265.466V148.728C265.466 148.018 265.166 147.695 264.633 147.695C264.1 147.695 263.678 148.062 263.678 148.806V151.027H262.356V146.663H263.567V147.196C263.738 147.006 263.95 146.855 264.186 146.756C264.422 146.656 264.677 146.609 264.933 146.618C265.215 146.605 265.496 146.665 265.748 146.791C266.001 146.918 266.217 147.107 266.376 147.34C266.565 147.105 266.805 146.918 267.079 146.792C267.353 146.667 267.652 146.608 267.953 146.618C268.202 146.603 268.451 146.643 268.683 146.736C268.914 146.828 269.123 146.971 269.293 147.153C269.463 147.336 269.59 147.554 269.665 147.792C269.741 148.03 269.763 148.281 269.73 148.528Z" fill="#263238"/>
<path d="M275.171 149.206H271.839C271.896 149.483 272.056 149.728 272.287 149.891C272.518 150.054 272.803 150.123 273.083 150.083C273.287 150.091 273.491 150.058 273.681 149.986C273.872 149.913 274.047 149.803 274.193 149.661L274.86 150.394C274.629 150.634 274.348 150.822 274.038 150.943C273.727 151.063 273.394 151.115 273.061 151.093C272.748 151.131 272.43 151.102 272.129 151.007C271.828 150.913 271.551 150.755 271.315 150.545C271.08 150.335 270.892 150.077 270.764 149.789C270.636 149.5 270.571 149.188 270.574 148.873C270.573 148.571 270.634 148.273 270.753 147.996C270.871 147.719 271.045 147.469 271.263 147.262C271.481 147.054 271.739 146.893 272.021 146.788C272.304 146.683 272.605 146.637 272.905 146.652C273.494 146.652 274.059 146.886 274.476 147.302C274.892 147.719 275.126 148.284 275.126 148.873C275.193 148.961 275.182 149.095 275.171 149.206ZM271.839 148.462H273.994C273.958 148.199 273.823 147.959 273.616 147.792C273.41 147.625 273.148 147.543 272.883 147.562C272.63 147.558 272.385 147.647 272.194 147.813C272.003 147.979 271.881 148.21 271.851 148.462H271.839Z" fill="#263238"/>
<path d="M283.543 148.806C283.543 150.261 282.877 151.093 281.877 151.093C281.641 151.109 281.405 151.049 281.205 150.921C281.006 150.793 280.852 150.604 280.767 150.383C280.62 150.614 280.413 150.801 280.169 150.926C279.925 151.051 279.653 151.109 279.379 151.093C278.871 151.04 278.401 150.801 278.059 150.422C277.717 150.042 277.528 149.55 277.528 149.039C277.528 148.528 277.717 148.036 278.059 147.656C278.401 147.277 278.871 147.038 279.379 146.985C279.614 146.974 279.849 147.017 280.064 147.112C280.28 147.206 280.471 147.349 280.623 147.529V147.051H281.733V149.672C281.733 150.061 281.9 150.194 282.122 150.194C282.344 150.194 282.721 149.761 282.721 148.828C282.726 148.441 282.649 148.056 282.496 147.701C282.343 147.345 282.117 147.025 281.832 146.762C281.547 146.499 281.21 146.299 280.843 146.175C280.476 146.051 280.087 146.005 279.701 146.041C278.921 146.041 278.172 146.351 277.62 146.903C277.069 147.455 276.759 148.203 276.759 148.984C276.759 149.764 277.069 150.512 277.62 151.064C278.172 151.616 278.921 151.926 279.701 151.926C280.254 151.925 280.799 151.804 281.3 151.571L281.555 152.315C280.974 152.581 280.34 152.713 279.701 152.703C279.196 152.731 278.691 152.655 278.216 152.481C277.742 152.307 277.308 152.038 276.94 151.69C276.573 151.343 276.281 150.924 276.081 150.459C275.881 149.995 275.778 149.495 275.778 148.989C275.778 148.484 275.881 147.983 276.081 147.519C276.281 147.054 276.573 146.636 276.94 146.288C277.308 145.94 277.742 145.671 278.216 145.497C278.691 145.323 279.196 145.247 279.701 145.275C280.19 145.235 280.681 145.297 281.144 145.456C281.608 145.615 282.033 145.869 282.394 146.2C282.755 146.532 283.043 146.935 283.241 147.383C283.439 147.831 283.542 148.316 283.543 148.806ZM280.645 149.039C280.661 148.897 280.646 148.753 280.602 148.617C280.557 148.481 280.484 148.356 280.387 148.251C280.29 148.146 280.172 148.063 280.04 148.007C279.909 147.951 279.766 147.925 279.623 147.929C279.329 147.929 279.046 148.046 278.838 148.254C278.63 148.462 278.513 148.745 278.513 149.039C278.513 149.334 278.63 149.616 278.838 149.824C279.046 150.033 279.329 150.15 279.623 150.15C279.766 150.154 279.909 150.127 280.04 150.071C280.172 150.016 280.29 149.932 280.387 149.827C280.484 149.722 280.557 149.597 280.602 149.461C280.646 149.325 280.661 149.181 280.645 149.039Z" fill="#263238"/>
<path d="M291.816 148.528V151.027H290.55V148.728C290.55 148.018 290.239 147.696 289.728 147.696C289.217 147.696 288.762 148.062 288.762 148.806V151.027H287.496V148.728C287.496 148.018 287.196 147.696 286.663 147.696C286.13 147.696 285.709 148.062 285.709 148.806V151.027H284.443V146.663H285.653V147.196C285.825 147.006 286.036 146.855 286.272 146.756C286.508 146.656 286.763 146.609 287.019 146.618C287.301 146.605 287.582 146.665 287.835 146.791C288.087 146.918 288.303 147.107 288.462 147.34C288.649 147.106 288.888 146.919 289.16 146.794C289.431 146.668 289.729 146.608 290.028 146.618C290.278 146.601 290.528 146.64 290.761 146.732C290.994 146.824 291.204 146.966 291.375 147.149C291.547 147.332 291.675 147.55 291.751 147.789C291.827 148.028 291.849 148.28 291.816 148.528Z" fill="#263238"/>
<path d="M296.812 148.539V151.027H295.635V150.527C295.489 150.739 295.288 150.908 295.053 151.016C294.819 151.123 294.559 151.165 294.303 151.138C293.281 151.138 292.671 150.571 292.671 149.816C292.671 149.061 293.215 148.506 294.547 148.506H295.547C295.547 147.973 295.225 147.651 294.547 147.651C294.095 147.645 293.654 147.79 293.292 148.062L292.837 147.174C293.396 146.813 294.049 146.627 294.714 146.641C296.046 146.596 296.812 147.196 296.812 148.539ZM295.547 149.65V149.206H294.68C294.092 149.206 293.903 149.428 293.903 149.716C293.903 150.005 294.17 150.249 294.614 150.249C294.813 150.262 295.011 150.211 295.179 150.103C295.347 149.995 295.476 149.836 295.547 149.65Z" fill="#263238"/>
<path d="M297.812 145.353C297.813 145.253 297.835 145.154 297.876 145.064C297.917 144.973 297.976 144.891 298.05 144.824C298.124 144.758 298.211 144.707 298.306 144.676C298.401 144.644 298.501 144.633 298.6 144.642C298.736 144.657 298.865 144.711 298.972 144.798C299.078 144.884 299.157 145 299.199 145.13C299.241 145.261 299.244 145.4 299.209 145.533C299.173 145.665 299.1 145.784 298.998 145.876C298.896 145.968 298.77 146.028 298.635 146.05C298.5 146.072 298.361 146.054 298.235 145.998C298.11 145.943 298.003 145.853 297.928 145.738C297.853 145.623 297.813 145.49 297.812 145.353ZM297.967 146.663H299.222V151.027H297.967V146.663Z" fill="#263238"/>
<path d="M300.41 144.975H301.676V150.993H300.41V144.975Z" fill="#263238"/>
<path d="M302.542 150.305C302.542 150.096 302.625 149.895 302.773 149.747C302.921 149.6 303.122 149.517 303.331 149.517C303.54 149.517 303.74 149.6 303.888 149.747C304.036 149.895 304.119 150.096 304.119 150.305C304.119 150.514 304.036 150.715 303.888 150.862C303.74 151.01 303.54 151.093 303.331 151.093C303.122 151.093 302.921 151.01 302.773 150.862C302.625 150.715 302.542 150.514 302.542 150.305Z" fill="#263238"/>
<path d="M304.596 148.85C304.595 148.54 304.659 148.233 304.783 147.949C304.908 147.665 305.09 147.41 305.32 147.2C305.549 146.991 305.819 146.832 306.113 146.734C306.408 146.636 306.719 146.6 307.028 146.63C307.428 146.596 307.829 146.684 308.177 146.882C308.526 147.08 308.807 147.379 308.983 147.74L308.005 148.262C307.893 148.096 307.74 147.963 307.561 147.873C307.382 147.784 307.183 147.743 306.983 147.753C306.783 147.763 306.589 147.824 306.42 147.93C306.251 148.037 306.112 148.185 306.016 148.361C305.921 148.537 305.872 148.734 305.875 148.934C305.878 149.134 305.933 149.33 306.033 149.503C306.134 149.676 306.277 149.82 306.449 149.922C306.622 150.023 306.817 150.079 307.017 150.083C307.221 150.083 307.421 150.028 307.595 149.922C307.77 149.816 307.912 149.664 308.005 149.483L308.983 150.016C308.805 150.375 308.523 150.672 308.175 150.87C307.827 151.068 307.428 151.157 307.028 151.127C306.715 151.157 306.398 151.12 306.1 151.018C305.802 150.917 305.529 150.753 305.299 150.537C305.069 150.322 304.887 150.06 304.766 149.769C304.645 149.479 304.587 149.165 304.596 148.85Z" fill="#263238"/>
<path d="M309.338 148.85C309.302 148.37 309.412 147.89 309.653 147.473C309.894 147.056 310.255 146.721 310.689 146.512C311.123 146.303 311.609 146.229 312.086 146.301C312.562 146.372 313.006 146.586 313.359 146.913C313.713 147.24 313.959 147.666 314.067 148.136C314.175 148.605 314.139 149.096 313.964 149.545C313.789 149.993 313.483 150.379 313.085 150.651C312.688 150.924 312.218 151.07 311.736 151.071C311.43 151.096 311.122 151.057 310.832 150.956C310.542 150.855 310.275 150.696 310.05 150.487C309.824 150.278 309.645 150.025 309.522 149.743C309.4 149.462 309.337 149.158 309.338 148.85ZM312.847 148.85C312.827 148.636 312.746 148.432 312.613 148.263C312.48 148.094 312.3 147.967 312.097 147.898C311.893 147.829 311.673 147.821 311.465 147.875C311.256 147.928 311.068 148.041 310.923 148.2C310.777 148.358 310.681 148.556 310.646 148.768C310.61 148.98 310.637 149.198 310.723 149.395C310.81 149.592 310.951 149.76 311.131 149.878C311.311 149.996 311.521 150.06 311.736 150.061C311.891 150.061 312.044 150.03 312.186 149.968C312.327 149.906 312.455 149.815 312.559 149.701C312.664 149.587 312.743 149.452 312.793 149.306C312.842 149.16 312.861 149.004 312.847 148.85Z" fill="#263238"/>
<path d="M322.352 148.528V151.027H321.086V148.728C321.086 148.018 320.764 147.696 320.253 147.696C319.742 147.696 319.287 148.062 319.287 148.806V151.027H318.021V148.728C318.021 148.018 317.721 147.696 317.2 147.696C316.678 147.696 316.245 148.062 316.245 148.806V151.027H314.979V146.663H316.178V147.196C316.352 147.005 316.565 146.855 316.803 146.755C317.041 146.656 317.297 146.609 317.555 146.618C317.836 146.604 318.116 146.663 318.367 146.79C318.618 146.916 318.832 147.106 318.987 147.34C319.177 147.107 319.418 146.92 319.691 146.795C319.965 146.67 320.263 146.609 320.564 146.618C320.814 146.601 321.065 146.64 321.298 146.732C321.531 146.824 321.74 146.966 321.911 147.149C322.083 147.332 322.211 147.55 322.287 147.789C322.363 148.028 322.385 148.28 322.352 148.528Z" fill="#263238"/>
<path d="M249.442 178.942L251.497 180.053L250.575 181.596L248.499 180.375V182.662H246.722V180.353L244.712 181.618L243.802 180.075L245.867 178.965L243.802 177.854L244.712 176.311L246.788 177.554V175.256H248.565V177.554L250.642 176.311L251.563 177.854L249.442 178.942Z" fill="#263238"/>
<path d="M258.004 178.942L260.058 180.053L259.136 181.618L257.06 180.397V182.684H255.294V180.375L253.251 181.618L252.341 180.075L254.395 178.965L252.341 177.854L253.251 176.311L255.328 177.554V175.256H257.093V177.554L259.17 176.311L260.091 177.854L258.004 178.942Z" fill="#263238"/>
<path d="M266.576 178.942L268.63 180.053L267.686 181.618L265.621 180.397V182.684H263.844V180.375L261.824 181.618L260.924 180.075L262.978 178.965L260.924 177.854L261.824 176.311L263.9 177.554V175.256H265.677V177.554L267.742 176.311L268.675 177.854L266.576 178.942Z" fill="#263238"/>
<path d="M275.115 178.942L277.169 180.053L276.248 181.596L274.171 180.375V182.662H272.395V180.353L270.385 181.618L269.474 180.075L271.539 178.965L269.474 177.854L270.385 176.311L272.461 177.554V175.256H274.238V177.554L276.314 176.311L277.236 177.854L275.115 178.942Z" fill="#263238"/>
<path d="M283.676 178.942L285.731 180.053L284.809 181.596L282.732 180.375V182.662H281.011V180.353L278.946 181.618L278.035 180.075L280.09 178.965L278.035 177.854L278.946 176.311L281.011 177.51V175.211H282.777V177.51L284.853 176.266L285.775 177.81L283.676 178.942Z" fill="#263238"/>
<path d="M292.238 178.942L294.292 180.053L293.37 181.596L291.294 180.375V182.662H289.517V180.353L287.496 181.618L286.597 180.075L288.651 178.965L286.597 177.854L287.496 176.311L289.573 177.554V175.256H291.349V177.554L293.426 176.311L294.347 177.854L292.238 178.942Z" fill="#263238"/>
<path d="M300.788 178.942L302.842 180.053L301.92 181.596L299.844 180.375V182.662H298.067V180.353L296.057 181.618L295.147 180.075L297.212 178.965L295.147 177.854L296.057 176.311L298.134 177.554V175.256H299.888V177.554L301.965 176.311L302.886 177.854L300.788 178.942Z" fill="#263238"/>
<path d="M309.349 178.942L311.403 180.053L310.482 181.596L308.405 180.375V182.662H306.64V180.353L304.619 181.618L303.708 180.075L305.763 178.965L303.708 177.854L304.619 176.311L306.695 177.554V175.256H308.461V177.554L310.537 176.311L311.459 177.854L309.349 178.942Z" fill="#263238"/>
<path d="M208.502 117.603H122.001C121.409 117.603 120.823 117.72 120.277 117.947C119.731 118.173 119.235 118.506 118.817 118.925C118.399 119.343 118.068 119.84 117.843 120.387C117.617 120.934 117.502 121.52 117.504 122.112V161.509C117.496 162.102 117.607 162.69 117.831 163.239C118.054 163.788 118.385 164.286 118.804 164.706C119.223 165.125 119.722 165.456 120.271 165.679C120.82 165.902 121.408 166.014 122.001 166.006H158.289L165.995 175.9L172.424 166.006H208.502C209.092 166.006 209.677 165.89 210.223 165.664C210.768 165.438 211.264 165.107 211.682 164.689C212.099 164.271 212.43 163.776 212.656 163.23C212.882 162.684 212.999 162.1 212.999 161.509V122.112C212.999 120.918 212.525 119.773 211.682 118.928C210.839 118.083 209.695 117.606 208.502 117.603Z" fill="white"/>
<path d="M208.502 117.603H208.924C209.345 117.64 209.76 117.733 210.156 117.881C210.804 118.114 211.39 118.494 211.866 118.991C212.547 119.723 212.965 120.661 213.054 121.656C213.143 125.943 213.121 132.183 213.154 140.089C213.154 144.042 213.154 148.406 213.154 153.137C213.154 155.513 213.154 157.967 213.154 160.521C213.184 161.174 213.155 161.828 213.065 162.475C212.929 163.149 212.649 163.785 212.244 164.341C211.828 164.91 211.29 165.379 210.67 165.714C210.049 166.048 209.361 166.239 208.657 166.273H172.369L172.591 166.162C170.57 169.26 168.394 172.624 166.173 176.044L165.962 176.366L165.717 176.066L158.011 166.184L158.233 166.295H123.333C122.7 166.295 122.112 166.295 121.434 166.295C120.449 166.177 119.524 165.758 118.786 165.094C118.049 164.43 117.535 163.554 117.315 162.586C117.204 161.963 117.163 161.33 117.193 160.698V144.431C117.193 139.701 117.193 135.063 117.193 130.517V122.112C117.193 121.527 117.302 120.947 117.515 120.402C117.926 119.318 118.715 118.419 119.735 117.87C120.245 117.609 120.798 117.444 121.368 117.381C121.915 117.354 122.464 117.354 123.011 117.381H132.461H144.431H165.906L196.998 117.47L205.448 117.526L196.998 117.581L165.906 117.67H144.431H123.1C122.567 117.67 121.99 117.67 121.512 117.67C121.008 117.728 120.518 117.878 120.069 118.114C119.15 118.585 118.435 119.374 118.059 120.335C117.868 120.82 117.77 121.336 117.77 121.856V123.522C117.77 125.743 117.77 127.964 117.77 130.262V144.176C117.77 148.898 117.77 153.71 117.77 158.611V160.454C117.735 161.045 117.768 161.637 117.87 162.22C118.066 163.07 118.52 163.84 119.17 164.422C119.82 165.005 120.634 165.372 121.501 165.473C122.067 165.529 122.722 165.473 123.333 165.473H158.422L158.511 165.584L166.217 175.467H165.762L172.191 165.584L172.269 165.462H172.424H208.69C209.329 165.441 209.954 165.274 210.518 164.973C211.082 164.673 211.57 164.248 211.944 163.73C212.319 163.231 212.578 162.654 212.699 162.042C212.785 161.42 212.814 160.792 212.788 160.165C212.788 157.611 212.788 155.157 212.788 152.781C212.788 148.051 212.788 143.687 212.788 139.734C212.788 131.85 212.788 125.609 212.843 121.312C212.745 120.383 212.356 119.509 211.733 118.814C211.277 118.304 210.711 117.906 210.078 117.648C209.558 117.558 209.027 117.543 208.502 117.603Z" fill="#263238"/>
<path d="M149.05 128.73V130.184H148.106V128.719L146.507 126.098H147.518L148.628 127.919L149.739 126.098H150.671L149.05 128.73Z" fill="#263238"/>
<path d="M150.627 128.13C150.607 127.687 150.72 127.248 150.952 126.87C151.183 126.492 151.523 126.192 151.926 126.008C152.33 125.825 152.779 125.766 153.217 125.841C153.654 125.915 154.059 126.118 154.379 126.424C154.7 126.73 154.922 127.126 155.016 127.559C155.11 127.992 155.072 128.444 154.907 128.855C154.743 129.267 154.458 129.62 154.091 129.869C153.724 130.117 153.291 130.251 152.848 130.251C152.561 130.265 152.274 130.22 152.005 130.119C151.737 130.019 151.491 129.865 151.283 129.666C151.075 129.468 150.91 129.23 150.797 128.965C150.685 128.701 150.627 128.417 150.627 128.13ZM154.158 128.13C154.156 127.876 154.079 127.628 153.936 127.418C153.793 127.207 153.591 127.044 153.355 126.948C153.12 126.852 152.861 126.828 152.612 126.879C152.363 126.93 152.134 127.054 151.955 127.234C151.776 127.415 151.655 127.644 151.606 127.894C151.557 128.144 151.583 128.402 151.681 128.637C151.779 128.871 151.944 129.072 152.156 129.213C152.367 129.354 152.616 129.429 152.87 129.429C153.041 129.434 153.212 129.403 153.371 129.34C153.53 129.276 153.675 129.18 153.795 129.058C153.916 128.937 154.01 128.791 154.073 128.632C154.135 128.472 154.164 128.301 154.158 128.13Z" fill="#263238"/>
<path d="M155.813 128.374V126.098H156.768V128.319C156.768 129.096 157.112 129.429 157.678 129.429C158.245 129.429 158.6 129.107 158.6 128.319V126.098H159.544V128.397C159.544 128.891 159.347 129.366 158.997 129.716C158.647 130.066 158.173 130.262 157.678 130.262C157.183 130.262 156.709 130.066 156.359 129.716C156.009 129.366 155.813 128.891 155.813 128.397V128.374Z" fill="#263238"/>
<path d="M163.108 130.184L162.32 129.074H161.443V130.184H160.488V126.098H162.264C163.375 126.098 164.052 126.664 164.052 127.586C164.064 127.863 163.99 128.138 163.838 128.371C163.687 128.604 163.467 128.784 163.208 128.885L164.13 130.207L163.108 130.184ZM162.22 126.853H161.443V128.319H162.22C162.797 128.319 163.086 128.041 163.086 127.597C163.086 127.153 162.797 126.842 162.198 126.842L162.22 126.853Z" fill="#263238"/>
<path d="M166.217 128.13C166.221 127.675 166.365 127.231 166.629 126.86C166.893 126.489 167.264 126.208 167.693 126.056C168.122 125.903 168.588 125.886 169.027 126.007C169.466 126.127 169.858 126.38 170.148 126.731L169.537 127.297C169.412 127.142 169.252 127.018 169.072 126.933C168.891 126.849 168.693 126.806 168.494 126.809C168.166 126.839 167.86 126.991 167.638 127.234C167.416 127.477 167.293 127.795 167.293 128.125C167.293 128.454 167.416 128.772 167.638 129.015C167.86 129.259 168.166 129.41 168.494 129.44C168.692 129.445 168.89 129.405 169.071 129.322C169.251 129.239 169.411 129.116 169.537 128.963L170.148 129.518C169.858 129.868 169.468 130.121 169.03 130.242C168.592 130.363 168.127 130.347 167.698 130.195C167.27 130.044 166.898 129.765 166.633 129.396C166.368 129.026 166.223 128.585 166.217 128.13Z" fill="#263238"/>
<path d="M170.448 128.13C170.428 127.687 170.541 127.248 170.773 126.87C171.004 126.492 171.344 126.192 171.747 126.008C172.151 125.825 172.6 125.766 173.037 125.841C173.475 125.915 173.88 126.118 174.2 126.424C174.521 126.73 174.743 127.126 174.837 127.559C174.931 127.992 174.893 128.444 174.728 128.855C174.563 129.267 174.279 129.62 173.912 129.869C173.545 130.117 173.112 130.251 172.669 130.251C172.382 130.265 172.095 130.22 171.826 130.119C171.557 130.019 171.312 129.865 171.104 129.666C170.896 129.468 170.731 129.23 170.618 128.965C170.505 128.701 170.447 128.417 170.448 128.13ZM173.979 128.13C173.975 127.876 173.895 127.63 173.751 127.421C173.607 127.212 173.404 127.05 173.169 126.956C172.933 126.862 172.675 126.84 172.426 126.892C172.178 126.944 171.95 127.068 171.772 127.249C171.595 127.43 171.474 127.66 171.426 127.909C171.378 128.158 171.405 128.416 171.503 128.65C171.601 128.884 171.766 129.084 171.978 129.225C172.189 129.365 172.437 129.44 172.691 129.44C172.863 129.445 173.035 129.414 173.195 129.35C173.354 129.285 173.499 129.189 173.62 129.066C173.741 128.943 173.835 128.796 173.897 128.635C173.959 128.474 173.987 128.302 173.979 128.13Z" fill="#263238"/>
<path d="M175.667 126.098H177.543C177.831 126.068 178.122 126.099 178.397 126.188C178.672 126.278 178.925 126.424 179.14 126.618C179.355 126.812 179.527 127.048 179.644 127.313C179.762 127.577 179.823 127.863 179.823 128.152C179.823 128.442 179.762 128.728 179.644 128.992C179.527 129.256 179.355 129.493 179.14 129.686C178.925 129.88 178.672 130.027 178.397 130.116C178.122 130.206 177.831 130.237 177.543 130.207H175.667V126.098ZM177.488 129.429C177.826 129.429 178.151 129.295 178.391 129.055C178.63 128.816 178.765 128.491 178.765 128.152C178.765 127.814 178.63 127.489 178.391 127.249C178.151 127.01 177.826 126.875 177.488 126.875H176.633V129.429H177.488Z" fill="#263238"/>
<path d="M183.717 129.429V130.195H180.53V126.098H183.639V126.853H181.474V127.753H183.384V128.497H181.474V129.429H183.717Z" fill="#263238"/>
<path d="M200.062 134.504H130.451C128.274 134.504 126.509 136.269 126.509 138.446V153.148C126.509 155.325 128.274 157.09 130.451 157.09H200.062C202.239 157.09 204.004 155.325 204.004 153.148V138.446C204.004 136.269 202.239 134.504 200.062 134.504Z" fill="#F5F5F5"/>
<path d="M142.21 147.196C142.212 147.661 142.117 148.121 141.93 148.547C141.744 148.973 141.47 149.355 141.127 149.668C140.784 149.982 140.379 150.221 139.938 150.369C139.498 150.516 139.031 150.57 138.568 150.527C135.703 150.527 134.182 148.462 134.182 145.042C134.182 141.333 136.147 139.434 139.045 139.434C139.905 139.397 140.76 139.588 141.522 139.989L141.2 140.633C140.541 140.272 139.796 140.1 139.045 140.134C136.591 140.134 134.981 141.744 134.981 144.919C134.978 145.358 135.008 145.796 135.07 146.23C135.331 145.531 135.812 144.936 136.442 144.535C137.071 144.135 137.813 143.95 138.557 144.009C140.789 143.931 142.21 145.208 142.21 147.196ZM141.411 147.196C141.411 145.63 140.3 144.62 138.446 144.62C138.073 144.582 137.697 144.62 137.34 144.732C136.983 144.844 136.652 145.028 136.369 145.272C136.085 145.516 135.854 145.816 135.69 146.152C135.526 146.489 135.432 146.855 135.414 147.229C135.414 148.506 136.525 149.794 138.546 149.794C138.913 149.84 139.285 149.807 139.638 149.697C139.991 149.587 140.316 149.403 140.591 149.157C140.867 148.911 141.087 148.608 141.236 148.27C141.385 147.932 141.46 147.565 141.455 147.196H141.411Z" fill="#9C7BEB"/>
<path d="M156.767 147.373H154.48V150.405H153.692V147.373H147.462V146.796L153.403 139.467H154.291L148.462 146.663H153.714V143.998H154.48V146.663H156.767V147.373Z" fill="#9C7BEB"/>
<path d="M168.915 147.318C168.915 149.139 167.605 150.483 165.085 150.483C164.376 150.51 163.669 150.393 163.007 150.139C162.344 149.886 161.74 149.5 161.231 149.006L161.631 148.395C162.085 148.843 162.625 149.193 163.219 149.424C163.813 149.655 164.448 149.762 165.085 149.739C167.05 149.739 168.105 148.806 168.105 147.318C168.105 145.83 167.105 144.897 164.918 144.897H164.23V144.32L167.461 140.178H161.631V139.423H168.494V139.978L165.162 144.187C167.75 144.287 168.915 145.541 168.915 147.318Z" fill="#9C7BEB"/>
<path d="M182.185 139.423V139.978L177.488 150.36H176.611L181.263 140.134H175.123V142.232H174.345V139.423H182.185Z" fill="#9C7BEB"/>
<path d="M187.737 144.975C187.737 141.555 189.503 139.423 192.012 139.423C194.522 139.423 196.298 141.544 196.298 144.975C196.298 148.406 194.533 150.527 192.012 150.527C189.492 150.527 187.737 148.306 187.737 144.975ZM195.51 144.975C195.51 141.932 194.089 140.167 192.023 140.167C189.958 140.167 188.537 141.932 188.537 144.975C188.537 148.018 189.958 149.783 192.023 149.783C194.089 149.783 195.51 147.973 195.51 144.975Z" fill="#9C7BEB"/>
<path d="M425.808 430.927C440.344 424.754 457.177 412.617 464.673 397.726C448.543 404.421 434.94 416.041 425.808 430.927Z" fill="#263238"/>
<path d="M428.907 407.82C443.442 401.657 460.276 389.52 467.771 374.63C451.638 381.314 438.034 392.932 428.907 407.82Z" fill="#263238"/>
<path d="M433.137 385.356C447.684 379.182 464.506 367.046 472.002 352.166C455.87 358.853 442.266 370.47 433.137 385.356Z" fill="#263238"/>
<path d="M438.378 361.838C452.092 353.732 467.382 339.297 473.112 323.551C457.873 332.429 445.753 345.802 438.412 361.838" fill="#263238"/>
<path d="M444.019 343.838C454.013 330.769 463.329 311.314 463.207 294.458C452.099 308.676 445.425 325.851 444.019 343.838Z" fill="#263238"/>
<path d="M441.221 352.399C439.2 334.722 432.338 312.502 420.656 299.244C422.628 318.484 429.731 336.842 441.221 352.399Z" fill="#263238"/>
<path d="M436.524 371.732C432.971 353.51 423.976 330.968 410.718 318.188C414.348 338.032 423.263 356.529 436.524 371.732Z" fill="#263238"/>
<path d="M431.127 395.306C427.585 377.05 418.569 354.542 405.377 341.762C409.007 361.606 417.922 380.103 431.183 395.306" fill="#263238"/>
<path d="M426.797 424.254C423.232 406.032 414.238 383.491 400.991 370.71C404.621 390.554 413.536 409.052 426.797 424.254Z" fill="#263238"/>
<path d="M444.697 340.407C444.642 340.492 444.605 340.586 444.586 340.685C444.508 340.896 444.419 341.162 444.308 341.495C444.064 342.261 443.719 343.316 443.297 344.649C442.42 347.391 441.243 351.378 439.855 356.33C438.467 361.283 436.935 367.201 435.358 373.808C433.781 380.415 432.227 387.733 430.761 395.439C429.295 403.145 428.152 410.54 427.185 417.269C426.219 423.999 425.531 430.084 425.031 435.191C424.532 440.299 424.176 444.452 423.999 447.328C423.91 448.727 423.843 449.827 423.788 450.659C423.788 451.015 423.788 451.292 423.788 451.526C423.773 451.621 423.773 451.719 423.788 451.814C423.822 451.722 423.84 451.624 423.843 451.526C423.843 451.304 423.843 451.015 423.932 450.671C424.01 449.871 424.121 448.772 424.254 447.339C424.498 444.486 424.909 440.344 425.464 435.236C426.02 430.128 426.786 424.065 427.741 417.347C428.696 410.629 429.961 403.256 431.361 395.55C432.76 387.844 434.381 380.548 435.902 373.93C437.423 367.312 438.934 361.394 440.277 356.43C441.621 351.467 442.731 347.469 443.542 344.715L444.452 341.528C444.541 341.195 444.608 340.918 444.674 340.696C444.694 340.601 444.702 340.504 444.697 340.407Z" fill="#263238"/>
<path d="M418.702 440.544C424.864 427.641 429.351 409.452 426.33 395.317C419.439 409.328 416.788 425.047 418.702 440.544Z" fill="#455A64"/>
<path d="M408.475 423.832C414.638 410.918 419.124 392.741 416.092 378.605C409.199 392.616 406.551 408.336 408.475 423.832Z" fill="#455A64"/>
<path d="M399.281 406.832C405.444 393.918 409.93 375.74 406.898 361.605C400.005 375.615 397.357 391.336 399.281 406.832Z" fill="#455A64"/>
<path d="M390.22 388.499C394.806 374.841 397.104 356.208 392.441 342.583C387.267 357.35 386.495 373.302 390.22 388.499Z" fill="#455A64"/>
<path d="M384.279 373.486C383.824 358.951 379.549 340.74 370.521 330.002C370.723 345.536 375.509 360.664 384.279 373.486Z" fill="#455A64"/>
<path d="M387.044 380.693C376.351 370.61 360.094 360.583 345.481 359.273C356.911 370.368 371.376 377.822 387.044 380.693Z" fill="#455A64"/>
<path d="M394.273 395.994C382.292 386.489 364.481 377.583 349.09 377.55C361.992 388.038 377.718 394.457 394.273 395.994Z" fill="#455A64"/>
<path d="M403.267 414.438C391.286 404.944 373.486 396.027 358.096 395.994C370.994 406.48 386.716 412.899 403.267 414.438Z" fill="#455A64"/>
<path d="M415.826 435.669C403.845 426.164 386.034 417.258 370.643 417.214C383.541 427.709 399.268 434.133 415.826 435.669Z" fill="#455A64"/>
<path d="M382.924 370.854C382.924 370.854 382.924 370.932 382.991 371.088L383.235 371.776L384.235 374.386C385.112 376.606 386.455 379.938 388.154 383.913C391.574 391.897 396.649 402.79 402.945 414.493C406.099 420.323 409.263 425.809 412.217 430.728C415.171 435.647 417.98 440.022 420.39 443.642C422.799 447.262 424.831 450.16 426.208 452.136L427.851 454.357L428.285 454.935C428.384 455.068 428.44 455.134 428.451 455.123C428.415 455.047 428.374 454.973 428.329 454.901L427.94 454.291C427.552 453.724 427.041 452.947 426.386 451.97C425.009 449.96 423.054 447.028 420.712 443.386C418.369 439.744 415.604 435.347 412.65 430.428C409.696 425.509 406.576 420.012 403.422 414.183C397.126 402.59 392.052 391.708 388.51 383.713C386.755 379.738 385.367 376.506 384.434 374.263L383.324 371.687L383.024 371.021C382.996 370.962 382.963 370.907 382.924 370.854Z" fill="#263238"/>
<path d="M389.365 442.109H450.615V453.913H444.319L439.022 487.581H401.158L395.705 453.913H389.365V442.109Z" fill="#9C7BEB"/>
<path d="M389.365 453.669C389.365 453.513 402.979 453.38 419.768 453.38C436.557 453.38 450.171 453.513 450.171 453.669C450.171 453.824 436.568 453.946 419.768 453.946C402.968 453.946 389.365 453.824 389.365 453.669Z" fill="#263238"/>
<path d="M38.509 487.603H28.5708L24.8843 442.842H36.588L38.509 487.603Z" fill="#263238"/>
<path d="M124.677 487.603H134.615L138.301 442.842H126.598L124.677 487.603Z" fill="#263238"/>
<path d="M145.131 448.516L17.167 451.515L13.2806 368.867C13.1889 366.949 13.4875 365.033 14.1582 363.235C14.8289 361.436 15.8579 359.792 17.1827 358.403C18.5075 357.014 20.1005 355.908 21.8653 355.153C23.6301 354.398 25.5298 354.009 27.4494 354.009H136.48C138.426 354.009 140.352 354.41 142.136 355.185C143.921 355.961 145.527 357.095 146.855 358.517C148.183 359.94 149.204 361.62 149.855 363.454C150.505 365.288 150.772 367.236 150.638 369.178L145.131 448.516Z" fill="#9C7BEB"/>
<path d="M151.693 368.589H151.338H150.283L146.252 368.656H131.417C118.892 368.656 101.591 368.545 82.4923 368.989C63.3822 369.622 46.0598 369.511 33.5455 369.322C27.2828 369.222 22.2082 369.1 18.7104 368.989L14.6796 368.856H13.6358C13.5179 368.871 13.3985 368.871 13.2805 368.856H13.6358H14.6796H18.7104L33.5455 369C46.0709 369.089 63.3711 369.133 82.4812 368.489C101.591 368.056 118.892 368.256 131.417 368.345L146.252 368.467L150.283 368.523H151.338L151.693 368.589Z" fill="#263238"/>
<path d="M59.951 355.298C57.0748 355.718 54.2761 356.56 51.6452 357.796C49.0975 359.198 46.7733 360.971 44.7495 363.059C45.157 362.285 45.6941 361.587 46.3374 360.994C49.289 357.958 53.1617 355.982 57.3527 355.375C58.2074 355.197 59.0871 355.17 59.951 355.298Z" fill="#263238"/>
<path d="M112.584 205.026L128.219 233.597L151.093 220.783L162.197 224.458C162.197 224.458 134.171 254.906 129.607 256.493C125.043 258.081 116.404 258.337 111.474 252.152C107.032 246.522 93.885 216.985 93.885 216.985L112.584 205.026Z" fill="#FFBE9D"/>
<path d="M176.977 186.371C176.776 186.125 176.516 185.934 176.22 185.817C175.925 185.701 175.604 185.662 175.289 185.705L164.418 187.171C163.946 187.241 163.494 187.413 163.094 187.673C162.693 187.934 162.353 188.277 162.098 188.681L139.434 223.492L141.166 224.458L153.225 224.081L177.321 186.804L176.977 186.371Z" fill="#263238"/>
<path d="M169.26 190.89C169.347 191.028 169.475 191.135 169.626 191.196C169.777 191.257 169.943 191.269 170.102 191.231C170.26 191.192 170.402 191.104 170.508 190.98C170.614 190.857 170.678 190.703 170.692 190.54C170.705 190.378 170.667 190.215 170.583 190.075C170.5 189.936 170.374 189.826 170.224 189.762C170.074 189.697 169.908 189.681 169.749 189.717C169.59 189.752 169.446 189.836 169.337 189.958C169.209 190.075 169.13 190.236 169.116 190.409C169.101 190.582 169.153 190.754 169.26 190.89Z" fill="white"/>
<path d="M177.321 186.804C176.63 186.998 175.925 187.135 175.212 187.215L169.437 188.114L165.451 188.692C165.113 188.722 164.786 188.827 164.494 189C164.202 189.173 163.952 189.409 163.763 189.691L162.475 191.69C160.687 194.433 158.744 197.442 156.701 200.573C152.581 206.88 148.828 212.577 146.074 216.685L142.799 221.593C142.418 222.202 141.991 222.781 141.522 223.325C141.834 222.671 142.206 222.047 142.632 221.46L145.741 216.508C148.395 212.332 152.082 206.603 156.201 200.296C158.267 197.153 160.232 194.155 162.02 191.412C162.475 190.735 162.919 190.069 163.341 189.414C163.578 189.073 163.887 188.79 164.246 188.582C164.605 188.375 165.005 188.249 165.418 188.214L169.426 187.704L175.234 187.015C175.923 186.89 176.621 186.819 177.321 186.804Z" fill="#455A64"/>
<path d="M165.229 199.23C165.229 199.23 164.263 199.063 163.73 201.717C163.197 204.371 161.509 211.988 161.509 211.988L156.423 209.29L150.05 210.123C150.05 210.123 148.662 211.4 149.683 212.099C150.705 212.799 154.724 213.509 154.724 213.509L157.689 217.785L149.172 213.676C149.172 213.676 146.33 214.42 147.163 216.152C147.995 217.884 153.736 223.314 153.736 223.314L149.472 222.992L144.431 219.905C144.431 219.905 142.876 219.983 143.454 221.305C144.031 222.626 149.317 227.423 149.317 227.423L155.713 230.532C155.713 230.532 159.21 230.254 159.544 229.222C159.77 228.409 159.911 227.576 159.966 226.734C159.966 226.734 161.82 226.235 162.186 225.335C162.39 224.579 162.432 223.788 162.309 223.015C162.309 223.015 165.218 223.525 165.584 221.904C165.839 219.884 165.756 217.835 165.34 215.841C165.051 214.587 166.584 202.983 166.45 202.639C166.317 202.294 167.061 198.463 165.229 199.23Z" fill="#FFBE9D"/>
<path d="M159.71 229.244C159.205 229.547 158.633 229.722 158.045 229.755C155.207 230.167 152.32 229.479 149.972 227.834C149.095 227.201 148.662 226.723 148.717 226.623C148.773 226.523 150.86 228.211 153.969 228.933C157.079 229.655 159.677 229.044 159.71 229.244Z" fill="#EB996E"/>
<path d="M158.2 226.945C158.1 227.09 156.957 226.501 155.746 225.502C154.536 224.502 153.736 223.514 153.858 223.392C153.981 223.27 154.969 224.025 156.168 225.002C157.367 225.979 158.3 226.79 158.2 226.945Z" fill="#EB996E"/>
<path d="M161.564 221.427C161.465 221.571 160.332 220.994 159.199 219.939C158.067 218.884 157.4 217.818 157.534 217.718C157.667 217.618 158.555 218.462 159.643 219.472C160.732 220.483 161.664 221.271 161.564 221.427Z" fill="#EB996E"/>
<path d="M165.107 216.974C164.929 217.052 164.285 215.864 163.275 214.542C162.264 213.221 161.276 212.321 161.387 212.144C161.498 211.966 162.719 212.743 163.785 214.142C164.516 214.922 164.979 215.914 165.107 216.974Z" fill="#EB996E"/>
<path d="M169.426 422.91C169.511 422.564 169.511 422.202 169.426 421.855C169.246 420.896 168.868 419.984 168.316 419.179C168.135 418.9 167.923 418.643 167.683 418.413C167.526 418.265 167.331 418.162 167.12 418.115C166.909 418.068 166.689 418.079 166.484 418.147C166.363 418.188 166.253 418.257 166.163 418.348C166.072 418.438 166.003 418.548 165.962 418.669C165.884 418.899 165.884 419.149 165.962 419.379C166.113 419.765 166.299 420.137 166.517 420.49C166.928 421.189 167.272 421.878 167.805 422.71C167.96 422.934 168.174 423.111 168.422 423.223C168.671 423.334 168.945 423.376 169.215 423.343C169.712 423.255 170.18 423.049 170.581 422.744C171.316 422.205 171.987 421.582 172.58 420.889C172.865 420.56 173.132 420.216 173.379 419.857C173.649 419.506 173.849 419.106 173.968 418.68C174.034 418.429 174.01 418.162 173.901 417.927C173.791 417.692 173.603 417.502 173.368 417.392C173.148 417.327 172.916 417.319 172.692 417.37C172.469 417.42 172.262 417.527 172.091 417.68C171.583 418.124 171.135 418.631 170.759 419.19C170.2 419.975 169.755 420.835 169.437 421.744C169.291 422.065 169.215 422.414 169.215 422.766C169.741 421.598 170.377 420.483 171.114 419.435C171.49 418.936 171.922 418.481 172.402 418.08C172.657 417.902 172.968 417.78 173.157 417.88C173.267 417.945 173.351 418.045 173.395 418.164C173.44 418.284 173.442 418.415 173.401 418.535C173.286 418.882 173.109 419.206 172.88 419.49C172.646 419.823 172.391 420.145 172.124 420.467C171.55 421.113 170.91 421.697 170.215 422.211C169.89 422.461 169.508 422.629 169.104 422.699C168.938 422.72 168.77 422.693 168.619 422.622C168.468 422.552 168.34 422.44 168.249 422.3C167.816 421.667 167.394 420.878 166.983 420.223C166.795 419.879 166.561 419.546 166.45 419.268C166.339 418.991 166.45 418.769 166.617 418.68C167.094 418.491 167.572 419.035 167.894 419.49C168.616 420.523 169.136 421.684 169.426 422.91Z" fill="#263238"/>
<path d="M142.143 423.843L128.596 453.213L106.732 443.109L120.746 406.765L142.143 423.843Z" fill="#FFBE9D"/>
<path d="M131.106 451.248L123.189 466.35C123.189 466.35 143.454 487.303 141.555 491.989L93.9185 469.148L106.999 438.867L131.106 451.248Z" fill="#455A64"/>
<path d="M109.497 457.222C108.974 457.156 108.444 457.278 108.002 457.567C107.561 457.856 107.237 458.293 107.088 458.799C106.987 459.32 107.092 459.861 107.379 460.307C107.667 460.754 108.115 461.073 108.631 461.197C109.187 461.281 109.755 461.157 110.224 460.847C110.694 460.537 111.032 460.065 111.174 459.521C111.221 458.965 111.051 458.412 110.699 457.979C110.347 457.546 109.84 457.267 109.286 457.2" fill="#E0E0E0"/>
<g opacity="0.6">
<path d="M93.9629 469.148L95.9394 465.35L140.878 488.669C140.878 488.669 142.554 490.601 141.599 492L93.9629 469.148Z" fill="white"/>
</g>
<path d="M124.122 466.472C124.011 466.705 122.789 466.25 121.29 466.472C119.791 466.694 118.703 467.36 118.536 467.16C118.37 466.96 119.358 465.794 121.179 465.583C123 465.372 124.277 466.283 124.122 466.472Z" fill="#263238"/>
<path d="M128.13 470.936C128.13 471.191 126.875 471.102 125.621 471.702C124.366 472.301 123.633 473.245 123.4 473.123C123.167 473.001 123.655 471.613 125.243 470.902C126.831 470.192 128.23 470.714 128.13 470.936Z" fill="#263238"/>
<path d="M128.097 478.275C127.864 478.275 128.097 476.91 129.307 475.921C130.518 474.933 131.85 474.944 131.85 475.188C131.85 475.433 130.862 475.788 129.874 476.61C128.885 477.432 128.341 478.364 128.097 478.275Z" fill="#263238"/>
<path d="M126.398 460.664C126.198 460.831 125.288 459.998 123.933 459.454C122.578 458.91 121.346 458.832 121.324 458.577C121.301 458.321 122.678 457.966 124.266 458.577C125.854 459.187 126.598 460.531 126.398 460.664Z" fill="#263238"/>
<path d="M135.614 447.328L171.336 357.951C171.336 357.951 170.525 342.694 167.716 337.886C164.907 333.078 79.8273 304.974 79.8273 304.974C79.8273 304.974 58.1632 299.755 43.7057 304.974C29.2481 310.193 18.4216 328.292 20.3871 338.286C22.3525 348.28 30.8582 355.686 30.8582 355.686L93.4298 357.552L127.53 369.988L104.567 435.802L135.614 447.328Z" fill="#263238"/>
<path d="M167.383 386.256L168.194 418.58L144.109 419.179L140.645 380.382L167.383 386.256Z" fill="#FFBE9D"/>
<path d="M169.626 415.693L169.182 432.738C169.182 432.738 196.609 442.587 196.942 447.639L144.12 448.172L142.488 415.226L169.626 415.693Z" fill="#455A64"/>
<path d="M152.826 430.617C152.319 430.776 151.889 431.117 151.619 431.574C151.348 432.031 151.256 432.572 151.36 433.093C151.501 433.605 151.833 434.043 152.287 434.318C152.742 434.592 153.284 434.683 153.803 434.57C154.338 434.398 154.791 434.034 155.074 433.548C155.357 433.062 155.45 432.488 155.335 431.938C155.136 431.418 154.741 430.995 154.235 430.761C153.729 430.527 153.152 430.499 152.626 430.683" fill="#E0E0E0"/>
<g opacity="0.6">
<path d="M144.153 448.172L144.253 443.886L194.866 444.996C194.866 444.996 197.22 445.996 196.975 447.661L144.153 448.172Z" fill="white"/>
</g>
<path d="M170.037 432.46C170.037 432.715 168.738 432.849 167.483 433.692C166.228 434.536 165.551 435.625 165.318 435.525C165.085 435.425 165.451 433.926 166.994 432.937C168.538 431.949 170.092 432.227 170.037 432.46Z" fill="#263238"/>
<path d="M175.6 434.692C175.667 434.947 174.545 435.391 173.679 436.491C172.813 437.59 172.569 438.712 172.324 438.712C172.08 438.712 171.88 437.246 172.991 435.891C174.101 434.536 175.589 434.448 175.6 434.692Z" fill="#263238"/>
<path d="M178.854 441.299C178.62 441.354 178.254 440.066 178.854 438.645C179.453 437.224 180.708 436.657 180.819 436.868C180.93 437.079 180.186 437.845 179.709 439.011C179.231 440.177 179.065 441.265 178.854 441.299Z" fill="#263238"/>
<path d="M169.504 426.242C169.404 426.475 168.216 426.131 166.761 426.242C165.307 426.353 164.174 426.83 164.03 426.608C163.885 426.386 164.974 425.498 166.695 425.353C168.416 425.209 169.637 426.031 169.504 426.242Z" fill="#263238"/>
<path d="M153.314 296.49C153.314 296.49 167.749 295.38 169.348 310.992C170.947 326.605 172.524 399.692 172.524 399.692L138.879 402.501L133.66 327.848L79.8828 304.974C79.8828 304.974 143.687 294.492 153.314 296.49Z" fill="#263238"/>
<path d="M93.8628 275.37C93.8628 275.37 102.613 299.921 100.947 302.653C99.2816 305.385 76.7736 316.644 76.7736 316.644L20.4315 338.286C20.4315 338.286 14.6462 329.081 14.6462 314.968C14.6462 300.854 34.245 275.393 34.245 275.393L93.8628 275.37Z" fill="#263238"/>
<path d="M77.1624 303.763C77.2459 303.821 77.3352 303.869 77.4289 303.908L78.2283 304.274L81.3486 305.662L93.0634 310.77L133.493 328.17L133.305 327.915C133.815 335.288 134.415 343.25 134.937 351.489C136.314 370.754 137.58 388.51 138.579 402.568V402.823H138.834L163.397 400.669L170.159 400.036L171.925 399.858L172.524 399.769C172.321 399.752 172.117 399.752 171.914 399.769L170.148 399.88L163.374 400.38L138.79 402.312L139.068 402.545C138.102 388.499 136.847 370.732 135.559 351.467C134.981 343.227 134.448 335.266 133.893 327.893V327.715L133.727 327.637L93.2078 310.426L81.4263 305.496L78.2728 304.197L77.4511 303.875C77.3578 303.83 77.2613 303.793 77.1624 303.763Z" fill="#455A64"/>
<path d="M32.3574 306.173C32.9001 306.089 33.4324 305.947 33.9453 305.751L38.1871 304.374C42.8166 302.81 47.5614 301.611 52.3781 300.788C57.197 300.001 62.1165 300.065 66.9133 300.976C70.5777 301.743 72.6875 302.786 72.7319 302.664C72.2766 302.355 71.7841 302.105 71.2662 301.92C69.8902 301.341 68.4675 300.881 67.0133 300.543C62.1659 299.487 57.1622 299.359 52.2671 300.166C47.4116 300.986 42.6425 302.254 38.0205 303.952C36.2439 304.585 34.8225 305.129 33.8343 305.518C33.3248 305.695 32.8308 305.914 32.3574 306.173Z" fill="#455A64"/>
<path d="M40.3191 293.237C41.961 293.137 43.6074 293.137 45.2493 293.237C46.7706 293.337 48.5805 293.57 50.5793 293.803C52.578 294.036 54.7877 294.314 57.0752 294.747C60.989 295.37 64.7404 296.763 68.1126 298.844C69.4583 299.781 70.7382 300.809 71.9435 301.92C71.7225 301.53 71.4457 301.175 71.1218 300.865C70.2892 299.969 69.3622 299.165 68.3569 298.467C64.9859 296.239 61.177 294.758 57.1862 294.125C54.8766 293.692 52.6557 293.437 50.6459 293.226C48.6361 293.015 46.815 292.837 45.2715 292.793C44.0553 292.739 42.8366 292.791 41.6294 292.948C41.181 292.981 40.7398 293.078 40.3191 293.237Z" fill="#455A64"/>
<path d="M65.2032 95.9838C58.7295 94.8733 52.9887 97.3718 47.5588 101.025C42.0015 104.931 37.7664 110.438 35.4176 116.812C33.0688 123.186 32.7179 130.124 34.4115 136.702C35.3493 140.046 36.9544 143.164 39.1299 145.87C41.3055 148.576 44.0065 150.814 47.0702 152.448C55.4982 156.723 66.2803 155.235 73.8311 149.528C81.3818 143.82 85.6791 134.393 86.0456 124.943C86.3953 118.39 84.6786 111.892 81.1376 106.366C79.3423 103.636 77.0039 101.305 74.2682 99.5191C71.5324 97.7328 68.4579 96.5294 65.2365 95.9838" fill="#263238"/>
<path d="M46.7704 118.025C47.7254 115.538 47.3479 112.773 47.7254 110.141C48.5582 104.356 53.2774 99.7147 58.6074 97.4606C63.6264 95.3619 69.7115 95.8172 75.7965 97.7715C79.9938 99.0437 83.7416 101.486 86.6008 104.812C88.4203 107.068 89.6723 109.728 90.2519 112.568C90.8316 115.408 90.7218 118.346 89.932 121.135L60.3285 116.826C57.5525 119.114 54.7099 121.457 51.3453 122.734C50.3754 123.159 49.3122 123.327 48.2584 123.222C47.7334 123.16 47.2375 122.947 46.8299 122.611C46.4223 122.274 46.1203 121.827 45.9598 121.323C45.6933 120.202 46.3596 119.102 46.7704 118.025Z" fill="#263238"/>
<path d="M76.4294 105.944L50.5791 111.43C49.381 111.509 48.2555 112.032 47.422 112.896C46.5885 113.76 46.1068 114.904 46.0708 116.104L46.3817 172.058C46.4079 175.878 47.6875 179.584 50.0239 182.607L52.489 185.783C58.1187 193.034 69.5004 192.301 73.7977 184.195C74.0606 183.734 74.2622 183.242 74.3973 182.729C74.4751 182.229 74.6083 181.896 74.6305 181.474L75.1302 176.011C75.3745 171.036 75.4189 166.017 75.4189 166.017C75.4189 166.017 86.0011 164.685 88.7438 151.049C90.0874 144.275 90.1763 133.071 89.9542 123.911C89.721 115.705 84.6686 105.4 76.4294 105.944Z" fill="#FFBE9D"/>
<path d="M85.9902 134.459C85.9757 134.917 85.783 135.351 85.4531 135.668C85.1233 135.986 84.6824 136.161 84.2247 136.158C83.9999 136.169 83.7753 136.134 83.5643 136.056C83.3533 135.978 83.1602 135.858 82.9964 135.703C82.8327 135.549 82.7018 135.363 82.6114 135.157C82.521 134.951 82.473 134.729 82.4702 134.504C82.4874 134.046 82.6806 133.613 83.0096 133.294C83.3385 132.976 83.7778 132.796 84.2358 132.794C84.4611 132.785 84.6859 132.821 84.897 132.901C85.1081 132.98 85.3011 133.101 85.4646 133.256C85.6282 133.412 85.7589 133.598 85.8492 133.805C85.9395 134.011 85.9874 134.234 85.9902 134.459Z" fill="#263238"/>
<path d="M87.2783 129.674C87.0451 129.896 85.7571 128.863 83.8583 128.796C81.9595 128.73 80.527 129.618 80.3494 129.374C80.1717 129.129 80.4826 128.863 81.1045 128.452C81.9464 127.911 82.9365 127.647 83.936 127.697C84.9178 127.73 85.8632 128.077 86.6343 128.685C87.2006 129.163 87.3894 129.585 87.2783 129.674Z" fill="#263238"/>
<path d="M69.023 134.026C69.0114 134.486 68.8199 134.922 68.4898 135.242C68.1596 135.562 67.7171 135.739 67.2575 135.736C67.0336 135.745 66.8102 135.709 66.6005 135.63C66.3908 135.552 66.199 135.431 66.0365 135.277C65.874 135.123 65.7441 134.938 65.6543 134.732C65.5646 134.527 65.517 134.306 65.5142 134.082C65.5257 133.624 65.7157 133.189 66.0435 132.87C66.3712 132.55 66.8109 132.372 67.2686 132.372C67.493 132.363 67.717 132.399 67.9273 132.478C68.1376 132.556 68.3301 132.676 68.4935 132.83C68.6569 132.985 68.7879 133.17 68.8788 133.375C68.9698 133.58 69.0188 133.802 69.023 134.026Z" fill="#263238"/>
<path d="M69.3007 129.218C69.0675 129.44 67.7795 128.397 65.8807 128.33C63.9819 128.263 62.5494 129.152 62.3718 128.918C62.1941 128.685 62.505 128.408 63.138 127.986C63.9794 127.453 64.9633 127.19 65.9584 127.231C66.9442 127.27 67.8924 127.62 68.6678 128.23C69.223 128.696 69.4118 129.118 69.3007 129.218Z" fill="#263238"/>
<path d="M74.9749 143.609C75.9879 143.348 77.0272 143.203 78.0729 143.176C78.5615 143.176 79.0168 143.065 79.1167 142.743C79.1737 142.246 79.0809 141.743 78.8502 141.3C78.4394 140.111 78.0063 138.868 77.5621 137.557C75.7744 132.239 74.5085 127.875 74.7195 127.808C74.9305 127.741 76.5628 131.994 78.3394 137.313C78.7614 138.623 79.1722 139.867 79.5609 141.066C79.8461 141.661 79.9091 142.339 79.7385 142.976C79.6603 143.143 79.546 143.29 79.4039 143.407C79.2618 143.524 79.0954 143.609 78.9168 143.654C78.6466 143.709 78.3711 143.736 78.0951 143.731C77.0542 143.829 76.005 143.788 74.9749 143.609Z" fill="#263238"/>
<path d="M75.4191 166.073C68.9572 165.925 62.6637 163.984 57.2417 160.465C57.2417 160.465 61.4835 170.137 75.2636 169.348L75.4191 166.073Z" fill="#EB996E"/>
<path d="M73.9977 148.14C73.6551 147.673 73.1987 147.301 72.6721 147.06C72.1454 146.819 71.5659 146.717 70.9885 146.763C70.5619 146.785 70.1445 146.896 69.7624 147.087C69.3803 147.278 69.0417 147.545 68.7677 147.873C68.5077 148.176 68.3452 148.549 68.3016 148.946C68.258 149.342 68.3354 149.742 68.5234 150.094C68.8149 150.444 69.2038 150.699 69.6407 150.828C70.0776 150.956 70.5429 150.952 70.9774 150.816C71.8859 150.536 72.7283 150.075 73.4536 149.461C73.6755 149.322 73.8679 149.141 74.0199 148.928C74.0896 148.823 74.1268 148.699 74.1268 148.573C74.1268 148.446 74.0896 148.323 74.0199 148.217" fill="#EB996E"/>
<path d="M69.3562 144.709C69.6672 144.709 69.5894 146.752 71.2883 148.284C72.9873 149.816 75.1859 149.672 75.197 149.961C75.197 150.083 74.6862 150.338 73.7646 150.327C72.5586 150.296 71.4024 149.84 70.5 149.039C69.6422 148.283 69.1093 147.225 69.012 146.085C68.9232 145.186 69.2119 144.686 69.3562 144.709Z" fill="#263238"/>
<path d="M69.1896 123.6C68.9897 124.11 67.1021 123.788 64.8701 123.966C62.6382 124.144 60.8282 124.688 60.5506 124.21C60.4285 123.988 60.7505 123.511 61.4945 123.044C62.4808 122.461 63.5927 122.122 64.7369 122.056C65.8731 121.96 67.0159 122.139 68.0681 122.578C68.9231 122.933 69.2785 123.355 69.1896 123.6Z" fill="#263238"/>
<path d="M87.0452 121.379C86.7009 121.801 85.4129 121.301 83.8472 121.212C82.2815 121.123 80.9379 121.39 80.6492 120.935C80.516 120.713 80.7491 120.291 81.3377 119.902C82.1346 119.432 83.0585 119.222 83.9804 119.302C84.8993 119.352 85.7801 119.686 86.5011 120.257C87.0341 120.724 87.2006 121.179 87.0452 121.379Z" fill="#263238"/>
<path d="M42.0291 114.028C44.7163 106.155 56.4644 95.4286 64.7037 96.1725L77.8065 104.378C77.3296 106.632 76.2522 108.714 74.6884 110.405C73.1245 112.096 71.1325 113.332 68.9232 113.983C66.558 114.65 63.7376 114.794 62.2608 116.782C60.7839 118.769 61.5723 121.823 60.2065 123.911C58.3077 126.82 53.2998 126.576 51.8562 129.729C51.2344 131.106 51.512 132.772 50.8569 134.171C49.9907 135.992 45.3048 138.224 43.3838 137.58C41.4628 136.936 41.5294 133.66 40.9409 131.928C40.1834 129.979 40.1285 127.827 40.7855 125.843C41.7404 121.945 40.7521 117.781 42.0291 114.028Z" fill="#263238"/>
<path d="M49.0692 139.279C49.0692 138.257 47.9588 135.803 47.0149 135.603C44.3388 135.081 39.4752 135.115 39.1643 141.955C38.7424 151.304 48.2142 149.794 48.2475 149.528C48.2808 149.261 48.9359 142.81 49.0692 139.279Z" fill="#FFBE9D"/>
<path d="M45.6046 145.863C45.6046 145.863 45.4381 145.963 45.1494 146.074C44.7611 146.231 44.3274 146.231 43.939 146.074C42.9619 145.663 42.2068 144.053 42.229 142.377C42.2471 141.571 42.4404 140.779 42.7953 140.056C42.898 139.768 43.0688 139.51 43.2931 139.303C43.5175 139.096 43.7886 138.947 44.0834 138.868C44.2716 138.825 44.4689 138.85 44.6399 138.94C44.8109 139.03 44.9443 139.177 45.0161 139.356C45.1272 139.623 45.0161 139.812 45.1161 139.823C45.216 139.834 45.3159 139.678 45.2604 139.29C45.2255 139.056 45.1071 138.843 44.9273 138.69C44.804 138.585 44.661 138.505 44.5066 138.455C44.3522 138.406 44.1894 138.387 44.0279 138.401C43.641 138.462 43.2759 138.621 42.9671 138.862C42.6582 139.102 42.4157 139.418 42.2623 139.778C41.8308 140.569 41.5984 141.453 41.585 142.354C41.585 144.242 42.44 146.052 43.8058 146.507C44.0532 146.59 44.316 146.618 44.5753 146.587C44.8345 146.556 45.0836 146.468 45.3048 146.33C45.5158 146.085 45.6046 145.874 45.6046 145.863Z" fill="#EB996E"/>
<path d="M40.0523 111.663C40.0523 108.731 36.4324 106.821 33.5787 106.111C30.6671 105.611 27.6728 106.183 25.1507 107.721C23.6516 108.542 22.1414 109.72 21.8194 111.396C21.4974 113.073 23.0964 115.072 24.6954 114.472C23.9139 114.728 23.199 115.154 22.6023 115.719C22.0055 116.285 21.5419 116.976 21.2448 117.743C20.9477 118.509 20.8245 119.332 20.8843 120.153C20.9441 120.973 21.1853 121.769 21.5904 122.485C21.9955 123.2 22.5545 123.817 23.227 124.29C23.8994 124.763 24.6686 125.081 25.4788 125.22C26.2891 125.36 27.1203 125.318 27.9123 125.097C28.7043 124.876 29.4374 124.482 30.0587 123.944C29.2475 126.656 27.5308 129.007 25.1951 130.606C27.6112 130.953 30.0761 130.657 32.3414 129.748C34.6067 128.839 36.5925 127.349 38.0989 125.429C39.6052 123.508 40.5789 121.224 40.9218 118.808C41.2648 116.391 40.9649 113.927 40.0523 111.663Z" fill="#263238"/>
<path d="M33.5454 126.476C33.2675 125.566 33.1473 124.616 33.1901 123.666C33.1528 119.047 34.6703 114.549 37.4985 110.897C38.0324 110.111 38.7017 109.427 39.475 108.876C37.5221 111.369 35.9641 114.148 34.8557 117.115C33.1346 122.112 33.7564 126.487 33.5454 126.476Z" fill="#9C7BEB"/>
<path d="M75.075 101.558C75.93 105.367 81.7374 110.241 84.258 113.206C89.0994 118.858 90.0544 120.735 90.0099 133.382C92.2974 129.018 94.0518 124.732 93.8742 119.813C93.7664 114.83 91.8389 110.059 88.4554 106.399C86.7623 104.614 84.6768 103.247 82.3641 102.407C80.0514 101.566 77.5749 101.276 75.1305 101.558" fill="#263238"/>
<path d="M114.727 205.581C114.727 205.581 104.645 188.781 101.847 185.383C99.5998 182.757 96.7762 180.685 93.5964 179.331C92.3405 178.789 91.0247 178.397 89.6766 178.165L75.1747 174.956C75.1747 174.956 75.1747 184.85 64.7923 185.461C54.41 186.071 45.7044 171.625 45.7044 171.625C45.7044 171.625 28.9483 174.223 24.9509 176.289C20.9534 178.354 14.6463 180.963 11.1818 198.275L8.75 215.242L37.6206 217.907L40.3856 260.813L54.6987 270.807C54.6987 270.807 94.3959 281.122 96.8943 281.8C99.3927 282.477 100.226 217.929 100.226 217.929C100.226 217.929 110.508 211.366 114.727 205.581Z" fill="#263238"/>
<path d="M95.7173 198.363C95.9513 198.756 96.1412 199.173 96.2836 199.607C96.6056 200.418 97.0276 201.606 97.4939 203.094C99.9213 210.89 100.922 219.06 100.448 227.212C100.359 228.766 100.237 230.021 100.103 230.887C100.074 231.339 99.9958 231.785 99.8702 232.22C99.8172 231.77 99.8172 231.315 99.8702 230.865C99.9257 229.999 99.9924 228.744 100.026 227.19C100.134 223.147 99.9483 219.102 99.4705 215.086C98.9697 211.077 98.1755 207.109 97.0942 203.216C96.6833 201.717 96.3169 200.507 96.0504 199.685C95.8932 199.257 95.7815 198.814 95.7173 198.363Z" fill="#455A64"/>
<path d="M94.4625 268.641L40.0525 256.804L37.543 217.94L13.3694 215.719C13.3694 215.719 14.2688 242.28 15.1905 250.142C16.534 261.501 23.2409 277.003 27.1718 280.123C31.1026 283.243 96.8499 281.822 96.8499 281.822L94.4625 268.641Z" fill="#FFBE9D"/>
<path d="M125.343 275.681C125.162 276.057 124.873 276.37 124.513 276.579C124.153 276.789 123.738 276.886 123.322 276.858C123.145 276.846 122.97 276.812 122.8 276.758C121.59 276.37 121.69 273.916 121.69 273.916L115.938 272.983C115.938 272.983 108.443 277.813 105.778 281.011C103.113 284.209 96.317 281.622 96.317 281.622L93.9629 269.341L104.567 259.758C104.567 259.758 103.923 260.324 104.656 258.537C105.389 256.749 108.709 257.426 108.709 257.426C109.231 256.538 111.407 256.227 111.407 256.227L120.713 257.337C121.658 257.447 122.567 257.767 123.372 258.274C124.177 258.782 124.858 259.463 125.365 260.269L129.307 266.498C129.307 266.498 131.384 270.94 131.051 272.05C130.902 272.496 130.591 272.87 130.179 273.096C129.768 273.322 129.286 273.385 128.83 273.272C128.83 273.272 128.374 276.225 127.597 276.325C126.803 276.284 126.024 276.096 125.299 275.77L125.343 275.681Z" fill="#FFBE9D"/>
<path d="M105.567 266.865C105.567 266.965 106.81 266.865 108.798 266.931C111.379 267.056 113.931 267.534 116.382 268.353C117.731 268.806 119.042 269.367 120.302 270.029C121.412 270.662 122.589 271.14 122.956 271.995C123.038 272.172 123.073 272.368 123.055 272.563C123.038 272.758 122.969 272.945 122.856 273.105C122.687 273.367 122.443 273.573 122.156 273.694C121.892 273.786 121.614 273.827 121.334 273.816C121.334 273.816 121.623 274.071 122.223 273.916C122.585 273.817 122.902 273.598 123.122 273.294C123.282 273.091 123.387 272.851 123.426 272.596C123.465 272.341 123.437 272.08 123.344 271.839C123.108 271.305 122.722 270.85 122.234 270.529C121.723 270.207 121.19 269.863 120.602 269.541C119.326 268.841 117.992 268.254 116.615 267.786C114.111 266.94 111.486 266.508 108.842 266.509C107.739 266.455 106.633 266.574 105.567 266.865Z" fill="#EB996E"/>
<path d="M104.9 272.794C104.9 272.972 108.698 272.794 113.351 273.083C118.003 273.372 121.734 273.927 121.768 273.749C120.991 273.444 120.177 273.246 119.347 273.161C117.373 272.826 115.383 272.603 113.384 272.494C111.383 272.383 109.378 272.383 107.377 272.494C106.541 272.48 105.708 272.581 104.9 272.794Z" fill="#EB996E"/>
<path d="M125.287 275.448C125.369 275.125 125.41 274.793 125.41 274.46C125.466 273.55 125.466 272.638 125.41 271.728C125.378 271.093 125.293 270.461 125.154 269.841C124.987 269.113 124.677 268.427 124.244 267.82C123.327 266.414 122.142 265.203 120.757 264.255C119.389 263.308 117.894 262.56 116.315 262.034C115.006 261.665 113.656 261.46 112.296 261.424C111.185 261.424 110.23 261.424 109.586 261.424C109.25 261.401 108.912 261.435 108.587 261.524C109.809 261.698 111.04 261.802 112.273 261.834C113.592 261.923 114.896 262.161 116.16 262.545C117.675 263.098 119.112 263.845 120.435 264.766C121.745 265.684 122.874 266.836 123.766 268.164C124.497 269.244 124.915 270.504 124.977 271.806C125.221 274.016 125.165 275.448 125.287 275.448Z" fill="#EB996E"/>
<path d="M111.863 258.57C111.863 258.659 113.251 258.703 115.471 258.958C117.692 259.214 121.023 259.436 122.989 262.39C124.88 264.594 126.457 267.049 127.675 269.685C128.078 270.817 128.375 271.985 128.563 273.172C128.629 272.846 128.629 272.51 128.563 272.183C128.506 271.281 128.323 270.392 128.019 269.541C126.893 266.8 125.33 264.261 123.389 262.023C122.87 261.338 122.266 260.722 121.59 260.191C120.923 259.709 120.169 259.362 119.369 259.169C118.08 258.824 116.759 258.612 115.427 258.537C114.242 258.407 113.045 258.418 111.863 258.57Z" fill="#EB996E"/>
<path d="M107.787 279.035C107.984 278.91 108.17 278.769 108.343 278.613L109.897 277.358C111.853 275.838 113.896 274.432 116.016 273.15H115.882L121.634 274.127L121.434 273.882C121.416 274.355 121.453 274.829 121.545 275.293C121.621 275.81 121.849 276.293 122.201 276.681C122.411 276.871 122.674 276.995 122.956 277.036C123.224 277.086 123.498 277.086 123.766 277.036C124.325 276.954 124.835 276.669 125.199 276.236C125.296 276.135 125.382 276.024 125.454 275.903L125.51 275.803L125.176 275.926L125.354 275.992C125.598 276.092 125.843 276.181 126.098 276.259C126.353 276.336 126.609 276.403 126.886 276.459C127.031 276.471 127.175 276.471 127.32 276.459C127.503 276.47 127.686 276.435 127.853 276.359C128.105 276.16 128.297 275.894 128.408 275.592C128.525 275.338 128.622 275.074 128.696 274.804C128.853 274.268 128.975 273.723 129.063 273.172L128.73 273.405C129.12 273.486 129.525 273.461 129.902 273.332C130.279 273.203 130.614 272.975 130.873 272.672C131.129 272.359 131.271 271.967 131.273 271.562C131.242 271.186 131.175 270.814 131.073 270.451C130.637 269.037 130.106 267.653 129.485 266.309L127.386 262.978L126.054 260.88C125.649 260.145 125.161 259.459 124.599 258.836C124.004 258.237 123.294 257.765 122.511 257.448C121.749 257.165 120.948 257 120.135 256.96L111.374 255.971H111.307C110.78 256.056 110.263 256.194 109.764 256.382C109.231 256.542 108.764 256.869 108.431 257.315L108.753 257.215C108.28 256.996 107.76 256.897 107.239 256.926C106.718 256.955 106.213 257.112 105.766 257.382C104.989 257.947 104.46 258.79 104.29 259.736L104.356 259.614L97.0498 266.187L95.0843 267.997C94.8421 268.195 94.6224 268.418 94.4292 268.663C94.6897 268.493 94.9349 268.299 95.1621 268.086L97.2163 266.365L104.645 259.947H104.7V259.869C104.859 259.045 105.323 258.311 106 257.815C106.381 257.599 106.809 257.477 107.248 257.459C107.686 257.442 108.123 257.529 108.52 257.715L108.72 257.793L108.842 257.615C109.132 257.271 109.519 257.023 109.953 256.904C110.417 256.735 110.897 256.613 111.385 256.538H111.307L120.069 257.57C120.828 257.615 121.576 257.772 122.289 258.037C122.998 258.321 123.641 258.748 124.177 259.292C124.707 259.886 125.169 260.538 125.554 261.235L126.886 263.345C127.608 264.455 128.319 265.565 128.985 266.676C129.603 267.984 130.126 269.335 130.551 270.718C130.649 271.039 130.712 271.371 130.74 271.706C130.746 271.994 130.647 272.274 130.462 272.494C130.273 272.716 130.028 272.881 129.752 272.973C129.476 273.065 129.18 273.08 128.896 273.016H128.596V273.294C128.512 273.822 128.397 274.345 128.252 274.86C128.158 275.317 127.952 275.744 127.653 276.103C127.575 276.115 127.497 276.115 127.419 276.103H127.064C126.831 276.103 126.587 275.992 126.342 275.926L125.632 275.681L125.465 275.615L125.121 275.737V275.803C125.067 275.898 125.004 275.988 124.932 276.07C124.65 276.407 124.256 276.632 123.822 276.703C123.613 276.747 123.397 276.747 123.189 276.703C122.993 276.684 122.807 276.607 122.656 276.481C122.168 275.777 121.948 274.923 122.034 274.071V273.86H121.834L116.06 272.961H115.993H115.938C113.825 274.283 111.804 275.744 109.886 277.336C109.22 277.902 108.72 278.357 108.387 278.668C108.175 278.768 107.974 278.891 107.787 279.035Z" fill="#EB996E"/>
<path d="M195.865 239.959L124.277 240.548C121.945 240.548 119.736 241.658 119.38 243.957L111.607 296.146H74.6752C74.132 296.185 73.6238 296.428 73.2528 296.827C72.8818 297.226 72.6755 297.75 72.6755 298.295C72.6755 298.839 72.8818 299.364 73.2528 299.762C73.6238 300.161 74.132 300.404 74.6752 300.443H192.467L200.518 245.367C200.618 244.697 200.573 244.014 200.386 243.363C200.198 242.713 199.873 242.11 199.431 241.597C198.989 241.084 198.442 240.672 197.827 240.389C197.211 240.106 196.542 239.96 195.865 239.959Z" fill="#E0E0E0"/>
<path d="M195.865 239.959C196.238 239.944 196.612 239.981 196.975 240.07C197.928 240.296 198.787 240.811 199.435 241.545C200.084 242.278 200.489 243.195 200.595 244.168C200.623 245.156 200.533 246.143 200.329 247.11L199.296 254.384C197.719 265.321 195.454 281.089 192.634 300.477V300.665H192.445L78.1727 300.732H75.0969C74.5379 300.785 73.9753 300.677 73.4757 300.421C73.0936 300.212 72.7748 299.903 72.5528 299.528C72.3308 299.153 72.2136 298.725 72.2136 298.289C72.2136 297.853 72.3308 297.425 72.5528 297.05C72.7748 296.675 73.0936 296.367 73.4757 296.157C73.9771 295.907 74.539 295.803 75.0969 295.857H111.563L111.285 296.102C114.094 277.414 116.726 259.98 119.058 244.334C119.135 243.29 119.612 242.315 120.39 241.614C121.167 240.959 122.115 240.539 123.122 240.404C124.081 240.31 125.046 240.277 126.009 240.304H128.818L139.601 240.237L158.755 240.115L186.027 239.971H195.843C195.843 239.971 195.632 239.971 195.21 239.971H193.322L186.027 240.07L158.755 240.37L139.601 240.57L128.818 240.67H126.009C125.072 240.653 124.134 240.686 123.2 240.77C122.277 240.892 121.41 241.277 120.701 241.88C120.356 242.191 120.075 242.567 119.875 242.986C119.675 243.405 119.56 243.859 119.535 244.323C117.204 259.969 114.605 277.402 111.763 296.091V296.335H75.1191C74.6628 296.277 74.1995 296.354 73.7866 296.557C73.4108 296.773 73.1208 297.111 72.9651 297.516C72.8094 297.92 72.7976 298.366 72.9316 298.778C73.0903 299.195 73.3885 299.544 73.7755 299.766C74.1927 299.968 74.6582 300.049 75.1191 299.999H78.1949L192.467 300.066L192.245 300.255C195.121 280.878 197.453 265.121 199.074 254.184C199.485 251.463 199.851 249.031 200.184 246.933C200.391 245.981 200.491 245.009 200.484 244.035C200.391 243.084 200.007 242.185 199.386 241.46C198.764 240.735 197.934 240.219 197.009 239.982C196.628 239.955 196.246 239.947 195.865 239.959Z" fill="#263238"/>
<path d="M157.034 274.027C159.511 274.027 161.52 272.018 161.52 269.541C161.52 267.063 159.511 265.055 157.034 265.055C154.556 265.055 152.548 267.063 152.548 269.541C152.548 272.018 154.556 274.027 157.034 274.027Z" fill="white"/>
<path d="M114.45 299.955C114.55 299.955 116.826 286.685 119.536 270.285C122.245 253.884 124.366 240.559 124.266 240.548C124.166 240.537 121.879 253.817 119.169 270.218C116.46 286.619 114.361 299.944 114.45 299.955Z" fill="#263238"/>
</svg>
