<svg width="461" height="412" viewBox="0 0 461 412" fill="none" xmlns="http://www.w3.org/2000/svg">
<path d="M437.195 207.204C437.195 207.204 437.195 201.43 429.111 193.427C421.028 185.424 415.9 180.782 415.9 180.782C415.9 180.782 411.882 193.993 419.365 202.042C424.858 207.695 430.815 212.879 437.172 217.539L437.195 207.204Z" fill="#9C7BEB"/>
<path d="M425.531 243.071C425.531 243.071 425.531 237.297 417.448 229.295C409.364 221.292 404.26 216.65 404.26 216.65C404.26 216.65 400.23 229.86 407.724 237.909C413.218 243.562 419.174 248.746 425.531 253.407V243.071Z" fill="#9C7BEB"/>
<path d="M436.687 216.985C436.687 216.985 437.299 211.28 446.144 204.132C454.99 196.984 460.614 192.965 460.614 192.965C460.614 192.965 463.212 206.522 454.944 213.751C448.884 218.793 442.414 223.321 435.601 227.285L436.687 216.985Z" fill="#9C7BEB"/>
<path d="M422.597 259.342C422.597 259.342 423.752 253.73 433.348 247.552C442.945 241.374 448.903 237.967 448.903 237.967C448.903 237.967 450.058 251.732 441.085 258.026C434.529 262.405 427.619 266.229 420.426 269.458L422.597 259.342Z" fill="#9C7BEB"/>
<path d="M425.242 305.534C425.242 305.534 425.242 299.76 433.326 291.746C441.409 283.731 446.525 279.112 446.525 279.112C446.525 279.112 450.555 292.323 443.061 300.36C437.569 306.019 431.613 311.207 425.254 315.869L425.242 305.534Z" fill="#9C7BEB"/>
<path d="M425.115 316.804C425.115 316.804 425.923 311.123 419.11 302.023C412.296 292.923 407.827 287.634 407.827 287.634C407.827 287.634 401.973 300.141 408.22 309.16C412.851 315.538 418.008 321.518 423.637 327.036L425.115 316.804Z" fill="#9C7BEB"/>
<path d="M417.183 350.212C417.183 350.212 417.183 344.439 425.266 336.436C433.35 328.433 438.477 323.791 438.477 323.791C438.477 323.791 442.496 337.002 435.013 345.051C429.518 350.705 423.561 355.893 417.206 360.559L417.183 350.212Z" fill="#9C7BEB"/>
<path d="M422.552 380.503C422.552 380.503 421.097 374.948 426.837 365.132C432.576 355.317 436.421 349.566 436.421 349.566C436.421 349.566 443.65 361.322 438.465 370.999C434.586 377.859 430.14 384.384 425.174 390.503L422.552 380.503Z" fill="#9C7BEB"/>
<path d="M437.922 205.737C437.518 211.716 436.786 217.668 435.728 223.567C432.541 239.988 424.596 250.589 421.42 265.416C418.245 280.244 427.368 299.356 424.885 318.41C422.402 337.464 415.034 348.053 417.148 360.767C419.261 373.481 430.393 407.917 430.393 407.917" stroke="#263238" stroke-linecap="round" stroke-linejoin="round"/>
<path d="M436.617 220.807L445.278 214.155" stroke="#263238" stroke-linecap="round" stroke-linejoin="round"/>
<path d="M437.021 213.151L433.384 206.696" stroke="#263238" stroke-linecap="round" stroke-linejoin="round"/>
<path d="M421.905 264.735C421.905 264.735 429.157 259.296 436.617 253.857" stroke="#263238" stroke-linecap="round" stroke-linejoin="round"/>
<path d="M425.531 253.407C425.531 253.407 419.48 241.558 412.632 233.706" stroke="#263238" stroke-linecap="round" stroke-linejoin="round"/>
<path d="M425.531 313.71C429.668 306.064 434.896 299.062 441.052 292.924" stroke="#263238" stroke-linecap="round" stroke-linejoin="round"/>
<path d="M424.123 321.77C421.922 316.586 419.291 311.595 416.258 306.85C412.032 300.603 411.42 299.794 411.42 299.794" stroke="#263238" stroke-linecap="round" stroke-linejoin="round"/>
<path d="M417.183 360.767C419.024 356.216 421.209 351.811 423.719 347.591C426.23 343.669 429.061 339.961 432.183 336.505" stroke="#263238" stroke-linecap="round" stroke-linejoin="round"/>
<path d="M425.173 390.503C424.752 386.151 425.502 381.766 427.344 377.8C430.37 371.957 433.788 364.301 435.197 361.275" stroke="#263238" stroke-linecap="round" stroke-linejoin="round"/>
<path d="M371.579 283.939C371.579 283.939 370.956 280.336 375.125 274.412C379.293 268.488 382.053 265.058 382.053 265.058C382.053 265.058 386.003 272.911 382.192 278.754C379.362 282.899 376.19 286.8 372.711 290.418L371.579 283.939Z" fill="#9C7BEB"/>
<path d="M382.793 305.164C382.793 305.164 382.17 301.561 386.339 295.637C390.507 289.713 393.267 286.283 393.267 286.283C393.267 286.283 397.217 294.136 393.406 299.991C390.574 304.13 387.402 308.028 383.925 311.642L382.793 305.164Z" fill="#9C7BEB"/>
<path d="M372.954 290.013C372.954 290.013 371.961 286.549 365.633 282.981C359.305 279.412 355.355 277.542 355.355 277.542C355.355 277.542 355.194 286.33 361.129 289.956C365.475 292.457 370.021 294.593 374.721 296.342L372.954 290.013Z" fill="#9C7BEB"/>
<path d="M386.395 315.049C386.395 315.049 385.032 311.654 378.381 308.813C371.729 305.973 367.572 304.494 367.572 304.494C367.572 304.494 368.334 313.248 374.662 316.227C379.248 318.259 383.995 319.904 388.855 321.147L386.395 315.049Z" fill="#9C7BEB"/>
<path d="M389.744 344.3C389.744 344.3 389.132 340.697 383.208 336.528C377.284 332.359 373.554 330.038 373.554 330.038C373.554 330.038 372.468 338.757 378.023 342.983C382.081 345.938 386.38 348.546 390.876 350.778L389.744 344.3Z" fill="#9C7BEB"/>
<path d="M391.061 351.356C391.061 351.356 389.906 347.891 393.22 341.425C396.535 334.958 398.729 331.182 398.729 331.182C398.729 331.182 403.752 338.387 400.819 344.727C398.609 349.228 396.025 353.535 393.093 357.603L391.061 351.356Z" fill="#9C7BEB"/>
<path d="M401.154 380.399C401.154 380.399 401.569 376.773 407.239 372.315C412.909 367.858 416.478 365.283 416.478 365.283C416.478 365.283 418.06 373.932 412.759 378.47C408.877 381.647 404.736 384.494 400.38 386.981L401.154 380.399Z" fill="#9C7BEB"/>
<path d="M399.641 371.437C399.641 371.437 399.017 367.835 393.105 363.666C387.192 359.497 383.474 357.176 383.474 357.176C383.474 357.176 382.388 365.894 387.943 370.133C392.004 373.083 396.303 375.69 400.796 377.927L399.641 371.437Z" fill="#9C7BEB"/>
<path d="M399.641 391.023C399.641 391.023 399.941 387.373 395.276 381.842C390.61 376.311 387.585 373.123 387.585 373.123C387.585 373.123 384.317 381.276 388.624 386.785C391.781 390.664 395.258 394.271 399.017 397.57L399.641 391.023Z" fill="#9C7BEB"/>
<path d="M370.967 283.085C371.871 286.792 372.977 290.446 374.282 294.032C378.058 303.986 384.19 309.772 387.793 318.721C391.395 327.671 387.793 340.662 391.349 352.337C394.906 364.012 400.795 369.855 400.795 378.054C400.795 386.253 397.608 409.06 397.608 409.06" stroke="#263238" stroke-linecap="round" stroke-linejoin="round"/>
<path d="M373.428 292.392L367.273 289.17" stroke="#263238" stroke-linecap="round" stroke-linejoin="round"/>
<path d="M372.342 287.635L373.912 283.2" stroke="#263238" stroke-linecap="round" stroke-linejoin="round"/>
<path d="M387.411 318.352C387.411 318.352 382.272 315.731 377.018 313.121" stroke="#263238" stroke-linecap="round" stroke-linejoin="round"/>
<path d="M383.913 311.643C385.428 306.884 387.42 302.292 389.86 297.935" stroke="#263238" stroke-linecap="round" stroke-linejoin="round"/>
<path d="M390.461 349.45C387.034 345.114 382.997 341.298 378.474 338.122" stroke="#263238" stroke-linecap="round" stroke-linejoin="round"/>
<path d="M392.215 354.347C393.037 350.862 394.146 347.452 395.53 344.15C397.504 339.773 397.839 339.196 397.839 339.196" stroke="#263238" stroke-linecap="round" stroke-linejoin="round"/>
<path d="M400.519 384.279C402.521 381.797 404.739 379.498 407.147 377.408C408.679 376.28 410.115 375.029 411.443 373.666" stroke="#263238" stroke-linecap="round" stroke-linejoin="round"/>
<path d="M400.795 378.054C399.145 375.393 397.296 372.861 395.263 370.479C393.262 368.294 391.083 366.278 388.75 364.451" stroke="#263238" stroke-linecap="round" stroke-linejoin="round"/>
<path d="M399.017 397.57C398.81 394.793 397.865 392.122 396.28 389.833C393.751 386.496 390.772 382.061 389.559 380.318" stroke="#263238" stroke-linecap="round" stroke-linejoin="round"/>
<path d="M43.5848 233.637L38.5269 219.19L43.5848 225.322L39.6124 203.647L45.7558 219.19L47.9268 188.831L51.5413 217.735L55.5138 211.961V219.19L60.2138 209.432L57.6848 226.408L62.0152 223.521L55.1558 232.909L43.5848 233.637Z" fill="#9C7BEB"/>
<path d="M59.4852 230.022H40.6968L44.0803 267.957H56.1016L59.4852 230.022Z" fill="#263238" stroke="#263238" stroke-linecap="round" stroke-linejoin="round"/>
<path d="M94.7296 267.53H30.7197V403.102H94.7296V267.53Z" fill="white" stroke="#263238" stroke-linecap="round" stroke-linejoin="round"/>
<path d="M98.229 267.53H62.7192V403.102H98.229V267.53Z" fill="white" stroke="#263238" stroke-linecap="round" stroke-linejoin="round"/>
<path d="M94.2334 267.53H62.7192V403.102H94.2334V267.53Z" fill="#263238" stroke="#263238" stroke-linecap="round" stroke-linejoin="round"/>
<path d="M90.6882 371.576H62.7192V399.337H90.6882V371.576Z" fill="#9C7BEB" stroke="#263238" stroke-linecap="round" stroke-linejoin="round"/>
<path d="M90.6882 373.077H62.7192V376.634H90.6882V373.077Z" fill="white" stroke="#263238" stroke-linecap="round" stroke-linejoin="round"/>
<path d="M90.6882 393.517H62.7192V397.074H90.6882V393.517Z" fill="white" stroke="#263238" stroke-linecap="round" stroke-linejoin="round"/>
<path d="M68.0195 372.153V407.259" stroke="#263238" stroke-linecap="round" stroke-linejoin="round"/>
<path d="M77.7783 372.153V407.259" stroke="#263238" stroke-linecap="round" stroke-linejoin="round"/>
<path d="M86.3462 372.153V407.259" stroke="#263238" stroke-linecap="round" stroke-linejoin="round"/>
<path d="M90.6882 272.564H62.7192V313.386H90.6882V272.564Z" fill="#9C7BEB" stroke="#263238" stroke-linecap="round" stroke-linejoin="round"/>
<path d="M90.6882 274.274H62.7192V278.315H90.6882V274.274Z" fill="white" stroke="#263238" stroke-linecap="round" stroke-linejoin="round"/>
<path d="M90.6882 300.441H62.7192V304.483H90.6882V300.441Z" fill="white" stroke="#263238" stroke-linecap="round" stroke-linejoin="round"/>
<path d="M68.0195 273.211V313.109" stroke="#263238" stroke-linecap="round" stroke-linejoin="round"/>
<path d="M77.7783 273.211V313.109" stroke="#263238" stroke-linecap="round" stroke-linejoin="round"/>
<path d="M86.3462 273.211V313.109" stroke="#263238" stroke-linecap="round" stroke-linejoin="round"/>
<path d="M90.6882 321.758H62.7192V362.58H90.6882V321.758Z" fill="#9C7BEB" stroke="#263238" stroke-linecap="round" stroke-linejoin="round"/>
<path d="M90.6882 323.467H62.7192V327.509H90.6882V323.467Z" fill="white" stroke="#263238" stroke-linecap="round" stroke-linejoin="round"/>
<path d="M90.6882 349.635H62.7192V353.677H90.6882V349.635Z" fill="white" stroke="#263238" stroke-linecap="round" stroke-linejoin="round"/>
<path d="M68.0195 322.417V362.303" stroke="#263238" stroke-linecap="round" stroke-linejoin="round"/>
<path d="M77.7783 322.417V362.303" stroke="#263238" stroke-linecap="round" stroke-linejoin="round"/>
<path d="M86.3462 322.417V362.303" stroke="#263238" stroke-linecap="round" stroke-linejoin="round"/>
<path d="M94.7184 312.82H62.7192V317.463H94.7184V312.82Z" fill="white" stroke="#263238" stroke-linecap="round" stroke-linejoin="round"/>
<path d="M94.7184 362.326H62.7192V366.968H94.7184V362.326Z" fill="white" stroke="#263238" stroke-linecap="round" stroke-linejoin="round"/>
<path d="M94.7183 267.53V403.09" stroke="#263238" stroke-linecap="round" stroke-linejoin="round"/>
<path d="M58.2041 267.53V403.09H62.7193V272.565H94.1642V267.472L58.2041 267.53Z" fill="white" stroke="#263238" stroke-linecap="round" stroke-linejoin="round"/>
<path d="M62.7192 272.564V267.53" stroke="#263238" stroke-linecap="round" stroke-linejoin="round"/>
<path d="M94.4768 205.252C91.1164 198.774 89.7075 194.131 89.7075 193.057C89.7075 190.933 94.3267 189.662 94.3267 189.662C101.533 185.851 135.426 191.36 150.68 193.9C159.22 195.389 167.859 196.238 176.524 196.441C176.524 196.441 178.638 194.755 181.144 192.63C183.649 190.505 195.544 176.532 200.209 175.308C204.874 174.084 209.101 177.006 209.101 177.006C209.101 177.006 216.734 181.625 215.452 182.514C214.171 183.403 195.544 199.455 190.878 202.423C186.213 205.39 176.478 204.12 168.002 205.818C160.704 207.273 131.141 209.074 124.363 209.629C119.272 210.836 113.929 210.391 109.108 208.358" fill="white"/>
<mask id="mask0_709_4068" style="mask-type:luminance" maskUnits="userSpaceOnUse" x="89" y="175" width="127" height="36">
<path d="M94.4758 205.252C91.1154 198.774 89.7065 194.131 89.7065 193.057C89.7065 190.933 94.3257 189.662 94.3257 189.662C101.532 185.851 135.425 191.36 150.679 193.9C159.219 195.389 167.858 196.238 176.523 196.441C176.523 196.441 178.637 194.755 181.143 192.63C183.649 190.505 195.543 176.532 200.208 175.308C204.874 174.084 209.1 177.006 209.1 177.006C209.1 177.006 216.733 181.625 215.451 182.514C214.17 183.403 195.543 199.455 190.877 202.423C186.212 205.39 176.477 204.12 168.001 205.818C160.703 207.273 131.14 209.074 124.362 209.629C119.271 210.836 113.928 210.391 109.107 208.358" fill="white"/>
</mask>
<g mask="url(#mask0_709_4068)">
<path d="M209.181 176.959C209.181 176.959 204.943 173.992 200.289 175.262C195.635 176.532 183.764 190.517 181.224 192.584C178.683 194.651 176.605 196.395 176.605 196.395C167.939 196.192 159.3 195.343 150.76 193.854C135.506 191.313 101.613 185.771 94.4067 189.616C94.4067 189.616 89.7876 190.886 89.7876 193.011C89.9481 194.199 90.2545 195.363 90.6999 196.475L91.335 196.706C91.335 196.706 99.7996 195.817 118.068 196.256C136.337 196.695 178.591 199.201 181.305 200.182C182.459 200.621 190.647 198.773 199.723 195.563C206.652 189.916 214.793 182.86 215.613 182.364C216.814 181.613 209.181 176.959 209.181 176.959Z" fill="#9C7BEB"/>
<path opacity="0.5" d="M209.181 176.959C209.181 176.959 204.943 173.992 200.289 175.262C195.635 176.532 183.764 190.517 181.224 192.584C178.683 194.651 176.605 196.395 176.605 196.395C167.939 196.192 159.3 195.343 150.76 193.854C135.506 191.313 101.613 185.771 94.4067 189.616C94.4067 189.616 89.7876 190.886 89.7876 193.011C89.9481 194.199 90.2545 195.363 90.6999 196.475L91.335 196.706C91.335 196.706 99.7996 195.817 118.068 196.256C136.337 196.695 178.591 199.201 181.305 200.182C182.459 200.621 190.647 198.773 199.723 195.563C206.652 189.916 214.793 182.86 215.613 182.364C216.814 181.613 209.181 176.959 209.181 176.959Z" fill="white"/>
</g>
<path d="M94.4768 205.252C91.1164 198.774 89.7075 194.131 89.7075 193.057C89.7075 190.933 94.3267 189.662 94.3267 189.662C101.533 185.851 135.426 191.36 150.68 193.9C159.22 195.389 167.859 196.238 176.524 196.441C176.524 196.441 178.638 194.755 181.144 192.63C183.649 190.505 195.544 176.532 200.209 175.308C204.874 174.084 209.101 177.006 209.101 177.006C209.101 177.006 216.734 181.625 215.452 182.514C214.171 183.403 195.544 199.455 190.878 202.423C186.213 205.39 176.478 204.12 168.002 205.818C160.704 207.273 131.141 209.074 124.363 209.629C119.272 210.836 113.929 210.391 109.108 208.358" stroke="#263238" stroke-linecap="round" stroke-linejoin="round"/>
<path d="M261.817 242.921C262.584 241.466 263.733 240.248 265.142 239.4C266.55 238.551 268.164 238.103 269.808 238.106H346.833C346.833 238.106 352.399 238.106 350.736 248.683C349.073 259.261 326.231 323.849 320.711 343.376C315.191 362.903 314.025 404.06 314.025 404.06H221.642C221.642 404.06 228.963 305.638 261.817 242.921Z" fill="white"/>
<mask id="mask1_709_4068" style="mask-type:luminance" maskUnits="userSpaceOnUse" x="221" y="238" width="131" height="167">
<path d="M261.816 242.921C262.583 241.466 263.732 240.248 265.141 239.4C266.549 238.551 268.163 238.103 269.807 238.106H346.832C346.832 238.106 352.398 238.106 350.735 248.683C349.072 259.261 326.23 323.849 320.71 343.376C315.19 362.903 314.024 404.06 314.024 404.06H221.641C221.641 404.06 228.962 305.638 261.816 242.921Z" fill="white"/>
</mask>
<g mask="url(#mask1_709_4068)">
<path opacity="0.16" d="M296.507 238.106H269.808C268.164 238.103 266.55 238.551 265.141 239.4C263.733 240.248 262.583 241.466 261.817 242.921C228.963 305.637 221.561 404.025 221.561 404.025H262.995L273.215 365.213L315.826 374.001C316.127 370.744 316.473 367.43 316.877 364.162L315.942 353.769C315.942 353.769 307.212 344.588 304.463 342.29C301.715 339.992 303.539 335.847 303.078 317.936C302.616 300.025 286.541 287.149 280.559 276.121C274.577 265.093 283.781 258.199 292.049 247.171C294.994 243.187 296.195 240.253 296.507 238.106Z" fill="black"/>
</g>
<path d="M261.817 242.921C262.584 241.466 263.733 240.248 265.142 239.4C266.55 238.551 268.164 238.103 269.808 238.106H346.833C346.833 238.106 352.399 238.106 350.736 248.683C349.073 259.261 326.231 323.849 320.711 343.376C315.191 362.903 314.025 404.06 314.025 404.06H221.642C221.642 404.06 228.963 305.638 261.817 242.921Z" stroke="#263238" stroke-linecap="round" stroke-linejoin="round"/>
<path d="M333.473 256.478C325.689 274.643 309.222 346.552 306.543 404.025H313.98C313.98 404.025 315.135 362.823 320.666 343.341C326.197 323.86 349.062 259.261 350.69 248.649C352.319 238.036 346.787 238.071 346.787 238.071C346.787 238.071 339.72 241.916 333.473 256.478Z" fill="#263238" stroke="#263238" stroke-linecap="round" stroke-linejoin="round"/>
<path d="M198.165 220.172C198.165 220.172 185.878 212.966 181.224 200.263C176.57 187.56 217.658 167.213 235.499 165.943C253.341 164.673 258.375 169.326 268.988 187.549C279.6 205.771 286.783 230.761 281.275 243.048C275.767 255.335 266.447 258.303 273.191 268.453C279.935 278.604 299.036 307.427 297.765 320.985C296.495 334.542 283.365 346.39 264.276 347.683C245.188 348.977 219.783 337.51 198.604 318.814C177.425 300.118 182.922 272.622 190.52 263.73C198.119 254.838 209.586 251.443 210.429 242.551C211.272 233.66 198.165 220.172 198.165 220.172Z" fill="#263238" stroke="#263238" stroke-linecap="round" stroke-linejoin="round"/>
<path d="M250.534 200.067C257.059 212.215 265.223 228.486 267.775 238.314C272.233 255.52 249.299 266.352 255.661 274.632" stroke="white" stroke-linecap="round" stroke-linejoin="round"/>
<path d="M241.644 184.154C241.644 184.154 244.184 188.484 247.695 194.859" stroke="white" stroke-linecap="round" stroke-linejoin="round"/>
<path d="M275.871 214.721C276.623 216.998 277.111 219.354 277.326 221.742" stroke="white" stroke-linecap="round" stroke-linejoin="round"/>
<path d="M246.054 177.837C246.054 177.837 266.124 192.665 274.139 210.414" stroke="white" stroke-linecap="round" stroke-linejoin="round"/>
<path d="M218.201 188.958C203.87 192.977 183.257 199.501 184.931 203.266" stroke="white" stroke-linecap="round" stroke-linejoin="round"/>
<path d="M231.447 185.424C231.447 185.424 228.387 186.186 223.825 187.41" stroke="white" stroke-linecap="round" stroke-linejoin="round"/>
<path d="M213.721 177.941C221.93 175.354 230.527 174.221 239.126 174.592" stroke="white" stroke-linecap="round" stroke-linejoin="round"/>
<path d="M207.877 180.332C209.175 179.655 210.518 179.069 211.896 178.576" stroke="white" stroke-linecap="round" stroke-linejoin="round"/>
<path d="M94.4773 205.252C92.5324 201.69 90.9834 197.926 89.8582 194.027C90.978 197.928 92.5272 201.693 94.4773 205.252ZM89.7311 193.369C89.7311 193.438 89.7311 193.519 89.7311 193.623C89.7542 193.519 89.7427 193.438 89.7311 193.369ZM94.4773 205.24C98.7962 213.421 104.169 220.999 110.46 227.782C125.714 244.307 169.781 287.53 173.973 290.498C178.165 293.466 176.941 301.931 173.973 310.407C171.005 318.883 159.988 331.193 160.416 344.727C160.843 358.261 165.035 379.047 164.654 383.285C164.273 387.524 153.672 401.935 153.672 401.935H262.984C262.984 401.935 249.357 384.613 249.357 378.689C249.357 372.765 268.065 296.861 268.908 291.353C269.751 285.844 266.367 282.034 259.589 281.606C252.81 281.179 226.966 275.671 225.696 271.433C224.426 267.195 232.474 251.097 232.474 251.097L207.069 252.367C207.069 252.367 205.799 263.384 204.101 265.509C202.404 267.634 199.863 263.384 193.928 260.428C187.992 257.471 176.606 254.919 172.322 251.524C168.037 248.129 127.412 209.952 127.412 209.952" fill="white"/>
<mask id="mask2_709_4068" style="mask-type:luminance" maskUnits="userSpaceOnUse" x="89" y="193" width="181" height="209">
<path d="M94.4783 205.252C92.5333 201.69 90.9844 197.926 89.8591 194.027C90.979 197.928 92.5282 201.693 94.4783 205.252ZM89.7321 193.369C89.7321 193.438 89.7321 193.519 89.7321 193.623C89.7552 193.519 89.7437 193.438 89.7321 193.369ZM94.4783 205.24C98.7972 213.421 104.17 220.999 110.461 227.782C125.715 244.307 169.782 287.531 173.974 290.498C178.166 293.466 176.942 301.931 173.974 310.407C171.006 318.883 159.989 331.193 160.417 344.727C160.844 358.261 165.036 379.048 164.655 383.286C164.274 387.524 153.673 401.935 153.673 401.935H262.985C262.985 401.935 249.358 384.614 249.358 378.69C249.358 372.765 268.066 296.861 268.909 291.353C269.752 285.845 266.368 282.034 259.59 281.607C252.811 281.179 226.967 275.671 225.697 271.433C224.427 267.195 232.475 251.097 232.475 251.097L207.07 252.367C207.07 252.367 205.8 263.384 204.102 265.509C202.405 267.634 199.864 263.384 193.929 260.428C187.993 257.471 176.607 254.919 172.323 251.524C168.038 248.129 127.413 209.952 127.413 209.952" fill="white"/>
</mask>
<g mask="url(#mask2_709_4068)">
<path d="M178.813 254.792C180.926 258.488 183.039 261.825 183.039 261.825C183.039 261.825 190.165 265.832 191.943 265.832C193.721 265.832 204.415 271.606 204.415 271.606C204.415 271.606 213.33 269.377 210.189 261.802C209.198 259.863 207.947 258.068 206.47 256.467C205.939 259.827 205.084 264.227 204.08 265.486C202.382 267.599 199.842 263.361 193.906 260.405C190.061 258.488 183.836 256.732 178.813 254.792Z" fill="#9C7BEB"/>
<path d="M157.055 237.644C143.971 225.53 127.412 209.998 127.412 209.998L117.781 208.612L116.626 209.259C116.626 209.259 143.81 233.313 149.595 235.992C151.936 237.068 154.479 237.631 157.055 237.644Z" fill="#9C7BEB"/>
<path d="M170.763 250.185L169.724 249.261C170.255 250.139 170.556 250.693 170.556 250.693L170.763 250.185Z" fill="#9C7BEB"/>
<g opacity="0.5">
<path d="M178.813 254.792C180.926 258.488 183.039 261.825 183.039 261.825C183.039 261.825 190.165 265.832 191.943 265.832C193.721 265.832 204.415 271.606 204.415 271.606C204.415 271.606 213.33 269.377 210.189 261.802C209.198 259.863 207.947 258.068 206.47 256.467C205.939 259.827 205.084 264.227 204.08 265.486C202.382 267.599 199.842 263.361 193.906 260.405C190.061 258.488 183.836 256.733 178.813 254.792Z" fill="white"/>
<path d="M157.055 237.644C143.971 225.53 127.412 209.998 127.412 209.998L117.781 208.612L116.626 209.259C116.626 209.259 143.81 233.313 149.595 235.992C151.936 237.068 154.479 237.631 157.055 237.644Z" fill="white"/>
<path d="M170.763 250.185L169.724 249.261C170.255 250.139 170.556 250.693 170.556 250.693L170.763 250.185Z" fill="white"/>
</g>
</g>
<path d="M89.708 193.057C89.7028 193.138 89.7028 193.219 89.708 193.3M89.8582 194.027C90.9834 197.926 92.5324 201.69 94.4773 205.252C92.5272 201.693 90.978 197.928 89.8582 194.027ZM89.8582 194.027C89.8263 193.918 89.8031 193.806 89.7889 193.692M94.4773 205.24C98.7962 213.421 104.169 220.999 110.46 227.782C125.714 244.307 169.781 287.53 173.973 290.498C178.165 293.466 176.941 301.931 173.973 310.407C171.005 318.883 159.988 331.193 160.416 344.727C160.843 358.261 165.035 379.047 164.654 383.285C164.273 387.524 153.672 401.935 153.672 401.935H262.984C262.984 401.935 249.357 384.613 249.357 378.689C249.357 372.765 268.065 296.861 268.908 291.353C269.751 285.844 266.367 282.034 259.589 281.606C252.81 281.179 226.966 275.671 225.696 271.433C224.426 267.195 232.474 251.097 232.474 251.097L207.069 252.367C207.069 252.367 205.799 263.384 204.101 265.509C202.404 267.634 199.863 263.384 193.928 260.428C187.992 257.471 176.606 254.919 172.322 251.524C168.037 248.129 127.412 209.952 127.412 209.952M89.7311 193.369C89.7311 193.438 89.7311 193.519 89.7311 193.623C89.7542 193.519 89.7427 193.438 89.7311 193.369Z" stroke="#263238" stroke-linecap="round" stroke-linejoin="round"/>
<path d="M127.411 209.998C127.411 209.998 113.877 210.252 106.325 204.028" stroke="#263238" stroke-linecap="round" stroke-linejoin="round"/>
<path d="M225.706 271.433C224.436 267.206 232.485 251.097 232.485 251.097L207.08 252.367C207.08 252.367 205.809 263.384 204.112 265.509C202.414 267.634 199.874 263.384 193.938 260.428C193.488 260.197 192.991 259.977 192.483 259.758L190.947 283.904C190.947 283.904 193.176 307.289 219.898 302.843C230.718 301.042 242.266 291.387 252.232 280.532C241.977 278.65 226.676 274.678 225.706 271.433Z" fill="white"/>
<mask id="mask3_709_4068" style="mask-type:luminance" maskUnits="userSpaceOnUse" x="190" y="251" width="63" height="53">
<path d="M225.706 271.433C224.436 267.206 232.485 251.097 232.485 251.097L207.08 252.367C207.08 252.367 205.809 263.384 204.112 265.509C202.414 267.634 199.874 263.384 193.938 260.428C193.488 260.197 192.991 259.977 192.483 259.758L190.947 283.905C190.947 283.905 193.176 307.289 219.898 302.843C230.718 301.042 242.266 291.388 252.232 280.533C241.977 278.65 226.676 274.678 225.706 271.433Z" fill="white"/>
</mask>
<g mask="url(#mask3_709_4068)">
<path d="M224.99 254.296C224.99 254.296 223.454 262.911 222.219 272.438C220.983 281.965 220.071 289.055 220.071 289.055L225.706 271.433L232.058 252.76C232.058 252.76 225.914 252.76 224.99 254.296Z" fill="#9C7BEB"/>
<path opacity="0.5" d="M224.99 254.296C224.99 254.296 223.454 262.911 222.219 272.438C220.983 281.965 220.071 289.055 220.071 289.055L225.706 271.433L232.058 252.76C232.058 252.76 225.914 252.76 224.99 254.296Z" fill="white"/>
</g>
<path d="M225.706 271.433C224.436 267.206 232.485 251.097 232.485 251.097L207.08 252.367C207.08 252.367 205.809 263.384 204.112 265.509C202.414 267.634 199.874 263.384 193.938 260.428C193.488 260.197 192.991 259.977 192.483 259.758L190.947 283.904C190.947 283.904 193.176 307.289 219.898 302.843C230.718 301.042 242.266 291.387 252.232 280.532C241.977 278.65 226.676 274.678 225.706 271.433Z" stroke="#263238" stroke-linecap="round" stroke-linejoin="round"/>
<path d="M204.101 265.509C202.403 267.622 199.863 263.384 193.927 260.428C190.186 258.545 184.227 256.836 179.296 254.989C177.899 251.674 176.051 247.356 174.862 244.746C172.748 240.127 169.353 243.048 169.353 243.048C167.582 241.034 166.151 238.744 165.115 236.27C163.002 231.65 159.607 232.032 154.953 231.189C150.299 230.346 140.541 221.442 140.541 221.442C140.541 221.442 135.98 217.978 134.098 216.257C131.904 220.576 126.649 228.175 115.286 232.921C133.405 251.848 170.162 287.808 174.019 290.51C178.257 293.466 176.986 301.942 174.019 310.419C171.051 318.895 160.034 331.205 160.461 344.739C160.889 358.273 165.081 379.059 164.7 383.297C164.318 387.073 155.865 398.91 154.029 401.45L158.337 401.935H180.763C180.636 390.572 180.647 344.196 188.419 325.719C197.322 304.483 204.101 265.509 204.101 265.509Z" fill="#9C7BEB"/>
<mask id="mask4_709_4068" style="mask-type:luminance" maskUnits="userSpaceOnUse" x="115" y="216" width="90" height="186">
<path d="M204.101 265.509C202.403 267.622 199.863 263.384 193.927 260.428C190.186 258.546 184.227 256.836 179.296 254.989C177.899 251.675 176.051 247.356 174.862 244.746C172.748 240.127 169.353 243.048 169.353 243.048C167.582 241.034 166.151 238.744 165.115 236.27C163.002 231.651 159.607 232.032 154.953 231.189C150.299 230.346 140.541 221.442 140.541 221.442C140.541 221.442 135.98 217.978 134.098 216.257C131.904 220.576 126.649 228.175 115.286 232.921C133.405 251.848 170.162 287.808 174.019 290.51C178.257 293.466 176.986 301.942 174.019 310.419C171.051 318.895 160.034 331.205 160.461 344.739C160.889 358.273 165.081 379.059 164.7 383.297C164.318 387.073 155.865 398.91 154.029 401.451L158.337 401.936H180.763C180.636 390.572 180.647 344.196 188.419 325.72C197.322 304.483 204.101 265.509 204.101 265.509Z" fill="white"/>
</mask>
<g mask="url(#mask4_709_4068)">
<path opacity="0.16" d="M193.926 260.428C190.185 258.545 184.226 256.836 179.295 254.989C177.898 251.675 176.05 247.356 174.861 244.746C172.747 240.127 169.352 243.048 169.352 243.048C167.581 241.034 166.15 238.744 165.114 236.27C163.001 231.651 159.606 232.032 154.952 231.189C150.298 230.346 140.54 221.442 140.54 221.442C140.54 221.442 135.979 217.978 134.097 216.257C133.157 218.091 132.04 219.828 130.759 221.442C138.335 227.851 146.695 234.641 149.617 235.992C155.391 238.66 156.742 236.431 161.165 239.11C165.588 241.79 170.519 250.658 170.519 250.658C170.519 250.658 173.198 243.522 175.426 248.43C177.655 253.337 183.002 261.79 183.002 261.79C183.002 261.79 190.127 265.798 191.905 265.798C193.303 265.798 200.15 269.354 203.061 270.89C203.707 267.507 204.065 265.474 204.065 265.474C202.402 267.622 199.862 263.384 193.926 260.428Z" fill="black"/>
</g>
<path d="M204.101 265.509C202.403 267.622 199.863 263.384 193.927 260.428C190.186 258.545 184.227 256.836 179.296 254.989C177.899 251.674 176.051 247.356 174.862 244.746C172.748 240.127 169.353 243.048 169.353 243.048C167.582 241.034 166.151 238.744 165.115 236.27C163.002 231.65 159.607 232.032 154.953 231.189C150.299 230.346 140.541 221.442 140.541 221.442C140.541 221.442 135.98 217.978 134.098 216.257C131.904 220.576 126.649 228.175 115.286 232.921C133.405 251.848 170.162 287.808 174.019 290.51C178.257 293.466 176.986 301.942 174.019 310.419C171.051 318.895 160.034 331.205 160.461 344.739C160.889 358.273 165.081 379.059 164.7 383.297C164.318 387.073 155.865 398.91 154.029 401.45L158.337 401.935H180.763C180.636 390.572 180.647 344.196 188.419 325.719C197.322 304.483 204.101 265.509 204.101 265.509Z" stroke="#263238" stroke-linecap="round" stroke-linejoin="round"/>
<path d="M204.401 264.031C204.401 264.031 199.135 262.414 195.89 265.255C192.645 268.096 187.806 282.669 184.954 298.478C183.196 307.681 184.409 317.205 188.419 325.673C188.419 325.673 195.082 308.201 197.103 299.691C199.123 291.18 204.401 264.031 204.401 264.031Z" fill="#9C7BEB"/>
<mask id="mask5_709_4068" style="mask-type:luminance" maskUnits="userSpaceOnUse" x="184" y="263" width="21" height="63">
<path d="M204.399 264.031C204.399 264.031 199.133 262.414 195.889 265.255C192.644 268.096 187.805 282.669 184.953 298.478C183.195 307.681 184.408 317.205 188.417 325.673C188.417 325.673 195.08 308.201 197.101 299.691C199.122 291.18 204.399 264.031 204.399 264.031Z" fill="white"/>
</mask>
<g mask="url(#mask5_709_4068)">
<path opacity="0.16" d="M194.296 266.606C194.296 266.606 198.107 265.682 199.678 266.213C201 266.78 202.236 267.531 203.35 268.442L204.401 264.031C202.824 263.225 201.036 262.93 199.285 263.188C196.664 263.719 194.296 266.606 194.296 266.606Z" fill="black"/>
</g>
<path d="M204.401 264.031C204.401 264.031 199.135 262.414 195.89 265.255C192.645 268.096 187.806 282.669 184.954 298.478C183.196 307.681 184.409 317.205 188.419 325.673C188.419 325.673 195.082 308.201 197.103 299.691C199.123 291.18 204.401 264.031 204.401 264.031Z" stroke="#263238" stroke-linecap="round" stroke-linejoin="round"/>
<path d="M168.938 265.416L175.717 292.958L160.462 258.21" stroke="#263238" stroke-linecap="round" stroke-linejoin="round"/>
<path d="M213.593 401.935H262.995C262.995 401.935 249.368 384.613 249.368 378.689C249.368 372.765 268.076 296.861 268.919 291.353C269.762 285.844 266.378 282.034 259.6 281.606C252.821 281.179 226.977 275.671 225.707 271.433C225.707 271.433 215.96 305.753 212.577 329.057C209.667 349.046 212.681 390.526 213.593 401.935Z" fill="#9C7BEB"/>
<mask id="mask6_709_4068" style="mask-type:luminance" maskUnits="userSpaceOnUse" x="211" y="271" width="59" height="131">
<path d="M213.592 401.935H262.994C262.994 401.935 249.367 384.613 249.367 378.689C249.367 372.765 268.075 296.861 268.918 291.353C269.761 285.844 266.378 282.034 259.599 281.606C252.82 281.179 226.976 275.671 225.706 271.433C225.706 271.433 215.959 305.753 212.576 329.057C209.666 349.046 212.68 390.526 213.592 401.935Z" fill="white"/>
</mask>
<g mask="url(#mask6_709_4068)">
<path opacity="0.16" d="M259.6 281.606C254.046 281.26 235.696 277.495 228.548 273.823L231.146 279.828C235.854 282.326 240.917 284.086 246.158 285.048C254.762 286.584 262.764 286.283 267.995 293.974L268.249 294.355C268.573 292.877 268.792 291.838 268.861 291.353C269.774 285.844 266.379 282.034 259.6 281.606Z" fill="black"/>
</g>
<path d="M213.593 401.935H262.995C262.995 401.935 249.368 384.613 249.368 378.689C249.368 372.765 268.076 296.861 268.919 291.353C269.762 285.844 266.378 282.034 259.6 281.606C252.821 281.179 226.977 275.671 225.707 271.433C225.707 271.433 215.96 305.753 212.577 329.057C209.667 349.046 212.681 390.526 213.593 401.935Z" stroke="#263238" stroke-linecap="round" stroke-linejoin="round"/>
<path d="M225.707 271.433C225.707 271.433 212.634 313.005 212.577 329.057C212.577 329.057 231.146 306.573 233.571 290.775C235.996 274.978 225.707 271.433 225.707 271.433Z" fill="#9C7BEB"/>
<mask id="mask7_709_4068" style="mask-type:luminance" maskUnits="userSpaceOnUse" x="212" y="271" width="22" height="59">
<path d="M225.705 271.433C225.705 271.433 212.633 313.005 212.575 329.057C212.575 329.057 231.144 306.573 233.569 290.775C235.994 274.978 225.705 271.433 225.705 271.433Z" fill="white"/>
</mask>
<g mask="url(#mask7_709_4068)">
<path opacity="0.16" d="M223.455 276.745C225.419 276.679 227.37 277.092 229.139 277.949C230.907 278.807 232.44 280.082 233.606 281.664C233.606 281.664 231.042 274.123 225.707 271.433L223.455 276.745Z" fill="black"/>
</g>
<path d="M225.707 271.433C225.707 271.433 212.634 313.005 212.577 329.057C212.577 329.057 231.146 306.573 233.571 290.775C235.996 274.978 225.707 271.433 225.707 271.433Z" stroke="#263238" stroke-linecap="round" stroke-linejoin="round"/>
<path d="M365.263 394.117C365.263 394.117 374.836 394.51 381.106 395.411C385.288 395.978 389.498 396.313 393.717 396.415C393.717 396.415 390.252 389.417 386.557 387.443C382.862 385.468 376.164 381.934 370.552 382.72C364.939 383.505 356.914 389.163 357.583 390.965C358.253 392.766 361.244 393.575 365.263 394.117Z" fill="white"/>
<mask id="mask8_709_4068" style="mask-type:luminance" maskUnits="userSpaceOnUse" x="357" y="382" width="37" height="15">
<path d="M365.263 394.117C365.263 394.117 374.836 394.51 381.106 395.411C385.288 395.978 389.498 396.313 393.717 396.415C393.717 396.415 390.252 389.417 386.557 387.443C382.862 385.468 376.164 381.934 370.552 382.72C364.939 383.505 356.914 389.163 357.583 390.965C358.253 392.766 361.244 393.575 365.263 394.117Z" fill="white"/>
</mask>
<g mask="url(#mask8_709_4068)">
<path d="M365.263 394.117C365.263 394.117 374.836 394.51 381.106 395.411C385.288 395.978 389.498 396.313 393.717 396.415C393.717 396.415 390.252 389.417 386.557 387.443C382.862 385.468 376.164 381.934 370.552 382.72C364.939 383.505 356.914 389.163 357.583 390.965C358.253 392.766 361.244 393.575 365.263 394.117Z" fill="#9C7BEB"/>
<path opacity="0.5" d="M365.263 394.117C365.263 394.117 374.836 394.51 381.106 395.411C385.288 395.978 389.498 396.313 393.717 396.415C393.717 396.415 390.252 389.417 386.557 387.443C382.862 385.468 376.164 381.934 370.552 382.72C364.939 383.505 356.914 389.163 357.583 390.965C358.253 392.766 361.244 393.575 365.263 394.117Z" fill="white"/>
</g>
<path d="M365.263 394.117C365.263 394.117 374.836 394.51 381.106 395.411C385.288 395.978 389.498 396.313 393.717 396.415C393.717 396.415 390.252 389.417 386.557 387.443C382.862 385.468 376.164 381.934 370.552 382.72C364.939 383.505 356.914 389.163 357.583 390.965C358.253 392.766 361.244 393.575 365.263 394.117Z" stroke="#263238" stroke-linecap="round" stroke-linejoin="round"/>
<path d="M381.165 391.254C381.165 391.254 388.751 387.316 390.645 387.373C392.539 387.431 405.126 395.942 404.503 397.305C404.079 397.936 403.468 398.419 402.755 398.685C402.042 398.95 401.264 398.984 400.53 398.783C399.133 398.124 390.657 394.522 390.657 394.522L385.114 395.826L381.165 391.254Z" fill="white"/>
<mask id="mask9_709_4068" style="mask-type:luminance" maskUnits="userSpaceOnUse" x="381" y="387" width="24" height="12">
<path d="M381.165 391.254C381.165 391.254 388.751 387.316 390.645 387.374C392.539 387.431 405.126 395.942 404.503 397.305C404.079 397.937 403.468 398.419 402.755 398.685C402.042 398.95 401.264 398.984 400.53 398.783C399.133 398.125 390.657 394.522 390.657 394.522L385.114 395.827L381.165 391.254Z" fill="white"/>
</mask>
<g mask="url(#mask9_709_4068)">
<path d="M381.165 391.254C381.165 391.254 388.751 387.316 390.645 387.374C392.539 387.431 405.126 395.942 404.503 397.305C403.879 398.667 400.9 399.776 400.53 398.783C400.161 397.79 390.657 394.522 390.657 394.522L385.114 395.827L381.165 391.254Z" fill="#9C7BEB"/>
<path opacity="0.5" d="M381.165 391.254C381.165 391.254 388.751 387.316 390.645 387.374C392.539 387.431 405.126 395.942 404.503 397.305C403.879 398.667 400.9 399.776 400.53 398.783C400.161 397.79 390.657 394.522 390.657 394.522L385.114 395.827L381.165 391.254Z" fill="white"/>
</g>
<path d="M381.165 391.254C381.165 391.254 388.751 387.316 390.645 387.373C392.539 387.431 405.126 395.942 404.503 397.305C404.079 397.936 403.468 398.419 402.755 398.685C402.042 398.95 401.264 398.984 400.53 398.783C399.133 398.124 390.657 394.522 390.657 394.522L385.114 395.826L381.165 391.254Z" stroke="#263238" stroke-linecap="round" stroke-linejoin="round"/>
<path d="M375.749 384.775C375.749 384.775 385.864 384.452 387.874 385.468C389.883 386.484 398.96 402.051 397.597 403.182C396.234 404.314 392.47 403.979 392.585 402.721C392.701 401.462 384.225 393.124 384.225 393.124L377.631 391.681L375.749 384.775Z" fill="white"/>
<mask id="mask10_709_4068" style="mask-type:luminance" maskUnits="userSpaceOnUse" x="375" y="384" width="23" height="20">
<path d="M375.748 384.775C375.748 384.775 385.863 384.452 387.873 385.468C389.882 386.484 398.959 402.051 397.596 403.183C396.234 404.314 392.469 403.979 392.584 402.721C392.7 401.462 384.224 393.124 384.224 393.124L377.63 391.681L375.748 384.775Z" fill="white"/>
</mask>
<g mask="url(#mask10_709_4068)">
<path d="M375.748 384.775C375.748 384.775 385.863 384.452 387.873 385.468C389.882 386.484 398.959 402.051 397.596 403.183C396.234 404.314 392.469 403.979 392.584 402.721C392.7 401.462 384.224 393.124 384.224 393.124L377.63 391.681L375.748 384.775Z" fill="#9C7BEB"/>
<path opacity="0.5" d="M375.748 384.775C375.748 384.775 385.863 384.452 387.873 385.468C389.882 386.484 398.959 402.051 397.596 403.183C396.234 404.314 392.469 403.979 392.584 402.721C392.7 401.462 384.224 393.124 384.224 393.124L377.63 391.681L375.748 384.775Z" fill="white"/>
</g>
<path d="M375.749 384.775C375.749 384.775 385.864 384.452 387.874 385.468C389.883 386.484 398.96 402.051 397.597 403.182C396.234 404.314 392.47 403.979 392.585 402.721C392.701 401.462 384.225 393.124 384.225 393.124L377.631 391.681L375.749 384.775Z" stroke="#263238" stroke-linecap="round" stroke-linejoin="round"/>
<path d="M369.755 382.685C369.755 382.685 379.998 382.35 382.03 383.39C384.063 384.429 393.255 400.169 391.869 401.323C390.483 402.478 386.696 402.12 386.811 400.85C386.927 399.58 378.347 391.138 378.347 391.138L371.672 389.672L369.755 382.685Z" fill="white"/>
<mask id="mask11_709_4068" style="mask-type:luminance" maskUnits="userSpaceOnUse" x="369" y="382" width="24" height="21">
<path d="M369.754 382.685C369.754 382.685 379.997 382.35 382.029 383.389C384.062 384.429 393.254 400.169 391.868 401.323C390.482 402.478 386.695 402.12 386.81 400.85C386.926 399.58 378.346 391.138 378.346 391.138L371.671 389.671L369.754 382.685Z" fill="white"/>
</mask>
<g mask="url(#mask11_709_4068)">
<path d="M369.754 382.685C369.754 382.685 379.997 382.35 382.029 383.389C384.062 384.429 393.254 400.169 391.868 401.323C390.482 402.478 386.695 402.12 386.81 400.85C386.926 399.58 378.346 391.138 378.346 391.138L371.671 389.671L369.754 382.685Z" fill="#9C7BEB"/>
<path opacity="0.5" d="M369.754 382.685C369.754 382.685 379.997 382.35 382.029 383.389C384.062 384.429 393.254 400.169 391.868 401.323C390.482 402.478 386.695 402.12 386.81 400.85C386.926 399.58 378.346 391.138 378.346 391.138L371.671 389.671L369.754 382.685Z" fill="white"/>
</g>
<path d="M369.755 382.685C369.755 382.685 379.998 382.35 382.03 383.39C384.063 384.429 393.255 400.169 391.869 401.323C390.483 402.478 386.696 402.12 386.811 400.85C386.927 399.58 378.347 391.138 378.347 391.138L371.672 389.672L369.755 382.685Z" stroke="#263238" stroke-linecap="round" stroke-linejoin="round"/>
<path d="M253.295 323.999C260.709 335.42 275.594 364.359 279.936 367.615C286.715 372.696 332.028 385.029 336.393 388.401C340.759 391.773 340.458 395.157 344.592 396.392C348.727 397.628 364.224 401.173 370.136 401.727C376.049 402.282 373.404 398.621 373.404 398.621L363.323 391.692L372.111 389.521C372.111 389.521 380.922 400.122 382.573 400.7C384.225 401.277 387.135 400.7 386.95 399.395C386.627 397.305 377.227 380.202 373.889 379.475C370.552 378.747 350.297 381.553 350.297 381.553C350.297 381.553 307.812 352.903 307.05 351.887C307.05 351.887 304.51 344.681 302.431 341.713C300.353 338.745 299.036 339.6 299.036 339.6C299.036 339.6 299.891 335.778 298.62 334.507L291.842 327.729L291.599 328.052C290.444 325.742 289.29 323.11 288.019 320.107C284.474 311.758 271.922 288.327 269.808 284.944C268.226 282.415 254.969 280.602 248.249 279.84" fill="#9C7BEB"/>
<mask id="mask12_709_4068" style="mask-type:luminance" maskUnits="userSpaceOnUse" x="248" y="279" width="139" height="123">
<path d="M253.295 323.999C260.709 335.42 275.594 364.359 279.936 367.615C286.715 372.696 332.028 385.029 336.393 388.401C340.759 391.773 340.458 395.157 344.592 396.392C348.727 397.628 364.224 401.173 370.136 401.728C376.049 402.282 373.404 398.621 373.404 398.621L363.323 391.692L372.111 389.521C372.111 389.521 380.922 400.122 382.573 400.7C384.225 401.277 387.135 400.7 386.95 399.395C386.627 397.305 377.227 380.202 373.889 379.475C370.552 378.747 350.297 381.553 350.297 381.553C350.297 381.553 307.812 352.903 307.05 351.887C307.05 351.887 304.51 344.681 302.431 341.713C300.353 338.745 299.036 339.6 299.036 339.6C299.036 339.6 299.891 335.778 298.62 334.507L291.842 327.729L291.599 328.052C290.444 325.743 289.29 323.11 288.019 320.107C284.474 311.758 271.922 288.327 269.808 284.944C268.226 282.415 254.969 280.602 248.249 279.84" fill="white"/>
</mask>
<g mask="url(#mask12_709_4068)">
<path opacity="0.16" d="M282.811 324.726C288.354 329.646 286.507 329.646 285.271 333.964C284.035 338.283 286.195 332.429 291.426 332.74C296.657 333.052 295.121 339.808 294.498 341.043C293.874 342.279 300.965 343.815 299.729 346.575C298.493 349.335 291.426 353.342 287.43 357.349C283.435 361.356 297.881 350.882 302.801 350.582C304.302 350.478 305.538 350.674 306.577 350.651C305.487 347.561 304.086 344.59 302.397 341.782C300.272 338.815 299.001 339.669 299.001 339.669C299.001 339.669 299.856 335.847 298.586 334.576L291.807 327.798L291.565 328.121C290.41 325.812 289.255 323.179 287.985 320.176C284.44 311.827 271.887 288.397 269.774 285.013C268.192 282.484 254.935 280.671 248.214 279.909L248.826 285.255L248.976 285.371C248.976 285.371 257.279 286.907 260.05 287.219C262.822 287.53 266.205 289.979 265.894 291.838C265.582 293.697 257.591 301.988 260.05 302.612C262.51 303.236 265.282 296.457 268.053 297.381C270.825 298.305 277.234 319.807 282.811 324.726Z" fill="black"/>
</g>
<path d="M253.295 323.999C260.709 335.42 275.594 364.359 279.936 367.615C286.715 372.696 332.028 385.029 336.393 388.401C340.759 391.773 340.458 395.157 344.592 396.392C348.727 397.628 364.224 401.173 370.136 401.727C376.049 402.282 373.404 398.621 373.404 398.621L363.323 391.692L372.111 389.521C372.111 389.521 380.922 400.122 382.573 400.7C384.225 401.277 387.135 400.7 386.95 399.395C386.627 397.305 377.227 380.202 373.889 379.475C370.552 378.747 350.297 381.553 350.297 381.553C350.297 381.553 307.812 352.903 307.05 351.887C307.05 351.887 304.51 344.681 302.431 341.713C300.353 338.745 299.036 339.6 299.036 339.6C299.036 339.6 299.891 335.778 298.62 334.507L291.842 327.729L291.599 328.052C290.444 325.742 289.29 323.11 288.019 320.107C284.474 311.758 271.922 288.327 269.808 284.944C268.226 282.415 254.969 280.602 248.249 279.84" stroke="#263238" stroke-linecap="round" stroke-linejoin="round"/>
<path d="M253.411 308.328C253.099 309.367 252.833 310.407 252.625 311.469" stroke="#263238" stroke-linecap="round" stroke-linejoin="round"/>
<path d="M264.634 289.216C261.006 293.353 257.945 297.955 255.535 302.901" stroke="#263238" stroke-linecap="round" stroke-linejoin="round"/>
<path d="M281.599 354.785C284.717 350.166 289.683 344.311 295.156 342.637" stroke="#263238" stroke-linecap="round" stroke-linejoin="round"/>
<path d="M278.146 360.467C278.146 360.467 278.7 359.381 279.693 357.742" stroke="#263238" stroke-linecap="round" stroke-linejoin="round"/>
<path d="M278.146 353.169C278.146 353.169 283.816 338.988 289.486 335.339C295.156 331.69 291.911 338.988 291.911 338.988" stroke="#263238" stroke-linecap="round" stroke-linejoin="round"/>
<path d="M336.394 388.413C340.771 391.796 340.459 395.168 344.593 396.404C348.727 397.64 364.224 401.185 370.137 401.739C376.049 402.293 373.405 398.633 373.405 398.633L363.323 391.704L372.111 389.533C372.111 389.533 380.922 400.134 382.574 400.711C384.225 401.289 387.366 401.497 386.95 399.406C386.142 395.365 377.227 380.214 373.89 379.486C370.552 378.759 350.297 381.565 350.297 381.565C350.297 381.565 311.601 355.005 307.362 352.129C290.93 353.711 283.112 362.315 279.821 367.477L279.936 367.569C286.715 372.696 332.029 385.029 336.394 388.413Z" fill="white"/>
<mask id="mask13_709_4068" style="mask-type:luminance" maskUnits="userSpaceOnUse" x="279" y="352" width="108" height="50">
<path d="M336.395 388.413C340.771 391.796 340.46 395.168 344.594 396.404C348.728 397.64 364.225 401.185 370.138 401.739C376.05 402.293 373.406 398.633 373.406 398.633L363.324 391.704L372.112 389.533C372.112 389.533 380.923 400.134 382.575 400.711C384.226 401.289 387.367 401.497 386.951 399.406C386.143 395.365 377.228 380.214 373.891 379.486C370.553 378.759 350.298 381.565 350.298 381.565C350.298 381.565 311.602 355.005 307.363 352.129C290.931 353.711 283.113 362.315 279.822 367.477L279.937 367.569C286.716 372.696 332.03 385.029 336.395 388.413Z" fill="white"/>
</mask>
<g mask="url(#mask13_709_4068)">
<path d="M386.941 399.453C384.839 394.314 377.217 380.26 373.88 379.533C370.543 378.805 350.288 381.611 350.288 381.611C350.288 381.611 311.591 355.051 307.353 352.176C303.04 352.551 298.808 353.575 294.8 355.213C300.909 358.677 341.627 381.773 346.766 382.801C352.216 383.955 370.404 380.964 373.603 383.112C375.635 384.475 381.687 394.071 385.774 400.885C386.941 400.711 387.368 400.492 386.941 399.453Z" fill="#9C7BEB"/>
<path opacity="0.5" d="M386.941 399.453C383.661 392.097 377.217 380.26 373.88 379.533C370.543 378.805 350.288 381.611 350.288 381.611C350.288 381.611 311.591 355.051 307.353 352.176C303.04 352.551 298.808 353.575 294.8 355.213C300.909 358.677 341.627 381.773 346.766 382.801C352.216 383.955 370.404 380.964 373.603 383.112C375.635 384.475 381.687 394.071 385.774 400.885C386.941 400.711 387.403 400.48 386.941 399.453Z" fill="white"/>
</g>
<path d="M336.394 388.413C340.771 391.796 340.459 395.168 344.593 396.404C348.727 397.64 364.224 401.185 370.137 401.739C376.049 402.293 373.405 398.633 373.405 398.633L363.323 391.704L372.111 389.533C372.111 389.533 380.922 400.134 382.574 400.711C384.225 401.289 387.366 401.497 386.95 399.406C386.142 395.365 377.227 380.214 373.89 379.486C370.552 378.759 350.297 381.565 350.297 381.565C350.297 381.565 311.601 355.005 307.362 352.129C290.93 353.711 283.112 362.315 279.821 367.477L279.936 367.569C286.715 372.696 332.029 385.029 336.394 388.413Z" stroke="#263238" stroke-linecap="round" stroke-linejoin="round"/>
<path d="M234.334 186.764L199.551 201.279C199.13 207.392 197.616 213.38 195.082 218.959C190.971 227.655 193.373 244.11 197.323 252.991C201.272 261.871 218.675 258.395 225.038 257.287C229.353 256.466 233.58 255.232 237.659 253.603C239.517 254.319 241.526 254.55 243.498 254.275C245.47 254.001 247.339 253.229 248.93 252.032C248.93 252.032 230.315 199.778 234.334 186.764Z" fill="white"/>
<mask id="mask14_709_4068" style="mask-type:luminance" maskUnits="userSpaceOnUse" x="192" y="186" width="57" height="73">
<path d="M234.335 186.764L199.552 201.279C199.131 207.392 197.617 213.38 195.083 218.959C190.972 227.655 193.374 244.111 197.324 252.991C201.273 261.871 218.676 258.395 225.039 257.287C229.354 256.466 233.581 255.232 237.66 253.603C239.518 254.319 241.527 254.55 243.499 254.276C245.471 254.001 247.34 253.229 248.931 252.032C248.931 252.032 230.316 199.778 234.335 186.764Z" fill="white"/>
</mask>
<g mask="url(#mask14_709_4068)">
<path d="M234.335 186.764L199.552 201.279C199.131 207.392 197.617 213.38 195.083 218.959C190.972 227.655 193.374 244.111 197.324 252.991C197.985 254.419 199.048 255.623 200.384 256.455V255.785C200.384 255.785 193.929 239.792 195.153 230.565C196.377 221.338 201.619 216.707 202.232 210.876C202.844 205.044 202.532 202.273 214.23 197.965C225.928 193.658 230.836 189.662 232.06 193.958C233.284 198.254 238.215 226.569 241.598 233.336C244.982 240.103 244.67 247.194 239.45 250.254C234.175 253.421 228.522 255.912 222.625 257.668L225.085 257.24C229.4 256.42 233.627 255.186 237.707 253.557C239.564 254.273 241.573 254.504 243.545 254.229C245.517 253.955 247.386 253.183 248.977 251.986C248.977 251.986 230.316 199.778 234.335 186.764Z" fill="#9C7BEB"/>
<path opacity="0.5" d="M234.335 186.764L199.552 201.279C199.131 207.392 197.617 213.38 195.083 218.959C190.972 227.655 193.374 244.111 197.324 252.991C197.985 254.419 199.048 255.623 200.384 256.455V255.785C200.384 255.785 193.929 239.792 195.153 230.565C196.377 221.338 201.619 216.707 202.232 210.876C202.844 205.044 202.532 202.273 214.23 197.965C225.928 193.658 230.836 189.662 232.06 193.958C233.284 198.254 238.215 226.569 241.598 233.336C244.982 240.103 244.67 247.194 239.45 250.254C234.175 253.421 228.522 255.912 222.625 257.668L225.085 257.24C229.4 256.42 233.627 255.186 237.707 253.557C239.564 254.273 241.573 254.504 243.545 254.229C245.517 253.955 247.386 253.183 248.977 251.986C248.977 251.986 230.316 199.778 234.335 186.764Z" fill="white"/>
</g>
<path d="M234.334 186.764L199.551 201.279C199.13 207.392 197.616 213.38 195.082 218.959C190.971 227.655 193.373 244.11 197.323 252.991C201.272 261.871 218.675 258.395 225.038 257.287C229.353 256.466 233.58 255.232 237.659 253.603C239.517 254.319 241.526 254.55 243.498 254.275C245.47 254.001 247.339 253.229 248.93 252.032C248.93 252.032 230.315 199.778 234.334 186.764Z" stroke="#263238" stroke-linecap="round" stroke-linejoin="round"/>
<path d="M216.757 209.525C216.851 211.57 216.597 213.616 216.006 215.576C215.083 217.885 206.364 226.962 206.629 227.944C206.895 228.925 207.68 232.078 209.228 232.378" stroke="#263238" stroke-linecap="round" stroke-linejoin="round"/>
<path d="M226.423 217.643C227.635 215.218 231.619 217.585 231.562 223.047" stroke="#263238" stroke-linecap="round" stroke-linejoin="round"/>
<path d="M206.677 210.506C206.677 210.506 210.072 209.016 213.109 214.513" stroke="#263238" stroke-linecap="round" stroke-linejoin="round"/>
<path d="M221.596 225.646C225.519 225.843 229.249 227.408 232.139 230.068" stroke="#263238" stroke-width="0.5" stroke-linecap="round" stroke-linejoin="round"/>
<path d="M202.576 218.428C204.605 218.699 206.586 219.247 208.466 220.056" stroke="#263238" stroke-width="0.5" stroke-linecap="round" stroke-linejoin="round"/>
<path d="M216.376 204.397C215.479 203.923 214.485 203.664 213.471 203.64C212.457 203.616 211.451 203.828 210.533 204.259C207.426 205.748 205.521 207.388 205.729 205.483C205.937 203.577 209.586 201.476 210.683 201.199C211.78 200.921 216.688 200.159 216.376 204.397Z" fill="#263238"/>
<path d="M225.083 200.09C228.321 202.709 230.893 206.057 232.59 209.859C234.899 215.633 236.724 209.328 234.899 205.552C233.075 201.776 227.797 197.757 225.083 200.09Z" fill="#263238"/>
<path d="M249.438 261.906C249.438 264.596 247.914 266.779 246.043 266.779C244.172 266.779 242.66 264.596 242.66 261.906C242.66 259.215 244.172 252.367 246.043 252.367C247.914 252.367 249.438 259.215 249.438 261.906Z" fill="#9C7BEB" stroke="#263238" stroke-linecap="round" stroke-linejoin="round"/>
<path d="M226.723 216.592C226.59 216.945 226.486 217.308 226.411 217.677C226.076 219.387 225.741 222.955 226.411 223.105C227.081 223.255 228.721 219.918 229.009 218.209C229.074 217.873 229.113 217.534 229.125 217.192C228.337 216.945 227.535 216.745 226.723 216.592Z" fill="#263238"/>
<path d="M207.023 210.171C206.92 210.473 206.839 210.782 206.78 211.095C206.434 212.804 206.445 216.557 207.173 216.696C207.9 216.834 209.09 213.324 209.425 211.615C209.508 211.2 209.554 210.779 209.563 210.356C208.737 210.129 207.873 210.066 207.023 210.171Z" fill="#263238"/>
<path d="M226.423 217.701L227.578 215.553C229.408 215.909 231.067 216.869 232.289 218.278" stroke="#263238" stroke-width="0.75" stroke-linecap="round" stroke-linejoin="round"/>
<path d="M207.023 210.171L208.178 208.82C208.178 208.82 208.674 208.578 211.4 209.813" stroke="#263238" stroke-width="0.75" stroke-linecap="round" stroke-linejoin="round"/>
<path d="M202.646 241.489C202.646 241.489 204.586 237.921 207.184 237.921C209.783 237.921 211.723 243.753 211.723 243.753" stroke="#263238" stroke-linecap="round" stroke-linejoin="round"/>
<path d="M119.026 395.376C116.515 395.251 114.049 394.664 111.751 393.644C111.431 393.526 111.138 393.343 110.89 393.108C110.643 392.873 110.445 392.589 110.311 392.275C110.176 391.962 110.107 391.623 110.107 391.282C110.107 390.94 110.177 390.602 110.312 390.288C110.447 389.975 110.644 389.692 110.892 389.456C111.14 389.221 111.433 389.039 111.753 388.921C112.074 388.803 112.415 388.751 112.756 388.769C113.097 388.787 113.431 388.874 113.737 389.025C116.047 390.007 119.038 390.619 119.835 390.272C121.301 388.632 123.553 378.724 120.643 373.943C119.985 372.881 119.373 372.685 118.969 372.639C117.317 372.408 114.869 374.105 114.003 374.948C113.762 375.176 113.478 375.353 113.168 375.471C112.859 375.589 112.529 375.645 112.197 375.635C111.866 375.626 111.54 375.551 111.237 375.415C110.935 375.279 110.662 375.085 110.435 374.844C110.207 374.603 110.029 374.319 109.912 374.01C109.794 373.7 109.738 373.37 109.748 373.038C109.757 372.707 109.832 372.381 109.968 372.078C110.104 371.776 110.298 371.503 110.539 371.276C110.989 370.837 115.158 367.084 119.604 367.684C120.706 367.845 121.757 368.258 122.674 368.891C123.592 369.524 124.351 370.36 124.893 371.334C129.177 378.32 126.244 391.612 122.953 394.245C121.809 395.054 120.425 395.453 119.026 395.376Z" fill="white"/>
<mask id="mask15_709_4068" style="mask-type:luminance" maskUnits="userSpaceOnUse" x="109" y="367" width="19" height="29">
<path d="M119.026 395.376C116.515 395.251 114.049 394.664 111.751 393.644C111.431 393.526 111.138 393.343 110.89 393.108C110.643 392.873 110.445 392.589 110.311 392.275C110.176 391.962 110.107 391.623 110.107 391.282C110.107 390.94 110.177 390.602 110.312 390.288C110.447 389.975 110.644 389.692 110.892 389.456C111.14 389.221 111.433 389.039 111.753 388.921C112.074 388.803 112.415 388.751 112.756 388.769C113.097 388.787 113.431 388.874 113.737 389.025C116.047 390.007 119.038 390.619 119.835 390.272C121.301 388.632 123.553 378.724 120.643 373.943C119.985 372.881 119.373 372.685 118.969 372.639C117.317 372.408 114.869 374.105 114.003 374.948C113.762 375.176 113.478 375.353 113.168 375.471C112.859 375.589 112.529 375.645 112.197 375.635C111.866 375.626 111.54 375.551 111.237 375.415C110.935 375.279 110.662 375.085 110.435 374.844C110.207 374.603 110.029 374.319 109.912 374.01C109.794 373.7 109.738 373.37 109.748 373.038C109.757 372.707 109.832 372.381 109.968 372.078C110.104 371.776 110.298 371.503 110.539 371.276C110.989 370.837 115.158 367.084 119.604 367.684C120.706 367.845 121.757 368.258 122.674 368.891C123.592 369.524 124.351 370.36 124.893 371.334C129.177 378.32 126.244 391.612 122.953 394.245C121.809 395.054 120.425 395.453 119.026 395.376Z" fill="white"/>
</mask>
<g mask="url(#mask15_709_4068)">
<path d="M122.409 373.181C122.106 372.464 121.632 371.832 121.028 371.341C120.424 370.849 119.708 370.514 118.945 370.364C116.058 369.902 113.344 372.8 113.044 373.124C112.768 373.456 112.597 373.863 112.554 374.293C112.511 374.723 112.597 375.156 112.801 375.537C113.255 375.446 113.675 375.23 114.014 374.913C114.88 374.105 117.328 372.408 118.979 372.604C119.383 372.604 119.995 372.846 120.654 373.909C123.564 378.643 121.312 388.598 119.845 390.237C119.049 390.584 116.069 389.972 113.748 388.99C113.462 388.87 113.157 388.804 112.847 388.794C112.868 389.111 112.968 389.417 113.137 389.685C113.307 389.953 113.541 390.175 113.817 390.33C115.277 391.11 116.888 391.567 118.54 391.669C119.483 391.715 120.407 391.392 121.116 390.769C123.287 388.771 125.204 378.551 122.409 373.181Z" fill="#9C7BEB"/>
<path opacity="0.5" d="M122.409 373.181C122.106 372.464 121.632 371.832 121.028 371.341C120.424 370.849 119.708 370.514 118.945 370.364C116.058 369.902 113.344 372.8 113.044 373.124C112.768 373.456 112.597 373.863 112.554 374.293C112.511 374.723 112.597 375.156 112.801 375.537C113.255 375.446 113.675 375.23 114.014 374.913C114.88 374.105 117.328 372.408 118.979 372.604C119.383 372.604 119.995 372.846 120.654 373.909C123.564 378.643 121.312 388.598 119.845 390.237C119.049 390.584 116.069 389.972 113.748 388.99C113.462 388.87 113.157 388.804 112.847 388.794C112.868 389.111 112.968 389.417 113.137 389.685C113.307 389.953 113.541 390.175 113.817 390.33C115.277 391.11 116.888 391.567 118.54 391.669C119.483 391.715 120.407 391.392 121.116 390.769C123.287 388.771 125.204 378.551 122.409 373.181Z" fill="white"/>
</g>
<path d="M119.026 395.376C116.515 395.251 114.049 394.664 111.751 393.644C111.431 393.526 111.138 393.343 110.89 393.108C110.643 392.873 110.445 392.589 110.311 392.275C110.176 391.962 110.107 391.623 110.107 391.282C110.107 390.94 110.177 390.602 110.312 390.288C110.447 389.975 110.644 389.692 110.892 389.456C111.14 389.221 111.433 389.039 111.753 388.921C112.074 388.803 112.415 388.751 112.756 388.769C113.097 388.787 113.431 388.874 113.737 389.025C116.047 390.007 119.038 390.619 119.835 390.272C121.301 388.632 123.553 378.724 120.643 373.943C119.985 372.881 119.373 372.685 118.969 372.639C117.317 372.408 114.869 374.105 114.003 374.948C113.762 375.176 113.478 375.353 113.168 375.471C112.859 375.589 112.529 375.645 112.197 375.635C111.866 375.626 111.54 375.551 111.237 375.415C110.935 375.279 110.662 375.085 110.435 374.844C110.207 374.603 110.029 374.319 109.912 374.01C109.794 373.7 109.738 373.37 109.748 373.038C109.757 372.707 109.832 372.381 109.968 372.078C110.104 371.776 110.298 371.503 110.539 371.276C110.989 370.837 115.158 367.084 119.604 367.684C120.706 367.845 121.757 368.258 122.674 368.891C123.592 369.524 124.351 370.36 124.893 371.334C129.177 378.32 126.244 391.612 122.953 394.245C121.809 395.054 120.425 395.453 119.026 395.376Z" stroke="#263238" stroke-linecap="round" stroke-linejoin="round"/>
<path d="M114.615 365.583H86.8428V402.444H114.615V365.583Z" fill="white"/>
<mask id="mask16_709_4068" style="mask-type:luminance" maskUnits="userSpaceOnUse" x="86" y="365" width="29" height="38">
<path d="M114.614 365.583H86.8413V402.444H114.614V365.583Z" fill="white"/>
</mask>
<g mask="url(#mask16_709_4068)">
<path d="M98.216 365.583H86.8413V402.444H98.216V365.583Z" fill="#9C7BEB"/>
<path opacity="0.5" d="M98.216 365.583H86.8413V402.444H98.216V365.583Z" fill="white"/>
</g>
<path d="M114.615 365.583H86.8428V402.444H114.615V365.583Z" stroke="#263238" stroke-linecap="round" stroke-linejoin="round"/>
<path d="M267.232 401.935H148.589L144.72 336.713C144.613 336.081 144.645 335.433 144.813 334.814C144.98 334.195 145.281 333.619 145.692 333.127C146.104 332.636 146.617 332.239 147.197 331.965C147.777 331.691 148.409 331.546 149.051 331.54H266.724C267.369 331.539 268.006 331.679 268.592 331.95C269.177 332.222 269.697 332.617 270.113 333.11C270.53 333.603 270.834 334.18 271.005 334.802C271.175 335.425 271.208 336.077 271.1 336.713L267.232 401.935Z" fill="#263238" stroke="#263238" stroke-linecap="round" stroke-linejoin="round"/>
<path d="M154.433 333.099H265.87C266.499 333.092 267.122 333.223 267.696 333.483C268.269 333.743 268.779 334.125 269.189 334.602C269.6 335.08 269.901 335.641 270.071 336.247C270.242 336.853 270.278 337.489 270.177 338.11" stroke="white" stroke-linecap="round" stroke-linejoin="round"/>
<path d="M145.587 337.083C145.68 335.991 146.181 334.975 146.99 334.236C147.799 333.498 148.857 333.092 149.952 333.099" stroke="white" stroke-linecap="round" stroke-linejoin="round"/>
<path d="M267.729 395.584H148.093V401.935H267.729V395.584Z" fill="white" stroke="#263238" stroke-linecap="round" stroke-linejoin="round"/>
<path d="M207.484 372.072C212.165 372.072 215.96 369.798 215.96 366.991C215.96 364.185 212.165 361.91 207.484 361.91C202.803 361.91 199.008 364.185 199.008 366.991C199.008 369.798 202.803 372.072 207.484 372.072Z" fill="white" stroke="#263238" stroke-linecap="round" stroke-linejoin="round"/>
<path d="M448.176 401.185H2.58984V412.005H448.176V401.185Z" fill="#263238"/>
<path d="M332.64 0H118.277C111.051 0 105.193 5.85779 105.193 13.0837V136.08C105.193 143.306 111.051 149.164 118.277 149.164H332.64C339.866 149.164 345.724 143.306 345.724 136.08V13.0837C345.724 5.85779 339.866 0 332.64 0Z" fill="#9C7BEB"/>
<path d="M231.114 85.72C250.558 82.595 263.788 64.2985 260.663 44.8536C257.538 25.4087 239.242 12.1789 219.797 15.3039C200.352 18.4289 187.122 36.7254 190.247 56.1703C193.372 75.6152 211.669 88.845 231.114 85.72Z" fill="#263238"/>
<path d="M225.187 57.1043L213.304 72.359C212.9 72.9941 212.344 73.5186 211.687 73.8855C211.03 74.2524 210.292 74.4501 209.539 74.4607C208.507 74.4748 207.511 74.0805 206.768 73.3637C206.39 73.0172 206.091 72.5934 205.892 72.1212C205.693 71.6489 205.598 71.1392 205.613 70.6269C205.65 69.4794 206.055 68.3743 206.768 67.4743L220.313 50.7183L207.611 33.9508C207.02 33.1639 206.697 32.2091 206.687 31.2255C206.684 30.6389 206.802 30.058 207.035 29.5194C207.267 28.9808 207.609 28.4962 208.038 28.096C208.441 27.6753 208.925 27.3408 209.461 27.1125C209.997 26.8842 210.573 26.7671 211.156 26.768C211.902 26.7801 212.633 26.9788 213.282 27.3459C213.932 27.713 214.479 28.2369 214.874 28.8697L226.353 43.9859L237.901 29.1238C238.314 28.4304 238.891 27.8495 239.582 27.4326C240.273 27.0156 241.056 26.7755 241.862 26.7334C242.362 26.7321 242.857 26.834 243.316 27.0327C243.775 27.2314 244.188 27.5226 244.529 27.8882C244.893 28.2308 245.183 28.6441 245.382 29.1028C245.58 29.5615 245.683 30.0559 245.684 30.5557C245.672 31.4502 245.363 32.3152 244.806 33.0154L231.215 50.4065L244.345 67.7283C244.965 68.5026 245.311 69.4614 245.326 70.4536C245.33 71.0274 245.209 71.5951 244.972 72.1175C244.734 72.6399 244.386 73.1045 243.952 73.4792C243.105 74.294 241.975 74.7492 240.799 74.7494C240.05 74.7401 239.314 74.5429 238.661 74.1757C238.007 73.8085 237.456 73.2831 237.058 72.6477L225.187 57.1043Z" fill="white"/>
<path d="M293.399 123.331H157.469C154.713 123.331 152.069 122.236 150.12 120.287C148.171 118.338 147.076 115.695 147.076 112.938C147.076 110.182 148.171 107.538 150.12 105.589C152.069 103.64 154.713 102.545 157.469 102.545H293.399C296.156 102.545 298.799 103.64 300.748 105.589C302.697 107.538 303.792 110.182 303.792 112.938C303.792 115.695 302.697 118.338 300.748 120.287C298.799 122.236 296.156 123.331 293.399 123.331Z" fill="white"/>
<path d="M176.096 116.287C176.005 116.287 175.916 116.269 175.832 116.233C175.749 116.197 175.674 116.145 175.611 116.079C175.543 116.011 175.489 115.93 175.453 115.841C175.417 115.752 175.4 115.656 175.403 115.56C175.403 115.397 175.447 115.237 175.53 115.098L176.569 113.481H174.445C174.346 113.486 174.248 113.47 174.157 113.434C174.065 113.398 173.982 113.343 173.913 113.273C173.795 113.135 173.729 112.959 173.729 112.777C173.729 112.594 173.795 112.418 173.913 112.28C173.982 112.21 174.065 112.155 174.157 112.119C174.248 112.083 174.346 112.067 174.445 112.072L176.535 112.13L175.611 110.629C175.518 110.475 175.467 110.3 175.461 110.121C175.458 110.024 175.475 109.929 175.511 109.839C175.547 109.75 175.6 109.669 175.669 109.601C175.733 109.535 175.811 109.482 175.896 109.447C175.981 109.411 176.073 109.393 176.165 109.393C176.295 109.391 176.422 109.427 176.53 109.497C176.639 109.567 176.725 109.667 176.777 109.786L177.794 111.599L178.764 109.867C178.825 109.732 178.922 109.616 179.044 109.533C179.166 109.449 179.309 109.401 179.456 109.393C179.547 109.393 179.637 109.411 179.72 109.447C179.804 109.483 179.879 109.535 179.941 109.601C180.009 109.664 180.063 109.741 180.098 109.827C180.134 109.913 180.152 110.005 180.149 110.097C180.148 110.261 180.1 110.422 180.011 110.559L178.995 112.188L181.108 112.13C181.206 112.124 181.304 112.14 181.396 112.176C181.488 112.211 181.571 112.267 181.639 112.338C181.758 112.476 181.823 112.652 181.823 112.834C181.823 113.017 181.758 113.193 181.639 113.331C181.571 113.402 181.488 113.457 181.396 113.493C181.304 113.529 181.206 113.545 181.108 113.539H178.971L179.918 115.017C180.025 115.195 180.085 115.398 180.092 115.606C180.095 115.699 180.079 115.793 180.045 115.88C180.012 115.967 179.961 116.047 179.895 116.114C179.834 116.179 179.761 116.231 179.68 116.266C179.598 116.302 179.511 116.321 179.422 116.322C179.279 116.318 179.14 116.274 179.021 116.194C178.903 116.114 178.809 116.002 178.752 115.871L177.794 114.174L176.835 115.871C176.766 116.005 176.659 116.116 176.528 116.19C176.396 116.263 176.246 116.297 176.096 116.287Z" fill="black"/>
<path d="M186.697 116.287C186.606 116.287 186.517 116.269 186.433 116.233C186.35 116.197 186.275 116.145 186.212 116.079C186.144 116.011 186.09 115.93 186.054 115.841C186.019 115.752 186.001 115.656 186.004 115.56C186.004 115.397 186.048 115.237 186.131 115.098L187.171 113.481H185.046C184.947 113.486 184.849 113.47 184.758 113.434C184.666 113.398 184.583 113.344 184.515 113.273C184.396 113.135 184.331 112.959 184.331 112.777C184.331 112.594 184.396 112.418 184.515 112.28C184.583 112.21 184.666 112.155 184.758 112.119C184.849 112.083 184.947 112.067 185.046 112.072L187.136 112.13L186.154 110.571C186.062 110.417 186.01 110.242 186.004 110.063C186.001 109.967 186.019 109.871 186.054 109.781C186.09 109.692 186.144 109.611 186.212 109.543C186.277 109.477 186.354 109.425 186.439 109.389C186.525 109.353 186.616 109.335 186.709 109.335C186.838 109.333 186.965 109.37 187.074 109.439C187.183 109.509 187.268 109.61 187.321 109.728L188.337 111.541L189.307 109.809C189.368 109.674 189.465 109.559 189.587 109.475C189.709 109.392 189.852 109.343 190 109.335C190.09 109.335 190.18 109.354 190.264 109.389C190.347 109.425 190.422 109.477 190.485 109.543C190.552 109.607 190.606 109.684 190.642 109.769C190.678 109.855 190.695 109.947 190.693 110.04C190.691 110.204 190.643 110.364 190.554 110.502L189.538 112.13L191.651 112.072C191.749 112.066 191.848 112.082 191.94 112.118C192.031 112.154 192.114 112.209 192.182 112.28C192.301 112.418 192.366 112.594 192.366 112.777C192.366 112.959 192.301 113.135 192.182 113.273C192.114 113.344 192.031 113.399 191.94 113.435C191.848 113.471 191.749 113.487 191.651 113.481H189.515L190.462 114.959C190.569 115.138 190.628 115.34 190.635 115.548C190.638 115.642 190.622 115.735 190.589 115.822C190.555 115.91 190.504 115.989 190.439 116.056C190.378 116.121 190.304 116.173 190.223 116.209C190.142 116.244 190.054 116.263 189.965 116.264C189.822 116.262 189.682 116.218 189.563 116.138C189.444 116.058 189.351 115.946 189.295 115.814L188.337 114.116L187.378 115.814C187.322 115.949 187.227 116.066 187.107 116.149C186.986 116.233 186.844 116.281 186.697 116.287Z" fill="black"/>
<path d="M197.298 116.287C197.207 116.287 197.118 116.269 197.034 116.233C196.951 116.197 196.876 116.145 196.813 116.079C196.745 116.011 196.691 115.93 196.655 115.841C196.62 115.752 196.603 115.656 196.605 115.56C196.605 115.397 196.649 115.237 196.732 115.098L197.772 113.481H195.647C195.549 113.486 195.45 113.47 195.359 113.434C195.267 113.398 195.184 113.344 195.116 113.273C194.997 113.135 194.932 112.959 194.932 112.777C194.932 112.594 194.997 112.418 195.116 112.28C195.184 112.21 195.267 112.155 195.359 112.119C195.45 112.083 195.549 112.067 195.647 112.072L197.737 112.13L196.755 110.571C196.663 110.417 196.611 110.242 196.605 110.063C196.603 109.967 196.62 109.871 196.655 109.781C196.691 109.692 196.745 109.611 196.813 109.543C196.878 109.477 196.955 109.425 197.04 109.389C197.126 109.353 197.217 109.335 197.31 109.335C197.439 109.333 197.566 109.37 197.675 109.439C197.784 109.509 197.87 109.61 197.922 109.728L198.938 111.541L199.908 109.809C199.969 109.674 200.066 109.559 200.188 109.475C200.31 109.392 200.453 109.343 200.601 109.335C200.692 109.335 200.781 109.354 200.865 109.389C200.948 109.425 201.023 109.477 201.086 109.543C201.154 109.607 201.207 109.684 201.243 109.769C201.279 109.855 201.296 109.947 201.294 110.04C201.292 110.204 201.244 110.364 201.155 110.502L200.139 112.13L202.252 112.072C202.351 112.066 202.449 112.082 202.541 112.118C202.632 112.154 202.715 112.209 202.783 112.28C202.902 112.418 202.967 112.594 202.967 112.777C202.967 112.959 202.902 113.135 202.783 113.273C202.715 113.344 202.632 113.399 202.541 113.435C202.449 113.471 202.351 113.487 202.252 113.481H200.116L201.063 114.959C201.17 115.138 201.229 115.34 201.236 115.548C201.239 115.642 201.224 115.735 201.19 115.822C201.156 115.91 201.105 115.989 201.04 116.056C200.979 116.121 200.906 116.173 200.824 116.209C200.743 116.244 200.655 116.263 200.566 116.264C200.423 116.262 200.283 116.218 200.164 116.138C200.045 116.058 199.952 115.946 199.896 115.814L198.938 114.116L197.979 115.814C197.923 115.949 197.828 116.066 197.708 116.149C197.587 116.233 197.445 116.281 197.298 116.287Z" fill="black"/>
<path d="M207.946 116.287C207.855 116.287 207.766 116.269 207.682 116.233C207.599 116.197 207.524 116.145 207.461 116.079C207.393 116.011 207.339 115.93 207.303 115.841C207.268 115.752 207.251 115.656 207.253 115.56C207.253 115.397 207.297 115.237 207.38 115.098L208.42 113.481H206.295C206.197 113.486 206.098 113.47 206.007 113.434C205.915 113.398 205.832 113.344 205.764 113.273C205.645 113.135 205.58 112.959 205.58 112.777C205.58 112.594 205.645 112.418 205.764 112.28C205.832 112.21 205.915 112.155 206.007 112.119C206.098 112.083 206.197 112.067 206.295 112.072L208.385 112.13L207.403 110.571C207.311 110.417 207.259 110.242 207.253 110.063C207.251 109.967 207.268 109.871 207.303 109.781C207.339 109.692 207.393 109.611 207.461 109.543C207.526 109.477 207.603 109.425 207.688 109.389C207.774 109.353 207.865 109.335 207.958 109.335C208.087 109.333 208.214 109.37 208.323 109.439C208.432 109.509 208.518 109.61 208.57 109.728L209.586 111.541L210.556 109.809C210.617 109.674 210.714 109.559 210.836 109.475C210.958 109.392 211.101 109.343 211.249 109.335C211.339 109.335 211.429 109.354 211.513 109.389C211.596 109.425 211.671 109.477 211.734 109.543C211.801 109.607 211.855 109.684 211.891 109.769C211.927 109.855 211.944 109.947 211.942 110.04C211.94 110.204 211.892 110.364 211.803 110.502L210.787 112.13L212.9 112.072C212.998 112.066 213.097 112.082 213.189 112.118C213.28 112.154 213.363 112.209 213.431 112.28C213.55 112.418 213.615 112.594 213.615 112.777C213.615 112.959 213.55 113.135 213.431 113.273C213.363 113.344 213.28 113.399 213.189 113.435C213.097 113.471 212.998 113.487 212.9 113.481H210.764L211.711 114.959C211.818 115.138 211.877 115.34 211.884 115.548C211.887 115.642 211.872 115.735 211.838 115.822C211.804 115.91 211.753 115.989 211.688 116.056C211.627 116.121 211.554 116.173 211.472 116.209C211.391 116.244 211.303 116.263 211.214 116.264C211.071 116.261 210.932 116.216 210.814 116.137C210.695 116.057 210.602 115.945 210.544 115.814L209.586 114.116L208.627 115.814C208.571 115.949 208.476 116.066 208.356 116.149C208.235 116.233 208.093 116.281 207.946 116.287Z" fill="black"/>
<path d="M218.5 116.287C218.409 116.287 218.319 116.269 218.236 116.233C218.153 116.197 218.077 116.145 218.015 116.079C217.946 116.011 217.893 115.93 217.857 115.841C217.821 115.752 217.804 115.656 217.807 115.56C217.812 115.398 217.856 115.24 217.934 115.098L218.973 113.481H216.848C216.75 113.486 216.652 113.47 216.56 113.434C216.469 113.398 216.386 113.344 216.317 113.273C216.199 113.135 216.133 112.959 216.133 112.777C216.133 112.594 216.199 112.418 216.317 112.28C216.386 112.21 216.469 112.155 216.56 112.119C216.652 112.083 216.75 112.067 216.848 112.072L218.939 112.13L217.957 110.571C217.864 110.417 217.813 110.242 217.807 110.063C217.804 109.967 217.821 109.871 217.857 109.781C217.893 109.692 217.946 109.611 218.015 109.543C218.08 109.477 218.157 109.425 218.242 109.389C218.327 109.353 218.419 109.335 218.511 109.335C218.641 109.333 218.768 109.37 218.877 109.439C218.985 109.509 219.071 109.61 219.123 109.728L220.14 111.541L221.11 109.809C221.171 109.674 221.268 109.559 221.39 109.475C221.512 109.392 221.655 109.343 221.803 109.335C221.893 109.334 221.984 109.352 222.067 109.388C222.151 109.423 222.226 109.476 222.288 109.543C222.355 109.607 222.409 109.684 222.445 109.769C222.48 109.855 222.498 109.947 222.495 110.04C222.494 110.204 222.446 110.364 222.357 110.502L221.341 112.13L223.454 112.072C223.552 112.066 223.651 112.082 223.742 112.118C223.834 112.154 223.917 112.209 223.985 112.28C224.104 112.418 224.169 112.594 224.169 112.777C224.169 112.959 224.104 113.135 223.985 113.273C223.917 113.344 223.834 113.399 223.742 113.435C223.651 113.471 223.552 113.487 223.454 113.481H221.317L222.264 114.959C222.371 115.138 222.431 115.34 222.438 115.548C222.441 115.642 222.425 115.735 222.392 115.822C222.358 115.91 222.307 115.989 222.241 116.056C222.181 116.121 222.107 116.173 222.026 116.209C221.944 116.244 221.857 116.263 221.768 116.264C221.625 116.261 221.486 116.216 221.367 116.137C221.249 116.057 221.155 115.945 221.098 115.814L220.14 114.116L219.181 115.814C219.124 115.949 219.03 116.066 218.909 116.149C218.789 116.233 218.647 116.281 218.5 116.287Z" fill="black"/>
<path d="M229.101 116.287C229.01 116.287 228.92 116.269 228.837 116.233C228.754 116.197 228.678 116.145 228.616 116.079C228.548 116.011 228.494 115.93 228.458 115.841C228.422 115.752 228.405 115.656 228.408 115.56C228.413 115.398 228.457 115.24 228.535 115.098L229.574 113.481H227.461C227.361 113.487 227.261 113.472 227.167 113.436C227.074 113.4 226.989 113.344 226.918 113.273C226.8 113.135 226.734 112.959 226.734 112.777C226.734 112.594 226.8 112.418 226.918 112.28C226.989 112.209 227.074 112.153 227.167 112.118C227.261 112.082 227.361 112.066 227.461 112.072L229.54 112.13L228.558 110.571C228.466 110.417 228.414 110.242 228.408 110.063C228.405 109.967 228.422 109.871 228.458 109.781C228.494 109.692 228.548 109.611 228.616 109.543C228.681 109.477 228.758 109.425 228.843 109.389C228.928 109.353 229.02 109.335 229.112 109.335C229.242 109.333 229.369 109.37 229.478 109.439C229.586 109.509 229.672 109.61 229.724 109.728L230.741 111.541L231.711 109.809C231.772 109.674 231.869 109.559 231.991 109.475C232.113 109.392 232.256 109.343 232.404 109.335C232.494 109.334 232.585 109.352 232.668 109.388C232.752 109.423 232.827 109.476 232.889 109.543C232.956 109.607 233.01 109.684 233.046 109.769C233.081 109.855 233.099 109.947 233.096 110.04C233.095 110.204 233.047 110.364 232.958 110.502L231.942 112.13L234.055 112.072C234.153 112.066 234.252 112.082 234.343 112.118C234.435 112.154 234.518 112.209 234.586 112.28C234.705 112.418 234.77 112.594 234.77 112.777C234.77 112.959 234.705 113.135 234.586 113.273C234.518 113.344 234.435 113.399 234.343 113.435C234.252 113.471 234.153 113.487 234.055 113.481H231.919L232.865 114.959C232.972 115.138 233.032 115.34 233.039 115.548C233.042 115.642 233.026 115.735 232.993 115.822C232.959 115.91 232.908 115.989 232.842 116.056C232.782 116.121 232.708 116.173 232.627 116.209C232.546 116.244 232.458 116.263 232.369 116.264C232.226 116.261 232.087 116.216 231.968 116.137C231.85 116.057 231.756 115.945 231.699 115.814L230.741 114.116L229.782 115.814C229.725 115.949 229.631 116.066 229.51 116.149C229.39 116.233 229.248 116.281 229.101 116.287Z" fill="black"/>
<path d="M239.702 116.287C239.611 116.287 239.521 116.269 239.438 116.233C239.355 116.197 239.279 116.145 239.217 116.079C239.149 116.011 239.095 115.93 239.059 115.841C239.023 115.752 239.006 115.656 239.009 115.56C239.009 115.397 239.053 115.237 239.136 115.098L240.175 113.481H238.051C237.952 113.486 237.854 113.47 237.763 113.434C237.671 113.398 237.588 113.344 237.519 113.273C237.401 113.135 237.335 112.959 237.335 112.777C237.335 112.594 237.401 112.418 237.519 112.28C237.588 112.21 237.671 112.155 237.763 112.119C237.854 112.083 237.952 112.067 238.051 112.072L240.141 112.13L239.125 110.629C239.032 110.475 238.98 110.3 238.974 110.121C238.972 110.024 238.989 109.929 239.025 109.839C239.06 109.75 239.114 109.669 239.182 109.601C239.247 109.535 239.324 109.482 239.41 109.447C239.495 109.411 239.586 109.393 239.679 109.393C239.808 109.391 239.935 109.427 240.044 109.497C240.153 109.567 240.239 109.667 240.291 109.786L241.307 111.599L242.277 109.867C242.338 109.732 242.435 109.616 242.557 109.533C242.679 109.449 242.822 109.401 242.97 109.393C243.061 109.392 243.151 109.409 243.235 109.445C243.318 109.481 243.393 109.534 243.455 109.601C243.523 109.664 243.576 109.741 243.612 109.827C243.648 109.913 243.665 110.005 243.663 110.097C243.661 110.261 243.613 110.422 243.524 110.559L242.508 112.188L244.621 112.13C244.72 112.124 244.818 112.14 244.91 112.176C245.001 112.211 245.084 112.267 245.153 112.338C245.271 112.476 245.336 112.652 245.336 112.834C245.336 113.017 245.271 113.193 245.153 113.331C245.084 113.402 245.001 113.457 244.91 113.493C244.818 113.529 244.72 113.545 244.621 113.539H242.485L243.432 115.017C243.539 115.195 243.598 115.398 243.605 115.606C243.608 115.699 243.593 115.793 243.559 115.88C243.525 115.967 243.474 116.047 243.409 116.114C243.348 116.179 243.275 116.231 243.193 116.266C243.112 116.302 243.024 116.321 242.935 116.322C242.792 116.318 242.653 116.274 242.535 116.194C242.416 116.114 242.323 116.002 242.266 115.871L241.307 114.174L240.349 115.871C240.286 115.991 240.194 116.092 240.081 116.165C239.967 116.238 239.837 116.28 239.702 116.287Z" fill="black"/>
<path d="M250.303 116.287C250.212 116.287 250.122 116.269 250.039 116.233C249.956 116.197 249.88 116.145 249.818 116.079C249.75 116.011 249.696 115.93 249.66 115.841C249.624 115.752 249.607 115.656 249.61 115.56C249.615 115.398 249.659 115.24 249.737 115.098L250.776 113.481H248.663C248.565 113.488 248.466 113.474 248.374 113.438C248.282 113.402 248.199 113.345 248.132 113.273C248.006 113.138 247.936 112.961 247.936 112.777C247.936 112.592 248.006 112.415 248.132 112.28C248.199 112.208 248.282 112.152 248.374 112.116C248.466 112.08 248.565 112.065 248.663 112.072L250.742 112.13L249.76 110.571C249.667 110.417 249.616 110.242 249.61 110.063C249.607 109.968 249.623 109.874 249.657 109.786C249.691 109.698 249.742 109.618 249.808 109.55C249.874 109.482 249.952 109.428 250.039 109.391C250.126 109.354 250.22 109.335 250.314 109.335C250.444 109.333 250.571 109.37 250.68 109.439C250.788 109.509 250.874 109.61 250.926 109.728L251.943 111.541L252.913 109.809C252.974 109.674 253.071 109.559 253.193 109.475C253.315 109.392 253.458 109.343 253.606 109.335C253.697 109.332 253.787 109.35 253.871 109.385C253.955 109.421 254.03 109.475 254.091 109.543C254.158 109.607 254.212 109.684 254.248 109.769C254.283 109.855 254.301 109.947 254.298 110.04C254.297 110.204 254.249 110.364 254.16 110.502L253.144 112.13L255.257 112.072C255.355 112.066 255.454 112.082 255.545 112.118C255.637 112.154 255.72 112.209 255.788 112.28C255.907 112.418 255.972 112.594 255.972 112.777C255.972 112.959 255.907 113.135 255.788 113.273C255.72 113.344 255.637 113.399 255.545 113.435C255.454 113.471 255.355 113.487 255.257 113.481H253.121L254.067 114.959C254.174 115.138 254.234 115.34 254.241 115.548C254.244 115.639 254.229 115.73 254.197 115.815C254.165 115.9 254.116 115.978 254.054 116.045C253.992 116.111 253.917 116.165 253.834 116.203C253.751 116.24 253.662 116.261 253.571 116.264C253.428 116.261 253.289 116.216 253.17 116.137C253.052 116.057 252.958 115.945 252.901 115.814L251.943 114.116L250.984 115.814C250.927 115.949 250.833 116.066 250.712 116.149C250.592 116.233 250.45 116.281 250.303 116.287Z" fill="black"/>
<path d="M260.903 116.287C260.813 116.287 260.723 116.269 260.64 116.233C260.556 116.197 260.481 116.145 260.418 116.079C260.35 116.011 260.296 115.93 260.261 115.841C260.225 115.752 260.208 115.656 260.211 115.56C260.216 115.398 260.259 115.24 260.338 115.098L261.377 113.481H259.252C259.156 113.487 259.059 113.471 258.969 113.435C258.879 113.399 258.798 113.344 258.732 113.273C258.607 113.138 258.537 112.961 258.537 112.777C258.537 112.592 258.607 112.415 258.732 112.28C258.798 112.209 258.879 112.154 258.969 112.118C259.059 112.082 259.156 112.067 259.252 112.072L261.342 112.13L260.361 110.571C260.268 110.417 260.216 110.242 260.211 110.063C260.207 109.968 260.223 109.874 260.257 109.786C260.291 109.698 260.343 109.618 260.409 109.55C260.474 109.482 260.553 109.428 260.64 109.391C260.727 109.354 260.821 109.335 260.915 109.335C261.044 109.333 261.171 109.37 261.28 109.439C261.389 109.509 261.475 109.61 261.527 109.728L262.543 111.541L263.513 109.809C263.574 109.674 263.671 109.559 263.793 109.475C263.916 109.392 264.058 109.343 264.206 109.335C264.297 109.332 264.388 109.35 264.472 109.385C264.556 109.421 264.63 109.475 264.691 109.543C264.759 109.607 264.812 109.684 264.848 109.769C264.884 109.855 264.901 109.947 264.899 110.04C264.897 110.204 264.849 110.364 264.76 110.502L263.744 112.13L265.857 112.072C265.956 112.066 266.054 112.082 266.146 112.118C266.238 112.154 266.32 112.209 266.389 112.28C266.507 112.418 266.573 112.594 266.573 112.777C266.573 112.959 266.507 113.135 266.389 113.273C266.32 113.344 266.238 113.399 266.146 113.435C266.054 113.471 265.956 113.487 265.857 113.481H263.721L264.668 114.959C264.775 115.138 264.834 115.34 264.841 115.548C264.844 115.639 264.829 115.73 264.797 115.815C264.765 115.9 264.717 115.978 264.655 116.045C264.593 116.111 264.518 116.165 264.435 116.203C264.352 116.24 264.263 116.261 264.171 116.264C264.029 116.261 263.89 116.216 263.771 116.137C263.652 116.057 263.559 115.945 263.502 115.814L262.543 114.116L261.585 115.814C261.528 115.949 261.434 116.066 261.313 116.149C261.192 116.233 261.05 116.281 260.903 116.287Z" fill="black"/>
<path d="M271.458 116.287C271.367 116.287 271.277 116.269 271.194 116.233C271.11 116.197 271.035 116.145 270.973 116.079C270.904 116.011 270.851 115.93 270.815 115.841C270.779 115.752 270.762 115.656 270.765 115.56C270.77 115.398 270.814 115.24 270.892 115.098L271.931 113.481H269.806C269.71 113.487 269.613 113.471 269.523 113.435C269.433 113.399 269.353 113.344 269.287 113.273C269.161 113.138 269.091 112.961 269.091 112.777C269.091 112.592 269.161 112.415 269.287 112.28C269.353 112.209 269.433 112.154 269.523 112.118C269.613 112.082 269.71 112.067 269.806 112.072L271.896 112.13L270.915 110.571C270.822 110.417 270.771 110.242 270.765 110.063C270.762 109.967 270.779 109.871 270.815 109.782C270.851 109.692 270.904 109.611 270.973 109.543C271.037 109.477 271.115 109.425 271.2 109.389C271.285 109.353 271.377 109.335 271.469 109.335C271.598 109.333 271.725 109.37 271.834 109.439C271.943 109.509 272.029 109.61 272.081 109.728L273.097 111.541L274.067 109.809C274.129 109.674 274.225 109.559 274.348 109.475C274.47 109.392 274.613 109.343 274.76 109.335C274.851 109.332 274.942 109.35 275.026 109.385C275.11 109.421 275.185 109.475 275.245 109.543C275.313 109.607 275.367 109.684 275.402 109.769C275.438 109.855 275.455 109.947 275.453 110.04C275.452 110.204 275.404 110.364 275.315 110.502L274.298 112.13L276.412 112.072C276.51 112.066 276.608 112.082 276.7 112.118C276.792 112.154 276.875 112.209 276.943 112.28C277.062 112.418 277.127 112.594 277.127 112.777C277.127 112.959 277.062 113.135 276.943 113.273C276.875 113.344 276.792 113.399 276.7 113.435C276.608 113.471 276.51 113.487 276.412 113.481H274.275L275.222 114.959C275.329 115.138 275.389 115.34 275.395 115.548C275.399 115.642 275.383 115.735 275.349 115.822C275.316 115.91 275.264 115.989 275.199 116.056C275.138 116.121 275.065 116.173 274.984 116.209C274.902 116.244 274.815 116.263 274.726 116.264C274.583 116.261 274.444 116.216 274.325 116.137C274.206 116.057 274.113 115.945 274.056 115.814L273.097 114.116L272.139 115.814C272.082 115.949 271.988 116.066 271.867 116.149C271.746 116.233 271.604 116.281 271.458 116.287Z" fill="black"/>
<path d="M307.789 141.831H321.912" stroke="white" stroke-width="3" stroke-linecap="round" stroke-linejoin="round"/>
<path d="M111.901 37.8424V131.646C111.901 134.362 112.98 136.968 114.901 138.889C116.822 140.81 119.427 141.889 122.144 141.889H294.38" stroke="white" stroke-width="3" stroke-linecap="round" stroke-linejoin="round"/>
<path d="M111.901 12.9683V27.0337" stroke="white" stroke-width="3" stroke-linecap="round" stroke-linejoin="round"/>
</svg>
