<svg width="604" height="450" viewBox="0 0 604 450" fill="none" xmlns="http://www.w3.org/2000/svg">
<path d="M603.93 395.453H0V395.755H603.93V395.453Z" fill="#EBEBEB"/>
<path d="M543.416 414.887H503.412V415.189H543.416V414.887Z" fill="#EBEBEB"/>
<path d="M400.068 418.173H389.571V418.475H400.068V418.173Z" fill="#EBEBEB"/>
<path d="M502.204 403.679H479.025V403.981H502.204V403.679Z" fill="#EBEBEB"/>
<path d="M115.532 405.708H63.3643V406.01H115.532V405.708Z" fill="#EBEBEB"/>
<path d="M133.94 405.708H126.294V406.01H133.94V405.708Z" fill="#EBEBEB"/>
<path d="M271.95 410.805H158.797V411.107H271.95V410.805Z" fill="#EBEBEB"/>
<path d="M286.263 341.582H53.0371C51.2101 341.579 49.4589 340.851 48.1681 339.558C46.8773 338.265 46.1523 336.513 46.1523 334.686V6.83648C46.1682 5.01989 46.9002 3.28293 48.1893 2.00289C49.4784 0.722853 51.2205 0.00311191 53.0371 0H286.263C288.092 0 289.846 0.726633 291.139 2.02005C292.433 3.31346 293.16 5.06771 293.16 6.89687V334.686C293.16 336.515 292.433 338.269 291.139 339.562C289.846 340.856 288.092 341.582 286.263 341.582ZM53.0371 0.241573C51.2902 0.244772 49.6158 0.941001 48.3816 2.17744C47.1475 3.41388 46.4543 5.08949 46.4543 6.83648V334.686C46.4543 336.433 47.1475 338.108 48.3816 339.345C49.6158 340.581 51.2902 341.277 53.0371 341.281H286.263C288.011 341.277 289.686 340.581 290.922 339.345C292.158 338.109 292.854 336.434 292.858 334.686V6.83648C292.854 5.08838 292.158 3.4128 290.922 2.1767C289.686 0.940608 288.011 0.244766 286.263 0.241573H53.0371Z" fill="#EBEBEB"/>
<path d="M547.535 341.582H314.297C312.469 341.579 310.717 340.852 309.424 339.559C308.131 338.266 307.404 336.514 307.4 334.686V6.83648C307.419 5.01879 308.154 3.28185 309.445 2.00214C310.736 0.722431 312.479 0.00307797 314.297 0H547.535C549.349 0.0062863 551.088 0.727432 552.375 2.00713C553.661 3.28683 554.392 5.02198 554.408 6.83648V334.686C554.408 336.511 553.684 338.261 552.396 339.554C551.108 340.847 549.36 341.576 547.535 341.582ZM314.297 0.241573C312.549 0.244766 310.874 0.940608 309.637 2.1767C308.401 3.4128 307.706 5.08838 307.702 6.83648V334.686C307.706 336.434 308.401 338.109 309.637 339.345C310.874 340.581 312.549 341.277 314.297 341.281H547.535C549.283 341.277 550.958 340.581 552.195 339.345C553.431 338.109 554.127 336.434 554.13 334.686V6.83648C554.127 5.08838 553.431 3.4128 552.195 2.1767C550.958 0.940608 549.283 0.244766 547.535 0.241573H314.297Z" fill="#EBEBEB"/>
<path d="M292.712 143.59H121.22V395.03H292.712V143.59Z" fill="#F0F0F0"/>
<path d="M286.65 151.502H127.273V197.944H286.65V151.502Z" fill="#E0E0E0"/>
<path d="M136.332 159.015H127.273V197.932H136.332V159.015Z" fill="#EBEBEB"/>
<path d="M180.116 159.015H171.057V197.932H180.116V159.015Z" fill="#EBEBEB"/>
<path d="M229.81 158.037L220.882 159.576L227.493 197.928L236.42 196.389L229.81 158.037Z" fill="#EBEBEB"/>
<path d="M147.553 164.148H138.494V197.944H147.553V164.148Z" fill="#EBEBEB"/>
<path d="M168.364 164.148H159.305V197.944H168.364V164.148Z" fill="#EBEBEB"/>
<path d="M220.893 164.148H211.834V197.944H220.893V164.148Z" fill="#EBEBEB"/>
<path d="M192.015 162.975L183.172 164.941L190.504 197.932L199.347 195.966L192.015 162.975Z" fill="#EBEBEB"/>
<path d="M155.379 157.082H150.85V197.932H155.379V157.082Z" fill="#EBEBEB"/>
<path d="M209.225 157.082H204.696V197.932H209.225V157.082Z" fill="#EBEBEB"/>
<path d="M127.284 251.742L286.661 251.742V205.3L127.284 205.3V251.742Z" fill="#E0E0E0"/>
<path d="M277.59 251.73H286.649V212.813H277.59V251.73Z" fill="#EBEBEB"/>
<path d="M233.818 251.73H242.877V212.813H233.818V251.73Z" fill="#EBEBEB"/>
<path d="M177.516 250.183L186.443 251.722L193.054 213.371L184.126 211.832L177.516 250.183Z" fill="#EBEBEB"/>
<path d="M266.37 251.742H275.429V217.946H266.37V251.742Z" fill="#EBEBEB"/>
<path d="M245.57 251.742H254.629V217.946H245.57V251.742Z" fill="#EBEBEB"/>
<path d="M193.041 251.742H202.1V217.946H193.041V251.742Z" fill="#EBEBEB"/>
<path d="M214.616 249.767L223.459 251.733L230.791 218.742L221.948 216.777L214.616 249.767Z" fill="#EBEBEB"/>
<path d="M258.542 251.73H263.072V210.88H258.542V251.73Z" fill="#EBEBEB"/>
<path d="M204.708 251.73H209.238V210.88H204.708V251.73Z" fill="#EBEBEB"/>
<path d="M136.332 212.813H127.273V251.73H136.332V212.813Z" fill="#EBEBEB"/>
<path d="M147.553 217.934H138.494V251.73H147.553V217.934Z" fill="#EBEBEB"/>
<path d="M168.364 217.934H159.305V251.73H168.364V217.934Z" fill="#EBEBEB"/>
<path d="M155.379 210.88H150.85V251.73H155.379V210.88Z" fill="#EBEBEB"/>
<path d="M286.65 259.086H127.273V305.528H286.65V259.086Z" fill="#E0E0E0"/>
<path d="M227.814 266.599H218.755V305.516H227.814V266.599Z" fill="#EBEBEB"/>
<path d="M277.516 265.618L268.588 267.157L275.199 305.509L284.126 303.97L277.516 265.618Z" fill="#EBEBEB"/>
<path d="M195.25 271.732H186.191V305.528H195.25V271.732Z" fill="#EBEBEB"/>
<path d="M216.062 271.732H207.003V305.528H216.062V271.732Z" fill="#EBEBEB"/>
<path d="M268.592 271.732H259.533V305.528H268.592V271.732Z" fill="#EBEBEB"/>
<path d="M239.718 270.561L230.875 272.526L238.207 305.517L247.05 303.552L239.718 270.561Z" fill="#EBEBEB"/>
<path d="M203.077 264.666H198.548V305.516H203.077V264.666Z" fill="#EBEBEB"/>
<path d="M256.924 264.666H252.394V305.516H256.924V264.666Z" fill="#EBEBEB"/>
<path d="M173.354 265.627L164.426 267.166L171.037 305.518L179.964 303.979L173.354 265.627Z" fill="#EBEBEB"/>
<path d="M164.426 271.732H155.367V305.528H164.426V271.732Z" fill="#EBEBEB"/>
<path d="M135.556 270.561L126.713 272.526L134.045 305.517L142.888 303.552L135.556 270.561Z" fill="#EBEBEB"/>
<path d="M152.771 264.666H148.241V305.516H152.771V264.666Z" fill="#EBEBEB"/>
<path d="M91.6277 395.682H121.22L121.22 143.59H91.6277L91.6277 395.682Z" fill="#E0E0E0"/>
<path d="M393.086 389.1H367.951L381.165 281.431C381.482 279.182 382.587 277.118 384.283 275.607C385.98 274.096 388.158 273.237 390.429 273.182H500.054L483.978 389.051L393.086 389.1Z" fill="#F5F5F5"/>
<path d="M472.804 389.1H497.94L511.166 281.431C511.327 280.396 511.259 279.338 510.967 278.332C510.674 277.327 510.164 276.397 509.473 275.61C508.781 274.823 507.926 274.198 506.966 273.778C506.006 273.358 504.966 273.155 503.919 273.181H495.282C493.016 273.251 490.845 274.115 489.152 275.623C487.458 277.132 486.349 279.187 486.018 281.431L472.804 389.1Z" fill="#F0F0F0"/>
<path d="M463.552 388.931L468.106 336.872C468.202 335.743 468.682 334.68 469.467 333.863C470.252 333.045 471.293 332.521 472.418 332.379L474.29 332.137C475.801 331.948 477.201 331.244 478.255 330.144C479.308 329.045 479.951 327.616 480.076 326.098L480.909 316.604C480.991 315.684 480.881 314.756 480.585 313.881C480.289 313.005 479.814 312.201 479.19 311.519C478.566 310.838 477.807 310.293 476.962 309.921C476.116 309.549 475.202 309.357 474.278 309.357H516.287C517.211 309.357 518.125 309.549 518.971 309.921C519.817 310.293 520.576 310.838 521.199 311.519C521.823 312.201 522.298 313.005 522.594 313.881C522.89 314.756 523 315.684 522.918 316.604L522.085 326.098C521.961 327.616 521.318 329.045 520.264 330.144C519.211 331.244 517.811 331.948 516.299 332.137L514.427 332.379C513.304 332.523 512.263 333.048 511.479 333.865C510.694 334.682 510.213 335.743 510.115 336.872L505.561 388.931C505.399 390.76 504.557 392.462 503.203 393.703C501.848 394.943 500.078 395.632 498.242 395.634H456.232C458.069 395.632 459.839 394.943 461.193 393.703C462.548 392.462 463.389 390.76 463.552 388.931Z" fill="#E6E6E6"/>
<path d="M347.936 323.887C347.603 319.936 345.799 316.253 342.879 313.569C339.96 310.884 336.14 309.394 332.174 309.393H368.748C372.703 309.409 376.509 310.906 379.415 313.589C382.322 316.272 384.118 319.946 384.45 323.887L388.074 365.148H351.548L347.936 323.887Z" fill="#E6E6E6"/>
<path d="M315.928 309.441H332.161C336.127 309.443 339.948 310.933 342.867 313.617C345.786 316.301 347.591 319.984 347.924 323.936L351.548 365.196H438.658L442.282 323.936C442.611 319.993 444.407 316.318 447.314 313.634C450.221 310.951 454.028 309.455 457.984 309.441H474.23C475.154 309.441 476.068 309.633 476.914 310.006C477.759 310.378 478.518 310.922 479.142 311.604C479.766 312.286 480.241 313.09 480.537 313.965C480.833 314.841 480.943 315.768 480.861 316.689L480.028 326.182C479.903 327.7 479.261 329.129 478.207 330.229C477.153 331.329 475.753 332.032 474.242 332.222L472.37 332.463C471.245 332.606 470.204 333.129 469.419 333.947C468.634 334.765 468.154 335.827 468.058 336.956L463.552 388.931C463.389 390.76 462.548 392.462 461.194 393.703C459.839 394.943 458.069 395.632 456.233 395.634H333.973C332.137 395.632 330.367 394.943 329.012 393.703C327.658 392.462 326.816 390.76 326.654 388.931L322.1 336.872C322 335.744 321.518 334.684 320.734 333.867C319.95 333.05 318.911 332.525 317.788 332.379L315.916 332.137C314.404 331.946 313.004 331.242 311.948 330.143C310.893 329.044 310.247 327.616 310.118 326.098L309.297 316.604C309.227 315.69 309.346 314.772 309.648 313.907C309.949 313.041 310.426 312.248 311.049 311.575C311.671 310.903 312.426 310.366 313.266 309.999C314.105 309.632 315.012 309.442 315.928 309.441Z" fill="#F0F0F0"/>
<path d="M123.395 131.029C123.395 131.029 122.054 122.199 128.492 116.534C134.93 110.869 134.362 107.512 132.514 107.077C130.666 106.642 128.987 112.295 126.161 113.853C126.161 113.853 126.064 105.784 128.939 102.825C131.814 99.8658 133.324 92.1959 130.582 92.063C127.84 91.9302 127.574 96.6046 126.958 99.9262C126.342 103.248 123.335 107.91 123.335 107.91C123.335 107.91 122.743 100.663 120.919 97.7279C119.095 94.7928 124.011 87.9684 122.127 85.0091C120.242 82.0499 116.824 87.6906 117.102 94.056C117.38 100.421 121.632 107.21 120.641 113.853C120.641 113.853 118.769 109.178 117.09 108.756C115.411 108.333 113.708 105.253 112.585 104.105C111.461 102.958 110.036 106.92 112.585 110.592C115.133 114.263 121.632 124.108 120.641 132.055L123.395 131.029Z" fill="#E6E6E6"/>
<path d="M127.236 127.006L129.35 140.232C129.502 141.193 129.444 142.174 129.18 143.11C128.916 144.046 128.452 144.913 127.821 145.652C127.189 146.392 126.405 146.985 125.522 147.393C124.64 147.8 123.679 148.011 122.707 148.011H120.46C119.488 148.011 118.527 147.8 117.645 147.393C116.762 146.985 115.978 146.392 115.346 145.652C114.715 144.913 114.251 144.046 113.987 143.11C113.723 142.174 113.665 141.193 113.817 140.232L115.955 127.006H127.236Z" fill="#E6E6E6"/>
<path d="M253.711 145.426H260.27V117.223H253.711V145.426Z" fill="#EBEBEB"/>
<path d="M221.993 145.426H228.551V117.223H221.993V145.426Z" fill="#EBEBEB"/>
<path d="M181.196 144.305L187.66 145.419L192.45 117.626L185.987 116.512L181.196 144.305Z" fill="#EBEBEB"/>
<path d="M245.582 145.414H252.141V120.931H245.582V145.414Z" fill="#EBEBEB"/>
<path d="M230.508 145.414H237.066V120.931H230.508V145.414Z" fill="#EBEBEB"/>
<path d="M192.436 145.414H198.995V120.931H192.436V145.414Z" fill="#EBEBEB"/>
<path d="M208.078 143.994L214.48 145.417L219.792 121.517L213.39 120.094L208.078 143.994Z" fill="#EBEBEB"/>
<path d="M239.905 145.426H243.19V115.822H239.905V145.426Z" fill="#EBEBEB"/>
<path d="M200.879 145.426H204.165V115.822H200.879V145.426Z" fill="#EBEBEB"/>
<path d="M177.495 123.033H145.523V145.1H177.495V123.033Z" fill="#EBEBEB"/>
<path d="M287.145 132.067H260.367V148.543H287.145V132.067Z" fill="#EBEBEB"/>
<path d="M280.888 117.585H267.493V134.06H280.888V117.585Z" fill="#EBEBEB"/>
<path d="M504.655 95.7832H472.804V228.503H504.655V95.7832Z" fill="#E0E0E0"/>
<path d="M382.118 228.865L501.237 228.865V95.7953L382.118 95.7953V228.865Z" fill="#E0E0E0"/>
<path d="M378.278 228.865L501.866 228.865V95.7953L378.278 95.7953V228.865Z" fill="#F0F0F0"/>
<path d="M383.568 222.741H496.793V100.023L383.568 100.023V222.741Z" fill="white"/>
<path d="M383.556 222.741H385.658V100.023H383.556V222.741Z" fill="#E0E0E0"/>
<path d="M385.319 188.281V191.591H497.095V188.281H385.319Z" fill="#E0E0E0"/>
<path d="M383.555 188.269H498.556V182.713H383.555V188.269Z" fill="#F0F0F0"/>
<path d="M301.965 450C431.305 450 536.157 443.878 536.157 436.327C536.157 428.776 431.305 422.654 301.965 422.654C172.624 422.654 67.7729 428.776 67.7729 436.327C67.7729 443.878 172.624 450 301.965 450Z" fill="#F5F5F5"/>
<path d="M388.871 118.153H172.773C167.89 118.153 163.931 122.111 163.931 126.994V381.442C163.931 386.325 167.89 390.283 172.773 390.283H388.871C393.754 390.283 397.712 386.325 397.712 381.442V126.994C397.712 122.111 393.754 118.153 388.871 118.153Z" fill="#9C7BEB"/>
<path opacity="0.6" d="M388.871 118.153H172.773C167.89 118.153 163.931 122.111 163.931 126.994V381.442C163.931 386.325 167.89 390.283 172.773 390.283H388.871C393.754 390.283 397.712 386.325 397.712 381.442V126.994C397.712 122.111 393.754 118.153 388.871 118.153Z" fill="white"/>
<path d="M359.845 242.961H201.809V270.017H359.845V242.961Z" fill="white"/>
<g opacity="0.4">
<path d="M215.941 259.122V259.835H210.458V252.08H215.772V252.781H211.279V255.547H215.289V256.235H211.279V259.122H215.941Z" fill="#263238"/>
<path d="M217.041 256.489H219.951V257.165H217.041V256.489Z" fill="#263238"/>
<path d="M231.318 256.453V259.835H230.533V256.525C230.533 255.317 229.917 254.665 228.866 254.665C228.593 254.652 228.321 254.699 228.069 254.803C227.817 254.906 227.59 255.063 227.405 255.264C227.219 255.464 227.08 255.702 226.997 255.962C226.913 256.221 226.887 256.496 226.921 256.767V259.835H226.124V256.525C226.124 255.317 225.508 254.665 224.445 254.665C224.173 254.652 223.901 254.699 223.648 254.803C223.396 254.906 223.169 255.063 222.984 255.264C222.799 255.464 222.659 255.702 222.576 255.962C222.492 256.221 222.467 256.496 222.5 256.767V259.835H221.703V254.001H222.464V255.064C222.692 254.707 223.009 254.417 223.385 254.222C223.76 254.027 224.18 253.934 224.602 253.952C225.029 253.916 225.456 254.013 225.826 254.229C226.196 254.445 226.49 254.771 226.667 255.16C226.909 254.771 227.25 254.454 227.656 254.241C228.062 254.029 228.517 253.929 228.974 253.952C229.302 253.927 229.632 253.976 229.938 254.096C230.244 254.215 230.52 254.401 230.745 254.641C230.97 254.881 231.138 255.168 231.237 255.482C231.336 255.795 231.364 256.127 231.318 256.453Z" fill="#263238"/>
<path d="M237.864 256.211V259.835H237.104V258.917C236.887 259.243 236.587 259.506 236.234 259.676C235.881 259.846 235.489 259.917 235.098 259.883C233.782 259.883 232.973 259.194 232.973 258.192C232.973 257.189 233.552 256.537 235.219 256.537H237.067V256.187C237.067 255.184 236.512 254.641 235.425 254.641C234.715 254.633 234.026 254.877 233.48 255.329L233.13 254.75C233.812 254.201 234.67 253.917 235.545 253.952C235.854 253.915 236.167 253.947 236.461 254.046C236.755 254.146 237.023 254.31 237.246 254.526C237.468 254.743 237.639 255.007 237.746 255.298C237.853 255.59 237.894 255.902 237.864 256.211ZM237.067 258.083V257.129H235.243C234.12 257.129 233.746 257.564 233.746 258.168C233.746 258.772 234.289 259.267 235.219 259.267C235.613 259.293 236.005 259.192 236.338 258.979C236.671 258.766 236.926 258.452 237.067 258.083Z" fill="#263238"/>
<path d="M239.821 252.165C239.822 252.09 239.839 252.017 239.869 251.948C239.899 251.88 239.942 251.818 239.996 251.767C240.049 251.715 240.113 251.675 240.182 251.648C240.252 251.621 240.326 251.607 240.401 251.609C240.474 251.607 240.546 251.62 240.614 251.647C240.682 251.673 240.744 251.713 240.797 251.763C240.85 251.814 240.892 251.874 240.921 251.941C240.951 252.008 240.967 252.08 240.968 252.153C240.97 252.228 240.956 252.303 240.929 252.374C240.901 252.444 240.859 252.508 240.806 252.562C240.753 252.616 240.69 252.659 240.621 252.688C240.551 252.717 240.476 252.732 240.401 252.732C240.325 252.734 240.25 252.72 240.18 252.693C240.109 252.665 240.045 252.623 239.991 252.57C239.937 252.518 239.894 252.454 239.865 252.385C239.836 252.315 239.821 252.24 239.821 252.165ZM240.002 254.001H240.787V259.835H240.002V254.001Z" fill="#263238"/>
<path d="M242.973 251.609H243.758V259.835H242.973V251.609Z" fill="#263238"/>
</g>
<path d="M359.845 279.921H201.809V306.977H359.845V279.921Z" fill="white"/>
<g opacity="0.4">
<path d="M216.521 291.734C216.521 293.389 215.313 294.392 213.356 294.392H211.279V296.807H210.458V289.053H213.356C215.325 289.077 216.521 290.079 216.521 291.734ZM215.7 291.734C215.7 290.526 214.89 289.79 213.284 289.79H211.231V293.667H213.284C214.89 293.667 215.7 292.954 215.7 291.734Z" fill="#263238"/>
<path d="M222.476 293.22V296.843H221.715V295.925C221.499 296.252 221.199 296.515 220.846 296.685C220.493 296.855 220.101 296.926 219.71 296.892C218.394 296.892 217.584 296.203 217.584 295.189C217.584 294.174 218.164 293.51 219.831 293.51H221.679V293.147C221.679 292.157 221.111 291.613 220.024 291.613C219.318 291.604 218.633 291.848 218.092 292.302L217.729 291.71C218.418 291.173 219.273 290.895 220.145 290.925C220.458 290.884 220.775 290.916 221.074 291.016C221.373 291.116 221.645 291.284 221.87 291.505C222.094 291.726 222.266 291.995 222.371 292.292C222.476 292.589 222.512 292.907 222.476 293.22ZM221.691 295.08V294.126H219.831C218.708 294.126 218.345 294.573 218.345 295.177C218.345 295.78 218.877 296.264 219.819 296.264C220.217 296.293 220.613 296.194 220.951 295.981C221.288 295.768 221.547 295.452 221.691 295.08Z" fill="#263238"/>
<path d="M223.804 296.167L224.154 295.551C224.764 295.976 225.489 296.204 226.232 296.203C227.331 296.203 227.79 295.829 227.79 295.249C227.79 293.727 224.01 294.923 224.01 292.628C224.01 291.674 224.831 290.961 226.317 290.961C227.041 290.955 227.754 291.142 228.382 291.505L228.032 292.133C227.524 291.797 226.925 291.624 226.317 291.638C225.266 291.638 224.795 292.048 224.795 292.604C224.795 294.174 228.575 292.99 228.575 295.225C228.575 296.24 227.694 296.892 226.16 296.892C225.316 296.914 224.489 296.659 223.804 296.167Z" fill="#263238"/>
<path d="M229.216 296.167L229.578 295.551C230.18 295.981 230.904 296.21 231.644 296.203C232.755 296.203 233.202 295.829 233.202 295.249C233.202 293.727 229.433 294.923 229.433 292.628C229.433 291.674 230.255 290.961 231.728 290.961C232.453 290.952 233.167 291.14 233.794 291.505L233.455 292.133C232.942 291.798 232.341 291.626 231.728 291.638C230.677 291.638 230.218 292.048 230.218 292.604C230.218 294.174 233.999 292.99 233.999 295.225C233.999 296.24 233.105 296.892 231.583 296.892C230.737 296.912 229.906 296.658 229.216 296.167Z" fill="#263238"/>
<path d="M243.879 291.009L241.681 296.831H240.944L239.156 292.06L237.32 296.831H236.583L234.325 291.009H235.074L236.91 295.962L238.782 291.009H239.458L241.318 295.962L243.166 291.009H243.879Z" fill="#263238"/>
<path d="M244.314 293.92C244.314 293.333 244.488 292.758 244.815 292.27C245.141 291.781 245.605 291.4 246.148 291.175C246.691 290.95 247.289 290.892 247.865 291.006C248.442 291.121 248.971 291.404 249.387 291.819C249.802 292.235 250.085 292.764 250.2 293.341C250.314 293.917 250.256 294.515 250.031 295.057C249.806 295.6 249.425 296.064 248.936 296.391C248.448 296.717 247.873 296.892 247.286 296.892C246.892 296.905 246.499 296.838 246.133 296.693C245.766 296.548 245.433 296.33 245.154 296.051C244.876 295.773 244.657 295.44 244.513 295.073C244.368 294.707 244.301 294.314 244.314 293.92ZM249.448 293.92C249.429 293.494 249.285 293.084 249.034 292.739C248.784 292.394 248.437 292.13 248.038 291.981C247.639 291.831 247.204 291.803 246.789 291.898C246.373 291.994 245.995 292.209 245.701 292.518C245.407 292.827 245.21 293.215 245.135 293.635C245.06 294.054 245.11 294.487 245.279 294.878C245.448 295.27 245.728 295.603 246.085 295.836C246.442 296.07 246.859 296.193 247.286 296.191C247.58 296.197 247.873 296.141 248.145 296.028C248.417 295.914 248.663 295.745 248.866 295.532C249.07 295.318 249.226 295.065 249.326 294.787C249.426 294.51 249.468 294.215 249.448 293.92Z" fill="#263238"/>
<path d="M254.787 290.961V291.722H254.593C254.317 291.709 254.041 291.757 253.785 291.862C253.53 291.968 253.3 292.128 253.114 292.332C252.927 292.536 252.787 292.779 252.705 293.043C252.622 293.307 252.599 293.586 252.637 293.86V296.831H251.852V291.009H252.6V292.145C252.804 291.751 253.122 291.428 253.511 291.217C253.901 291.005 254.346 290.916 254.787 290.961Z" fill="#263238"/>
<path d="M261.465 288.678V296.892H260.717V295.744C260.482 296.126 260.151 296.439 259.756 296.651C259.362 296.863 258.918 296.967 258.47 296.952C257.716 296.904 257.009 296.571 256.492 296.02C255.976 295.469 255.688 294.742 255.688 293.987C255.688 293.232 255.976 292.505 256.492 291.954C257.009 291.403 257.716 291.07 258.47 291.022C258.912 291.012 259.349 291.118 259.737 291.33C260.124 291.542 260.45 291.852 260.68 292.229V288.678H261.465ZM260.692 293.981C260.673 293.555 260.53 293.144 260.279 292.799C260.028 292.454 259.682 292.191 259.283 292.041C258.883 291.892 258.449 291.863 258.034 291.959C257.618 292.054 257.24 292.269 256.946 292.578C256.652 292.887 256.455 293.275 256.38 293.695C256.305 294.115 256.355 294.547 256.524 294.939C256.693 295.33 256.973 295.663 257.33 295.897C257.687 296.13 258.104 296.253 258.53 296.252C258.831 296.258 259.129 296.201 259.406 296.084C259.682 295.967 259.931 295.792 260.135 295.572C260.34 295.352 260.495 295.09 260.591 294.806C260.687 294.521 260.722 294.219 260.692 293.92V293.981Z" fill="#263238"/>
</g>
<path opacity="0.2" d="M359.845 334.577H201.809V361.633H359.845V334.577Z" fill="black"/>
<g opacity="0.5">
<path d="M240.244 322.148H237.659L237.103 323.356H236.596L238.71 318.73H239.193L241.307 323.356H240.8L240.244 322.148ZM240.063 321.749L238.952 319.261L237.84 321.749H240.063Z" fill="black"/>
<path d="M241.983 318.476H242.454V323.38H241.983V318.476Z" fill="black"/>
<path d="M245.522 319.877V320.336H245.402C245.233 320.322 245.063 320.346 244.905 320.406C244.747 320.466 244.604 320.562 244.488 320.685C244.372 320.808 244.285 320.956 244.234 321.117C244.183 321.278 244.169 321.449 244.194 321.617V323.392H243.723V319.913H244.182V320.59C244.303 320.346 244.497 320.146 244.738 320.018C244.978 319.891 245.252 319.841 245.522 319.877Z" fill="black"/>
<path d="M249.363 321.786H246.404C246.413 321.955 246.456 322.121 246.53 322.273C246.603 322.426 246.707 322.563 246.834 322.675C246.961 322.787 247.109 322.873 247.269 322.928C247.43 322.983 247.6 323.005 247.769 322.994C247.97 323 248.169 322.964 248.355 322.887C248.54 322.81 248.707 322.694 248.844 322.547L249.097 322.849C248.848 323.111 248.526 323.293 248.173 323.373C247.82 323.453 247.451 323.427 247.113 323.298C246.775 323.169 246.482 322.943 246.272 322.648C246.062 322.353 245.944 322.003 245.933 321.641C245.921 321.411 245.957 321.182 246.038 320.967C246.118 320.751 246.242 320.555 246.402 320.39C246.562 320.224 246.753 320.094 246.966 320.005C247.178 319.917 247.406 319.874 247.636 319.877C247.866 319.872 248.094 319.914 248.307 320.002C248.519 320.089 248.711 320.22 248.87 320.386C249.029 320.552 249.152 320.749 249.231 320.965C249.309 321.181 249.342 321.411 249.327 321.641C249.327 321.641 249.363 321.737 249.363 321.786ZM246.452 321.435H248.868C248.868 321.115 248.741 320.808 248.514 320.581C248.288 320.355 247.98 320.228 247.66 320.228C247.34 320.228 247.032 320.355 246.806 320.581C246.579 320.808 246.452 321.115 246.452 321.435Z" fill="black"/>
<path d="M252.854 321.29V323.44H252.443V322.897C252.315 323.096 252.134 323.255 251.921 323.357C251.708 323.46 251.47 323.501 251.235 323.477C250.45 323.477 250.027 323.066 250.027 322.462C250.027 321.858 250.366 321.472 251.368 321.472H252.443V321.266C252.443 320.674 252.105 320.348 251.453 320.348C251.013 320.332 250.583 320.478 250.245 320.759L250.039 320.409C250.44 320.089 250.941 319.922 251.453 319.938C251.64 319.906 251.831 319.918 252.013 319.974C252.194 320.03 252.359 320.127 252.496 320.259C252.632 320.391 252.736 320.553 252.798 320.732C252.86 320.911 252.879 321.103 252.854 321.29ZM252.395 322.402V321.822H251.296C250.619 321.822 250.402 322.088 250.402 322.45C250.402 322.812 250.728 323.102 251.284 323.102C251.534 323.121 251.783 323.057 251.993 322.919C252.203 322.782 252.361 322.578 252.443 322.341L252.395 322.402Z" fill="black"/>
<path d="M257.275 318.476V323.38H256.828V322.692C256.691 322.922 256.494 323.111 256.258 323.239C256.021 323.367 255.755 323.428 255.487 323.416C255.043 323.38 254.629 323.177 254.327 322.85C254.025 322.522 253.858 322.092 253.858 321.647C253.858 321.201 254.025 320.772 254.327 320.444C254.629 320.116 255.043 319.914 255.487 319.877C255.749 319.87 256.008 319.93 256.24 320.05C256.473 320.171 256.671 320.348 256.816 320.566V318.476H257.275ZM256.816 321.641C256.804 321.388 256.718 321.144 256.569 320.94C256.42 320.736 256.214 320.579 255.978 320.491C255.741 320.402 255.483 320.385 255.236 320.441C254.99 320.498 254.765 320.625 254.59 320.808C254.416 320.991 254.298 321.222 254.253 321.47C254.208 321.719 254.237 321.976 254.336 322.209C254.436 322.441 254.601 322.64 254.812 322.779C255.023 322.919 255.27 322.993 255.523 322.994C255.703 323.004 255.883 322.977 256.052 322.912C256.22 322.848 256.373 322.748 256.5 322.62C256.626 322.492 256.725 322.339 256.787 322.17C256.85 322.001 256.876 321.821 256.864 321.641H256.816Z" fill="black"/>
<path d="M261.562 319.901L259.823 323.803C259.533 324.479 259.159 324.697 258.615 324.697C258.303 324.705 258 324.593 257.77 324.383L257.987 324.032C258.157 324.202 258.387 324.298 258.627 324.298C258.941 324.298 259.146 324.153 259.352 323.706L259.497 323.38L257.939 319.901H258.482L259.799 322.861L261.103 319.901H261.562Z" fill="black"/>
<path d="M266.587 321.29V323.44H266.14V322.897C266.012 323.096 265.831 323.255 265.618 323.357C265.405 323.46 265.167 323.501 264.932 323.477C264.147 323.477 263.724 323.066 263.724 322.462C263.724 321.858 264.062 321.472 265.065 321.472H266.164V321.266C266.164 320.674 265.838 320.348 265.186 320.348C264.746 320.332 264.316 320.478 263.978 320.759L263.76 320.409C264.165 320.089 264.67 319.923 265.186 319.938C265.373 319.906 265.564 319.918 265.746 319.974C265.927 320.03 266.092 320.127 266.229 320.259C266.365 320.391 266.469 320.553 266.531 320.732C266.593 320.911 266.612 321.103 266.587 321.29ZM266.116 322.402V321.822H265.029C264.352 321.822 264.135 322.088 264.135 322.45C264.135 322.812 264.461 323.102 265.017 323.102C265.258 323.112 265.495 323.043 265.693 322.906C265.892 322.768 266.04 322.57 266.116 322.341V322.402Z" fill="black"/>
<path d="M275.393 321.363V323.38H274.934V321.411C274.934 320.674 274.559 320.3 273.931 320.3C273.769 320.287 273.607 320.31 273.454 320.366C273.302 320.422 273.164 320.511 273.049 320.626C272.934 320.74 272.846 320.879 272.789 321.031C272.733 321.183 272.711 321.346 272.723 321.508V323.332H272.264V321.411C272.264 320.674 271.89 320.3 271.25 320.3C271.088 320.287 270.925 320.31 270.773 320.366C270.621 320.422 270.482 320.511 270.367 320.626C270.253 320.74 270.164 320.879 270.108 321.031C270.052 321.183 270.029 321.346 270.042 321.508V323.332H269.571V319.853H270.018V320.493C270.151 320.277 270.34 320.101 270.566 319.984C270.791 319.867 271.044 319.813 271.298 319.829C271.551 319.809 271.804 319.87 272.021 320.002C272.238 320.134 272.408 320.332 272.506 320.566C272.646 320.329 272.849 320.135 273.092 320.006C273.334 319.876 273.608 319.815 273.883 319.829C274.092 319.792 274.306 319.806 274.508 319.87C274.71 319.934 274.893 320.047 275.042 320.198C275.191 320.349 275.3 320.534 275.361 320.737C275.423 320.94 275.433 321.155 275.393 321.363Z" fill="black"/>
<path d="M279.668 321.786H276.758C276.782 322.128 276.941 322.446 277.198 322.672C277.456 322.898 277.792 323.014 278.135 322.994C278.334 323.001 278.532 322.965 278.715 322.888C278.899 322.811 279.064 322.694 279.197 322.547L279.463 322.849C279.293 323.034 279.086 323.18 278.855 323.278C278.623 323.376 278.374 323.423 278.122 323.416C277.883 323.432 277.643 323.397 277.418 323.314C277.193 323.23 276.988 323.101 276.816 322.934C276.644 322.766 276.509 322.565 276.42 322.342C276.331 322.119 276.29 321.881 276.299 321.641C276.299 321.192 276.477 320.762 276.794 320.445C277.111 320.128 277.541 319.95 277.99 319.95C278.438 319.95 278.868 320.128 279.185 320.445C279.502 320.762 279.681 321.192 279.681 321.641C279.681 321.641 279.668 321.737 279.668 321.786ZM276.758 321.435H279.234C279.234 321.107 279.103 320.792 278.871 320.56C278.639 320.328 278.324 320.197 277.996 320.197C277.667 320.197 277.352 320.328 277.12 320.56C276.888 320.792 276.758 321.107 276.758 321.435Z" fill="black"/>
<path d="M286.384 321.363V323.38H285.913V321.411C285.913 320.674 285.55 320.3 284.922 320.3C284.76 320.285 284.596 320.306 284.443 320.362C284.29 320.417 284.151 320.506 284.035 320.621C283.92 320.736 283.832 320.875 283.776 321.029C283.721 321.182 283.7 321.346 283.715 321.508V323.332H283.243V321.411C283.243 320.674 282.881 320.3 282.241 320.3C282.079 320.285 281.915 320.306 281.762 320.362C281.608 320.417 281.469 320.506 281.354 320.621C281.239 320.736 281.15 320.875 281.095 321.029C281.039 321.182 281.018 321.346 281.033 321.508V323.332H280.562V319.853H281.009V320.493C281.141 320.276 281.33 320.099 281.556 319.982C281.782 319.865 282.035 319.812 282.289 319.829C282.542 319.809 282.796 319.87 283.012 320.002C283.229 320.134 283.399 320.332 283.497 320.566C283.638 320.329 283.84 320.135 284.083 320.006C284.326 319.876 284.599 319.815 284.874 319.829C285.083 319.792 285.297 319.806 285.499 319.87C285.701 319.934 285.885 320.047 286.033 320.198C286.182 320.349 286.292 320.534 286.353 320.737C286.414 320.94 286.424 321.155 286.384 321.363Z" fill="black"/>
<path d="M291.191 321.641C291.203 321.873 291.166 322.105 291.084 322.323C291.002 322.54 290.876 322.738 290.714 322.905C290.552 323.072 290.357 323.203 290.142 323.291C289.927 323.379 289.696 323.422 289.464 323.416C289.196 323.428 288.929 323.367 288.693 323.239C288.457 323.111 288.26 322.922 288.123 322.692V323.38H287.664V318.476H288.135V320.566C288.279 320.347 288.477 320.169 288.71 320.049C288.942 319.928 289.202 319.869 289.464 319.877C289.696 319.87 289.926 319.911 290.141 319.998C290.357 320.085 290.551 320.215 290.714 320.381C290.876 320.546 291.002 320.744 291.084 320.961C291.166 321.178 291.203 321.409 291.191 321.641ZM290.72 321.641C290.708 321.388 290.622 321.144 290.473 320.94C290.324 320.736 290.119 320.579 289.882 320.491C289.645 320.402 289.387 320.385 289.14 320.441C288.894 320.498 288.669 320.625 288.494 320.808C288.32 320.991 288.202 321.222 288.157 321.47C288.112 321.719 288.141 321.976 288.24 322.209C288.34 322.441 288.505 322.64 288.716 322.779C288.927 322.919 289.175 322.993 289.428 322.994C289.603 322.997 289.778 322.964 289.941 322.897C290.103 322.83 290.25 322.729 290.372 322.602C290.493 322.475 290.587 322.323 290.647 322.158C290.707 321.992 290.732 321.816 290.72 321.641Z" fill="black"/>
<path d="M295.189 321.786H292.302C292.311 321.955 292.354 322.121 292.428 322.273C292.502 322.426 292.605 322.563 292.732 322.675C292.859 322.787 293.007 322.873 293.168 322.928C293.328 322.983 293.498 323.005 293.667 322.994C293.868 322.993 294.066 322.949 294.248 322.863C294.429 322.778 294.59 322.653 294.718 322.498L294.984 322.8C294.734 323.062 294.412 323.245 294.059 323.325C293.706 323.405 293.338 323.379 292.999 323.249C292.661 323.12 292.369 322.894 292.159 322.599C291.949 322.305 291.831 321.954 291.819 321.592C291.807 321.363 291.843 321.133 291.924 320.918C292.004 320.703 292.128 320.507 292.288 320.341C292.448 320.176 292.64 320.045 292.852 319.957C293.064 319.869 293.292 319.825 293.522 319.829C293.751 319.823 293.979 319.866 294.191 319.953C294.403 320.041 294.594 320.172 294.753 320.338C294.911 320.505 295.032 320.702 295.11 320.918C295.187 321.134 295.218 321.364 295.201 321.592L295.189 321.786ZM292.278 321.435H294.694C294.694 321.115 294.566 320.808 294.34 320.581C294.113 320.355 293.806 320.228 293.486 320.228C293.166 320.228 292.858 320.355 292.632 320.581C292.405 320.808 292.278 321.115 292.278 321.435Z" fill="black"/>
<path d="M297.908 319.877V320.336H297.799C297.63 320.322 297.461 320.346 297.303 320.406C297.144 320.466 297.002 320.562 296.886 320.685C296.77 320.808 296.683 320.956 296.632 321.117C296.581 321.278 296.567 321.449 296.591 321.617V323.392H296.12V319.914H296.567V320.59C296.69 320.347 296.884 320.149 297.124 320.021C297.364 319.893 297.638 319.843 297.908 319.877Z" fill="black"/>
<path d="M300.951 319.938C300.951 319.455 300.564 319.128 299.888 319.128C299.65 319.115 299.412 319.156 299.193 319.248C298.973 319.34 298.777 319.481 298.62 319.66L298.27 319.394C298.475 319.162 298.731 318.979 299.018 318.86C299.304 318.741 299.614 318.688 299.924 318.706C300.854 318.706 301.446 319.153 301.446 319.914C301.446 321.037 300.238 321.121 300.238 322.039H299.743C299.743 320.904 300.951 320.795 300.951 319.938ZM299.646 323.066C299.662 322.986 299.704 322.913 299.767 322.861C299.83 322.809 299.909 322.781 299.991 322.781C300.072 322.781 300.151 322.809 300.214 322.861C300.277 322.913 300.32 322.986 300.335 323.066C300.344 323.117 300.343 323.169 300.33 323.219C300.317 323.268 300.293 323.315 300.26 323.354C300.227 323.394 300.186 323.426 300.14 323.448C300.093 323.47 300.042 323.481 299.991 323.481C299.939 323.481 299.888 323.47 299.842 323.448C299.795 323.426 299.754 323.394 299.721 323.354C299.688 323.315 299.665 323.268 299.652 323.219C299.639 323.169 299.637 323.117 299.646 323.066Z" fill="black"/>
<path d="M304.224 318.754H305.299V322.498H307.618V323.368H304.224V318.754Z" fill="black"/>
<path d="M307.859 321.605C307.835 321.213 307.929 320.824 308.129 320.487C308.328 320.149 308.625 319.88 308.98 319.713C309.334 319.546 309.731 319.49 310.118 319.551C310.505 319.612 310.865 319.789 311.151 320.057C311.437 320.325 311.636 320.673 311.721 321.055C311.807 321.438 311.776 321.837 311.632 322.202C311.488 322.567 311.238 322.88 310.915 323.1C310.591 323.321 310.208 323.44 309.816 323.44C309.565 323.457 309.313 323.422 309.076 323.337C308.839 323.252 308.622 323.12 308.439 322.947C308.255 322.775 308.109 322.567 308.01 322.336C307.91 322.105 307.859 321.856 307.859 321.605ZM310.722 321.605C310.708 321.429 310.643 321.262 310.535 321.123C310.427 320.983 310.282 320.879 310.115 320.821C309.949 320.763 309.77 320.756 309.599 320.798C309.428 320.841 309.274 320.932 309.154 321.062C309.035 321.191 308.955 321.352 308.926 321.525C308.896 321.699 308.918 321.877 308.988 322.038C309.058 322.2 309.174 322.337 309.321 322.434C309.468 322.531 309.64 322.582 309.816 322.583C309.942 322.585 310.067 322.561 310.183 322.511C310.298 322.462 310.402 322.389 310.488 322.297C310.573 322.204 310.638 322.095 310.679 321.976C310.719 321.856 310.734 321.73 310.722 321.605Z" fill="black"/>
<path d="M316.133 319.817V322.788C316.166 323.055 316.137 323.326 316.048 323.58C315.958 323.834 315.811 324.063 315.618 324.251C315.425 324.438 315.191 324.578 314.934 324.66C314.678 324.741 314.406 324.762 314.14 324.721C313.519 324.745 312.906 324.571 312.389 324.226L312.8 323.489C313.152 323.741 313.574 323.88 314.007 323.887C314.732 323.887 315.058 323.561 315.058 322.921V322.764C314.914 322.914 314.739 323.032 314.545 323.109C314.351 323.186 314.143 323.221 313.935 323.211C313.697 323.231 313.457 323.201 313.231 323.124C313.005 323.046 312.797 322.923 312.621 322.761C312.446 322.599 312.305 322.403 312.209 322.184C312.113 321.965 312.063 321.729 312.063 321.49C312.063 321.251 312.113 321.014 312.209 320.796C312.305 320.577 312.446 320.38 312.621 320.218C312.797 320.057 313.005 319.933 313.231 319.856C313.457 319.778 313.697 319.749 313.935 319.769C314.162 319.75 314.391 319.787 314.601 319.875C314.811 319.964 314.997 320.101 315.143 320.276V319.817H316.133ZM315.119 321.496C315.123 321.375 315.101 321.254 315.055 321.142C315.009 321.03 314.939 320.93 314.852 320.846C314.764 320.763 314.659 320.699 314.545 320.659C314.431 320.619 314.309 320.604 314.189 320.614C314.065 320.6 313.94 320.611 313.821 320.649C313.702 320.686 313.593 320.748 313.5 320.831C313.407 320.914 313.332 321.015 313.281 321.129C313.23 321.242 313.204 321.365 313.204 321.49C313.204 321.614 313.23 321.737 313.281 321.851C313.332 321.964 313.407 322.066 313.5 322.149C313.593 322.231 313.702 322.293 313.821 322.331C313.94 322.368 314.065 322.38 314.189 322.366C314.308 322.376 314.429 322.361 314.542 322.321C314.655 322.282 314.759 322.219 314.847 322.137C314.935 322.055 315.004 321.956 315.051 321.845C315.098 321.735 315.121 321.616 315.119 321.496Z" fill="black"/>
<path d="M318.875 318.754C318.876 318.673 318.894 318.593 318.928 318.52C318.961 318.446 319.009 318.38 319.069 318.325C319.129 318.271 319.2 318.23 319.277 318.204C319.353 318.178 319.434 318.168 319.515 318.174C319.594 318.166 319.674 318.174 319.75 318.198C319.826 318.222 319.896 318.261 319.956 318.313C320.016 318.365 320.065 318.429 320.099 318.501C320.133 318.572 320.152 318.65 320.155 318.73C320.155 318.9 320.088 319.062 319.968 319.182C319.848 319.303 319.685 319.37 319.515 319.37C319.345 319.37 319.183 319.303 319.063 319.182C318.942 319.062 318.875 318.9 318.875 318.73V318.754ZM318.996 319.817H320.022V323.44H318.996V319.817Z" fill="black"/>
<path d="M324.601 321.291V323.332H323.574V321.46C323.574 320.88 323.309 320.614 322.85 320.614C322.391 320.614 321.992 320.916 321.992 321.568V323.332H320.965V319.708H321.956V320.131C322.111 319.97 322.3 319.845 322.508 319.764C322.717 319.683 322.94 319.647 323.164 319.66C323.372 319.649 323.581 319.686 323.773 319.767C323.966 319.848 324.137 319.972 324.275 320.129C324.414 320.285 324.515 320.471 324.571 320.672C324.627 320.874 324.638 321.085 324.601 321.291Z" fill="black"/>
</g>
<path d="M359.845 332.922H201.809V359.978H359.845V332.922Z" fill="#9C7BEB"/>
<path d="M260.415 350.654L258.483 347.863H257.903H255.608V350.678H254.279V341.413H257.903C260.319 341.413 261.756 342.621 261.756 344.651C261.787 345.293 261.604 345.928 261.237 346.456C260.87 346.985 260.339 347.378 259.727 347.574L261.925 350.678L260.415 350.654ZM260.415 344.614C260.415 343.286 259.533 342.537 257.83 342.537H255.584V346.704H257.83C259.497 346.716 260.379 345.943 260.379 344.626L260.415 344.614Z" fill="white"/>
<path d="M269.982 347.574H264.292C264.382 348.171 264.692 348.713 265.162 349.093C265.631 349.473 266.226 349.664 266.829 349.627C267.208 349.64 267.586 349.572 267.936 349.426C268.286 349.28 268.601 349.06 268.858 348.781L269.559 349.603C269.042 350.127 268.384 350.492 267.666 350.652C266.947 350.813 266.197 350.762 265.506 350.507C264.815 350.252 264.212 349.804 263.77 349.215C263.327 348.626 263.064 347.922 263.012 347.187C262.987 346.713 263.06 346.238 263.227 345.794C263.394 345.349 263.652 344.944 263.983 344.604C264.314 344.263 264.712 343.995 265.152 343.816C265.592 343.637 266.064 343.551 266.539 343.563C267.011 343.55 267.481 343.636 267.918 343.816C268.355 343.996 268.75 344.265 269.076 344.606C269.403 344.948 269.654 345.354 269.814 345.798C269.974 346.243 270.04 346.716 270.006 347.187C270.006 347.296 269.994 347.453 269.982 347.574ZM264.292 346.656H268.786C268.728 346.1 268.466 345.585 268.052 345.211C267.637 344.837 267.098 344.63 266.539 344.63C265.98 344.63 265.442 344.837 265.027 345.211C264.612 345.585 264.35 346.1 264.292 346.656Z" fill="white"/>
<path d="M278.484 343.648V349.687C278.484 352.163 277.216 353.311 274.861 353.311C273.659 353.363 272.476 352.995 271.515 352.272L272.119 351.294C272.892 351.894 273.846 352.213 274.825 352.2C276.479 352.2 277.24 351.439 277.24 349.844V349.289C276.928 349.647 276.539 349.931 276.102 350.119C275.665 350.308 275.191 350.395 274.716 350.376C273.816 350.376 272.952 350.018 272.316 349.382C271.679 348.745 271.322 347.882 271.322 346.982C271.322 346.082 271.679 345.218 272.316 344.582C272.952 343.945 273.816 343.588 274.716 343.588C275.213 343.572 275.707 343.674 276.158 343.884C276.608 344.093 277.004 344.406 277.313 344.795V343.708L278.484 343.648ZM277.277 346.97C277.303 346.487 277.184 346.008 276.936 345.593C276.687 345.179 276.319 344.849 275.881 344.645C275.443 344.442 274.953 344.375 274.476 344.452C273.999 344.53 273.557 344.749 273.205 345.081C272.854 345.413 272.61 345.843 272.506 346.314C272.401 346.786 272.441 347.279 272.619 347.728C272.797 348.177 273.106 348.562 273.506 348.834C273.906 349.106 274.378 349.252 274.861 349.252C275.17 349.271 275.479 349.225 275.77 349.118C276.061 349.011 276.326 348.845 276.549 348.631C276.773 348.417 276.95 348.158 277.068 347.872C277.187 347.587 277.246 347.279 277.24 346.97H277.277Z" fill="white"/>
<path d="M280.683 341.474C280.685 341.363 280.708 341.253 280.752 341.151C280.796 341.049 280.86 340.957 280.939 340.88C281.019 340.802 281.113 340.741 281.216 340.7C281.319 340.659 281.43 340.639 281.541 340.64C281.658 340.626 281.776 340.637 281.889 340.672C282.002 340.707 282.105 340.766 282.194 340.844C282.282 340.922 282.352 341.018 282.401 341.126C282.449 341.233 282.474 341.35 282.474 341.468C282.474 341.586 282.449 341.702 282.401 341.81C282.352 341.917 282.282 342.013 282.194 342.092C282.105 342.17 282.002 342.228 281.889 342.263C281.776 342.299 281.658 342.309 281.541 342.295C281.43 342.298 281.32 342.28 281.217 342.24C281.114 342.2 281.02 342.14 280.94 342.064C280.86 341.988 280.796 341.896 280.752 341.795C280.708 341.693 280.685 341.584 280.683 341.474ZM280.913 343.648H282.181V350.654H280.913V343.648Z" fill="white"/>
<path d="M283.715 349.917L284.246 348.914C284.966 349.381 285.804 349.633 286.662 349.639C287.87 349.639 288.329 349.277 288.329 348.685C288.329 347.114 283.896 348.479 283.896 345.677C283.896 344.469 285.019 343.575 286.819 343.575C287.71 343.561 288.589 343.782 289.368 344.216L288.824 345.218C288.221 344.839 287.519 344.645 286.807 344.663C285.696 344.663 285.152 345.073 285.152 345.629C285.152 347.284 289.597 345.931 289.597 348.661C289.597 349.868 288.389 350.738 286.565 350.738C285.555 350.753 284.563 350.467 283.715 349.917Z" fill="white"/>
<path d="M295.177 350.279C294.738 350.615 294.196 350.79 293.643 350.774C293.345 350.808 293.043 350.775 292.76 350.677C292.476 350.579 292.218 350.419 292.005 350.208C291.792 349.997 291.629 349.741 291.528 349.458C291.426 349.176 291.39 348.874 291.421 348.576V344.723H290.213V343.684H291.421V342.15H292.629V343.684H294.718V344.723H292.701V348.528C292.673 348.683 292.68 348.843 292.724 348.995C292.767 349.147 292.845 349.287 292.952 349.404C293.058 349.521 293.19 349.611 293.337 349.669C293.484 349.727 293.643 349.749 293.8 349.736C294.157 349.739 294.506 349.624 294.791 349.409L295.177 350.279Z" fill="white"/>
<path d="M302.787 347.574H297.134C297.224 348.173 297.535 348.717 298.008 349.098C298.48 349.478 299.078 349.667 299.683 349.627C300.06 349.641 300.436 349.573 300.784 349.427C301.133 349.281 301.445 349.061 301.7 348.781L302.4 349.603C301.885 350.129 301.228 350.494 300.51 350.656C299.791 350.817 299.041 350.767 298.35 350.511C297.66 350.256 297.058 349.806 296.617 349.216C296.176 348.627 295.915 347.922 295.866 347.187C295.841 346.713 295.914 346.238 296.081 345.794C296.248 345.349 296.505 344.944 296.836 344.604C297.168 344.263 297.566 343.995 298.006 343.816C298.446 343.637 298.918 343.551 299.393 343.563C299.864 343.552 300.333 343.64 300.769 343.82C301.206 344 301.599 344.269 301.925 344.61C302.252 344.951 302.503 345.357 302.664 345.8C302.825 346.244 302.891 346.716 302.859 347.187C302.847 347.318 302.822 347.447 302.787 347.574ZM297.134 346.656H301.639C301.57 346.107 301.302 345.603 300.888 345.238C300.473 344.873 299.939 344.671 299.387 344.671C298.834 344.671 298.3 344.873 297.886 345.238C297.471 345.603 297.204 346.107 297.134 346.656Z" fill="white"/>
<path d="M308.355 343.576V344.783H308.065C307.751 344.761 307.436 344.81 307.144 344.927C306.851 345.044 306.589 345.225 306.376 345.457C306.164 345.689 306.006 345.967 305.916 346.268C305.826 346.57 305.805 346.888 305.855 347.199V350.69H304.586V343.684H305.794V344.892C306.049 344.45 306.427 344.09 306.881 343.857C307.335 343.623 307.847 343.526 308.355 343.576Z" fill="white"/>
<g opacity="0.6">
<path d="M253.155 148.096L253.699 146.96C254.636 147.746 255.822 148.174 257.045 148.168C258.796 148.168 259.545 147.492 259.545 146.61C259.545 144.194 253.409 145.692 253.409 141.936C253.409 140.365 254.617 139.037 257.286 139.037C258.436 139.018 259.568 139.328 260.547 139.93L260.064 141.138C259.235 140.607 258.271 140.322 257.286 140.317C255.559 140.317 254.87 141.042 254.87 141.923C254.87 144.339 261.018 142.841 261.018 146.574C261.018 148.12 259.811 149.448 257.093 149.448C255.662 149.478 254.266 148.999 253.155 148.096Z" fill="#263238"/>
<path d="M262.637 139.194C262.638 139.072 262.664 138.952 262.712 138.84C262.761 138.729 262.831 138.628 262.918 138.544C263.006 138.459 263.11 138.393 263.223 138.349C263.336 138.306 263.457 138.285 263.579 138.288C263.699 138.283 263.819 138.302 263.931 138.344C264.044 138.386 264.147 138.449 264.234 138.532C264.322 138.614 264.393 138.712 264.442 138.822C264.491 138.931 264.518 139.049 264.521 139.17C264.521 139.419 264.422 139.659 264.245 139.836C264.068 140.012 263.829 140.112 263.579 140.112C263.329 140.112 263.089 140.012 262.913 139.836C262.736 139.659 262.637 139.419 262.637 139.17V139.194ZM262.878 141.609H264.279V149.291H262.878V141.609Z" fill="#263238"/>
<path d="M274.269 141.573V148.204C274.269 150.922 272.892 152.154 270.295 152.154C268.992 152.195 267.713 151.791 266.671 151.007L267.336 149.932C268.177 150.597 269.222 150.951 270.295 150.934C272.107 150.934 272.928 150.089 272.928 148.349V147.745C272.586 148.14 272.16 148.453 271.682 148.662C271.203 148.871 270.684 148.971 270.162 148.953C269.657 148.982 269.15 148.907 268.675 148.734C268.199 148.56 267.764 148.291 267.396 147.943C267.027 147.596 266.734 147.177 266.534 146.711C266.333 146.246 266.23 145.745 266.23 145.239C266.23 144.733 266.333 144.232 266.534 143.767C266.734 143.301 267.027 142.882 267.396 142.535C267.764 142.187 268.199 141.918 268.675 141.744C269.15 141.571 269.657 141.496 270.162 141.525C270.696 141.497 271.229 141.591 271.721 141.801C272.213 142.01 272.65 142.329 273.001 142.733V141.525L274.269 141.573ZM272.916 145.197C272.943 144.669 272.81 144.145 272.536 143.693C272.262 143.241 271.859 142.881 271.379 142.66C270.898 142.439 270.363 142.368 269.841 142.454C269.319 142.541 268.836 142.782 268.452 143.146C268.069 143.51 267.804 143.981 267.69 144.497C267.577 145.013 267.621 145.552 267.817 146.043C268.013 146.534 268.351 146.955 268.788 147.252C269.226 147.549 269.742 147.708 270.271 147.709C270.616 147.739 270.964 147.697 271.293 147.585C271.621 147.473 271.922 147.293 272.177 147.058C272.432 146.822 272.635 146.536 272.772 146.218C272.91 145.899 272.979 145.556 272.976 145.209L272.916 145.197Z" fill="#263238"/>
<path d="M284.222 144.834V149.255H282.82V144.943C282.82 143.433 282.072 142.696 280.755 142.696C280.42 142.675 280.085 142.727 279.773 142.849C279.461 142.971 279.18 143.161 278.949 143.404C278.719 143.647 278.544 143.938 278.439 144.257C278.334 144.575 278.3 144.912 278.339 145.245V149.207H276.95V141.525H278.291V142.733C278.621 142.323 279.044 142 279.526 141.79C280.007 141.579 280.533 141.488 281.057 141.525C281.493 141.496 281.93 141.562 282.337 141.72C282.744 141.878 283.111 142.124 283.413 142.44C283.715 142.755 283.944 143.133 284.083 143.547C284.223 143.961 284.27 144.4 284.222 144.834Z" fill="#263238"/>
<path d="M297.858 141.573V149.255H296.541V148.047C296.235 148.443 295.838 148.759 295.384 148.969C294.93 149.179 294.432 149.277 293.932 149.255C293.483 149.301 293.03 149.246 292.604 149.094C292.179 148.942 291.794 148.696 291.476 148.375C291.159 148.054 290.917 147.666 290.77 147.239C290.622 146.812 290.572 146.358 290.623 145.909V141.489H292.012V145.752C292.012 147.25 292.773 148.011 294.089 148.011C294.425 148.035 294.761 147.985 295.074 147.863C295.387 147.742 295.669 147.552 295.9 147.308C296.131 147.064 296.305 146.773 296.41 146.453C296.515 146.134 296.547 145.796 296.505 145.462V141.489L297.858 141.573Z" fill="#263238"/>
<path d="M308.464 145.414C308.491 145.933 308.41 146.451 308.225 146.937C308.041 147.422 307.757 147.864 307.392 148.233C307.027 148.603 306.589 148.892 306.106 149.082C305.623 149.273 305.105 149.361 304.587 149.34C304.077 149.36 303.569 149.261 303.104 149.051C302.638 148.842 302.228 148.527 301.905 148.132V152.094H300.516V141.609H301.845V142.817C302.164 142.397 302.58 142.06 303.057 141.835C303.534 141.61 304.059 141.503 304.587 141.525C305.103 141.502 305.618 141.588 306.099 141.776C306.581 141.963 307.018 142.249 307.382 142.615C307.747 142.981 308.032 143.419 308.218 143.901C308.404 144.383 308.488 144.898 308.464 145.414ZM307.063 145.414C307.039 144.909 306.868 144.422 306.57 144.014C306.273 143.605 305.862 143.293 305.389 143.115C304.916 142.937 304.401 142.902 303.908 143.014C303.415 143.126 302.966 143.38 302.616 143.745C302.266 144.11 302.03 144.569 301.939 145.066C301.847 145.563 301.903 146.076 302.1 146.542C302.297 147.007 302.626 147.405 303.046 147.685C303.467 147.966 303.96 148.117 304.466 148.12C304.818 148.127 305.168 148.061 305.494 147.927C305.819 147.792 306.114 147.591 306.358 147.337C306.602 147.082 306.79 146.78 306.912 146.449C307.033 146.118 307.084 145.766 307.063 145.414Z" fill="#263238"/>
</g>
<path d="M359.845 205.988H201.809V233.044H359.845V205.988Z" fill="white"/>
<g opacity="0.4">
<path d="M210.458 215.108H211.279V222.149H215.615V222.862H210.458V215.108Z" fill="#263238"/>
<path d="M221.232 219.251V222.874H220.483V221.968C220.263 222.291 219.962 222.551 219.61 222.72C219.258 222.89 218.868 222.964 218.478 222.935C217.161 222.935 216.352 222.246 216.352 221.231C216.352 220.217 216.92 219.589 218.599 219.589H220.447V219.238C220.447 218.236 219.879 217.692 218.792 217.692C218.086 217.683 217.4 217.927 216.859 218.381L216.497 217.789C217.187 217.255 218.041 216.977 218.913 217.004C219.22 216.967 219.532 216.999 219.825 217.097C220.118 217.196 220.386 217.359 220.608 217.574C220.83 217.79 221.002 218.052 221.11 218.342C221.217 218.632 221.259 218.942 221.232 219.251ZM220.447 221.111V220.156H218.623C217.487 220.156 217.125 220.603 217.125 221.207C217.125 221.811 217.669 222.294 218.599 222.294C218.992 222.318 219.384 222.217 219.716 222.004C220.048 221.791 220.304 221.478 220.447 221.111Z" fill="#263238"/>
<path d="M222.561 222.246L222.911 221.63C223.52 222.055 224.245 222.283 224.988 222.282C226.1 222.282 226.546 221.908 226.546 221.328C226.546 219.806 222.778 221.002 222.778 218.707C222.778 217.753 223.587 217.04 225.073 217.04C225.798 217.031 226.512 217.219 227.138 217.584L226.788 218.212C226.28 217.876 225.682 217.704 225.073 217.717C224.022 217.717 223.563 218.127 223.563 218.683C223.563 220.253 227.332 219.069 227.332 221.304C227.332 222.319 226.45 222.971 224.916 222.971C224.073 222.989 223.247 222.735 222.561 222.246Z" fill="#263238"/>
<path d="M231.909 222.512C231.566 222.784 231.139 222.929 230.701 222.922C230.471 222.947 230.239 222.92 230.021 222.843C229.803 222.767 229.605 222.642 229.442 222.479C229.279 222.315 229.154 222.117 229.077 221.899C229 221.681 228.973 221.449 228.998 221.219V217.704H227.947V217.04H228.998V215.76H229.783V217.04H231.547V217.704H229.783V221.183C229.763 221.322 229.774 221.464 229.816 221.598C229.858 221.733 229.93 221.855 230.027 221.958C230.123 222.06 230.242 222.139 230.373 222.189C230.505 222.239 230.646 222.259 230.786 222.246C231.103 222.256 231.412 222.148 231.655 221.944L231.909 222.512Z" fill="#263238"/>
<path d="M242.78 215.108V222.862H242.104L237.128 216.569V222.862H236.306V215.108H236.983L241.971 221.401V215.108H242.78Z" fill="#263238"/>
<path d="M249.593 219.251V222.874H248.82V221.968C248.602 222.293 248.301 222.554 247.949 222.724C247.596 222.894 247.205 222.966 246.815 222.935C245.498 222.935 244.689 222.246 244.689 221.231C244.689 220.217 245.269 219.589 246.948 219.589H248.82V219.238C248.82 218.236 248.252 217.692 247.165 217.692C246.459 217.683 245.773 217.927 245.232 218.381L244.87 217.789C245.558 217.252 246.413 216.974 247.286 217.004C247.592 216.969 247.902 217.002 248.194 217.102C248.486 217.201 248.752 217.364 248.973 217.579C249.194 217.795 249.364 218.056 249.471 218.345C249.578 218.634 249.62 218.943 249.593 219.251ZM248.808 221.111V220.156H246.972C245.849 220.156 245.486 220.603 245.486 221.207C245.486 221.811 246.03 222.294 246.96 222.294C247.355 222.321 247.749 222.221 248.084 222.008C248.419 221.795 248.677 221.481 248.82 221.111H248.808Z" fill="#263238"/>
<path d="M261.345 219.48V222.862H260.56V219.565C260.56 218.357 259.932 217.705 258.881 217.705C258.609 217.692 258.337 217.739 258.084 217.842C257.832 217.946 257.605 218.103 257.42 218.303C257.235 218.503 257.095 218.742 257.012 219.001C256.928 219.261 256.903 219.536 256.936 219.806V222.862H256.151V219.565C256.151 218.357 255.523 217.705 254.46 217.705C254.188 217.692 253.916 217.739 253.664 217.842C253.411 217.946 253.184 218.103 252.999 218.303C252.814 218.503 252.675 218.742 252.591 219.001C252.508 219.261 252.482 219.536 252.516 219.806V222.862H251.73V217.04H252.443V218.103C252.671 217.747 252.988 217.457 253.364 217.262C253.739 217.067 254.159 216.974 254.581 216.992C255.009 216.957 255.438 217.054 255.809 217.27C256.181 217.486 256.477 217.81 256.659 218.2C256.897 217.811 257.236 217.493 257.64 217.28C258.044 217.068 258.498 216.968 258.953 216.992C259.284 216.96 259.618 217.003 259.929 217.118C260.241 217.233 260.522 217.417 260.752 217.656C260.982 217.896 261.155 218.184 261.258 218.5C261.361 218.816 261.39 219.151 261.345 219.48Z" fill="#263238"/>
<path d="M268.58 220.193H263.749C263.766 220.477 263.839 220.755 263.963 221.011C264.088 221.267 264.262 221.495 264.475 221.684C264.688 221.872 264.936 222.017 265.206 222.109C265.475 222.202 265.76 222.24 266.044 222.222C266.379 222.233 266.713 222.17 267.022 222.039C267.33 221.907 267.607 221.71 267.831 221.461L268.266 221.968C267.848 222.405 267.31 222.709 266.719 222.843C266.129 222.976 265.512 222.932 264.947 222.717C264.381 222.502 263.891 222.124 263.539 221.633C263.186 221.141 262.986 220.556 262.964 219.951C262.944 219.566 263.003 219.182 263.138 218.821C263.273 218.46 263.48 218.131 263.747 217.853C264.015 217.576 264.336 217.356 264.691 217.208C265.047 217.06 265.429 216.986 265.814 216.992C266.199 216.984 266.581 217.057 266.936 217.205C267.291 217.352 267.612 217.572 267.877 217.851C268.143 218.129 268.348 218.459 268.48 218.821C268.611 219.182 268.666 219.567 268.641 219.951C268.592 220.024 268.58 220.108 268.58 220.193ZM263.749 219.613H267.88C267.88 219.065 267.662 218.54 267.275 218.152C266.887 217.765 266.362 217.547 265.814 217.547C265.266 217.547 264.741 217.765 264.354 218.152C263.966 218.54 263.749 219.065 263.749 219.613Z" fill="#263238"/>
</g>
<path d="M359.845 169.028H201.809V196.084H359.845V169.028Z" fill="white"/>
<g opacity="0.4">
<path d="M211.279 178.86V181.904H215.289V182.616H211.279V185.902H210.458V178.147H215.772V178.86H211.279Z" fill="#263238"/>
<path d="M217.016 178.232C217.014 178.116 217.046 178.002 217.109 177.905C217.172 177.808 217.262 177.732 217.369 177.686C217.475 177.641 217.592 177.629 217.706 177.651C217.82 177.673 217.924 177.728 218.006 177.81C218.088 177.892 218.143 177.996 218.165 178.11C218.187 178.223 218.175 178.341 218.129 178.447C218.084 178.554 218.008 178.644 217.911 178.707C217.813 178.769 217.7 178.802 217.584 178.799C217.433 178.799 217.289 178.74 217.183 178.633C217.076 178.527 217.016 178.382 217.016 178.232ZM217.185 180.08H217.97V185.902H217.185V180.08Z" fill="#263238"/>
<path d="M223.104 180.031V180.792H222.91C222.633 180.779 222.356 180.827 222.099 180.933C221.842 181.039 221.612 181.201 221.425 181.406C221.238 181.612 221.099 181.856 221.017 182.121C220.936 182.387 220.914 182.667 220.954 182.942V185.914H220.168V180.092H220.917V181.179C221.126 180.792 221.446 180.476 221.835 180.271C222.225 180.067 222.666 179.983 223.104 180.031Z" fill="#263238"/>
<path d="M223.756 185.237L224.106 184.609C224.71 185.047 225.438 185.28 226.184 185.274C227.295 185.274 227.742 184.887 227.742 184.319C227.742 182.797 223.973 183.993 223.973 181.686C223.973 180.744 224.783 180.031 226.268 180.031C226.994 180.016 227.71 180.204 228.334 180.575L227.983 181.203C227.475 180.867 226.877 180.695 226.268 180.708C225.217 180.708 224.758 181.118 224.758 181.674C224.758 183.244 228.527 182.061 228.527 184.295C228.527 185.298 227.645 185.95 226.111 185.95C225.27 185.972 224.444 185.722 223.756 185.237Z" fill="#263238"/>
<path d="M233.117 185.551C232.77 185.815 232.345 185.955 231.909 185.95C231.68 185.977 231.448 185.952 231.23 185.876C231.012 185.801 230.814 185.677 230.65 185.515C230.486 185.352 230.362 185.155 230.285 184.938C230.208 184.72 230.181 184.488 230.206 184.259V180.744H229.155V180.08H230.206V178.763H230.991V180.043H232.755V180.708H230.991V184.174C230.971 184.314 230.982 184.456 231.024 184.591C231.066 184.726 231.138 184.849 231.235 184.952C231.331 185.056 231.449 185.136 231.58 185.187C231.712 185.239 231.853 185.26 231.994 185.249C232.31 185.253 232.618 185.147 232.863 184.947L233.117 185.551Z" fill="#263238"/>
<path d="M243.989 178.147V185.902H243.312L238.336 179.609V185.902H237.515V178.147H238.191L243.18 184.44V178.147H243.989Z" fill="#263238"/>
<path d="M250.788 182.29V185.914H250.027V185.008C249.811 185.33 249.512 185.589 249.161 185.757C248.811 185.925 248.422 185.996 248.034 185.962C246.706 185.962 245.896 185.286 245.896 184.271C245.896 183.256 246.476 182.628 248.155 182.628H250.027V182.266C250.027 181.276 249.46 180.732 248.373 180.732C247.667 180.723 246.981 180.967 246.44 181.42L246.078 180.829C246.766 180.293 247.621 180.015 248.493 180.044C248.799 180.008 249.109 180.041 249.4 180.141C249.692 180.24 249.957 180.404 250.177 180.619C250.397 180.835 250.566 181.096 250.672 181.385C250.778 181.675 250.817 181.984 250.788 182.29ZM250.003 184.15V183.196H248.167C247.044 183.196 246.682 183.643 246.682 184.235C246.682 184.827 247.225 185.334 248.155 185.334C248.553 185.361 248.948 185.262 249.285 185.049C249.622 184.836 249.882 184.521 250.027 184.15H250.003Z" fill="#263238"/>
<path d="M262.54 182.52V185.902H261.755V182.604C261.755 181.396 261.127 180.744 260.076 180.744C259.804 180.731 259.532 180.778 259.28 180.882C259.027 180.985 258.801 181.142 258.615 181.343C258.43 181.543 258.291 181.781 258.207 182.041C258.124 182.3 258.098 182.575 258.132 182.846V185.902H257.347V182.604C257.347 181.396 256.718 180.744 255.656 180.744C255.383 180.731 255.111 180.778 254.859 180.882C254.606 180.985 254.38 181.142 254.195 181.343C254.009 181.543 253.87 181.781 253.787 182.041C253.703 182.3 253.677 182.575 253.711 182.846V185.902H252.926V180.08H253.651V181.179C253.878 180.823 254.196 180.533 254.571 180.338C254.946 180.143 255.366 180.05 255.788 180.068C256.217 180.032 256.645 180.129 257.017 180.345C257.388 180.561 257.685 180.886 257.866 181.275C258.102 180.884 258.441 180.565 258.845 180.353C259.25 180.14 259.705 180.041 260.161 180.068C260.487 180.038 260.816 180.082 261.123 180.196C261.43 180.31 261.707 180.491 261.935 180.726C262.163 180.961 262.336 181.244 262.441 181.554C262.545 181.865 262.579 182.194 262.54 182.52Z" fill="#263238"/>
<path d="M269.776 183.232H264.945C264.962 183.516 265.034 183.794 265.159 184.05C265.284 184.306 265.457 184.535 265.671 184.723C265.884 184.912 266.132 185.056 266.401 185.149C266.671 185.241 266.956 185.279 267.24 185.261C267.576 185.272 267.911 185.209 268.22 185.075C268.529 184.941 268.805 184.741 269.027 184.488L269.462 185.008C269.043 185.445 268.505 185.749 267.915 185.882C267.325 186.015 266.708 185.971 266.142 185.756C265.577 185.541 265.087 185.164 264.734 184.672C264.382 184.18 264.182 183.595 264.16 182.991C264.14 182.606 264.199 182.221 264.334 181.86C264.469 181.5 264.676 181.17 264.943 180.893C265.21 180.616 265.532 180.396 265.887 180.248C266.243 180.1 266.625 180.026 267.01 180.031C267.395 180.024 267.777 180.096 268.132 180.244C268.487 180.392 268.808 180.612 269.073 180.89C269.339 181.168 269.544 181.499 269.675 181.86C269.807 182.222 269.862 182.607 269.836 182.991C269.788 183.051 269.776 183.136 269.776 183.232ZM264.945 182.64H269.076C269.076 182.093 268.858 181.567 268.471 181.18C268.083 180.793 267.558 180.575 267.01 180.575C266.462 180.575 265.937 180.793 265.55 181.18C265.162 181.567 264.945 182.093 264.945 182.64Z" fill="#263238"/>
</g>
<path d="M142.346 398.932H141.199C141.199 397.229 142.612 357.321 149.557 350.617C156.696 343.672 165.09 350.521 165.163 350.617L164.438 351.487C164.124 351.233 156.744 345.242 150.342 351.487C143.735 357.78 142.358 398.521 142.346 398.932Z" fill="#9C7BEB"/>
<path d="M141.767 406.94L140.632 406.831C140.632 406.348 145.125 358.372 127.744 338.418L128.601 337.669C146.308 357.997 141.815 406.457 141.767 406.94Z" fill="#9C7BEB"/>
<path d="M142.322 401.818C142.177 399.548 138.831 346.257 152.19 333.937L152.963 334.782C140.003 346.692 143.421 401.214 143.457 401.734L142.322 401.818Z" fill="#9C7BEB"/>
<path d="M140.631 401.782C140.631 401.42 140.221 365.546 130.715 360.147C129.907 359.614 128.982 359.283 128.02 359.183C127.057 359.082 126.084 359.214 125.183 359.567C119.615 361.874 116.655 372.504 116.619 372.612L115.52 372.31C115.641 371.851 118.66 361.041 124.748 358.517C125.809 358.091 126.956 357.926 128.094 358.038C129.231 358.149 130.325 358.533 131.283 359.157C141.344 364.918 141.767 400.224 141.779 401.77L140.631 401.782Z" fill="#9C7BEB"/>
<path d="M144.545 401.806C144.472 400.598 143.011 373.494 150.705 363.433C152.758 360.763 155.029 359.495 157.493 359.676C162.964 360.051 167.156 367.467 167.385 367.781L166.395 368.349C166.395 368.276 162.264 361.101 157.408 360.812C155.367 360.655 153.41 361.778 151.611 364.133C144.17 373.796 145.668 401.468 145.68 401.746L144.545 401.806Z" fill="#9C7BEB"/>
<path d="M143.011 405.563L141.875 405.478C141.875 404.826 146.707 340.109 138.735 329.311L139.653 328.634C147.89 339.771 143.216 402.881 143.011 405.563Z" fill="#9C7BEB"/>
<path d="M122.537 364.955C122.537 364.955 127.465 366.778 126.004 371.066C124.542 375.354 108.937 382.42 108.937 382.42C108.937 382.42 102.402 376.441 108.405 366.718C114.408 356.995 122.404 361.887 122.537 364.955Z" fill="#9C7BEB"/>
<path opacity="0.2" d="M122.537 364.955C122.537 364.955 127.465 366.778 126.004 371.066C124.542 375.354 108.937 382.42 108.937 382.42C108.937 382.42 102.402 376.441 108.405 366.718C114.408 356.995 122.404 361.887 122.537 364.955Z" fill="black"/>
<path d="M143.976 356.789C143.976 356.789 138.722 356.572 138.42 361.089C138.118 365.607 149.774 378.144 149.774 378.144C149.774 378.144 158.108 375.125 156.321 363.831C154.533 352.538 145.281 353.999 143.976 356.789Z" fill="#9C7BEB"/>
<path opacity="0.2" d="M143.976 356.789C143.976 356.789 138.722 356.572 138.42 361.089C138.118 365.607 149.774 378.144 149.774 378.144C149.774 378.144 158.108 375.125 156.321 363.831C154.533 352.538 145.281 353.999 143.976 356.789Z" fill="black"/>
<path d="M148.422 335.12C148.422 335.12 144.919 334.746 145.197 332.62C145.475 330.494 158.809 324.999 166.673 333.828C166.673 333.828 161.636 342.476 154.364 342.597C147.093 342.718 148.422 335.12 148.422 335.12Z" fill="#9C7BEB"/>
<path opacity="0.2" d="M148.422 335.12C148.422 335.12 144.919 334.746 145.197 332.62C145.475 330.494 158.809 324.999 166.673 333.828C166.673 333.828 161.636 342.476 154.364 342.597C147.093 342.718 148.422 335.12 148.422 335.12Z" fill="black"/>
<path d="M141.9 329.939C141.9 329.939 145.064 331.473 145.958 329.516C146.852 327.559 138.433 315.855 127.067 319.225C127.067 319.225 126.765 329.226 132.877 333.176C138.989 337.125 141.9 329.939 141.9 329.939Z" fill="#9C7BEB"/>
<path opacity="0.2" d="M141.9 329.939C141.9 329.939 145.064 331.473 145.958 329.516C146.852 327.559 138.433 315.855 127.067 319.225C127.067 319.225 126.765 329.226 132.877 333.176C138.989 337.125 141.9 329.939 141.9 329.939Z" fill="black"/>
<path d="M158.471 363.239C158.471 363.239 156.056 361.283 158.665 360.328C161.274 359.374 174.065 359.652 174.198 372.323C174.198 372.323 159.293 374.799 157.457 369.967C155.621 365.136 158.471 363.239 158.471 363.239Z" fill="#9C7BEB"/>
<path opacity="0.2" d="M158.471 363.239C158.471 363.239 156.056 361.283 158.665 360.328C161.274 359.374 174.065 359.652 174.198 372.323C174.198 372.323 159.293 374.799 157.457 369.967C155.621 365.136 158.471 363.239 158.471 363.239Z" fill="black"/>
<path d="M128.033 334.806C128.033 334.806 130.449 332.85 127.84 331.908C125.231 330.965 112.44 331.219 112.307 343.889C112.307 343.889 127.212 346.378 129.048 341.546C130.884 336.715 128.033 334.806 128.033 334.806Z" fill="#9C7BEB"/>
<path opacity="0.2" d="M128.033 334.806C128.033 334.806 130.449 332.85 127.84 331.908C125.231 330.965 112.44 331.219 112.307 343.889C112.307 343.889 127.212 346.378 129.048 341.546C130.884 336.715 128.033 334.806 128.033 334.806Z" fill="black"/>
<path d="M135.957 345.013C135.957 345.013 136.174 342.597 134.254 343.575C132.333 344.554 125.678 351.704 132.587 358.529C132.587 358.529 141.899 351.632 140.22 348.044C138.542 344.457 135.957 345.013 135.957 345.013Z" fill="#9C7BEB"/>
<path opacity="0.2" d="M135.957 345.013C135.957 345.013 136.174 342.597 134.254 343.575C132.333 344.554 125.678 351.704 132.587 358.529C132.587 358.529 141.899 351.632 140.22 348.044C138.542 344.457 135.957 345.013 135.957 345.013Z" fill="black"/>
<path d="M160.645 348.395C160.645 348.395 159.196 346.498 161.322 346.269C163.447 346.04 172.917 348.564 170.707 358.034C170.707 358.034 159.16 357.164 158.628 353.202C158.097 349.24 160.645 348.395 160.645 348.395Z" fill="#9C7BEB"/>
<path opacity="0.2" d="M160.645 348.395C160.645 348.395 159.196 346.498 161.322 346.269C163.447 346.04 172.917 348.564 170.707 358.034C170.707 358.034 159.16 357.164 158.628 353.202C158.097 349.24 160.645 348.395 160.645 348.395Z" fill="black"/>
<path d="M123.395 436.907H160.73L165.694 400.598H118.431L123.395 436.907Z" fill="#263238"/>
<path opacity="0.2" d="M123.395 436.907H160.73L165.694 400.598H118.431L123.395 436.907Z" fill="white"/>
<path d="M170.381 397.651V401.106C170.381 402.214 169.94 403.277 169.157 404.061C168.373 404.845 167.31 405.285 166.201 405.285H117.464C116.356 405.285 115.293 404.845 114.509 404.061C113.725 403.277 113.285 402.214 113.285 401.106V397.651H170.381Z" fill="#263238"/>
<path d="M481.477 53.5202H446.775C443.943 53.5202 441.227 54.6452 439.225 56.6476C437.223 58.65 436.098 61.3659 436.098 64.1977V94.3942C436.096 95.7974 436.371 97.1871 436.907 98.484C437.443 99.7808 438.229 100.959 439.221 101.952C440.212 102.945 441.39 103.732 442.686 104.27C443.982 104.807 445.372 105.084 446.775 105.084H456.909L454.493 114.614L464.156 105.084H481.537C484.372 105.084 487.091 103.958 489.096 101.953C491.101 99.9482 492.227 97.2292 492.227 94.3942V64.1977C492.227 62.7894 491.948 61.395 491.407 60.0948C490.866 58.7946 490.073 57.6143 489.074 56.6219C488.075 55.6294 486.889 54.8444 485.585 54.3121C484.281 53.7798 482.885 53.5107 481.477 53.5202Z" fill="#9C7BEB"/>
<path opacity="0.7" d="M481.477 53.5202H446.775C443.943 53.5202 441.227 54.6452 439.225 56.6476C437.223 58.65 436.098 61.3659 436.098 64.1977V94.3942C436.096 95.7974 436.371 97.1871 436.907 98.484C437.443 99.7808 438.229 100.959 439.221 101.952C440.212 102.945 441.39 103.732 442.686 104.27C443.982 104.807 445.372 105.084 446.775 105.084H456.909L454.493 114.614L464.156 105.084H481.537C484.372 105.084 487.091 103.958 489.096 101.953C491.101 99.9482 492.227 97.2292 492.227 94.3942V64.1977C492.227 62.7894 491.948 61.395 491.407 60.0948C490.866 58.7946 490.073 57.6143 489.074 56.6219C488.075 55.6294 486.889 54.8444 485.585 54.3121C484.281 53.7798 482.885 53.5107 481.477 53.5202Z" fill="white"/>
<path d="M464.132 92.6428C471.57 92.6428 477.6 86.6131 477.6 79.1751C477.6 71.7372 471.57 65.7075 464.132 65.7075C456.694 65.7075 450.665 71.7372 450.665 79.1751C450.665 86.6131 456.694 92.6428 464.132 92.6428Z" fill="white"/>
<path d="M464.132 61.9511C460.726 61.9511 457.396 62.9613 454.563 64.8539C451.731 66.7465 449.523 69.4365 448.219 72.5838C446.916 75.7311 446.575 79.1943 447.239 82.5354C447.904 85.8766 449.544 88.9456 451.953 91.3544C454.362 93.7633 457.431 95.4037 460.772 96.0683C464.113 96.7329 467.576 96.3918 470.724 95.0881C473.871 93.7845 476.561 91.5768 478.454 88.7443C480.346 85.9119 481.356 82.5818 481.356 79.1752C481.358 76.9128 480.914 74.6724 480.048 72.5819C479.183 70.4915 477.915 68.5921 476.315 66.9924C474.715 65.3926 472.816 64.124 470.726 63.259C468.635 62.3939 466.395 61.9495 464.132 61.9511ZM473.904 74.0297L463.528 86.2532C463.381 86.4299 463.196 86.5714 462.987 86.6675C462.778 86.7636 462.55 86.8119 462.321 86.8088C462.091 86.8102 461.864 86.7612 461.655 86.6652C461.446 86.5692 461.261 86.4286 461.113 86.2532L454.361 78.2934C454.218 78.136 454.109 77.9515 454.039 77.7509C453.969 77.5503 453.94 77.3377 453.954 77.1257C453.968 76.9138 454.025 76.7068 454.121 76.5172C454.217 76.3276 454.35 76.1593 454.512 76.0222C454.674 75.8851 454.862 75.782 455.065 75.7192C455.268 75.6564 455.482 75.6351 455.693 75.6566C455.904 75.678 456.109 75.7418 456.295 75.8441C456.481 75.9465 456.645 76.0852 456.776 76.2521L462.321 82.7867L471.488 71.9884C471.764 71.6845 472.146 71.4995 472.555 71.4723C472.965 71.445 473.368 71.5778 473.682 71.8425C473.995 72.1072 474.193 72.4832 474.235 72.8912C474.276 73.2992 474.158 73.7074 473.904 74.0297Z" fill="#9C7BEB"/>
<path d="M475.462 239.833C475.462 239.833 454.433 237.175 422.569 245.872C422.569 245.872 417.448 188.933 418.052 181.106C418.656 173.279 467.248 175.574 467.248 175.574C467.248 175.574 468.456 198.367 471.621 212.112C474.785 225.858 477.104 237.187 475.462 239.833Z" fill="#9C7BEB"/>
<path opacity="0.2" d="M475.462 239.833C475.462 239.833 454.433 237.175 422.569 245.872C422.569 245.872 417.448 188.933 418.052 181.106C418.656 173.279 467.248 175.574 467.248 175.574C467.248 175.574 468.456 198.367 471.621 212.112C474.785 225.858 477.104 237.187 475.462 239.833Z" fill="black"/>
<path d="M407.206 428.331L415.781 430.759L417.823 417.412L418.922 410.274L410.346 407.846L408.884 417.412L407.206 428.331Z" fill="#E4897B"/>
<path d="M456.511 429.032L465.352 430.203L465.437 417.412L465.497 409.464L456.644 408.305L456.583 417.412L456.511 429.032Z" fill="#E4897B"/>
<path opacity="0.2" d="M456.643 408.305L456.583 417.412H465.437L465.497 409.464L456.643 408.305Z" fill="black"/>
<path opacity="0.2" d="M408.884 417.412H417.822L418.922 410.274L410.346 407.846L408.884 417.412Z" fill="black"/>
<path d="M369.134 185.781L360.619 183.268L362.177 192.992C362.177 192.992 369.907 194.767 370.632 190.745L369.134 185.781Z" fill="#E4897B"/>
<path d="M352.115 185.527L356.294 193.427L362.177 192.992L360.619 183.268L352.115 185.527Z" fill="#E4897B"/>
<path d="M380.886 188.269L366.899 185.141L365.631 191.929L378.325 195.021L380.886 188.269Z" fill="#E4897B"/>
<path d="M423.198 182.133L422.376 183.111C420.613 185.177 416.337 190.165 411.88 194.465C408.256 197.968 404.633 201.024 402.217 201.64C395.369 203.403 370.475 196.072 370.475 196.072L373.047 185.974C373.047 185.974 396.238 189.054 398.038 189.054C399.403 189.054 413.511 168.617 416.929 166.938L423.198 182.133Z" fill="#9C7BEB"/>
<path opacity="0.2" d="M422.376 183.111C420.613 185.177 416.337 190.165 411.88 194.465C412.774 187.387 415.371 180.889 418.789 176.782C419.108 176.386 419.472 176.029 419.876 175.719L422.376 183.111Z" fill="black"/>
<path d="M407.314 426.99L417.049 426.737C417.225 426.731 417.397 426.785 417.537 426.891C417.678 426.996 417.778 427.146 417.822 427.316L419.876 435.155C419.925 435.343 419.931 435.539 419.894 435.73C419.856 435.92 419.777 436.1 419.661 436.255C419.545 436.411 419.395 436.538 419.223 436.628C419.051 436.718 418.862 436.768 418.668 436.774C415.153 436.774 410.068 436.774 405.659 436.858C400.489 437.003 397.204 436.75 391.165 436.858C387.541 436.955 386.333 433.307 387.879 432.933C394.8 431.218 399.33 431.556 405.224 427.691C405.846 427.276 406.567 427.034 407.314 426.99Z" fill="#263238"/>
<path d="M406.469 428.246C405.044 428.56 402.507 428.983 401.492 428.15C401.345 428.027 401.228 427.872 401.152 427.695C401.077 427.519 401.044 427.327 401.058 427.135C401.057 427.02 401.087 426.907 401.144 426.808C401.202 426.708 401.284 426.625 401.384 426.568C402.459 425.927 406.094 427.655 406.517 427.848C406.554 427.868 406.585 427.897 406.606 427.934C406.628 427.97 406.639 428.011 406.638 428.053C406.636 428.1 406.618 428.144 406.587 428.18C406.557 428.215 406.515 428.238 406.469 428.246ZM401.637 426.906H401.565C401.525 426.929 401.491 426.962 401.468 427.003C401.444 427.043 401.432 427.089 401.432 427.135C401.422 427.26 401.442 427.386 401.49 427.501C401.539 427.617 401.614 427.719 401.71 427.8C402.278 428.271 403.751 428.319 405.708 427.932C404.295 427.341 402.326 426.652 401.662 426.906H401.637Z" fill="#9C7BEB"/>
<path d="M406.468 428.246H406.324C405.224 427.787 403.026 425.927 403.147 424.925C403.147 424.683 403.34 424.381 403.92 424.309C404.133 424.281 404.349 424.295 404.556 424.351C404.764 424.407 404.958 424.504 405.128 424.635C406.336 425.541 406.613 427.92 406.638 428.017C406.641 428.054 406.635 428.091 406.62 428.125C406.606 428.158 406.582 428.188 406.553 428.21L406.468 428.246ZM403.763 424.78C403.582 424.84 403.57 424.937 403.57 424.973C403.497 425.577 404.995 427.051 406.118 427.679C405.989 426.664 405.54 425.717 404.838 424.973C404.719 424.873 404.579 424.799 404.429 424.758C404.279 424.716 404.122 424.707 403.968 424.732C403.898 424.738 403.829 424.754 403.763 424.78Z" fill="#9C7BEB"/>
<path d="M456.86 426.99L466.595 426.737C466.772 426.73 466.946 426.784 467.089 426.89C467.232 426.995 467.334 427.145 467.381 427.316L469.422 435.155C469.473 435.343 469.481 435.54 469.445 435.732C469.409 435.923 469.33 436.104 469.213 436.26C469.097 436.416 468.946 436.543 468.773 436.632C468.6 436.721 468.409 436.77 468.214 436.774C464.699 436.774 459.614 436.774 455.193 436.858C450.036 437.003 446.738 436.75 440.699 436.858C437.075 436.955 435.867 433.307 437.414 432.933C444.335 431.218 448.852 431.556 454.746 427.691C455.375 427.272 456.105 427.03 456.86 426.99Z" fill="#263238"/>
<path d="M456.027 428.246C454.602 428.56 452.054 428.983 451.051 428.15C450.903 428.027 450.787 427.872 450.711 427.695C450.635 427.519 450.603 427.327 450.616 427.135C450.616 427.02 450.646 426.907 450.703 426.808C450.76 426.708 450.843 426.625 450.942 426.568C452.005 425.927 455.653 427.655 456.064 427.848C456.104 427.864 456.138 427.892 456.159 427.93C456.181 427.967 456.19 428.01 456.184 428.053C456.181 428.098 456.164 428.14 456.136 428.175C456.108 428.209 456.07 428.234 456.027 428.246ZM451.196 426.906H451.123C451.084 426.929 451.051 426.962 451.03 427.003C451.008 427.044 450.999 427.089 451.003 427.135C450.991 427.26 451.01 427.386 451.058 427.502C451.107 427.618 451.183 427.72 451.281 427.8C451.848 428.271 453.31 428.319 455.279 427.932C453.841 427.341 451.872 426.652 451.208 426.906H451.196Z" fill="#9C7BEB"/>
<path d="M456.027 428.246H455.87C454.783 427.787 452.573 425.927 452.705 424.925C452.705 424.683 452.887 424.381 453.466 424.309C453.679 424.28 453.896 424.293 454.103 424.349C454.311 424.405 454.505 424.503 454.674 424.635C455.519 425.576 456.047 426.759 456.184 428.017C456.19 428.054 456.186 428.092 456.171 428.126C456.156 428.16 456.131 428.19 456.1 428.21L456.027 428.246ZM453.309 424.78C453.14 424.84 453.128 424.937 453.128 424.973C453.044 425.577 454.553 427.051 455.677 427.679C455.539 426.667 455.091 425.722 454.396 424.973C454.277 424.874 454.137 424.801 453.988 424.759C453.838 424.717 453.681 424.708 453.527 424.732L453.309 424.78Z" fill="#9C7BEB"/>
<path d="M474.749 234.639C479.435 254.943 471.391 414.682 471.391 414.682H455.858L449.215 281.564L424.756 414.682L408.147 413.474C419.018 310.347 428.597 248.783 428.597 248.783V241.004L474.749 234.639Z" fill="#263238"/>
<path opacity="0.4" d="M408.147 413.474L424.756 414.682L444.009 309.888L449.215 281.564L455.858 414.682H471.391C471.391 414.682 479.435 254.943 474.749 234.639L428.572 241.004V248.783C428.572 248.783 419.006 310.347 408.147 413.474Z" fill="white"/>
<path d="M466.378 159.437C465.902 169.145 466.149 178.875 467.115 188.547C467.768 195.311 468.661 201.7 469.616 207.462C471.85 220.978 474.387 231.112 474.749 234.651L428.573 241.016C411.735 193.91 418.076 166.54 418.076 166.54C421.529 165.114 425.067 163.904 428.669 162.916C429.43 162.711 430.203 162.517 431 162.336C437.486 161.06 444.039 160.157 450.628 159.631C451.836 159.522 453.152 159.437 454.384 159.377C460.689 159.063 466.378 159.437 466.378 159.437Z" fill="#263238"/>
<path d="M441.666 138.239C442.004 144.702 442.693 156.828 448.068 159.908C448.068 159.908 444.722 166.274 437.487 166.926C432.015 167.409 432.378 162.01 432.378 162.01C435.542 159.655 434.793 155.657 432.378 151.139L441.666 138.239Z" fill="#E4897B"/>
<path opacity="0.2" d="M437.873 143.506L432.414 151.139C432.988 152.183 433.473 153.274 433.863 154.401C436.4 153.386 439.31 149.569 438.888 146.803C438.755 145.651 438.411 144.533 437.873 143.506Z" fill="black"/>
<path d="M418.113 125.231C417.062 128.589 417.642 135.473 422.316 133.239C426.99 131.004 419.924 119.469 418.113 125.231Z" fill="#263238"/>
<path d="M442.27 129.772C442.789 138.384 443.478 143.397 439.721 148.277C434.008 155.608 422.944 152.879 419.852 144.569C417.074 137.08 416.7 124.252 424.684 119.904C426.453 118.941 428.438 118.443 430.453 118.456C432.468 118.469 434.446 118.993 436.203 119.979C437.96 120.965 439.438 122.381 440.499 124.094C441.56 125.806 442.17 127.76 442.27 129.772Z" fill="#E4897B"/>
<path d="M436.23 125.086V115.423C436.23 115.423 446.473 114.662 446.014 119.904C451.691 122.718 449.01 131.548 441.388 135.872C437.209 132.526 437.692 124.482 437.692 124.482C437.245 124.711 436.738 124.905 436.23 125.086Z" fill="#263238"/>
<path d="M446.436 136.488C446.239 137.542 445.833 138.545 445.241 139.439C444.65 140.333 443.886 141.1 442.994 141.694C440.578 143.276 438.489 141.332 438.404 138.614C438.332 136.198 439.479 132.381 442.257 131.898C442.865 131.803 443.487 131.861 444.067 132.065C444.647 132.27 445.167 132.615 445.581 133.069C445.995 133.524 446.29 134.074 446.439 134.671C446.588 135.268 446.587 135.892 446.436 136.488Z" fill="#E4897B"/>
<path d="M429.551 133.613C429.635 134.314 429.333 134.918 428.874 134.966C428.415 135.015 427.981 134.495 427.896 133.758C427.811 133.022 428.113 132.454 428.56 132.406C429.007 132.357 429.466 132.865 429.551 133.613Z" fill="#263238"/>
<path d="M421.651 134.495C421.736 135.196 421.434 135.8 420.975 135.848C420.516 135.896 420.081 135.377 419.997 134.64C419.912 133.903 420.214 133.336 420.673 133.287C421.132 133.239 421.543 133.795 421.651 134.495Z" fill="#263238"/>
<path d="M424.2 134.556C423.59 136.715 422.684 138.78 421.507 140.691C422.028 140.959 422.6 141.114 423.184 141.145C423.769 141.176 424.354 141.083 424.901 140.873L424.2 134.556Z" fill="#DE5753"/>
<path d="M428.971 143.119C428.673 143.195 428.37 143.252 428.065 143.288C428.011 143.288 427.958 143.267 427.92 143.228C427.881 143.19 427.86 143.137 427.86 143.083C427.86 143.029 427.881 142.976 427.92 142.938C427.958 142.899 428.011 142.878 428.065 142.878C428.933 142.799 429.769 142.517 430.508 142.056C431.246 141.594 431.866 140.966 432.317 140.22C432.327 140.196 432.342 140.174 432.362 140.156C432.381 140.137 432.404 140.123 432.429 140.114C432.454 140.105 432.48 140.101 432.507 140.103C432.533 140.105 432.559 140.112 432.583 140.124C432.607 140.135 432.63 140.152 432.648 140.172C432.666 140.193 432.68 140.216 432.689 140.242C432.698 140.268 432.702 140.296 432.7 140.323C432.699 140.35 432.691 140.377 432.679 140.402C432.284 141.088 431.75 141.684 431.112 142.152C430.473 142.62 429.744 142.949 428.971 143.119Z" fill="#263238"/>
<path d="M431.677 130.799C431.604 130.816 431.528 130.814 431.456 130.793C431.384 130.772 431.319 130.732 431.266 130.678C430.917 130.295 430.482 129.998 429.998 129.812C429.514 129.625 428.993 129.554 428.476 129.603C428.423 129.616 428.368 129.617 428.314 129.607C428.26 129.597 428.209 129.576 428.164 129.545C428.119 129.515 428.08 129.475 428.051 129.429C428.021 129.383 428.002 129.331 427.993 129.277C427.983 129.224 427.983 129.169 427.993 129.116C428.004 129.063 428.025 129.013 428.056 128.968C428.086 128.923 428.125 128.884 428.17 128.854C428.215 128.825 428.266 128.804 428.319 128.794C428.971 128.716 429.633 128.795 430.248 129.024C430.863 129.253 431.416 129.626 431.858 130.111C431.898 130.148 431.929 130.193 431.951 130.243C431.972 130.292 431.983 130.346 431.983 130.4C431.983 130.455 431.972 130.508 431.951 130.558C431.929 130.608 431.898 130.653 431.858 130.69C431.807 130.739 431.745 130.777 431.677 130.799Z" fill="#263238"/>
<path d="M417.919 132.164C417.841 132.194 417.755 132.194 417.678 132.164C417.575 132.128 417.491 132.054 417.444 131.956C417.396 131.859 417.389 131.747 417.424 131.645C417.624 131.023 417.97 130.459 418.435 130C418.9 129.542 419.469 129.202 420.093 129.011C420.199 128.984 420.311 129 420.405 129.056C420.499 129.111 420.567 129.202 420.595 129.307C420.622 129.413 420.606 129.525 420.55 129.619C420.495 129.713 420.404 129.781 420.299 129.809C419.805 129.961 419.356 130.232 418.992 130.599C418.627 130.965 418.358 131.416 418.209 131.91C418.186 131.974 418.148 132.03 418.097 132.074C418.046 132.119 417.985 132.15 417.919 132.164Z" fill="#263238"/>
<path d="M440.772 128.661C440.772 128.661 434.732 126.451 431.979 122.948C431.979 122.948 426.495 124.385 425.372 126.572C424.859 126.133 424.527 125.519 424.44 124.85C424.353 124.181 424.517 123.503 424.9 122.948C424.9 122.948 420.794 123.818 419.985 126.572C419.317 126.254 418.769 125.73 418.421 125.078C418.073 124.426 417.944 123.679 418.052 122.948C418.052 122.948 416.228 123.636 415.636 126.572C415.636 126.572 411.107 117.126 426.072 114.42C424.94 114.036 423.753 113.836 422.557 113.829C422.557 113.829 433.005 109.613 441.279 113.466C449.553 117.319 448.116 124.784 440.772 128.661Z" fill="#263238"/>
<path d="M478.312 242.78L463.818 244.712C463.818 244.712 457.839 202.932 455.206 189.441V160.645L462.779 158.652L468.649 160.645C470.259 166.439 471.498 172.329 472.357 178.28C473.07 182.797 473.71 187.629 474.278 192.521C475.063 199.188 475.715 205.976 476.271 212.33C477.14 222.584 477.72 231.655 478.034 237.199C478.215 240.678 478.312 242.78 478.312 242.78Z" fill="#9C7BEB"/>
<path d="M455.218 189.416C455.218 189.416 456.425 169.088 462.791 158.604C462.791 158.604 462.634 155.608 461.366 155.125C460.097 154.642 455.218 157.541 455.218 157.541C455.218 157.541 452.186 155.464 451.521 156.43C450.857 157.396 449.239 163.822 455.218 189.416Z" fill="#9C7BEB"/>
<path opacity="0.7" d="M455.218 189.416C455.218 189.416 456.425 169.088 462.791 158.604C462.791 158.604 462.634 155.608 461.366 155.125C460.097 154.642 455.218 157.541 455.218 157.541C455.218 157.541 452.186 155.464 451.521 156.43C450.857 157.396 449.239 163.822 455.218 189.416Z" fill="white"/>
<path d="M422.267 248.348L423.922 249.556C423.922 249.556 421.506 236.088 422.497 202.026C422.497 200.384 422.605 198.801 422.666 197.292C423.874 168.472 428.367 163.23 428.705 162.916L424.526 164.341L416.953 166.95C414.67 191.53 422.267 248.348 422.267 248.348Z" fill="#9C7BEB"/>
<path d="M422.919 192.327C422.919 192.327 418.74 172.567 419.984 165.755C421.228 158.942 425.685 161.974 425.685 161.974C425.685 161.974 429.78 158.664 431 162.312C431 162.312 425.371 166.274 422.919 192.327Z" fill="#9C7BEB"/>
<path opacity="0.7" d="M422.919 192.327C422.919 192.327 418.74 172.567 419.984 165.755C421.228 158.942 425.685 161.974 425.685 161.974C425.685 161.974 429.78 158.664 431 162.312C431 162.312 425.371 166.274 422.919 192.327Z" fill="white"/>
<path opacity="0.2" d="M474.254 192.472C468.069 189.006 467.248 179.959 467.248 179.959C467.622 179.814 469.917 179.029 472.333 178.232C473.046 182.749 473.686 187.58 474.254 192.472Z" fill="black"/>
<path opacity="0.2" d="M444.009 309.888L449.215 281.564L448.212 266.575C448.212 266.575 441.074 292.568 444.009 309.888Z" fill="black"/>
<path opacity="0.2" d="M478.01 237.151C474.121 236.885 470.763 236.632 470.763 236.632L470.026 220.821C471.238 220.062 472.694 219.794 474.096 220.072C475.052 217.546 475.776 214.938 476.258 212.281C477.104 222.536 477.696 231.619 478.01 237.151Z" fill="black"/>
<path d="M479.339 212.269L471.766 224.432L477.757 227.875L484.871 216.919L479.339 212.269Z" fill="#E4897B"/>
<path d="M468.323 160.452C473.42 161.008 495.089 190.745 496.043 199.707C496.998 208.67 483.313 224.142 483.313 224.142L474.181 218.767C474.181 218.767 483.458 204.503 483.941 200.65C484.424 196.796 466.97 181.227 466.97 181.227C465.651 177.641 464.924 173.863 464.82 170.042C464.579 163.496 468.323 160.452 468.323 160.452Z" fill="#9C7BEB"/>
<path d="M470.014 220.833C470.014 220.833 477.805 222.5 480.945 227.404C480.945 227.404 477.684 237.61 475.353 238.721C473.022 239.833 467.248 239.833 467.248 239.833C467.248 239.833 466.874 228.479 470.014 220.833Z" fill="#9C7BEB"/>
</svg>
