<svg width="591" height="537" viewBox="0 0 591 537" fill="none" xmlns="http://www.w3.org/2000/svg">
<path d="M590.037 415.972H34.7256V416.249H590.037V415.972Z" fill="#EBEBEB"/>
<path d="M534.395 433.824H497.611V434.101H534.395V433.824Z" fill="#EBEBEB"/>
<path d="M402.586 436.841H392.935V437.119H402.586V436.841Z" fill="#EBEBEB"/>
<path d="M496.5 423.528H475.188V423.805H496.5V423.528Z" fill="#EBEBEB"/>
<path d="M140.957 425.392H92.9888V425.669H140.957V425.392Z" fill="#EBEBEB"/>
<path d="M157.883 425.392H150.852V425.669H157.883V425.392Z" fill="#EBEBEB"/>
<path d="M284.782 430.074H180.739V430.351H284.782V430.074Z" fill="#EBEBEB"/>
<path d="M297.943 366.489H83.4931C81.8132 366.486 80.203 365.818 79.0161 364.63C77.8292 363.442 77.1626 361.832 77.1626 360.154V59.0083C77.1772 57.3397 77.8503 55.7442 79.0356 54.5684C80.2209 53.3927 81.8227 52.7315 83.4931 52.7287H297.943C299.625 52.7287 301.238 53.3961 302.428 54.5842C303.617 55.7723 304.285 57.3836 304.285 59.0638V360.154C304.285 361.834 303.617 363.446 302.428 364.634C301.238 365.822 299.625 366.489 297.943 366.489ZM83.4931 52.9506C81.8868 52.9535 80.3473 53.593 79.2124 54.7288C78.0776 55.8645 77.4403 57.4036 77.4403 59.0083V360.154C77.4403 361.759 78.0776 363.298 79.2124 364.434C80.3473 365.57 81.8868 366.209 83.4931 366.212H297.943C299.551 366.209 301.091 365.57 302.228 364.434C303.365 363.299 304.004 361.76 304.007 360.154V59.0083C304.004 57.4026 303.365 55.8635 302.228 54.7281C301.091 53.5927 299.551 52.9535 297.943 52.9506H83.4931Z" fill="#EBEBEB"/>
<path d="M538.182 366.489H323.721C322.04 366.486 320.428 365.818 319.24 364.631C318.051 363.443 317.382 361.833 317.379 360.154V59.0083C317.397 57.3387 318.072 55.7432 319.259 54.5677C320.446 53.3923 322.049 52.7315 323.721 52.7287H538.182C539.85 52.7345 541.449 53.3969 542.632 54.5723C543.815 55.7478 544.487 57.3416 544.501 59.0083V360.154C544.501 361.831 543.836 363.439 542.652 364.626C541.467 365.813 539.86 366.483 538.182 366.489ZM323.721 52.9506C322.113 52.9535 320.573 53.5927 319.436 54.7281C318.299 55.8635 317.66 57.4026 317.657 59.0083V360.154C317.66 361.76 318.299 363.299 319.436 364.434C320.573 365.57 322.113 366.209 323.721 366.212H538.182C539.789 366.209 541.33 365.57 542.467 364.434C543.603 363.299 544.243 361.76 544.246 360.154V59.0083C544.243 57.4026 543.603 55.8635 542.467 54.7281C541.33 53.5927 539.789 52.9535 538.182 52.9506H323.721Z" fill="#EBEBEB"/>
<path d="M445.745 320.235V341.925L454.907 348.582H412.093L425.776 343.523V321.744L445.745 320.235Z" fill="#E0E0E0"/>
<path d="M323.732 347.961V416.294H534.384V347.961H323.732ZM327.175 352.399H496.3V374.733H327.175V352.399Z" fill="#E0E0E0"/>
<path d="M323.732 347.961V416.294H500.898V347.961H323.732ZM327.175 352.399H496.301V374.733H327.175V352.399Z" fill="#EBEBEB"/>
<path d="M327.186 374.722H358.017V352.388H327.186V374.722Z" fill="#E0E0E0"/>
<path d="M451.653 374.722H496.3V363.56H451.653V374.722Z" fill="#E0E0E0"/>
<path d="M420.112 374.722H448.833V368.087H420.112V374.722Z" fill="#E0E0E0"/>
<path d="M379.618 374.733H413.481V361.164H379.618V374.733Z" fill="#E0E0E0"/>
<path d="M462.671 379.581L463.492 382.255H474.476L475.298 379.581H496.3V409.226H441.68V379.581H462.671Z" fill="#E0E0E0"/>
<path d="M405.496 379.581L406.318 382.255H417.302L418.113 379.581H439.114V409.226H384.494V379.581H405.496Z" fill="#E0E0E0"/>
<path d="M348.321 379.581L349.143 382.255H360.116L360.938 379.581H381.94V409.226H327.319V379.581H348.321Z" fill="#E0E0E0"/>
<path d="M355.407 333.194H500.565C502.73 333.194 504.486 331.44 504.486 329.277V244.757C504.486 242.594 502.73 240.841 500.565 240.841H355.407C353.242 240.841 351.486 242.594 351.486 244.757V329.277C351.486 331.44 353.242 333.194 355.407 333.194Z" fill="#E0E0E0"/>
<path d="M351.808 333.194H496.967C499.132 333.194 500.887 331.44 500.887 329.277V244.757C500.887 242.594 499.132 240.841 496.967 240.841H351.808C349.643 240.841 347.888 242.594 347.888 244.757V329.277C347.888 331.44 349.643 333.194 351.808 333.194Z" fill="#E6E6E6"/>
<path d="M496.4 328.7V245.334H352.397V328.7H496.4Z" fill="#F0F0F0"/>
<path d="M519.612 84.3821H394.534V222.645H519.612V84.3821Z" fill="#E9E9E9"/>
<path d="M514.426 89.863H400.031V217.453H514.426V89.863Z" fill="#F4F4F4"/>
<path d="M432.362 89.863L400.031 210.818V145.337L414.825 89.863H432.362Z" fill="white"/>
<path d="M446.811 89.863L412.715 217.453H406.285L440.381 89.863H446.811Z" fill="white"/>
<path d="M514.426 124.656V190.149L507.184 217.453H489.648L514.426 124.656Z" fill="white"/>
<path d="M459.283 84.3821H454.841V222.645H459.283V84.3821Z" fill="#E9E9E9"/>
<path d="M517.203 112.441H396.7V116.879H517.203V112.441Z" fill="#E9E9E9"/>
<path d="M113.991 203.318V237.723H162.714V203.318H113.991Z" fill="#E0E0E0"/>
<path d="M116.279 205.571V235.482H160.426V205.571H116.279Z" fill="#EBEBEB"/>
<path d="M130.895 160.115V194.52H179.618V160.115H130.895Z" fill="#E0E0E0"/>
<path d="M133.182 162.367V192.279H177.329V162.367H133.182Z" fill="#EBEBEB"/>
<path d="M202.974 203.329H171.965V247.154H202.974V203.329Z" fill="#E0E0E0"/>
<path d="M200.952 205.393H173.986V245.101H200.952V205.393Z" fill="#EBEBEB"/>
<path d="M220.611 145.836H186.17V194.509H220.611V145.836Z" fill="#E0E0E0"/>
<path d="M218.356 148.133H188.414V192.235H218.356V148.133Z" fill="#EBEBEB"/>
<path d="M251.653 230.267V203.329H213.503V230.267H251.653Z" fill="#E0E0E0"/>
<path d="M249.853 228.503V205.082H215.29V228.503H249.853Z" fill="#EBEBEB"/>
<path d="M105.805 280.738H226.219C228.821 280.741 231.315 281.775 233.154 283.614C234.993 285.453 236.026 287.946 236.026 290.545L249.353 375.376H109.282L95.9541 290.545C95.9526 289.254 96.2067 287.975 96.7016 286.783C97.1966 285.59 97.9227 284.507 98.8382 283.595C99.7537 282.684 100.841 281.962 102.036 281.472C103.232 280.981 104.513 280.732 105.805 280.738Z" fill="#EBEBEB"/>
<path d="M248.998 313.545L248.854 313.112H295.5V416.294H237.747V325.483C237.704 322.423 238.853 319.466 240.953 317.238C243.053 315.01 245.938 313.686 248.998 313.545Z" fill="#E0E0E0"/>
<path d="M295.988 313.523C299.16 313.529 302.199 314.791 304.44 317.034C306.68 319.276 307.939 322.315 307.939 325.483V416.294H284.016V325.483C284.016 322.311 285.277 319.269 287.523 317.026C289.768 314.783 292.813 313.523 295.988 313.523Z" fill="#F0F0F0"/>
<path d="M114.613 313.545L114.469 313.112H161.115V416.294H103.362V325.483C103.319 322.423 104.468 319.466 106.568 317.238C108.668 315.01 111.553 313.686 114.613 313.545Z" fill="#E0E0E0"/>
<path d="M173.576 416.294H276.208V343.623H173.576V416.294Z" fill="#E0E0E0"/>
<path d="M269.522 361.364L154.018 361.364V336.167H269.522C272.869 336.167 276.078 337.495 278.444 339.859C280.81 342.222 282.139 345.428 282.139 348.771C282.136 352.112 280.806 355.315 278.44 357.676C276.074 360.037 272.867 361.364 269.522 361.364Z" fill="#F5F5F5"/>
<path d="M161.603 313.523C164.775 313.529 167.814 314.791 170.055 317.034C172.295 319.276 173.553 322.315 173.553 325.483V416.294H149.631V325.483C149.631 322.311 150.892 319.269 153.137 317.026C155.383 314.783 158.428 313.523 161.603 313.523Z" fill="#F0F0F0"/>
<path d="M128.895 376.63H109.282L95.9541 290.545C95.9526 289.254 96.2067 287.975 96.7016 286.783C97.1966 285.59 97.9227 284.507 98.8382 283.595C99.7537 282.684 100.841 281.962 102.036 281.472C103.232 280.981 104.513 280.732 105.805 280.738C107.095 280.738 108.371 280.991 109.562 281.484C110.754 281.977 111.836 282.7 112.748 283.61C113.659 284.521 114.382 285.602 114.876 286.792C115.369 287.982 115.623 289.257 115.623 290.545L128.895 376.63Z" fill="#E0E0E0"/>
<path d="M100.619 75.4508V108.203C100.624 108.627 100.715 109.045 100.888 109.433C101.06 109.82 101.31 110.168 101.622 110.456C101.934 110.744 102.301 110.965 102.702 111.106C103.102 111.247 103.527 111.305 103.951 111.276H214.813C214.813 111.276 227.629 105.307 226.719 96.9636C225.997 90.3067 225.242 84.8814 224.62 80.7541C224.254 78.3306 223.027 76.1198 221.162 74.5265C219.298 72.9332 216.922 72.0639 214.469 72.078H103.951C103.509 72.0779 103.072 72.1655 102.665 72.3355C102.258 72.5056 101.889 72.7547 101.579 73.0685C101.269 73.3823 101.024 73.7545 100.859 74.1634C100.695 74.5724 100.613 75.01 100.619 75.4508Z" fill="#F5F5F5"/>
<path d="M100.619 75.4508V108.203C100.624 108.627 100.716 109.045 100.888 109.433C101.061 109.82 101.311 110.168 101.622 110.456C101.934 110.744 102.302 110.965 102.702 111.106C103.102 111.247 103.527 111.305 103.951 111.276H113.735C113.735 111.276 126.552 105.307 125.641 96.9636C124.908 90.34 124.164 84.9036 123.575 80.7874C123.21 78.3639 121.982 76.1531 120.118 74.5598C118.254 72.9665 115.878 72.0973 113.424 72.1113H103.984C103.543 72.1069 103.105 72.1901 102.696 72.3561C102.287 72.5221 101.916 72.7675 101.603 73.0782C101.29 73.3889 101.041 73.7586 100.872 74.1659C100.704 74.5732 100.617 75.01 100.619 75.4508Z" fill="#E6E6E6"/>
<path d="M224.176 99.6375H127.329C127.329 99.6375 124.131 106.716 118.7 109.623H213.325C213.325 109.623 223.343 105.052 224.176 99.6375Z" fill="#E0E0E0"/>
<path d="M217.49 106.305H123.998L125.386 109.645H217.49V106.305Z" fill="#EBEBEB"/>
<path d="M220.833 102.134H127.329L128.729 105.473H220.833V102.134Z" fill="#EBEBEB"/>
<path d="M130.672 98.1064H133.038V97.13H130.672V98.1064Z" fill="#E0E0E0"/>
<path d="M134.004 98.1064H136.37V97.13H134.004V98.1064Z" fill="#E0E0E0"/>
<path d="M312.381 466.076C431.309 466.076 527.72 460.453 527.72 453.517C527.72 446.58 431.309 440.958 312.381 440.958C193.453 440.958 97.0425 446.58 97.0425 453.517C97.0425 460.453 193.453 466.076 312.381 466.076Z" fill="#F5F5F5"/>
<path d="M135.459 373.479C135.692 375.11 131.261 376.186 127.685 376.807C127.985 379.77 129.906 382.765 132.672 385.561C136.103 383.631 140.99 381.123 141.901 381.711C142.811 382.299 137.836 385.572 134.682 387.503C136.923 389.451 139.294 391.246 141.779 392.873C143.311 391.441 145.11 390.177 146.221 390.865C147.332 391.552 147.032 393.782 146.477 395.768C150.208 397.932 152.996 399.252 152.996 399.252C154.081 395.792 154.916 392.259 155.495 388.679C155.306 388.313 155.117 387.936 154.939 387.569C154.34 386.183 154.94 385.595 155.917 385.406C156.199 382.874 156.222 380.32 155.983 377.784C151.763 376.896 146.632 375.265 148.553 372.736C149.664 371.216 151.885 371.038 154.04 371.415C153.74 370.912 153.39 370.44 152.996 370.006C145.322 361.552 139.968 370.006 139.968 370.006C135.526 366.29 129.229 367.288 127.874 373.102C130.373 372.425 135.17 371.471 135.459 373.479Z" fill="#9C7BEB"/>
<path opacity="0.3" d="M135.459 373.479C135.692 375.11 131.261 376.186 127.685 376.807C127.985 379.77 129.906 382.765 132.672 385.561C136.103 383.631 140.99 381.123 141.901 381.711C142.811 382.299 137.836 385.572 134.682 387.503C136.923 389.451 139.294 391.246 141.779 392.873C143.311 391.441 145.11 390.177 146.221 390.865C147.332 391.552 147.032 393.782 146.477 395.768C150.208 397.932 152.996 399.252 152.996 399.252C154.081 395.792 154.916 392.259 155.495 388.679C155.306 388.313 155.117 387.936 154.939 387.569C154.34 386.183 154.94 385.595 155.917 385.406C156.199 382.874 156.222 380.32 155.983 377.784C151.763 376.896 146.632 375.265 148.553 372.736C149.664 371.216 151.885 371.038 154.04 371.415C153.74 370.912 153.39 370.44 152.996 370.006C145.322 361.552 139.968 370.006 139.968 370.006C135.526 366.29 129.229 367.288 127.874 373.102C130.373 372.425 135.17 371.471 135.459 373.479Z" fill="white"/>
<path d="M145.044 435.599L143.933 435.51C143.933 434.933 148.476 378.339 135.759 373.002C135.152 372.721 134.489 372.584 133.82 372.601C133.152 372.619 132.496 372.79 131.905 373.102C127.318 375.487 125.119 385.395 125.097 385.495L123.986 385.262C124.075 384.84 126.319 374.744 131.372 372.114C132.108 371.726 132.923 371.513 133.755 371.49C134.587 371.467 135.413 371.635 136.17 371.981C149.642 377.629 145.233 433.28 145.044 435.599Z" fill="#9C7BEB"/>
<path d="M146.643 434.389C146.421 431.849 141.223 371.97 150.93 365.602C153.262 364.071 155.373 363.749 157.094 364.636C161.681 366.955 162.281 376.741 162.303 377.163L161.192 377.229C161.192 377.129 160.604 367.654 156.594 365.635C155.206 364.936 153.507 365.236 151.541 366.523C142.389 372.525 147.698 433.668 147.743 434.29L146.643 434.389Z" fill="#9C7BEB"/>
<path d="M148.098 439.216C148.031 437.263 146.432 391.43 155.262 387.414C156.086 387.03 156.984 386.831 157.894 386.831C158.803 386.831 159.702 387.03 160.526 387.414C166.59 390.077 170.333 401.371 170.522 401.837L169.466 402.181C169.466 402.07 165.713 390.887 160.104 388.424C159.426 388.1 158.684 387.933 157.933 387.933C157.181 387.933 156.439 388.1 155.761 388.424C148.987 391.497 148.753 426.146 149.242 439.171L148.098 439.216Z" fill="#9C7BEB"/>
<path d="M145.855 437.119L144.744 436.997C146.31 423.35 149.286 386.992 144.422 382.632C144.186 382.348 143.873 382.137 143.52 382.027C143.167 381.917 142.79 381.911 142.434 382.011C139.124 383.353 137.181 395.114 136.692 399.574L135.581 399.452C135.77 397.743 137.547 382.721 142.023 381.012C142.566 380.826 143.152 380.805 143.708 380.951C144.263 381.097 144.763 381.404 145.144 381.833C151.441 387.436 146.088 435.088 145.855 437.119Z" fill="#9C7BEB"/>
<path d="M127.318 411.257H167.223L163.891 455.902H130.65L127.318 411.257Z" fill="#263238"/>
<path opacity="0.2" d="M139.435 411.257L140.546 455.902H163.891L167.223 411.257H139.435Z" fill="white"/>
<path d="M132.749 394.87C132.338 395.979 129.24 395.103 126.807 394.237C125.975 396.168 126.163 398.675 126.885 401.338C129.651 401.338 133.549 401.427 133.893 402.126C134.238 402.825 130.062 403.158 127.474 403.235C128.187 405.208 129.037 407.128 130.017 408.982C131.45 408.616 132.994 408.461 133.416 409.249C133.838 410.036 132.916 411.323 131.894 412.355C133.449 414.974 134.715 416.793 134.715 416.793C136.575 415.022 138.301 413.116 139.88 411.09C139.88 410.802 139.88 410.502 139.88 410.203C139.991 409.093 140.557 408.971 141.234 409.193C142.275 407.726 143.165 406.157 143.889 404.511C141.59 402.525 138.98 399.763 141.035 398.853C142.278 398.32 143.645 398.93 144.866 399.962C144.86 399.547 144.808 399.134 144.711 398.731C142.878 390.887 136.681 394.293 136.681 394.293C135.204 390.476 130.983 388.956 128.162 392.074C129.984 392.473 133.271 393.527 132.749 394.87Z" fill="#9C7BEB"/>
<path opacity="0.3" d="M132.749 394.87C132.338 395.979 129.24 395.103 126.807 394.237C125.975 396.168 126.163 398.675 126.885 401.338C129.651 401.338 133.549 401.427 133.893 402.126C134.238 402.825 130.062 403.158 127.474 403.235C128.187 405.208 129.037 407.128 130.017 408.982C131.45 408.616 132.994 408.461 133.416 409.249C133.838 410.036 132.916 411.323 131.894 412.355C133.449 414.974 134.715 416.793 134.715 416.793C136.575 415.022 138.301 413.116 139.88 411.09C139.88 410.802 139.88 410.502 139.88 410.203C139.991 409.093 140.557 408.971 141.234 409.193C142.275 407.726 143.165 406.157 143.889 404.511C141.59 402.525 138.98 399.763 141.035 398.853C142.278 398.32 143.645 398.93 144.866 399.962C144.86 399.547 144.808 399.134 144.711 398.731C142.878 390.887 136.681 394.293 136.681 394.293C135.204 390.476 130.983 388.956 128.162 392.074C129.984 392.473 133.271 393.527 132.749 394.87Z" fill="white"/>
<path d="M162.381 400.173C161.139 400.276 159.916 400.533 158.738 400.939C158.417 400.093 158.233 399.202 158.194 398.298C157.938 390.265 163.747 393.649 166.746 391.286C167.439 390.683 168.25 390.23 169.127 389.955C170.004 389.68 170.929 389.589 171.843 389.689C171.581 390.134 171.351 390.597 171.155 391.075C171.082 391.25 171.049 391.439 171.061 391.628C171.072 391.817 171.126 392.001 171.219 392.166C171.313 392.331 171.442 392.472 171.598 392.579C171.755 392.686 171.933 392.756 172.121 392.784C172.871 392.932 173.648 392.838 174.342 392.518C174.548 392.405 174.742 392.271 174.92 392.118C175.406 392.961 175.78 393.863 176.03 394.803C176.331 395.927 176.506 397.08 176.552 398.243C176.092 398.34 175.639 398.469 175.197 398.631C175.023 398.707 174.868 398.821 174.744 398.965C174.62 399.109 174.531 399.28 174.483 399.464C174.435 399.647 174.429 399.84 174.466 400.026C174.503 400.212 174.583 400.388 174.698 400.539C175.182 401.02 175.745 401.414 176.363 401.704C176.154 402.99 175.812 404.25 175.342 405.465L174.931 405.532C174.642 405.587 174.353 405.665 174.065 405.743L173.587 405.92C173.389 406.007 173.217 406.141 173.085 406.312C172.953 406.483 172.866 406.684 172.832 406.897C172.813 407.106 172.847 407.318 172.931 407.511C173.014 407.705 173.144 407.875 173.309 408.006C173.498 408.145 173.699 408.267 173.909 408.372C173.141 409.698 172.043 410.802 170.722 411.579C169.554 411.051 168.42 410.454 167.323 409.792C167.567 409.471 167.812 409.149 168.034 408.816C168.295 408.449 168.417 408 168.378 407.551C168.306 407.112 168.073 406.716 167.723 406.442C167.545 406.304 167.341 406.203 167.124 406.144C166.907 406.085 166.68 406.069 166.457 406.098C166.018 406.169 165.621 406.403 165.346 406.752C165.08 407.152 164.78 407.529 164.491 407.862C162.954 406.73 161.579 405.394 160.404 403.89H160.526C161.254 403.7 161.997 403.574 162.747 403.513C163.125 403.388 163.448 403.136 163.66 402.8C163.872 402.463 163.96 402.064 163.908 401.669C163.857 401.275 163.67 400.911 163.379 400.64C163.088 400.369 162.711 400.208 162.314 400.184L162.381 400.173Z" fill="#9C7BEB"/>
<path opacity="0.5" d="M162.381 400.173C161.139 400.276 159.916 400.533 158.738 400.939C158.417 400.093 158.233 399.202 158.194 398.298C157.938 390.265 163.747 393.649 166.746 391.286C167.439 390.683 168.25 390.23 169.127 389.955C170.004 389.68 170.929 389.589 171.843 389.689C171.581 390.134 171.351 390.597 171.155 391.075C171.082 391.25 171.049 391.439 171.061 391.628C171.072 391.817 171.126 392.001 171.219 392.166C171.313 392.331 171.442 392.472 171.598 392.579C171.755 392.686 171.933 392.756 172.121 392.784C172.871 392.932 173.648 392.838 174.342 392.518C174.548 392.405 174.742 392.271 174.92 392.118C175.406 392.961 175.78 393.863 176.03 394.803C176.331 395.927 176.506 397.08 176.552 398.243C176.092 398.34 175.639 398.469 175.197 398.631C175.023 398.707 174.868 398.821 174.744 398.965C174.62 399.109 174.531 399.28 174.483 399.464C174.435 399.647 174.429 399.84 174.466 400.026C174.503 400.212 174.583 400.388 174.698 400.539C175.182 401.02 175.745 401.414 176.363 401.704C176.154 402.99 175.812 404.25 175.342 405.465L174.931 405.532C174.642 405.587 174.353 405.665 174.065 405.743L173.587 405.92C173.389 406.007 173.217 406.141 173.085 406.312C172.953 406.483 172.866 406.684 172.832 406.897C172.813 407.106 172.847 407.318 172.931 407.511C173.014 407.705 173.144 407.875 173.309 408.006C173.498 408.145 173.699 408.267 173.909 408.372C173.141 409.698 172.043 410.802 170.722 411.579C169.554 411.051 168.42 410.454 167.323 409.792C167.567 409.471 167.812 409.149 168.034 408.816C168.295 408.449 168.417 408 168.378 407.551C168.306 407.112 168.073 406.716 167.723 406.442C167.545 406.304 167.341 406.203 167.124 406.144C166.907 406.085 166.68 406.069 166.457 406.098C166.018 406.169 165.621 406.403 165.346 406.752C165.08 407.152 164.78 407.529 164.491 407.862C162.954 406.73 161.579 405.394 160.404 403.89H160.526C161.254 403.7 161.997 403.574 162.747 403.513C163.125 403.388 163.448 403.136 163.66 402.8C163.872 402.463 163.96 402.064 163.908 401.669C163.857 401.275 163.67 400.911 163.379 400.64C163.088 400.369 162.711 400.208 162.314 400.184L162.381 400.173Z" fill="white"/>
<path d="M164.669 372.458C165.355 371.967 166.102 371.564 166.89 371.26C166.687 370.676 166.39 370.13 166.012 369.64C162.614 365.302 161.081 369.64 158.438 369.707C157.817 369.698 157.201 369.816 156.628 370.055C156.055 370.293 155.537 370.647 155.106 371.094C155.436 371.216 155.758 371.357 156.072 371.515C156.189 371.575 156.29 371.661 156.368 371.766C156.446 371.871 156.499 371.992 156.522 372.121C156.546 372.25 156.54 372.382 156.504 372.508C156.468 372.634 156.404 372.749 156.317 372.847C155.987 373.264 155.531 373.564 155.017 373.701C154.855 373.712 154.691 373.712 154.529 373.701C154.652 374.355 154.853 374.992 155.128 375.598C155.465 376.319 155.883 377.001 156.372 377.629C156.655 377.479 156.949 377.349 157.25 377.24C157.375 377.201 157.507 377.191 157.636 377.211C157.766 377.231 157.889 377.28 157.996 377.355C158.104 377.43 158.192 377.529 158.255 377.644C158.318 377.758 158.354 377.886 158.36 378.017C158.32 378.483 158.196 378.938 157.994 379.359C158.679 379.949 159.423 380.466 160.215 380.901L160.459 380.746L161.015 380.48C161.121 380.431 161.233 380.394 161.348 380.369C161.488 380.325 161.638 380.319 161.782 380.35C161.926 380.381 162.06 380.449 162.17 380.546C162.28 380.649 162.362 380.779 162.407 380.923C162.451 381.067 162.458 381.22 162.425 381.367C162.387 381.522 162.339 381.674 162.281 381.822C163.264 382.183 164.324 382.282 165.357 382.111C165.742 381.323 166.076 380.511 166.357 379.681L165.557 379.481C165.261 379.401 165.002 379.221 164.824 378.971C164.657 378.707 164.602 378.388 164.669 378.083C164.698 377.933 164.759 377.79 164.847 377.664C164.935 377.538 165.048 377.431 165.179 377.351C165.444 377.185 165.763 377.129 166.068 377.196C166.379 377.285 166.701 377.351 167.012 377.429C167.328 376.163 167.466 374.86 167.423 373.557H167.345C166.871 373.778 166.417 374.041 165.99 374.344C165.861 374.428 165.717 374.484 165.566 374.512C165.415 374.539 165.26 374.537 165.11 374.504C164.96 374.472 164.818 374.41 164.691 374.323C164.565 374.235 164.457 374.124 164.374 373.995C164.291 373.866 164.234 373.722 164.207 373.571C164.179 373.42 164.182 373.265 164.214 373.115C164.247 372.966 164.309 372.824 164.396 372.697C164.484 372.571 164.595 372.464 164.724 372.381L164.669 372.458Z" fill="#9C7BEB"/>
<path opacity="0.3" d="M164.669 372.458C165.355 371.967 166.102 371.564 166.89 371.26C166.687 370.676 166.39 370.13 166.012 369.64C162.614 365.302 161.081 369.64 158.438 369.707C157.817 369.698 157.201 369.816 156.628 370.055C156.055 370.293 155.537 370.647 155.106 371.094C155.436 371.216 155.758 371.357 156.072 371.515C156.189 371.575 156.29 371.661 156.368 371.766C156.446 371.871 156.499 371.992 156.522 372.121C156.546 372.25 156.54 372.382 156.504 372.508C156.468 372.634 156.404 372.749 156.317 372.847C155.987 373.264 155.531 373.564 155.017 373.701C154.855 373.712 154.691 373.712 154.529 373.701C154.652 374.355 154.853 374.992 155.128 375.598C155.465 376.319 155.883 377.001 156.372 377.629C156.655 377.479 156.949 377.349 157.25 377.24C157.375 377.201 157.507 377.191 157.636 377.211C157.766 377.231 157.889 377.28 157.996 377.355C158.104 377.43 158.192 377.529 158.255 377.644C158.318 377.758 158.354 377.886 158.36 378.017C158.32 378.483 158.196 378.938 157.994 379.359C158.679 379.949 159.423 380.466 160.215 380.901L160.459 380.746L161.015 380.48C161.121 380.431 161.233 380.394 161.348 380.369C161.488 380.325 161.638 380.319 161.782 380.35C161.926 380.381 162.06 380.449 162.17 380.546C162.28 380.649 162.362 380.779 162.407 380.923C162.451 381.067 162.458 381.22 162.425 381.367C162.387 381.522 162.339 381.674 162.281 381.822C163.264 382.183 164.324 382.282 165.357 382.111C165.742 381.323 166.076 380.511 166.357 379.681L165.557 379.481C165.261 379.401 165.002 379.221 164.824 378.971C164.657 378.707 164.602 378.388 164.669 378.083C164.698 377.933 164.759 377.79 164.847 377.664C164.935 377.538 165.048 377.431 165.179 377.351C165.444 377.185 165.763 377.129 166.068 377.196C166.379 377.285 166.701 377.351 167.012 377.429C167.328 376.163 167.466 374.86 167.423 373.557H167.345C166.871 373.778 166.417 374.041 165.99 374.344C165.861 374.428 165.717 374.484 165.566 374.512C165.415 374.539 165.26 374.537 165.11 374.504C164.96 374.472 164.818 374.41 164.691 374.323C164.565 374.235 164.457 374.124 164.374 373.995C164.291 373.866 164.234 373.722 164.207 373.571C164.179 373.42 164.182 373.265 164.214 373.115C164.247 372.966 164.309 372.824 164.396 372.697C164.484 372.571 164.595 372.464 164.724 372.381L164.669 372.458Z" fill="white"/>
<path d="M132.172 380.502C131.938 382.133 136.37 383.209 139.946 383.83C139.646 386.793 137.725 389.788 134.948 392.573C131.527 390.654 126.63 388.135 125.73 388.723C124.83 389.311 129.762 392.64 132.893 394.537C130.655 396.481 128.283 398.268 125.797 399.885C124.264 398.453 122.465 397.2 121.354 397.876C120.243 398.553 120.543 400.806 121.099 402.78C117.367 404.999 114.579 406.275 114.579 406.275C113.494 402.815 112.659 399.282 112.08 395.702C112.269 395.325 112.458 394.959 112.625 394.592C113.235 393.206 112.625 392.618 111.658 392.373C111.37 389.842 111.348 387.287 111.592 384.751C115.812 383.875 120.943 382.233 119.022 379.703C117.911 378.183 115.745 378.006 113.535 378.394C113.835 377.887 114.185 377.412 114.579 376.974C122.254 368.52 127.607 376.974 127.607 376.974C132.049 373.257 138.336 374.267 139.69 380.069C137.258 379.437 132.46 378.483 132.172 380.502Z" fill="#9C7BEB"/>
<path opacity="0.5" d="M132.172 380.502C131.938 382.133 136.37 383.209 139.946 383.83C139.646 386.793 137.725 389.788 134.948 392.573C131.527 390.654 126.63 388.135 125.73 388.723C124.83 389.311 129.762 392.64 132.893 394.537C130.655 396.481 128.283 398.268 125.797 399.885C124.264 398.453 122.465 397.2 121.354 397.876C120.243 398.553 120.543 400.806 121.099 402.78C117.367 404.999 114.579 406.275 114.579 406.275C113.494 402.815 112.659 399.282 112.08 395.702C112.269 395.325 112.458 394.959 112.625 394.592C113.235 393.206 112.625 392.618 111.658 392.373C111.37 389.842 111.348 387.287 111.592 384.751C115.812 383.875 120.943 382.233 119.022 379.703C117.911 378.183 115.745 378.006 113.535 378.394C113.835 377.887 114.185 377.412 114.579 376.974C122.254 368.52 127.607 376.974 127.607 376.974C132.049 373.257 138.336 374.267 139.69 380.069C137.258 379.437 132.46 378.483 132.172 380.502Z" fill="white"/>
<path d="M462.815 455.902L484.083 314.721V455.902H489.792V313.845L511.083 455.902H517.202L490.547 278.075L489.792 278.186V272.406H484.083V278.164L483.295 278.075L456.573 455.902H462.815Z" fill="#9C7BEB"/>
<path opacity="0.3" d="M462.815 455.902L484.083 314.721V455.902H489.792V313.845L511.083 455.902H517.202L490.547 278.075L489.792 278.186V272.406H484.083V278.164L483.295 278.075L456.573 455.902H462.815Z" fill="white"/>
<path d="M516.203 297.801H457.362L462.126 248.685H511.438L516.203 297.801Z" fill="#9C7BEB"/>
<g opacity="0.5">
<path d="M516.203 297.801H457.362L462.126 248.685H511.438L516.203 297.801Z" fill="white"/>
</g>
<path d="M367.912 234.029H348.565C348.153 234.029 347.757 233.865 347.466 233.574C347.174 233.282 347.01 232.887 347.01 232.475V186.709C347.223 186.609 347.404 186.452 347.534 186.257C347.665 186.061 347.74 185.834 347.751 185.599C347.763 185.364 347.71 185.131 347.599 184.924C347.488 184.717 347.323 184.544 347.121 184.423C346.919 184.302 346.688 184.238 346.453 184.238C346.218 184.238 345.987 184.302 345.785 184.423C345.583 184.544 345.418 184.717 345.307 184.924C345.196 185.132 345.144 185.365 345.155 185.6C345.166 185.835 345.241 186.063 345.372 186.259C345.503 186.454 345.686 186.61 345.9 186.709V232.464C345.898 232.814 345.966 233.161 346.099 233.485C346.233 233.809 346.429 234.103 346.677 234.35C346.925 234.598 347.219 234.794 347.543 234.927C347.867 235.061 348.215 235.128 348.565 235.127H367.912C368.325 235.127 368.72 235.291 369.012 235.582C369.303 235.873 369.467 236.268 369.467 236.68V262.875H370.578V236.691C370.578 236.342 370.509 235.995 370.375 235.672C370.241 235.349 370.044 235.056 369.797 234.809C369.549 234.561 369.256 234.365 368.932 234.231C368.609 234.097 368.262 234.029 367.912 234.029Z" fill="#9C7BEB"/>
<path opacity="0.4" d="M367.912 234.029H348.565C348.153 234.029 347.757 233.865 347.466 233.574C347.174 233.282 347.01 232.887 347.01 232.475V186.709C347.223 186.609 347.404 186.452 347.534 186.257C347.665 186.061 347.74 185.834 347.751 185.599C347.763 185.364 347.71 185.131 347.599 184.924C347.488 184.717 347.323 184.544 347.121 184.423C346.919 184.302 346.688 184.238 346.453 184.238C346.218 184.238 345.987 184.302 345.785 184.423C345.583 184.544 345.418 184.717 345.307 184.924C345.196 185.132 345.144 185.365 345.155 185.6C345.166 185.835 345.241 186.063 345.372 186.259C345.503 186.454 345.686 186.61 345.9 186.709V232.464C345.898 232.814 345.966 233.161 346.099 233.485C346.233 233.809 346.429 234.103 346.677 234.35C346.925 234.598 347.219 234.794 347.543 234.927C347.867 235.061 348.215 235.128 348.565 235.127H367.912C368.325 235.127 368.72 235.291 369.012 235.582C369.303 235.873 369.467 236.268 369.467 236.68V262.875H370.578V236.691C370.578 236.342 370.509 235.995 370.375 235.672C370.241 235.349 370.044 235.056 369.797 234.809C369.549 234.561 369.256 234.365 368.932 234.231C368.609 234.097 368.262 234.029 367.912 234.029Z" fill="white"/>
<path d="M391.058 261.777H348.887C347.237 261.777 345.9 263.113 345.9 264.761V309.24C345.9 310.888 347.237 312.225 348.887 312.225H391.058C392.708 312.225 394.045 310.888 394.045 309.24V264.761C394.045 263.113 392.708 261.777 391.058 261.777Z" fill="#9C7BEB"/>
<path opacity="0.4" d="M391.058 261.777H348.887C347.237 261.777 345.9 263.113 345.9 264.761V309.24C345.9 310.888 347.237 312.225 348.887 312.225H391.058C392.708 312.225 394.045 310.888 394.045 309.24V264.761C394.045 263.113 392.708 261.777 391.058 261.777Z" fill="white"/>
<path opacity="0.2" d="M373.21 290.79H366.735V297.258H373.21V290.79Z" fill="white"/>
<path opacity="0.2" d="M380.24 269.721H373.765V276.189H380.24V269.721Z" fill="white"/>
<path opacity="0.2" d="M366.18 297.813H359.705V304.281H366.18V297.813Z" fill="white"/>
<path opacity="0.2" d="M380.24 276.744H373.765V283.212H380.24V276.744Z" fill="white"/>
<path opacity="0.2" d="M380.24 283.767H373.765V290.235H380.24V283.767Z" fill="white"/>
<path opacity="0.2" d="M373.21 276.744H366.735V283.212H373.21V276.744Z" fill="white"/>
<path opacity="0.2" d="M373.21 262.331H366.735V269.166H373.21V262.331Z" fill="white"/>
<path opacity="0.2" d="M366.18 290.79H359.705V297.258H366.18V290.79Z" fill="white"/>
<path opacity="0.2" d="M373.21 269.721H366.735V276.189H373.21V269.721Z" fill="white"/>
<path opacity="0.2" d="M373.21 297.813H366.735V304.281H373.21V297.813Z" fill="white"/>
<path opacity="0.2" d="M380.24 297.813H373.765V304.281H380.24V297.813Z" fill="white"/>
<path opacity="0.2" d="M373.21 283.767H366.735V290.235H373.21V283.767Z" fill="white"/>
<path opacity="0.2" d="M380.24 262.331H373.765V269.166H380.24V262.331Z" fill="white"/>
<path opacity="0.2" d="M352.119 290.79H346.455V297.258H352.119V290.79Z" fill="white"/>
<path opacity="0.2" d="M352.119 269.721H346.455V276.189H352.119V269.721Z" fill="white"/>
<path opacity="0.2" d="M352.119 283.767H346.455V290.235H352.119V283.767Z" fill="white"/>
<path opacity="0.2" d="M352.119 276.744H346.455V283.212H352.119V276.744Z" fill="white"/>
<path opacity="0.2" d="M380.24 290.79H373.765V297.258H380.24V290.79Z" fill="white"/>
<path opacity="0.2" d="M387.826 269.166H393.456V264.728C393.456 264.084 393.2 263.465 392.744 263.01C392.288 262.554 391.669 262.298 391.024 262.298H387.792L387.826 269.166Z" fill="white"/>
<path opacity="0.2" d="M387.27 269.721H380.795V276.189H387.27V269.721Z" fill="white"/>
<path opacity="0.2" d="M352.119 297.813H346.455V304.281H352.119V297.813Z" fill="white"/>
<path opacity="0.2" d="M387.27 276.744H380.795V283.212H387.27V276.744Z" fill="white"/>
<path opacity="0.2" d="M387.27 283.767H380.795V290.235H387.27V283.767Z" fill="white"/>
<path opacity="0.2" d="M387.27 290.79H380.795V297.258H387.27V290.79Z" fill="white"/>
<path opacity="0.2" d="M387.27 297.813H380.795V304.281H387.27V297.813Z" fill="white"/>
<path opacity="0.2" d="M393.49 297.813H387.826V304.281H393.49V297.813Z" fill="white"/>
<path opacity="0.2" d="M387.27 262.331H380.795V269.166H387.27V262.331Z" fill="white"/>
<path opacity="0.2" d="M373.21 304.847H366.735V311.681H373.21V304.847Z" fill="white"/>
<path opacity="0.2" d="M380.24 304.847H373.765V311.681H380.24V304.847Z" fill="white"/>
<path opacity="0.2" d="M393.49 283.767H387.826V290.235H393.49V283.767Z" fill="white"/>
<path opacity="0.2" d="M387.27 304.847H380.795V311.681H387.27V304.847Z" fill="white"/>
<path opacity="0.2" d="M393.49 290.79H387.826V297.258H393.49V290.79Z" fill="white"/>
<path opacity="0.2" d="M352.108 304.847H346.455V309.285C346.458 309.927 346.716 310.542 347.171 310.995C347.627 311.449 348.244 311.703 348.887 311.703H352.108V304.847Z" fill="white"/>
<path opacity="0.2" d="M387.826 304.847V311.67H391.058C391.701 311.67 392.318 311.416 392.774 310.962C393.229 310.509 393.487 309.894 393.49 309.251V304.813L387.826 304.847Z" fill="white"/>
<path opacity="0.2" d="M352.108 269.166V262.331H348.887C348.242 262.331 347.624 262.587 347.167 263.043C346.711 263.499 346.455 264.117 346.455 264.761V269.199L352.108 269.166Z" fill="white"/>
<path opacity="0.2" d="M393.49 276.744H387.826V283.212H393.49V276.744Z" fill="white"/>
<path opacity="0.2" d="M393.49 269.721H387.826V276.189H393.49V269.721Z" fill="white"/>
<path opacity="0.2" d="M359.138 283.767H352.663V290.235H359.138V283.767Z" fill="white"/>
<path opacity="0.2" d="M359.138 297.813H352.663V304.281H359.138V297.813Z" fill="white"/>
<path opacity="0.2" d="M366.18 262.331H359.705V269.166H366.18V262.331Z" fill="white"/>
<path opacity="0.2" d="M359.138 290.79H352.663V297.258H359.138V290.79Z" fill="white"/>
<path opacity="0.2" d="M366.18 276.744H359.705V283.212H366.18V276.744Z" fill="white"/>
<path opacity="0.2" d="M366.18 269.721H359.705V276.189H366.18V269.721Z" fill="white"/>
<path opacity="0.2" d="M366.18 304.847H359.705V311.681H366.18V304.847Z" fill="white"/>
<path opacity="0.2" d="M359.138 304.847H352.663V311.681H359.138V304.847Z" fill="white"/>
<path opacity="0.2" d="M359.138 262.331H352.663V269.166H359.138V262.331Z" fill="white"/>
<path opacity="0.2" d="M366.18 283.767H359.705V290.235H366.18V283.767Z" fill="white"/>
<path opacity="0.2" d="M359.138 276.744H352.663V283.212H359.138V276.744Z" fill="white"/>
<path opacity="0.2" d="M359.138 269.721H352.663V276.189H359.138V269.721Z" fill="white"/>
<path d="M381.473 279.562C381.377 279.056 381.239 278.559 381.062 278.075C380.367 276.099 379.156 274.344 377.554 272.993C375.952 271.642 374.017 270.744 371.95 270.392C369.883 270.04 367.76 270.247 365.8 270.991C363.84 271.735 362.115 272.99 360.804 274.624C360.183 275.394 359.664 276.24 359.26 277.143C358.573 278.659 358.217 280.305 358.216 281.969V292.043C358.215 293.005 358.334 293.963 358.572 294.895C358.745 295.607 358.994 296.299 359.316 296.958C359.596 297.575 359.931 298.165 360.316 298.722C360.615 299.122 360.915 299.499 361.237 299.832C361.632 300.269 362.059 300.677 362.515 301.052C362.887 301.356 363.276 301.637 363.681 301.895C364.381 302.34 365.125 302.712 365.902 303.005C366.28 303.138 366.657 303.26 367.013 303.36C367.499 303.48 367.992 303.573 368.49 303.637C368.858 303.684 369.229 303.71 369.6 303.715H369.9C370.506 303.716 371.111 303.671 371.711 303.582C372.088 303.515 372.466 303.438 372.821 303.349C374.186 302.992 375.476 302.395 376.631 301.585C377.049 301.295 377.446 300.976 377.819 300.631C378.84 299.698 379.689 298.594 380.329 297.369C380.663 296.738 380.934 296.077 381.14 295.394C381.449 294.398 381.617 293.363 381.639 292.321C381.639 292.321 381.639 292.088 381.639 291.977V281.903C381.664 281.119 381.608 280.334 381.473 279.562ZM378.841 297.924C378.211 298.875 377.431 299.718 376.531 300.42C376.203 300.68 375.858 300.918 375.498 301.13C374.546 301.715 373.508 302.145 372.421 302.406C372.066 302.484 371.699 302.55 371.311 302.594C370.865 302.652 370.416 302.682 369.967 302.683H369.467C369.078 302.683 368.712 302.683 368.356 302.572C367.891 302.498 367.431 302.394 366.979 302.262C366.591 302.151 366.213 302.006 365.869 301.862C365.083 301.526 364.338 301.101 363.647 300.597C363.275 300.319 362.923 300.015 362.592 299.688C362.187 299.306 361.816 298.89 361.482 298.445C361.16 298.02 360.87 297.571 360.615 297.103C360.233 296.4 359.935 295.656 359.727 294.884C359.467 293.955 359.337 292.996 359.338 292.032V281.958C359.341 279.619 360.122 277.348 361.559 275.501C362.517 274.252 363.738 273.229 365.136 272.505C366.641 271.721 368.314 271.313 370.011 271.318C372.429 271.319 374.775 272.141 376.664 273.649C378.553 275.157 379.873 277.261 380.407 279.617C380.577 280.378 380.663 281.156 380.662 281.936V292.099C380.652 292.754 380.585 293.408 380.462 294.051C380.289 294.915 380.009 295.753 379.629 296.548C379.404 297.027 379.141 297.487 378.841 297.924Z" fill="white"/>
<path d="M371.311 288.204C370.122 291.966 368.579 296.914 369.467 302.628C369.523 302.994 369.589 303.36 369.667 303.737C369.296 303.732 368.925 303.707 368.556 303.66C368.479 303.271 368.412 302.894 368.368 302.55C367.524 296.67 369.09 291.666 370.278 287.861C371.544 283.822 372.066 281.847 370.156 281.037C369.856 280.912 369.528 280.869 369.206 280.912C368.884 280.954 368.58 281.082 368.323 281.281C365.291 283.289 362.581 291.955 361.504 298.423C361.415 298.933 361.337 299.421 361.271 299.887C360.949 299.521 360.649 299.144 360.349 298.778C360.427 298.245 360.527 297.668 360.638 297.125C361.859 290.712 364.469 282.557 367.712 280.416C368.122 280.116 368.601 279.926 369.105 279.866C369.609 279.806 370.12 279.877 370.589 280.072C373.465 281.281 372.521 284.332 371.311 288.204Z" fill="white"/>
<path d="M369.378 287.938C368.267 291.5 366.635 296.714 366.957 302.262C366.957 302.65 366.957 303.038 367.046 303.438C366.657 303.338 366.279 303.216 365.935 303.083C365.935 302.672 365.88 302.273 365.869 301.862C365.646 296.315 367.257 291.145 368.367 287.605C368.798 286.438 369.11 285.23 369.3 284C367.956 285.198 363.747 294.961 363.669 300.642C363.648 301.101 363.666 301.561 363.725 302.018C363.32 301.759 362.931 301.478 362.559 301.174C362.559 300.719 362.559 300.231 362.614 299.732C363.081 293.852 366.624 284.987 368.556 283.234C368.698 283.065 368.886 282.943 369.098 282.881C369.31 282.82 369.535 282.823 369.745 282.89C370.844 283.278 370.322 284.932 369.378 287.938Z" fill="white"/>
<path d="M372.421 302.361C372.557 302.71 372.713 303.051 372.888 303.382C372.532 303.471 372.155 303.549 371.777 303.615C371.598 303.255 371.443 302.885 371.31 302.506C370.4 300.131 369.922 296.526 371.577 291.599C374.809 281.991 374.243 279.706 371.844 278.441C371.231 278.082 370.538 277.883 369.828 277.859C369.118 277.836 368.414 277.99 367.779 278.308C364.447 279.95 361.57 285.886 359.716 294.806C359.571 295.483 359.438 296.171 359.316 296.881C358.994 296.222 358.744 295.53 358.572 294.817C358.805 293.707 359.06 292.598 359.327 291.489C361.259 283.855 364.025 278.896 367.29 277.287C368.079 276.882 368.958 276.682 369.845 276.705C370.732 276.728 371.599 276.974 372.366 277.42C375.697 279.195 375.775 282.579 372.632 291.91C371.022 296.703 371.522 300.12 372.41 302.284L372.421 302.361Z" fill="white"/>
<path d="M377.908 300.708C377.534 301.054 377.137 301.372 376.719 301.662L376.264 301.518C375.996 301.422 375.742 301.292 375.509 301.13C374.254 300.301 373.373 299.015 373.054 297.546C372.477 295.472 373.421 292.476 374.431 289.314C375.442 286.152 376.486 282.846 375.986 280.438C375.851 279.573 375.517 278.751 375.011 278.037C374.504 277.323 373.838 276.736 373.065 276.322C371.122 275.357 368.534 275.523 365.791 276.799C363.048 278.075 360.693 282.158 359.338 285.32C358.86 286.429 358.483 287.45 358.227 288.193V285.076C358.549 284.321 358.916 283.5 359.338 282.679C360.771 279.872 362.781 276.977 365.313 275.8C368.379 274.369 371.311 274.203 373.565 275.335C374.489 275.82 375.287 276.515 375.896 277.362C376.505 278.209 376.909 279.186 377.075 280.216C377.63 282.879 376.542 286.307 375.487 289.625C374.531 292.631 373.632 295.46 374.12 297.225C374.255 297.903 374.542 298.542 374.962 299.092C375.382 299.642 375.922 300.089 376.542 300.398L376.664 300.453C377.058 300.617 377.48 300.704 377.908 300.708Z" fill="white"/>
<path d="M381.24 295.472C381.034 296.154 380.762 296.816 380.429 297.446C379.941 297.701 379.41 297.863 378.863 297.923H378.552H378.274C377.663 297.874 377.084 297.633 376.619 297.234C376.154 296.836 375.828 296.3 375.686 295.705C375.198 294.051 375.997 290.945 376.797 287.661C377.429 285.582 377.846 283.445 378.041 281.281C378.041 277.864 377.152 274.203 370.589 273.038C367.257 272.439 362.459 274.569 359.649 279.118C359.094 280.005 359.816 276.599 359.205 277.099C359.605 276.189 360.227 276.233 360.837 275.468C362.07 274.669 365.502 271.285 370.778 271.939C378.341 272.871 379.152 277.908 379.152 281.281C378.967 283.541 378.535 285.773 377.863 287.938C377.13 290.79 376.308 294.029 376.753 295.394C376.834 295.77 377.032 296.11 377.32 296.365C377.607 296.621 377.969 296.778 378.352 296.814C378.775 296.841 379.198 296.764 379.585 296.592C380.208 296.336 380.771 295.955 381.24 295.472Z" fill="white"/>
<path d="M381.728 289.436V292.043C381.728 292.154 381.728 292.276 381.728 292.387C381.43 293.041 380.985 293.618 380.429 294.074C380.045 294.352 379.581 294.499 379.107 294.495H378.785C378.617 294.475 378.456 294.412 378.318 294.313C378.18 294.214 378.07 294.082 377.996 293.929C377.497 293.009 378.119 291.145 378.53 290.113C379.973 286.819 380.605 283.227 380.373 279.639C380.373 279.007 380.44 278.619 380.44 278.596C380.454 278.451 380.522 278.317 380.632 278.22C380.741 278.123 380.883 278.071 381.028 278.075C381.206 278.559 381.343 279.056 381.439 279.562C381.439 280.383 381.306 281.204 381.228 282.025C381.073 283.6 380.884 285.176 380.584 286.74C380.507 287.162 380.862 286.995 380.773 287.417C380.501 288.251 380.175 289.066 379.796 289.858C379.529 290.468 379.229 291.067 379.018 291.699C378.885 292.077 378.396 293.852 379.396 293.463C379.771 293.27 380.083 292.973 380.295 292.609C380.395 292.454 380.495 292.298 380.584 292.132C380.908 291.53 381.183 290.903 381.406 290.257C381.539 289.991 381.639 289.713 381.728 289.436Z" fill="white"/>
<path d="M299.842 101.246V129.538C299.842 129.95 299.678 130.345 299.387 130.636C299.095 130.927 298.7 131.091 298.287 131.091H269.489C269.391 130.877 269.235 130.694 269.039 130.563C268.843 130.431 268.614 130.357 268.378 130.348C268.143 130.336 267.91 130.389 267.702 130.5C267.495 130.61 267.321 130.775 267.2 130.977C267.079 131.178 267.016 131.409 267.016 131.644C267.015 131.879 267.079 132.11 267.2 132.311C267.321 132.513 267.494 132.678 267.702 132.789C267.909 132.9 268.143 132.952 268.378 132.941C268.613 132.93 268.84 132.855 269.036 132.724C269.232 132.594 269.388 132.413 269.489 132.201H298.287C298.993 132.198 299.67 131.916 300.169 131.417C300.668 130.919 300.95 130.243 300.953 129.538V101.246H299.842Z" fill="#9C7BEB"/>
<path opacity="0.4" d="M299.842 101.246V129.538C299.842 129.95 299.678 130.345 299.387 130.636C299.095 130.927 298.7 131.091 298.287 131.091H269.489C269.391 130.877 269.235 130.694 269.039 130.563C268.843 130.431 268.614 130.357 268.378 130.348C268.143 130.336 267.91 130.389 267.702 130.5C267.495 130.61 267.321 130.775 267.2 130.977C267.079 131.178 267.016 131.409 267.016 131.644C267.015 131.879 267.079 132.11 267.2 132.311C267.321 132.513 267.494 132.678 267.702 132.789C267.909 132.9 268.143 132.952 268.378 132.941C268.613 132.93 268.84 132.855 269.036 132.724C269.232 132.594 269.388 132.413 269.489 132.201H298.287C298.993 132.198 299.67 131.916 300.169 131.417C300.668 130.919 300.95 130.243 300.953 129.538V101.246H299.842Z" fill="white"/>
<path d="M325.642 107.071V64.944C325.642 63.2957 324.305 61.9595 322.655 61.9595H278.13C276.48 61.9595 275.142 63.2957 275.142 64.944V107.071C275.142 108.719 276.48 110.055 278.13 110.055H322.655C324.305 110.055 325.642 108.719 325.642 107.071Z" fill="#9C7BEB"/>
<path opacity="0.4" d="M325.642 107.071V64.944C325.642 63.2957 324.305 61.9595 322.655 61.9595H278.13C276.48 61.9595 275.142 63.2957 275.142 64.944V107.071C275.142 108.719 276.48 110.055 278.13 110.055H322.655C324.305 110.055 325.642 108.719 325.642 107.071Z" fill="white"/>
<path opacity="0.2" d="M296.599 82.7733H290.125V89.2416H296.599V82.7733Z" fill="white"/>
<path opacity="0.2" d="M317.69 89.7963H311.215V96.2646H317.69V89.7963Z" fill="white"/>
<path opacity="0.2" d="M289.569 75.7392H283.094V82.2074H289.569V75.7392Z" fill="white"/>
<path opacity="0.2" d="M310.66 89.7963H304.185V96.2646H310.66V89.7963Z" fill="white"/>
<path opacity="0.2" d="M303.63 89.7963H297.155V96.2646H303.63V89.7963Z" fill="white"/>
<path opacity="0.2" d="M310.66 82.7733H304.185V89.2416H310.66V82.7733Z" fill="white"/>
<path opacity="0.2" d="M325.098 82.7733H318.257V89.2416H325.098V82.7733Z" fill="white"/>
<path opacity="0.2" d="M296.599 75.7392H290.125V82.2074H296.599V75.7392Z" fill="white"/>
<path opacity="0.2" d="M317.69 82.7733H311.215V89.2416H317.69V82.7733Z" fill="white"/>
<path opacity="0.2" d="M289.569 82.7733H283.094V89.2416H289.569V82.7733Z" fill="white"/>
<path opacity="0.2" d="M289.569 89.7963H283.094V96.2646H289.569V89.7963Z" fill="white"/>
<path opacity="0.2" d="M303.63 82.7733H297.155V89.2416H303.63V82.7733Z" fill="white"/>
<path opacity="0.2" d="M325.098 89.7963H318.257V96.2646H325.098V89.7963Z" fill="white"/>
<path opacity="0.2" d="M296.599 62.5142H290.125V68.1726H296.599V62.5142Z" fill="white"/>
<path opacity="0.2" d="M317.69 62.5142H311.215V68.1726H317.69V62.5142Z" fill="white"/>
<path opacity="0.2" d="M303.63 62.5142H297.155V68.1726H303.63V62.5142Z" fill="white"/>
<path opacity="0.2" d="M310.66 62.5142H304.185V68.1726H310.66V62.5142Z" fill="white"/>
<path opacity="0.2" d="M296.599 89.7963H290.125V96.2646H296.599V89.7963Z" fill="white"/>
<path opacity="0.2" d="M318.257 103.842V109.501H322.699C323.342 109.498 323.958 109.24 324.412 108.785C324.866 108.33 325.12 107.713 325.12 107.071V103.842H318.257Z" fill="white"/>
<path opacity="0.2" d="M317.69 96.8193H311.215V103.288H317.69V96.8193Z" fill="white"/>
<path opacity="0.2" d="M289.569 62.5142H283.094V68.1726H289.569V62.5142Z" fill="white"/>
<path opacity="0.2" d="M310.66 96.8193H304.185V103.288H310.66V96.8193Z" fill="white"/>
<path opacity="0.2" d="M303.63 96.8193H297.155V103.288H303.63V96.8193Z" fill="white"/>
<path opacity="0.2" d="M296.599 96.8193H290.125V103.288H296.599V96.8193Z" fill="white"/>
<path opacity="0.2" d="M289.569 96.8193H283.094V103.288H289.569V96.8193Z" fill="white"/>
<path opacity="0.2" d="M289.569 103.842H283.094V109.501H289.569V103.842Z" fill="white"/>
<path opacity="0.2" d="M325.098 96.8193H318.257V103.288H325.098V96.8193Z" fill="white"/>
<path opacity="0.2" d="M282.539 82.7733H275.698V89.2416H282.539V82.7733Z" fill="white"/>
<path opacity="0.2" d="M282.539 89.7963H275.698V96.2646H282.539V89.7963Z" fill="white"/>
<path opacity="0.2" d="M303.63 103.842H297.155V109.501H303.63V103.842Z" fill="white"/>
<path opacity="0.2" d="M282.539 96.8193H275.698V103.288H282.539V96.8193Z" fill="white"/>
<path opacity="0.2" d="M296.599 103.842H290.125V109.501H296.599V103.842Z" fill="white"/>
<path opacity="0.2" d="M282.539 68.1615V62.5142H278.096C277.465 62.5315 276.865 62.7936 276.423 63.245C275.982 63.6964 275.733 64.3018 275.731 64.9329V68.1615H282.539Z" fill="white"/>
<path opacity="0.2" d="M282.539 103.842H275.731V107.093C275.731 107.737 275.987 108.355 276.443 108.811C276.899 109.267 277.518 109.523 278.163 109.523H282.605L282.539 103.842Z" fill="white"/>
<path opacity="0.2" d="M318.256 68.1615H325.087V64.9329C325.084 64.2923 324.828 63.6788 324.374 63.2259C323.921 62.7729 323.307 62.5171 322.666 62.5142H318.223L318.256 68.1615Z" fill="white"/>
<path opacity="0.2" d="M310.66 103.842H304.185V109.501H310.66V103.842Z" fill="white"/>
<path opacity="0.2" d="M317.69 103.842H311.215V109.501H317.69V103.842Z" fill="white"/>
<path opacity="0.2" d="M303.63 68.7162H297.155V75.1844H303.63V68.7162Z" fill="white"/>
<path opacity="0.2" d="M289.569 68.7162H283.094V75.1844H289.569V68.7162Z" fill="white"/>
<path opacity="0.2" d="M325.098 75.7392H318.257V82.2074H325.098V75.7392Z" fill="white"/>
<path opacity="0.2" d="M296.599 68.7162H290.125V75.1844H296.599V68.7162Z" fill="white"/>
<path opacity="0.2" d="M310.66 75.7392H304.185V82.2074H310.66V75.7392Z" fill="white"/>
<path opacity="0.2" d="M317.69 75.7392H311.215V82.2074H317.69V75.7392Z" fill="white"/>
<path opacity="0.2" d="M282.539 75.7392H275.698V82.2074H282.539V75.7392Z" fill="white"/>
<path opacity="0.2" d="M282.539 68.7162H275.698V75.1844H282.539V68.7162Z" fill="white"/>
<path opacity="0.2" d="M325.098 68.7162H318.257V75.1844H325.098V68.7162Z" fill="white"/>
<path opacity="0.2" d="M303.63 75.7392H297.155V82.2074H303.63V75.7392Z" fill="white"/>
<path opacity="0.2" d="M310.66 68.7162H304.185V75.1844H310.66V68.7162Z" fill="white"/>
<path opacity="0.2" d="M317.69 68.7162H311.215V75.1844H317.69V68.7162Z" fill="white"/>
<path d="M285.726 85.8022C285.726 85.8022 292.279 93.5685 300.375 93.5685C308.472 93.5685 315.013 85.8022 315.013 85.8022C315.013 85.8022 308.461 78.0358 300.375 78.0358C292.29 78.0358 285.726 85.8022 285.726 85.8022Z" stroke="white" stroke-linecap="round" stroke-linejoin="round"/>
<path d="M305.495 84.6927C305.498 85.703 305.199 86.6913 304.639 87.5323C304.078 88.3733 303.281 89.0291 302.347 89.4168C301.413 89.8044 300.385 89.9064 299.392 89.7099C298.4 89.5133 297.489 89.027 296.774 88.3126C296.059 87.5982 295.572 86.6878 295.375 85.6967C295.178 84.7057 295.281 83.6786 295.669 82.7456C296.057 81.8126 296.713 81.0156 297.555 80.4557C298.397 79.8957 299.386 79.598 300.398 79.6002C301.75 79.6002 303.046 80.1367 304.002 81.0918C304.958 82.0468 305.495 83.3421 305.495 84.6927Z" stroke="white" stroke-miterlimit="10"/>
<path d="M300.964 82.4515C300.962 82.1241 301.057 81.8034 301.237 81.5301C301.418 81.2568 301.676 81.0432 301.978 80.9164C302.28 80.7895 302.613 80.7552 302.935 80.8177C303.257 80.8803 303.552 81.0368 303.785 81.2676C304.018 81.4983 304.176 81.7929 304.241 82.1138C304.306 82.4348 304.274 82.7678 304.149 83.0705C304.024 83.3732 303.812 83.632 303.539 83.8142C303.267 83.9963 302.947 84.0936 302.619 84.0936C302.182 84.0936 301.763 83.9209 301.453 83.6133C301.143 83.3057 300.967 82.8881 300.964 82.4515Z" stroke="white" stroke-miterlimit="10"/>
<path d="M300.398 78.0247V72.8102" stroke="white" stroke-linecap="round" stroke-linejoin="round"/>
<path d="M304.94 78.402L306.806 74.1638" stroke="white" stroke-linecap="round" stroke-linejoin="round"/>
<path d="M309.305 80.3324L311.915 77.237" stroke="white" stroke-linecap="round" stroke-linejoin="round"/>
<path d="M312.803 82.7178L315.324 81.0425" stroke="white" stroke-linecap="round" stroke-linejoin="round"/>
<path d="M295.844 78.402L293.978 74.1638" stroke="white" stroke-linecap="round" stroke-linejoin="round"/>
<path d="M291.479 80.3324L288.869 77.237" stroke="white" stroke-linecap="round" stroke-linejoin="round"/>
<path d="M287.981 82.7178L285.46 81.0425" stroke="white" stroke-linecap="round" stroke-linejoin="round"/>
<path d="M224.909 132.844C224.675 132.851 224.448 132.923 224.253 133.05C224.057 133.177 223.9 133.355 223.798 133.565H194.267C193.561 133.568 192.884 133.85 192.385 134.348C191.886 134.847 191.604 135.523 191.601 136.228V166.506C191.601 166.918 191.437 167.313 191.146 167.604C190.854 167.895 190.459 168.059 190.046 168.059H178.185V169.168H190.046C190.752 169.166 191.429 168.884 191.928 168.385C192.427 167.887 192.709 167.211 192.712 166.506V136.228C192.712 135.816 192.876 135.421 193.167 135.13C193.459 134.838 193.854 134.675 194.267 134.675H223.731C223.827 134.888 223.979 135.071 224.171 135.205C224.363 135.34 224.587 135.419 224.82 135.437C225.054 135.454 225.287 135.408 225.497 135.304C225.706 135.199 225.883 135.04 226.01 134.844C226.136 134.647 226.207 134.42 226.215 134.186C226.223 133.953 226.168 133.721 226.055 133.517C225.942 133.312 225.776 133.141 225.574 133.023C225.373 132.904 225.143 132.843 224.909 132.844Z" fill="#9C7BEB"/>
<path opacity="0.4" d="M224.909 132.844C224.675 132.851 224.448 132.923 224.253 133.05C224.057 133.177 223.9 133.355 223.798 133.565H194.267C193.561 133.568 192.884 133.85 192.385 134.348C191.886 134.847 191.604 135.523 191.601 136.228V166.506C191.601 166.918 191.437 167.313 191.146 167.604C190.854 167.895 190.459 168.059 190.046 168.059H178.185V169.168H190.046C190.752 169.166 191.429 168.884 191.928 168.385C192.427 167.887 192.709 167.211 192.712 166.506V136.228C192.712 135.816 192.876 135.421 193.167 135.13C193.459 134.838 193.854 134.675 194.267 134.675H223.731C223.827 134.888 223.979 135.071 224.171 135.205C224.363 135.34 224.587 135.419 224.82 135.437C225.054 135.454 225.287 135.408 225.497 135.304C225.706 135.199 225.883 135.04 226.01 134.844C226.136 134.647 226.207 134.42 226.215 134.186C226.223 133.953 226.168 133.721 226.055 133.517C225.942 133.312 225.776 133.141 225.574 133.023C225.373 132.904 225.143 132.843 224.909 132.844Z" fill="white"/>
<path d="M175.197 143.384H133.027C131.377 143.384 130.039 144.72 130.039 146.369V190.848C130.039 192.496 131.377 193.832 133.027 193.832H175.197C176.847 193.832 178.185 192.496 178.185 190.848V146.369C178.185 144.72 176.847 143.384 175.197 143.384Z" fill="#9C7BEB"/>
<path opacity="0.4" d="M175.197 143.384H133.027C131.377 143.384 130.039 144.72 130.039 146.369V190.848C130.039 192.496 131.377 193.832 133.027 193.832H175.197C176.847 193.832 178.185 192.496 178.185 190.848V146.369C178.185 144.72 176.847 143.384 175.197 143.384Z" fill="white"/>
<path opacity="0.2" d="M157.349 172.397H150.875V178.865H157.349V172.397Z" fill="white"/>
<path opacity="0.2" d="M164.38 151.328H157.905V157.796H164.38V151.328Z" fill="white"/>
<path opacity="0.2" d="M150.308 179.431H143.833V185.899H150.308V179.431Z" fill="white"/>
<path opacity="0.2" d="M164.38 158.351H157.905V164.819H164.38V158.351Z" fill="white"/>
<path opacity="0.2" d="M164.38 165.374H157.905V171.842H164.38V165.374Z" fill="white"/>
<path opacity="0.2" d="M157.349 158.351H150.875V164.819H157.349V158.351Z" fill="white"/>
<path opacity="0.2" d="M157.349 143.939H150.875V150.773H157.349V143.939Z" fill="white"/>
<path opacity="0.2" d="M150.308 172.397H143.833V178.865H150.308V172.397Z" fill="white"/>
<path opacity="0.2" d="M157.349 151.328H150.875V157.796H157.349V151.328Z" fill="white"/>
<path opacity="0.2" d="M157.349 179.431H150.875V185.899H157.349V179.431Z" fill="white"/>
<path opacity="0.2" d="M164.38 179.431H157.905V185.899H164.38V179.431Z" fill="white"/>
<path opacity="0.2" d="M157.349 165.374H150.875V171.842H157.349V165.374Z" fill="white"/>
<path opacity="0.2" d="M164.38 143.939H157.905V150.773H164.38V143.939Z" fill="white"/>
<path opacity="0.2" d="M136.259 172.397H130.595V178.865H136.259V172.397Z" fill="white"/>
<path opacity="0.2" d="M136.259 151.328H130.595V157.796H136.259V151.328Z" fill="white"/>
<path opacity="0.2" d="M136.259 165.374H130.595V171.842H136.259V165.374Z" fill="white"/>
<path opacity="0.2" d="M136.259 158.351H130.595V164.819H136.259V158.351Z" fill="white"/>
<path opacity="0.2" d="M164.38 172.397H157.905V178.865H164.38V172.397Z" fill="white"/>
<path opacity="0.2" d="M171.966 150.773H177.63V146.335C177.63 145.691 177.373 145.073 176.917 144.617C176.461 144.162 175.843 143.906 175.197 143.906H171.966V150.773Z" fill="white"/>
<path opacity="0.2" d="M171.41 151.328H164.935V157.796H171.41V151.328Z" fill="white"/>
<path opacity="0.2" d="M136.259 179.431H130.595V185.899H136.259V179.431Z" fill="white"/>
<path opacity="0.2" d="M171.41 158.351H164.935V164.819H171.41V158.351Z" fill="white"/>
<path opacity="0.2" d="M171.41 165.374H164.935V171.842H171.41V165.374Z" fill="white"/>
<path opacity="0.2" d="M171.41 172.397H164.935V178.865H171.41V172.397Z" fill="white"/>
<path opacity="0.2" d="M171.41 179.431H164.935V185.899H171.41V179.431Z" fill="white"/>
<path opacity="0.2" d="M177.63 179.431H171.966V185.899H177.63V179.431Z" fill="white"/>
<path opacity="0.2" d="M171.41 143.939H164.935V150.773H171.41V143.939Z" fill="white"/>
<path opacity="0.2" d="M157.349 186.454H150.875V193.289H157.349V186.454Z" fill="white"/>
<path opacity="0.2" d="M164.38 186.454H157.905V193.289H164.38V186.454Z" fill="white"/>
<path opacity="0.2" d="M177.63 165.374H171.966V171.842H177.63V165.374Z" fill="white"/>
<path opacity="0.2" d="M171.41 186.454H164.935V193.289H171.41V186.454Z" fill="white"/>
<path opacity="0.2" d="M177.63 172.397H171.966V178.865H177.63V172.397Z" fill="white"/>
<path opacity="0.2" d="M136.248 186.454H130.595V190.892C130.598 191.533 130.854 192.146 131.307 192.599C131.761 193.052 132.375 193.308 133.016 193.311H136.248V186.454Z" fill="white"/>
<path opacity="0.2" d="M171.966 186.454V193.277H175.197C175.841 193.277 176.458 193.023 176.913 192.57C177.369 192.116 177.627 191.501 177.63 190.859V186.421L171.966 186.454Z" fill="white"/>
<path opacity="0.2" d="M136.248 150.773V143.939H133.016C132.373 143.942 131.757 144.199 131.303 144.655C130.849 145.11 130.595 145.726 130.595 146.369V150.807L136.248 150.773Z" fill="white"/>
<path opacity="0.2" d="M177.63 158.351H171.966V164.819H177.63V158.351Z" fill="white"/>
<path opacity="0.2" d="M177.63 151.328H171.966V157.796H177.63V151.328Z" fill="white"/>
<path opacity="0.2" d="M143.278 165.374H136.803V171.842H143.278V165.374Z" fill="white"/>
<path opacity="0.2" d="M143.278 179.431H136.803V185.899H143.278V179.431Z" fill="white"/>
<path opacity="0.2" d="M150.308 143.939H143.833V150.773H150.308V143.939Z" fill="white"/>
<path opacity="0.2" d="M143.278 172.397H136.803V178.865H143.278V172.397Z" fill="white"/>
<path opacity="0.2" d="M150.308 158.351H143.833V164.819H150.308V158.351Z" fill="white"/>
<path opacity="0.2" d="M150.308 151.328H143.833V157.796H150.308V151.328Z" fill="white"/>
<path opacity="0.2" d="M150.308 186.454H143.833V193.289H150.308V186.454Z" fill="white"/>
<path opacity="0.2" d="M143.278 186.454H136.803V193.289H143.278V186.454Z" fill="white"/>
<path opacity="0.2" d="M143.278 143.939H136.803V150.773H143.278V143.939Z" fill="white"/>
<path opacity="0.2" d="M150.308 165.374H143.833V171.842H150.308V165.374Z" fill="white"/>
<path opacity="0.2" d="M143.278 158.351H136.803V164.819H143.278V158.351Z" fill="white"/>
<path opacity="0.2" d="M143.278 151.328H136.803V157.796H143.278V151.328Z" fill="white"/>
<path d="M154.107 185.4C150.99 185.397 148.002 184.16 145.797 181.96C143.592 179.759 142.351 176.775 142.345 173.662V163.566C142.345 160.449 143.584 157.461 145.79 155.258C147.996 153.054 150.987 151.816 154.107 151.816C157.226 151.816 160.218 153.054 162.423 155.258C164.629 157.461 165.868 160.449 165.868 163.566V173.662C165.862 176.775 164.621 179.759 162.416 181.96C160.211 184.16 157.223 185.397 154.107 185.4ZM154.107 152.937C151.285 152.94 148.579 154.06 146.583 156.052C144.586 158.045 143.462 160.747 143.456 163.566V173.662C143.456 176.484 144.578 179.19 146.575 181.185C148.573 183.181 151.282 184.302 154.107 184.302C156.931 184.302 159.641 183.181 161.638 181.185C163.635 179.19 164.758 176.484 164.758 173.662V163.566C164.752 160.747 163.627 158.045 161.631 156.052C159.634 154.06 156.929 152.94 154.107 152.937Z" fill="white"/>
<path d="M159.415 167.238C160.102 167.238 160.659 166.483 160.659 165.552C160.659 164.62 160.102 163.865 159.415 163.865C158.728 163.865 158.171 164.62 158.171 165.552C158.171 166.483 158.728 167.238 159.415 167.238Z" fill="white"/>
<path d="M150.042 165.552C150.042 166.472 149.486 167.227 148.798 167.227C148.109 167.227 147.554 166.472 147.554 165.552C147.554 164.631 148.109 163.865 148.798 163.865C149.486 163.865 150.042 164.62 150.042 165.552Z" fill="white"/>
<path d="M154.173 167.227L151.83 173.229H154.173V167.227Z" fill="white"/>
<path d="M153.684 177.39C152.625 177.445 151.566 177.279 150.575 176.902L151.052 175.903C151.052 175.903 153.04 176.78 157.283 175.903L157.516 177.012C156.256 177.273 154.971 177.399 153.684 177.39Z" fill="white"/>
<path d="M476.731 69.6927H355.729C352.582 69.6927 350.031 72.2409 350.031 75.3843V196.262C350.031 199.405 352.582 201.954 355.729 201.954H476.731C479.878 201.954 482.429 199.405 482.429 196.262V75.3843C482.429 72.2409 479.878 69.6927 476.731 69.6927Z" fill="#9C7BEB"/>
<path opacity="0.5" d="M463.037 151.217H369.423C366.583 151.217 364.281 153.517 364.281 156.354V173.462C364.281 176.299 366.583 178.599 369.423 178.599H463.037C465.877 178.599 468.18 176.299 468.18 173.462V156.354C468.18 153.517 465.877 151.217 463.037 151.217Z" fill="white"/>
<path d="M382.85 164.919L385.882 166.561L384.572 168.836L381.451 167.005L381.506 170.333H378.897V166.938L375.831 168.769L374.576 166.561L377.608 164.919L374.576 163.255L375.909 160.969L378.974 162.811V159.416H381.584L381.529 162.811L384.594 160.969L385.96 163.255L382.85 164.919Z" fill="white"/>
<path d="M400.853 164.919L403.885 166.561L402.531 168.836L399.465 167.005V170.334H396.855V166.939L393.801 168.769L392.457 166.495L395.489 164.853L392.457 163.188L393.801 160.903L396.855 162.745V159.35H399.465V162.745L402.531 160.903L403.885 163.188L400.853 164.919Z" fill="white"/>
<path d="M418.868 164.919L421.9 166.561L420.534 168.836L417.479 167.005L417.535 170.334H414.914V166.939L411.849 168.769L410.516 166.495L413.548 164.853L410.516 163.188L411.849 160.903L414.914 162.745V159.35H417.535L417.479 162.745L420.534 160.903L421.9 163.188L418.868 164.919Z" fill="white"/>
<path d="M436.882 164.919L439.914 166.561L438.548 168.836L435.483 167.005L435.538 170.334H432.928V166.939L429.874 168.769L428.541 166.495L431.573 164.853L428.541 163.188L429.874 160.903L432.928 162.745V159.35H435.538L435.483 162.745L438.548 160.903L439.914 163.188L436.882 164.919Z" fill="white"/>
<path d="M454.885 164.919L457.873 166.561L456.518 168.836L453.497 167.005L453.552 170.333H450.942V166.938L447.877 168.836L446.533 166.561L449.565 164.919L446.533 163.255L447.877 160.969L450.931 162.811V159.416H453.541L453.486 162.811L456.551 160.969L457.906 163.255L454.885 164.919Z" fill="white"/>
<path opacity="0.5" d="M437.215 131.588C448.809 120.006 448.809 101.229 437.215 89.6473C425.622 78.0658 406.825 78.0658 395.231 89.6473C383.638 101.229 383.638 120.006 395.231 131.588C406.825 143.169 425.622 143.169 437.215 131.588Z" fill="white"/>
<path d="M427.886 108.957H404.674C404.255 108.956 403.84 109.037 403.453 109.197C403.065 109.356 402.713 109.591 402.417 109.887C402.121 110.182 401.886 110.534 401.726 110.921C401.567 111.308 401.485 111.723 401.487 112.141V126.265C401.487 127.11 401.822 127.919 402.42 128.517C403.018 129.114 403.829 129.449 404.674 129.449H427.886C428.731 129.449 429.542 129.114 430.14 128.517C430.738 127.919 431.074 127.11 431.074 126.265V112.141C431.075 111.723 430.994 111.308 430.834 110.921C430.674 110.534 430.44 110.182 430.143 109.887C429.847 109.591 429.495 109.356 429.108 109.197C428.72 109.037 428.305 108.956 427.886 108.957ZM418.412 124.678H414.148L415.036 118.898C414.464 118.617 414.004 118.152 413.731 117.576C413.458 117.001 413.388 116.351 413.532 115.731C413.677 115.111 414.027 114.558 414.526 114.162C415.025 113.766 415.643 113.551 416.28 113.551C416.917 113.551 417.536 113.766 418.035 114.162C418.534 114.558 418.884 115.111 419.028 115.731C419.172 116.351 419.102 117.001 418.829 117.576C418.556 118.152 418.096 118.617 417.524 118.898L418.412 124.678Z" fill="#9C7BEB"/>
<path d="M409.539 106.694L409.106 104.475C408.733 102.617 409.115 100.687 410.166 99.1095C411.218 97.5323 412.854 96.4372 414.714 96.065C416.574 95.6927 418.506 96.0739 420.085 97.1247C421.664 98.1754 422.76 99.8096 423.133 101.668L423.566 103.831L427.664 103.01L427.22 100.791C426.953 99.3103 426.394 97.8971 425.574 96.6346C424.755 95.3721 423.691 94.2856 422.446 93.4387C421.201 92.5917 419.799 92.0013 418.323 91.7021C416.847 91.4028 415.325 91.4007 413.848 91.6958C412.371 91.9909 410.968 92.5773 409.72 93.4208C408.473 94.2642 407.406 95.3478 406.583 96.608C405.76 97.8682 405.197 99.2797 404.926 100.76C404.655 102.24 404.683 103.76 405.007 105.229L405.441 107.448L409.539 106.694Z" fill="#9C7BEB"/>
<path opacity="0.2" d="M432.773 188.462H399.676C399.287 188.462 398.914 188.308 398.639 188.033C398.365 187.759 398.21 187.386 398.21 186.998C398.213 186.611 398.369 186.242 398.643 185.969C398.918 185.697 399.289 185.544 399.676 185.544H432.773C433.16 185.544 433.531 185.697 433.805 185.969C434.08 186.242 434.236 186.611 434.239 186.998C434.239 187.386 434.084 187.759 433.809 188.033C433.534 188.308 433.161 188.462 432.773 188.462Z" fill="black"/>
<path d="M323.143 187.852L334.516 178.2C334.516 178.2 344.201 167.948 346.244 167.726C348.288 167.504 352.697 168.381 353.863 169.845C355.029 171.31 346.289 180.829 344.234 182.582C342.179 184.335 338.081 184.047 338.081 184.047L327.242 194.509L323.143 187.852Z" fill="#EBB376"/>
<path d="M235.404 445.606H224.409C224.231 445.611 224.059 445.675 223.92 445.787C223.782 445.899 223.684 446.054 223.643 446.228L221.854 454.282C221.782 454.629 221.85 454.991 222.043 455.288C222.237 455.586 222.54 455.794 222.887 455.869H223.176C226.73 455.813 229.329 455.591 233.794 455.591C236.548 455.591 244.844 455.88 248.643 455.88C252.441 455.88 252.941 452.13 251.386 451.786C244.411 450.266 239.169 448.169 236.948 446.161C236.523 445.786 235.971 445.588 235.404 445.606Z" fill="#263238"/>
<path d="M282.028 445.329H271.033C270.853 445.33 270.68 445.392 270.54 445.505C270.401 445.618 270.304 445.775 270.266 445.95L268.478 453.994C268.406 454.341 268.474 454.703 268.667 455C268.861 455.297 269.164 455.506 269.511 455.58H269.8C273.365 455.525 275.953 455.303 280.418 455.303C283.172 455.303 291.468 455.591 295.267 455.591C299.065 455.591 299.565 451.841 298.01 451.498C291.035 449.978 285.793 447.881 283.572 445.872C283.145 445.502 282.593 445.307 282.028 445.329Z" fill="#263238"/>
<path d="M229.573 242.028H277.608C282.173 266.936 295.233 367.765 284.982 446.316L268.945 448.069C268.945 448.069 271.455 327.358 257.106 288.804C255.451 309.44 253.485 331.385 251.786 343.068C247.61 371.826 238.192 446.749 238.192 446.749L221.932 447.193C221.932 447.193 225.497 374.511 227.052 346.23C228.774 315.575 229.507 248.319 229.573 242.028Z" fill="#263238"/>
<path opacity="0.2" d="M229.573 242.028H277.608C282.173 266.936 295.233 367.765 284.982 446.316L268.945 448.069C268.945 448.069 271.455 327.358 257.106 288.804C255.451 309.44 253.485 331.385 251.786 343.068C247.61 371.826 238.192 446.749 238.192 446.749L221.932 447.193C221.932 447.193 225.497 374.511 227.052 346.23C228.774 315.575 229.507 248.319 229.573 242.028Z" fill="white"/>
<path opacity="0.2" d="M257.106 288.804C259.469 295.562 261.263 302.505 262.47 309.562C263.814 291.2 258.438 271.729 258.438 271.729L257.106 288.804Z" fill="black"/>
<path d="M273.221 159.006C280.806 159.927 295.744 194.376 301.453 197.449C307.161 200.522 329.796 181.206 329.796 181.206L335.504 188.229C335.504 188.229 309.805 215.667 299.698 212.638C289.591 209.609 275.264 183.669 270.922 175.548C266.579 167.427 273.221 159.006 273.221 159.006Z" fill="#9C7BEB"/>
<path opacity="0.5" d="M335.505 188.229C335.505 188.229 309.805 215.656 299.698 212.638C295.256 211.295 290.08 205.604 285.26 198.947C280.006 191.453 275.221 183.643 270.933 175.559C269.996 173.708 269.488 171.67 269.446 169.596C269.403 167.522 269.828 165.465 270.689 163.577C271.337 161.964 272.192 160.443 273.232 159.05C280.817 159.971 295.755 194.431 301.464 197.505C307.173 200.578 329.807 181.262 329.807 181.262L335.505 188.229Z" fill="white"/>
<path opacity="0.2" d="M285.249 198.891C279.995 191.398 275.211 183.587 270.922 175.504C269.985 173.652 269.477 171.614 269.435 169.54C269.393 167.466 269.817 165.409 270.678 163.521C274.998 168.836 283.783 181.595 285.249 198.891Z" fill="black"/>
<path d="M273.221 159.006C273.221 159.006 242.668 157.563 219.911 163.299C219.911 163.299 228.441 229.324 228.063 258.082L282.483 255.153C282.483 255.153 281.162 188.673 273.221 159.006Z" fill="#9C7BEB"/>
<path opacity="0.6" d="M228.063 258.082C228.241 244.713 226.486 223.289 224.565 204.184C223.831 196.894 223.076 189.938 222.343 183.902C220.955 171.754 219.867 163.31 219.867 163.31C242.623 157.574 273.176 159.017 273.176 159.017C281.117 188.684 282.495 255.164 282.495 255.164L228.063 258.082Z" fill="white"/>
<path opacity="0.2" d="M224.564 204.173C223.831 196.883 223.076 189.927 222.343 183.891L225.842 181.206C225.842 181.206 228.929 193.233 224.564 204.173Z" fill="black"/>
<path opacity="0.2" d="M272.821 230.245L269.834 230.39L261.726 230.767L256.75 231L246.388 231.488C246.388 231.488 246.388 230.978 246.333 230.046C246.244 228.037 246.066 224.065 245.766 219.062C245.555 215.334 245.267 211.029 244.911 206.525C244.656 203.418 244.378 200.223 244.056 197.061C243.578 192.368 243.023 187.73 242.368 183.558C242.024 181.339 241.646 179.22 241.257 177.312L267.035 175.637C267.035 175.637 267.368 177.268 267.868 180.075C268.201 181.916 268.601 184.268 269.034 187.02C271.358 201.316 272.623 215.763 272.821 230.245Z" fill="black"/>
<path opacity="0.2" d="M261.726 230.789L256.75 231.022C260.293 222.024 261.681 209.343 259.305 205.393C256.084 200.045 252.13 210.297 249.309 222.59C248.78 225.242 247.763 227.774 246.31 230.057C246.221 228.048 246.044 224.077 245.744 219.073C247.334 216.437 248.534 213.586 249.309 210.607C253.274 196.706 256.795 194.22 261.326 197.871C265.502 201.21 266.724 217.409 261.726 230.789Z" fill="black"/>
<path opacity="0.2" d="M269.833 230.412C270.844 218.618 269.289 198.747 265.824 192.634C261.859 185.622 253.107 185.467 248.898 198.181C247.974 201.149 246.632 203.969 244.911 206.558C244.656 203.451 244.378 200.256 244.056 197.094C245.24 195.613 246.299 194.036 247.221 192.379C252.019 183.891 259.438 179.942 266.768 184.879C267.625 185.493 268.375 186.242 268.989 187.098C271.324 201.367 272.605 215.788 272.821 230.245L269.833 230.412Z" fill="black"/>
<path opacity="0.2" d="M267.857 180.119C262.092 175.77 254.307 176.946 249.331 181.062C247.431 182.78 244.928 183.677 242.368 183.558C242.024 181.339 241.646 179.22 241.257 177.312L267.035 175.637C267.035 175.637 267.357 177.268 267.857 180.119Z" fill="black"/>
<path d="M237.748 161.014C242.135 164.997 252.885 163.521 252.885 163.521C252.885 163.521 259.549 161.691 258.183 159.594C254.229 158.939 252.319 157.097 251.519 154.745C251.08 153.283 250.944 151.746 251.12 150.23C251.182 149.384 251.293 148.544 251.453 147.711L238.125 137.881C239.913 144.372 242.046 156.31 237.748 161.014Z" fill="#EBB376"/>
<path opacity="0.2" d="M241.235 144.128C241.768 152.094 248.321 154.29 251.53 154.745C251.091 153.283 250.955 151.746 251.131 150.23L241.235 144.128Z" fill="black"/>
<path d="M260.66 117.245C260.66 117.245 264.369 129.227 258.561 134.919C252.752 140.61 249.331 117.788 249.331 117.788L260.66 117.245Z" fill="#263238"/>
<path d="M241.113 147.489C242.78 149.305 244.998 150.523 247.427 150.956C249.855 151.389 252.358 151.013 254.551 149.886C257.42 148.487 259.644 146.046 260.771 143.062C260.929 142.648 261.066 142.226 261.182 141.798C263.259 133.832 262.292 120.573 253.641 116.845C251.73 116.015 249.638 115.687 247.564 115.893C245.491 116.098 243.504 116.83 241.793 118.018C240.082 119.207 238.705 120.813 237.79 122.683C236.876 124.554 236.456 126.627 236.57 128.706C236.915 137.604 236.693 142.863 241.113 147.489Z" fill="#EBB376"/>
<path d="M250.053 131.502C249.987 132.212 250.409 132.822 250.886 132.822C251.364 132.822 251.753 132.245 251.775 131.524C251.797 130.803 251.408 130.204 250.942 130.204C250.475 130.204 250.076 130.736 250.053 131.502Z" fill="#263238"/>
<path d="M258.261 131.635C258.194 132.345 258.627 132.955 259.094 132.955C259.56 132.955 259.96 132.378 259.982 131.657C260.005 130.936 259.616 130.337 259.149 130.337C258.683 130.337 258.283 130.947 258.261 131.635Z" fill="#263238"/>
<path d="M255.651 131.934C256.463 134.173 257.584 136.286 258.983 138.214C258.475 138.559 257.898 138.789 257.291 138.889C256.685 138.988 256.065 138.955 255.473 138.791L255.651 131.934Z" fill="#D58745"/>
<path d="M247.554 128.761C247.632 128.774 247.712 128.766 247.786 128.739C247.86 128.712 247.925 128.666 247.976 128.606C248.296 128.178 248.712 127.831 249.19 127.592C249.669 127.353 250.196 127.229 250.731 127.23C250.844 127.239 250.956 127.204 251.043 127.131C251.131 127.059 251.186 126.955 251.197 126.842C251.202 126.786 251.195 126.731 251.178 126.678C251.161 126.625 251.134 126.576 251.098 126.534C251.061 126.491 251.017 126.457 250.968 126.431C250.918 126.406 250.864 126.391 250.808 126.387C250.133 126.367 249.462 126.509 248.853 126.803C248.244 127.096 247.715 127.532 247.31 128.073C247.24 128.159 247.207 128.269 247.217 128.379C247.228 128.489 247.281 128.59 247.366 128.661C247.424 128.702 247.488 128.736 247.554 128.761Z" fill="#263238"/>
<path d="M261.848 128.872C261.927 128.899 262.013 128.899 262.092 128.872C262.143 128.85 262.19 128.819 262.229 128.779C262.267 128.739 262.298 128.692 262.319 128.641C262.339 128.589 262.35 128.534 262.349 128.479C262.348 128.423 262.336 128.368 262.314 128.317C262.043 127.696 261.626 127.148 261.098 126.722C260.57 126.295 259.948 126.001 259.282 125.865C259.172 125.85 259.06 125.878 258.97 125.945C258.881 126.011 258.821 126.11 258.805 126.221C258.792 126.33 258.821 126.441 258.888 126.53C258.954 126.618 259.051 126.679 259.16 126.698C259.683 126.82 260.169 127.064 260.58 127.409C260.991 127.754 261.315 128.19 261.526 128.684C261.563 128.736 261.611 128.78 261.667 128.812C261.722 128.845 261.784 128.865 261.848 128.872Z" fill="#263238"/>
<path d="M243.334 117.722L243.923 121.627C243.268 121.964 242.764 122.534 242.511 123.225C242.258 123.915 242.274 124.676 242.557 125.355C243.911 128.684 242.179 133.798 239.702 135.906C239.702 135.906 239.58 134.486 238.381 134.852C237.181 135.218 237.714 142.619 240.18 146.158C237.047 142.924 234.808 138.933 233.683 134.575C231.628 127.397 231.839 122.071 233.249 119.231L243.334 117.722Z" fill="#263238"/>
<path d="M256.151 140.966C255.779 141.996 255.486 143.053 255.273 144.128C255.081 144.139 254.888 144.139 254.696 144.128C252.075 144.017 250.897 143.096 250.386 142.108C250.15 141.621 250.032 141.085 250.042 140.544C250.04 140.236 250.081 139.93 250.164 139.634C251.746 140.43 253.481 140.873 255.251 140.932C255.806 140.966 256.151 140.966 256.151 140.966Z" fill="#263238"/>
<path d="M255.251 140.91L254.973 141.842C252.508 141.72 250.786 141.309 250.042 140.522C250.04 140.214 250.081 139.908 250.164 139.612C251.746 140.408 253.481 140.851 255.251 140.91Z" fill="white"/>
<path d="M254.695 144.105C252.074 143.994 250.897 143.074 250.386 142.086C251.383 142.151 252.361 142.391 253.274 142.796C253.875 143.071 254.373 143.529 254.695 144.105Z" fill="#DE5753"/>
<path d="M249.209 120.152C249.495 119.763 249.907 119.486 250.375 119.366C250.842 119.247 251.337 119.293 251.774 119.497C253.651 120.041 255.306 121.927 257.239 124.323C259.171 126.72 262.992 126.731 263.902 125.311C264.813 123.891 263.025 121.905 263.025 121.905C263.025 121.905 264.669 112.796 254.729 110.71C244.789 108.624 239.558 113.018 239.558 113.018C239.558 113.018 231.306 113.295 230.673 120.917C230.458 124.013 230.645 127.123 231.228 130.17C231.228 130.17 229.007 132.955 233.183 132.789C237.925 132.6 243.623 130.026 243.9 125.422C244.178 120.817 249.209 120.152 249.209 120.152Z" fill="#263238"/>
<path d="M232.528 135.94C233.478 137.973 235.195 139.548 237.303 140.322C240.102 141.321 241.746 138.869 241.124 136.117C240.568 133.665 238.469 130.126 235.571 130.337C232.672 130.547 231.395 133.41 232.528 135.94Z" fill="#EBB376"/>
<path d="M219.911 163.299C211.948 165.618 200.819 219.75 202.285 226.773C203.751 233.796 231.717 263.385 231.717 263.385L239.491 257.494C239.491 257.494 215.724 223.877 215.435 216.854C215.146 209.831 225.975 183.791 225.975 183.791C225.975 183.791 225.686 175.015 224.509 170.622C223.683 167.804 222.091 165.269 219.911 163.299Z" fill="#9C7BEB"/>
<path opacity="0.5" d="M219.911 163.299C211.948 165.618 200.819 219.75 202.285 226.773C203.751 233.796 231.717 263.385 231.717 263.385L239.491 257.494C239.491 257.494 215.724 223.877 215.435 216.854C215.146 209.831 225.975 183.791 225.975 183.791C225.975 183.791 225.686 175.015 224.509 170.622C223.683 167.804 222.091 165.269 219.911 163.299Z" fill="white"/>
</svg>
